<?xml version="1.0" encoding="utf-8"?>
<!-- Generator: Adobe Illustrator 23.0.0, SVG Export Plug-In . SVG Version: 6.00 Build 0)  -->
<svg version="1.1" id="레이어_1" xmlns="http://www.w3.org/2000/svg" xmlns:xlink="http://www.w3.org/1999/xlink" x="0px"
	 y="0px" viewBox="0 0 1000 1000" style="enable-background:new 0 0 1000 1000;" xml:space="preserve">
<style type="text/css">
	.st0{fill:#FFFFFF;}
</style>
<path class="st0" d="M253.3,348.9c-20.6,2-36.6,6.7-55.6,16.5c-6.1,3.2-18.1,10.8-22.2,14.2c-19,15.7-31.8,31.1-41.9,50.6
	c-10.3,19.8-16.5,45.7-16.5,68.7c0,24.5,5.4,46.9,16.6,69.6c3.6,7.2,14.3,23.7,17.2,26.4c0.3,0.3,2,2.2,3.7,4.3
	c13.2,15.7,33.9,30.8,53.5,39.2c28,12,59.8,15.1,89.4,8.9c13.2-2.8,32.8-10.2,41.7-15.7c1.7-1,3.1-1.9,3.2-1.9
	c0.7,0,11.7-7.7,16.5-11.4c6.7-5.3,14.8-13,20.2-19.1c3.3-3.7,11.7-14.9,13.5-17.7c0.3-0.6-4.8-0.6-26.3-0.3l-26.7,0.4l-6,4.7
	c-8.7,6.7-17.4,12-24.2,14.6c-1.1,0.5-2.5,1-3.2,1.3c-14.7,6.2-35.9,8.9-52.7,6.7c-24.1-3.2-44.4-13-61.7-29.8
	c-15.4-15-25.4-32.3-30.1-51.7c-2.8-11.7-3-14-3-28.8c0.1-15.1,0.5-18.4,3.5-28.7c0.8-2.8,1.8-6.2,2.2-7.7c1-3.7,5.4-13.2,8.2-18.1
	c5.9-10.1,15.6-22,22.7-27.8c14.6-11.9,25.2-17.8,40.2-22.2c6.6-2,7.8-2.2,13.8-3.3c16.4-2.8,35.1-1.3,51.5,4.2
	c12.8,4.3,22,9.3,32.6,17.8l5.7,4.5l26.5-0.1L392,417l-4.5-6.3c-2.5-3.5-5.8-7.8-7.3-9.5c-3.9-4.7-19.3-19.6-20.1-19.6
	c-0.4,0-0.8-0.2-0.9-0.5c-0.5-1.3-11-8.5-20.5-14.1c-8.8-5.1-24.3-11.2-36.4-14.2C285.8,348.5,270.3,347.3,253.3,348.9L253.3,348.9z
	 M527.6,429.6l-17.6,0.2l-0.3,1.6c-0.2,0.9-0.5,2.5-0.7,3.7l-0.3,2.2h10.7c8.2,0,10.7,0.2,10.7,0.7c0,0.4-0.8,4.5-1.7,9.1
	c-1,4.6-2,9.9-2.3,11.8s-1.4,8-2.5,13.5s-2.3,11.7-2.6,13.6c-0.3,2-0.7,4.3-0.9,5.2c-0.2,0.9-0.5,2.8-0.7,4.3l-0.5,2.8h3.9
	c2.1,0,4.1-0.3,4.3-0.6c0.4-0.6,1.2-4.5,4.6-22.1c1.2-6,2.6-13.4,3.2-16.4s1.5-7.7,2-10.4c0.5-2.7,1.2-6.4,1.6-8.2l0.7-3.3h21.5
	l0.3-2.2c0.2-1.2,0.5-3,0.7-4l0.4-1.8l-8.3,0.1C549,429.5,537.3,429.6,527.6,429.6L527.6,429.6z M566.9,431.4
	c-0.3,1.2-0.7,3.1-0.9,4l-0.3,1.9h10.9c10.2,0,10.9,0.1,10.7,1c-0.1,0.6-0.6,2.6-0.9,4.5c-0.3,1.9-0.9,4.5-1.2,5.8s-0.9,4.5-1.4,7.2
	c-0.9,5.1-4,21.5-6.4,34.2c-0.8,4-1.4,7.5-1.4,7.6s1.9,0.2,4.3,0.2h4.3l0.3-2.2c0.8-4.4,4.5-23.8,6.7-34.9
	c1.3-6.3,2.7-13.7,3.2-16.4c1.3-7.5,0.7-6.9,6.4-7c2.8-0.1,7.6-0.2,10.8-0.5l5.7-0.3l0.5-2.3c0.2-1.3,0.6-2.9,0.7-3.6l0.3-1.3h-51.8
	L566.9,431.4z M625,444.6c-6.6,33.7-9.8,51.3-9.8,52.4c0,0.6,4.6,0.7,21.2,0.7h21.2l0.7-3.3c0.4-1.8,0.7-3.7,0.7-4
	c0-0.5-4.3-0.7-17-0.7h-17l0.3-1.3c0.2-0.7,1.1-5.7,2.1-11.1c1.2-6.7,2.1-10,2.7-10.5c0.7-0.5,4.8-0.7,16-0.7h15.1l0.3-1.8
	c0.2-1,0.3-2.4,0.3-3.2v-1.4h-30.7l0.3-2.8c0.2-1.5,0.6-3.9,0.9-5.3c0.3-1.4,1-5.1,1.5-8.1c0.6-3,1.2-5.6,1.3-5.9
	c0.2-0.2,7.9-0.5,17.2-0.5c19.2,0,17.2,0.6,18.1-5.2l0.5-2.9H628L625,444.6z M682.9,429.9c-0.5,1.7-7.2,36.7-9,46.8
	c-0.9,5-3.4,18-3.8,19.5l-0.3,1.5h8.5l1.9-9.7c1-5.3,2.4-12.1,3.1-15.3l1.2-5.6l6.9,0.2l7,0.2l6,14.8l6.1,14.9h4.5
	c2.4,0,4.4-0.2,4.4-0.3c0-0.2-1-2.9-2.4-6.2c-3.4-8.5-3.5-8.7-4-9.6c-1.4-2.8-5.9-13.9-5.7-14c0.1-0.1,2.1-0.7,4.3-1.4
	c9.4-3,15.3-10.7,15.3-20c0.1-6.7-3.4-11.6-10.3-14.8c-2.6-1.2-3.7-1.3-18.2-1.4C686.2,429.2,683.1,429.3,682.9,429.9L682.9,429.9z
	 M712.2,437.4c3.7,1.4,6,4.7,6,8.6c0,5.7-3,10.4-8.2,12.6c-2.7,1.2-4.2,1.4-13.5,1.6c-10,0.2-10.5,0.2-10.5-0.8
	c0-0.6,0.9-5.9,2.1-11.9l2.1-10.8l7-0.2C705.5,436.3,709.9,436.6,712.2,437.4L712.2,437.4z"/>
<path class="st0" d="M331.6,434.6c-1.6,2.6-4.4,7.3-6.3,10.5s-6.4,10.6-10.1,16.5c-3.6,5.9-10.1,16.3-14.3,23.1
	c-4.1,6.8-7.8,12.8-7.9,13.2c-0.3,0.8,0.3,0.9,4.3,0.9h4.6l4.3-7.1l4.3-7l16.2-0.2l16.2-0.1l0.3,1.3c0.5,2.2,2,9.3,2.4,11.2l0.3,1.9
	h4.5c3.1,0,4.5-0.2,4.5-0.7c0-0.3-0.4-2.2-0.8-4.1c-0.5-2-1.6-6.5-2.4-10.1s-2-8.7-2.6-11.2s-1.8-8.1-2.8-12.4s-2.2-9.8-2.8-12.4
	c-0.6-2.5-1.8-7.7-2.6-11.4l-1.6-6.7h-2.4C334.5,429.8,334.5,429.9,331.6,434.6L331.6,434.6z M336.5,455.5c3.1,14.3,4.1,18.8,4.2,20
	c0.1,1.1-0.3,1.2-11.9,1.3c-6.6,0.1-12.3-0.1-12.6-0.3C315.7,476,333,447,333.9,447C334.3,447.1,335.4,450.8,336.5,455.5
	L336.5,455.5z M460,430.5c-0.1,0.4-0.9,4.3-1.7,8.5c-2.6,14.3-6.7,35.4-7.2,37.7c-0.3,1.3-1,4.6-1.5,7.5c-0.5,2.8-1.3,7-1.8,9.3
	s-0.8,4.3-0.8,4.5s9.7,0.3,21.5,0.3H490l0.3-2.5c0.2-1.3,0.5-3.1,0.7-4l0.3-1.6h-34.2l0.3-2.5c0.2-1.3,0.6-3.5,0.9-4.7
	c0.3-1.3,0.9-4.8,1.4-7.8s1-6,1.2-6.8l0.2-1.3H493l0.6-2.5c1.2-4.8,2.5-4.4-14.9-4.4c-14.7,0-15.5-0.1-15.5-1c0-0.6,0.9-5.6,2-11.1
	s2-10.1,2-10.2s7.7-0.2,17.1-0.3l17.1-0.2l0.7-3.5c0.4-1.9,0.7-3.6,0.7-3.9c0-0.2-9.6-0.4-21.3-0.4C465,429.8,460.2,430,460,430.5
	L460,430.5z M398.3,433.4c-0.6,2.9-5,25.2-7.9,40.8c-0.7,4-2.1,10.7-2.9,14.9c-0.8,4.2-1.4,8.1-1.4,8.5c0,0.7,2.6,0.8,17.7,0.6
	l17.7-0.2l3.9-1.8c8.2-3.9,13.1-11.2,13.1-19.6c0-5.4-2.8-10.1-7.4-12.5c-2.2-1.2-2.2-1.7-0.2-2.9c2.2-1.5,4.3-3.9,6.2-7.3
	c1.4-2.5,1.6-3.6,1.6-7.6c0-7.7-3-12.2-9.7-14.7c-2.9-1.1-4.4-1.2-16.6-1.2H399L398.3,433.4z M425.2,438.4c2.9,1.4,4.6,4.2,4.6,7.8
	c0,6.2-3.7,12.3-8.3,13.5c-2.1,0.6-19.9,0.9-19.9,0.4c0-0.1,0.9-5.1,2-11.1c1.1-5.9,2-11,2-11.3c0-0.5,7.9-0.9,13.5-0.5
	C421.4,437.4,424.1,437.9,425.2,438.4z M425,468.7c2.8,2.1,4.2,4.7,4.2,8c0,5.7-2.5,10.2-7.2,12.8c-2.8,1.6-3,1.6-14.5,1.8
	c-7.2,0.1-11.7,0-11.7-0.3s0.7-4,1.5-8.2c0.8-4.3,1.7-9,2-10.5c1-5.6-0.3-5.1,12.6-4.9C422.5,467.5,423.5,467.6,425,468.7z
	 M712.6,517.4c-3.9,0.7-10.4,4-12.2,6.1c-4.1,4.7-5.9,10.2-5.8,18.6c0.1,16.2,7.5,24,23.9,25.1c15.6,1,25.3-4.3,29.2-16.2
	c1-3.1,1-15.3-0.1-18.4c-1.3-4-2.2-5.8-4.6-8.4c-2.8-3.2-7-5.5-12-6.6C726.8,516.7,716.6,516.6,712.6,517.4L712.6,517.4z
	 M729.8,528.4c4.1,1.8,5.7,4.4,6.6,10.9c0.5,3.6-0.6,10.4-2.2,12.7c-0.7,1-2.5,2.5-4.1,3.3c-2.4,1.2-3.6,1.4-8.6,1.4
	c-8.6-0.1-11.9-1.8-13.9-7.6c-1-3.1-1.2-11.2-0.2-13.9c1.4-4.1,4.1-6.6,8.5-7.5C719,526.9,727.5,527.5,729.8,528.4L729.8,528.4z
	 M882.5,517.2c-0.7,0.1-2.6,1.7-4.2,3.5l-3,3.3l-2.9-3.3c-2-2.1-3.5-3.3-4.3-3.3c-1.3,0-1.3,0.1-1.3,7.8v7.8h3.4l0.2-5.1l0.2-5
	l2.2,2.4l2.3,2.4l2.6-2.4l2.6-2.4l0.2,5l0.2,5.1h3.4v-8.1c0-4.4-0.1-8-0.1-8C883.8,516.9,883.2,517,882.5,517.2L882.5,517.2z
	 M510.6,518.5c-5.4,1.4-8.1,2.8-11.1,5.8c-4.4,4.4-6,9.5-6,18.4c0,9.2,1.5,13.6,6.3,18.5c5,5.1,11.3,7,22.1,6.7
	c10-0.3,13.9-1.7,18.8-6.5c4.1-4.1,5.8-7.5,6.6-14.1c1.8-13.2-3.6-24.4-13.3-27.8C527.1,517,517.6,516.6,510.6,518.5L510.6,518.5z
	 M525.5,528.3c4.3,0.9,6,1.9,7.8,4.6c1.3,2,1.6,3,1.8,8.2c0.3,6.9-0.4,10-2.8,12.8c-2.2,2.5-6.1,3.7-11.7,3.7c-7,0-11.3-2-13.5-6.2
	c-2-3.8-1.8-14.1,0.2-18.1C509.5,529,517.7,526.7,525.5,528.3L525.5,528.3z M642.4,517.7l-19.7,0.2v23.6h11.8V528l17.3-0.2
	c9.5-0.1,18.1,0,19.2,0.2c3.2,0.6,4.7,2.6,4.7,6.2c0,2.6-0.2,3.3-1.5,4.5c-1.4,1.4-1.7,1.4-13.5,1.6l-12,0.2v10.3H669l4.5,8.1
	l4.5,8.1l5.9-0.3c3.2-0.2,5.9-0.3,5.9-0.5c0.1-0.1-1.4-2.7-3.3-5.9c-4.7-7.8-6.3-10.6-6.3-11.4c0-0.4,1-1.6,2.1-2.7
	c3.3-3.2,4.8-7,4.8-12.1c0-6.4-2.1-10.5-7-13.5C675.7,517.6,673.5,517.4,642.4,517.7L642.4,517.7z M751.1,517.7c0,0.2,1.6,4,3.5,8.5
	c5,11.5,5.7,13.1,6.6,15c0.4,0.9,3.1,6.9,5.9,13.2l5.2,11.5l6.9,0.2l6.9,0.2l1.4-3.1c0.8-1.7,2.9-7,4.8-11.9c1.9-4.9,3.7-9,4-9.1
	s1,0.6,1.4,1.7c0.4,1,2.6,6.4,4.8,12l4.1,10.1h14.2l1.8-4.3c1-2.4,2.4-5.6,3.1-7.1c0.7-1.6,2.9-6.7,5-11.5c2-4.8,5.3-12.5,7.4-17.2
	l3.7-8.5h-12.3l-3.4,8.2c-1.8,4.5-5.2,12.8-7.5,18.5c-2.3,5.6-4.4,10.5-4.8,10.9c-0.7,0.7-0.6,0.9-4.1-8.5c-1.2-3.2-4.3-11-6.9-17.4
	l-4.8-11.6h-5.4c-3,0-5.4,0.2-5.4,0.5s0.8,2.4,1.7,4.6l1.8,4.1l-5.3,13.7c-6.2,16.1-5.9,15.4-6.7,14.4c-0.4-0.4-3.1-6.6-5.9-13.7
	c-2.9-7.1-5.5-13.5-5.8-14.1s-1.3-3-2.2-5.2l-1.7-4l-6.1-0.2C753.8,517.4,751.1,517.4,751.1,517.7L751.1,517.7z M852.4,518.4
	c0,0.9,0.5,1.2,2.2,1.3l2.1,0.2l0.2,6.4c0.2,6.4,0.2,6.5,1.6,6.5c1.4,0,1.4-0.1,1.6-6.5l0.2-6.4l2.2-0.2c1.7-0.2,2.1-0.4,2.1-1.3
	c0-1-0.5-1.1-6-1.1S852.4,517.4,852.4,518.4z M354.4,518.5c-13.1,2.1-19.6,10.4-19.6,24.8c0,17.7,9.3,25.9,28.8,25.2
	c10.8-0.4,16.6-2.9,21-8.9c3.3-4.7,4.1-7.5,4.1-16.3c-0.1-6.7-0.2-8.2-1.3-11c-2.6-6.6-7.2-10.8-13.9-12.9
	C369.6,518.2,358.9,517.7,354.4,518.5L354.4,518.5z M369.5,529.5c2.7,0.8,5.4,3.4,6.3,6.1c0.4,1.2,0.7,4.7,0.8,7.9
	c0,7.3-1.4,10.7-5.4,12.9c-4.9,2.6-16.1,2.2-20-0.8c-3.1-2.4-3.9-4.9-4-12.1c0-5.7,0.2-6.7,1.4-9.2c1.6-3.2,4-4.7,8.5-5.5
	C360.3,528.3,366.4,528.6,369.5,529.5L369.5,529.5z M552.3,518.3c-0.5,0.5-0.5,18.7-0.1,21.6l0.4,2.2H564v-13.8l15.1-0.1
	c23.5-0.2,23.6-0.2,25.6,3.9c0.8,1.7,0.8,2.4,0.2,4.3c-1.2,4-2.1,4.3-15.4,4.5l-11.7,0.2v9.7h20.1l2,3.3c1.1,1.8,2.9,5.1,4.1,7.4
	c1.2,2.2,2.4,4.4,2.7,4.7c0.4,0.5,2.5,0.7,6.6,0.7h6l-1.9-3.3c-1-1.8-2.3-4.1-2.8-5c-0.5-1-1.8-3.3-3.1-5.2c-1.2-2-2.1-3.8-2.1-4.1
	s0.9-1.4,2.1-2.5c7.5-7.2,6.4-21.3-1.8-26c-4.5-2.5-7.3-2.8-32.8-2.8C563.6,517.9,552.4,518.1,552.3,518.3L552.3,518.3z M397.6,543
	v24.4h12.1v-17.8c0-13.9,0.2-17.8,0.7-17.8c0.3,0,3.6,4.6,7.3,10.2c3.6,5.6,8.8,13.6,11.5,17.8l5,7.6l6.9,0.1h6.9l3.5-5.4
	c1.8-2.9,5.7-8.9,8.5-13.4c7.9-12.5,11.3-17.6,12-17.6c0.3,0,0.5,7.3,0.5,18.1v18.1h12.1v-48.9h-18.1l-1.4,2
	c-0.7,1.1-1.8,2.7-2.3,3.6c-2.5,4.3-3.7,6.1-9.7,15.3c-3.6,5.4-6.5,10-6.5,10.1c0,0.9-4.9,7.7-5.5,7.7c-0.5,0-1.6-1.2-2.4-2.8
	c-0.9-1.5-4.5-7.3-8.2-12.8c-3.6-5.5-8.5-13-10.8-16.6l-4.2-6.5l-8.9,0.1l-8.9,0.1V543H397.6z M292.2,524.8v5.8h11.4
	c6.2,0,14.6-0.2,18.7-0.4l7.3-0.3v-10.8h-37.4V524.8z M304.9,552.7V568H317v-30.5h-12.1V552.7z"/>
</svg>
