<?xml version="1.0" encoding="utf-8"?>
<!-- Generator: Adobe Illustrator 23.0.0, SVG Export Plug-In . SVG Version: 6.00 Build 0)  -->
<svg version="1.1" id="레이어_1" xmlns="http://www.w3.org/2000/svg" xmlns:xlink="http://www.w3.org/1999/xlink" x="0px"
	 y="0px" viewBox="0 0 1000 1000" style="enable-background:new 0 0 1000 1000;" xml:space="preserve">
<style type="text/css">
	.st0{fill-rule:evenodd;clip-rule:evenodd;}
	.st1{fill-rule:evenodd;clip-rule:evenodd;fill:url(#SVGID_1_);}
</style>
<g>
	<g>
		<g>
			<path id="_x34_2302b53-1cfb-4a74-9e02-b7be13fd71b7" class="st0" d="M817.6,494.9c11,0,15.5,6.5,16,12.5c0,0.5-0.5,0.5-0.5,0.5
				l0,0h-30.5c-0.5,0-0.5-0.5-0.5-0.5l0,0C802.6,501.9,807.6,494.9,817.6,494.9z M834.1,532.5c-0.5,0-1,0-1,0.5c-3,4-7,6.5-14,6.5
				c-9,0-17-6-18-14.5c0-0.5,0.5-0.5,0.5-0.5l0,0h54.6c0-0.5,0.5-4,0.5-7.5c0-25.5-15-40.5-40-40.5c-20.5,0-39.5,16.5-39.5,41.5
				c0,26.5,19.5,42.1,41.5,42.1c20,0,32.5-11,36.5-24.5c0,0,0-0.5,0.5-1.5c0.5-1-0.5-1.5-1-1.5c0,0,0,0-0.5,0H834.1L834.1,532.5z
				 M882.7,516.9l-26-37c-0.5-0.5-0.5-1.5,0.5-2l0.5-0.5h25.5c0.5,0,1,0,1,0.5l13.5,20.5c0.5,0.5,1,0.5,1,0l13-20
				c0.5-0.5,0.5-0.5,1-0.5h24c1,0,1.5,1,1,2l-25.5,36c-0.5,0.5-0.5,1,0,1.5c8.5,12,18,25.5,26.5,37.5c0.5,1,0,2-1,2h-25.5
				c-0.5,0-1,0-1-0.5L897.7,536c0-0.5-0.5-0.5-1,0l0,0c-4,6-9.5,14.5-13.5,21c-0.5,0.5-0.5,0.5-1,0.5h-23.5c-0.5,0-1.5-0.5-1.5-1.5
				c0-0.5,0-0.5,0.5-1l25.5-36.5C883.2,517.9,883.2,517.4,882.7,516.9L882.7,516.9z M745.5,556V443.4c0-0.5,0.5-1.5,1.5-1.5h22
				c0.5,0,1.5,0.5,1.5,1.5V556c0,0.5-0.5,1.5-1.5,1.5h-22C746,557.5,745.5,557,745.5,556L745.5,556z M709.4,556V443.4
				c0-0.5,0.5-1.5,1.5-1.5h21.5c0.5,0,1.5,0.5,1.5,1.5V556c0,0.5-0.5,1.5-1.5,1.5h-22C709.9,557.5,709.4,557,709.4,556L709.4,556z
				 M655.4,539c9.5,0,18-7.5,18-21c0-13.5-8-21-18-21c-10.5,0-18,7-18,21C637.4,531,645.4,539,655.4,539L655.4,539z M673.9,547
				c-3.5,7.5-11.5,12.5-21.5,12.5c-23.5,0-39.5-17.5-39.5-42.1c0-23.5,15-41.5,38.5-41.5c14,0,20.5,8,22,11.5v-8
				c0-0.5,0.5-1.5,1.5-1.5h21c0.5,0,1.5,0.5,1.5,1.5V556c0,0.5-0.5,1.5-1.5,1.5h-21c-0.5,0-1.5-0.5-1.5-1.5l0,0
				C673.9,553,673.9,546.5,673.9,547z M561.3,478.9l14.5,44.1c0,0.5,1,0.5,1,0l12.5-44.1c0-0.5,0.5-1,1.5-1h21c1,0,1.5,1,1.5,1.5
				l-24,76.6c0,0.5-0.5,1-1,1h-22c-0.5,0-1-0.5-1-1l-16.5-48.6c0-0.5-1-0.5-1,0l-16,48.6c0,0.5-0.5,1-1,1h-23c-0.5,0-1-0.5-1-1
				l-24-76.6c0-0.5,0-1.5,1-1.5h0.5h22.5c0.5,0,1,0.5,1.5,1l12.5,44.1c0,0.5,1,0.5,1,0l14.5-44.1c0-0.5,0.5-1,1-1h24
				C560.3,478.4,560.8,478.4,561.3,478.9L561.3,478.9z M474.7,500.4c0,0.5-0.5,1.5-1.5,1.5l0,0c-2-0.5-4-0.5-6-0.5
				c-9.5,0-18.5,6-18.5,21.5v33c0,0.5-0.5,1.5-1.5,1.5h-21.5c-0.5,0-1.5-0.5-1.5-1.5l0,0v-76.6c0-0.5,0.5-1.5,1.5-1.5h21
				c0.5,0,1.5,0.5,1.5,1.5v9.5c4-9,14-11.5,20.5-11.5c2,0,4,0,5.5,0.5c0.5,0,1,0.5,1,1.5C474.7,479.4,474.7,500.4,474.7,500.4z
				 M388.1,556v-76.6c0-0.5,0.5-1.5,1.5-1.5h21.5c0.5,0,1.5,0.5,1.5,1.5V556c0,0.5-0.5,1.5-1.5,1.5h-21.5
				C388.6,557.5,388.1,557,388.1,556L388.1,556z M400.1,439.9c8,0,14.5,6.5,14.5,14c0,8-6.5,14-14.5,14c-7.5,0-14-6.5-14-14
				C385.6,446.4,392.1,439.9,400.1,439.9z M310.5,511.4H336c0.5,0,1-0.5,0.5-1L324,473.9c0-0.5-0.5-0.5-1-0.5c0,0-0.5,0-0.5,0.5
				l-13,36.5C309.5,510.9,310,511.4,310.5,511.4L310.5,511.4z M344,534.5H302c-0.5,0-1,0.5-1,1l-7.5,21c0,0.5-0.5,1-1,1h-24
				c-0.5,0-1.5-0.5-1.5-1.5v-0.5l41.5-110.6c0-0.5,0.5-1,1-1H337c0.5,0,1,0.5,1,1l41.5,110.6c0.5,0.5,0,1.5-1,1.5h-0.5h-25
				c-0.5,0-1-0.5-1-1l-7.5-21C345,535,344.5,534.5,344,534.5z"/>
		</g>
		
			<linearGradient id="SVGID_1_" gradientUnits="userSpaceOnUse" x1="-695.4932" y1="752.0897" x2="-690.4872" y2="747.0837" gradientTransform="matrix(35.9616 0 0 -23.97 25058.5137 18477.5078)">
			<stop  offset="0" style="stop-color:#000000"/>
			<stop  offset="1" style="stop-color:#000000;stop-opacity:0.5"/>
		</linearGradient>
		<path class="st1" d="M236.4,486.9c6.5,6,8.5,15.5,5.5,24l-11.5,32c-3,8.5-10,15-19,16.5c-9,1.5-18-1.5-23.5-8.5l-71.1-84.6
			c-0.5-0.5-1.5-1-2,0l-0.5,0.5l-23,62.1c-0.5,1.5,1,2.5,2,2l28-11.5c6.5-2.5,13.5,0.5,16,7c0,0.5,0,0.5,0.5,1
			c2,6.5-1.5,13.5-7.5,16l-36.5,15c-7,3-14.5,2.5-20.5-2c-8.5-6-12-16.5-8.5-26.5l27-73.1c3-8.5,10.5-15,19.5-16.5
			c9-1.5,18,1.5,24,9l40.5,48.6l37-15C220.9,478.9,229.9,480.4,236.4,486.9z M214.9,510.9c0.5-1.5-1-2.5-2-2l-20.5,8.5l12.5,14.5
			c0.5,0.5,1.5,1,2,0l0.5-0.5L214.9,510.9L214.9,510.9z"/>
	</g>
</g>
</svg>
