<?xml version="1.0" encoding="utf-8"?>
<!-- Generator: Adobe Illustrator 23.0.0, SVG Export Plug-In . SVG Version: 6.00 Build 0)  -->
<svg version="1.1" id="레이어_1" xmlns="http://www.w3.org/2000/svg" xmlns:xlink="http://www.w3.org/1999/xlink" x="0px"
	 y="0px" viewBox="0 0 1000 1000" style="enable-background:new 0 0 1000 1000;" xml:space="preserve">
<style type="text/css">
	.st0{fill-rule:evenodd;clip-rule:evenodd;}
</style>
<g id="g10" transform="matrix(1.3333333,0,0,-1.3333333,-13.42013,105.28743)">
	<path id="path16" class="st0" d="M726.3-307.9c-0.6,36.7-44.5,22.9-44.5,22.9c-7.8,5.4-18.7,1.8-18.7,1.8H636l-1.2-3.6
		c-10.8,6.6-38.5,3.6-38.5,3.6h-9l4.8,24.1l-37.3-19.3l-1.2-4.8h-7.2v-2.4c-24.7,8.4-42.1-5.4-42.1-5.4c-28.9,19.3-50,0.6-50,0.6
		c-8.4,12.6-29.5,6.6-29.5,6.6h-16.2l4.2,18.1h-33.1l-4.8-22.3c-7.8,8.4-24.7,4.8-24.7,4.8h-16.3l4.2,18.7h-15l42.9,17.1
		l-121.5-13.8v34.6l-59.2-43.8c-73.5-4.8-95.4-36.2-95.4-36.2c-56.3-47.6-0.3-42.7-0.3-42.7c28.3,2.4,82.6,25.8,82.6,25.8l73.9-25.4
		l-0.6,6.2c16.3-11.4,27.7-1.2,27.7-1.2l0.6-2.4h34.9l-4.8-18.7h33.7l4.2,19.3c7.8-4.8,20.5-1.2,20.5-1.2h86.7l0.6,6.6
		c26.5-16.3,48.2-1.8,48.2-1.8c30.1-14.4,50.6,3,50.6,3c5.4-14.4,36.7-6.6,36.7-6.6c20.4-4.8,22.9,2.4,22.9,2.4l0.6-3h46.9l3,12.6
		c9-18.7,39.1-13.8,39.1-13.8c39.7,12,19.9,38.5,19.9,38.5L726.3-307.9z M385.3-273H404l-2.7-12.8h-18.7L385.3-273z M238.9-333.7
		l-65.2,20.9C68.9-360.3,73-333.7,73-333.7c6.8,21.9,70.4,32.3,70.4,32.3c26.1,4.2,24,12.5,24,12.5c-2.1,5.7-30.8-9.4-30.8-9.4
		c-11,1.6-31.3-6.3-31.3-6.3c21.4,23.5,61,27.1,61,27.1c5.2,1,26.1,2.1,26.1,2.1l45.9,34.4v-27.7l87.6,10.4l-87.1-32.3L238.9-333.7z
		 M303.6-274.8l-3-14.4c-6,4.8-18.1,4.8-18.1,4.8L303.6-274.8z M296.8-339.9h-18c-0.4,1.9-0.6,3.8-0.6,5.5
		c-4.9-4.4-10.3-6.7-16.3-6.7c-6.1,0-10.5,1.4-13.2,4.3c-2.7,2.9-4,6.2-4,9.9c0,4.3,1.2,7.6,3.6,9.8c2.4,2.3,5.3,3.8,8.8,4.6
		c3.5,0.8,8.3,1.5,14.3,2.1c5.4,0.6,9,1.1,10.7,1.7c0.4,1.5,0.5,2.6,0.5,3.4c0,1.2-0.6,2.2-1.9,3c-1.2,0.7-2.9,1.1-5,1.1
		c-2.2,0-3.9-0.4-5.2-1.1c-1.3-0.7-2.5-2.2-3.5-4.5l-17,1.9c1.1,4.6,3.7,8.2,7.7,10.7c4,2.5,10.2,3.8,18.6,3.8
		c9.5,0,15.9-1.2,19.2-3.6c3.3-2.4,5-5.9,5-10.5c0-3-0.8-8.1-2.5-15.1c-1.6-6.6-2.3-11.2-2.3-13.8c0-1.8,0.3-3.7,0.8-5.6l14,65.8
		h18.7l-14.3-66.8H296.8z M352.7-341c-6.8,0-11.9,2.5-15.4,7.6l-5.4-25h-18.6l14.4,67H345l-0.9-4.9l0.2-0.2c2.6,2.4,5,4.1,7.1,4.9
		c2.1,0.8,4.6,1.3,7.6,1.3c5.4,0,9.6-1.8,12.5-5.4c2.9-3.6,4.3-8.5,4.3-14.7c0-8.2-2.2-15.4-6.5-21.5
		C364.9-337.9,359.4-341,352.7-341L352.7-341z M371-339.9l10.4,48.5H400l-10.4-48.5H371z M689.1-307.4c1-0.8,3.7-1.4,8.2-2.1
		c7.1-1.1,11.9-2.7,14.2-4.8c2.3-2.1,3.5-5,3.5-8.6c0-5-2.3-9.3-6.9-12.8c-4.6-3.5-11.7-5.3-21.1-5.3c-7.7,0-13.4,1.1-17,3.4
		c-3.6,2.2-5.7,5.9-6.3,11.1l18.3,1.6c0.8-3.9,3.4-5.8,7.7-5.8c2,0,3.8,0.4,5.4,1.3c1.6,0.9,2.3,2.2,2.3,3.8c0,1.5-0.6,2.5-1.7,3
		c-1.1,0.5-3.2,1-6.4,1.5c-7.2,1.1-12,2.8-14.6,5.1c-2.5,2.3-3.8,5.2-3.8,8.7c0,0.5,0,1,0.1,1.4c-1.3,0.3-2.5,0.4-3.6,0.4
		c-3.6,0-6.5-1.3-8.7-3.8c-2.2-2.6-4-6.7-5.2-12.3l-3.9-18.2h-17.6h-1h-17c-0.4,1.9-0.6,3.8-0.6,5.5c-4.9-4.4-10.3-6.7-16.3-6.7
		c-6.1,0-10.5,1.4-13.2,4.3c-1.9,2-3,4.2-3.6,6.6l-2.1-9.8c-5.6-0.8-9.7-1.1-12.4-1.1c-5.2,0-8.9,1.3-11.1,3.7
		c-2.2,2.5-3.3,5.2-3.3,8.2c0,1,0.4,3.6,1.3,7.8l3.5,16.6h-6.8l0.3,1.5l-15.1-1.6c-0.5,2.9-2.7,4.4-6.5,4.4c-2.2,0-3.9-0.4-5.1-1.2
		c-1.1-0.8-1.7-1.8-1.7-2.9c0-1.1,0.5-2.1,1.5-2.8c1-0.8,3.7-1.4,8.2-2.1c7.1-1.1,11.9-2.7,14.2-4.8c2.4-2.1,3.5-5,3.5-8.6
		c0-5-2.3-9.3-6.9-12.8S530.5-341,521-341c-7.7,0-13.4,1.1-17,3.4c-2.4,1.5-4,3.6-5.1,6.3c-2.3-2.8-4.9-5-8-6.5
		c-4.4-2.1-9.8-3.2-16.4-3.2c-9.6,0-16.4,2.2-20.4,6.5c-4,4.3-6.1,9.6-6.1,15.9c0,1.2,0.1,2.5,0.2,3.7l-5.3-24.9h-18.6l4.8,22.6
		c1.2,5.5,1.7,8.7,1.7,9.5c0,2.7-1.2,4-3.6,4c-2.7,0-5.1-1.3-7.1-3.9c-2-2.6-3.6-6.3-4.6-11.1l-4.5-21h-18.8l10.4,48.5h17.4
		l-1.6-7.3l0.2-0.2c5.1,5.7,11.3,8.6,18.7,8.6c4.4,0,7.6-1.1,9.8-3.4c2.2-2.2,3.3-5,3.3-8.3c0-1.6-0.4-4.7-1.3-9
		c0.4,1.5,1,3,1.7,4.4c1.9,3.8,4.5,7,7.7,9.6c3.2,2.6,6.4,4.3,9.6,5.2c3.1,0.9,6.8,1.3,11,1.3c9,0,15.5-2,19.5-5.9
		c3.9-3.9,5.9-8.8,5.9-14.5c0-1.9-0.4-5.1-1.2-9.8h-37.1c0.5-6.5,3.4-9.7,8.7-9.7c3.6,0,6.4,1.5,8.5,4.4l14.5-1.3
		c0,0.2-0.1,0.4-0.1,0.6l18.3,1.6c0.8-3.9,3.4-5.8,7.7-5.8c2,0,3.8,0.4,5.4,1.3c1.6,0.9,2.3,2.2,2.3,3.8c0,1.5-0.6,2.5-1.7,3
		c-1.1,0.5-3.2,1-6.4,1.5c-7.2,1.1-12,2.8-14.6,5.1c-2.5,2.3-3.8,5.2-3.8,8.7c0,2.8,1,5.6,2.9,8.3c1.9,2.7,4.8,4.9,8.7,6.4
		c3.9,1.6,8.6,2.4,14.3,2.4c6.5,0,11.4-1,14.9-2.9c2.3-1.3,4-3.2,5.2-5.7l1.5,7.4h6.9l1.6,7.5l20.8,10.3l-3.8-17.9h9.6l-2.8-13.3
		H575l-3.5-17.2c-0.3-0.7-0.5-1.5-0.5-2.3c0-2.2,1.5-3.2,4.4-3.2c0.8,0,2.4,0.2,4.7,0.6c0,0,0,0,0,0c0,4.3,1.2,7.6,3.6,9.8
		c2.4,2.3,5.3,3.8,8.8,4.6c3.5,0.8,8.3,1.5,14.3,2.1c5.4,0.6,9,1.1,10.7,1.7c0.4,1.5,0.5,2.6,0.5,3.4c0,1.2-0.6,2.2-1.9,3
		c-1.2,0.7-2.9,1.1-5,1.1c-2.2,0-3.9-0.4-5.2-1.1c-1.3-0.7-2.5-2.2-3.5-4.5l-17,1.9c1.1,4.6,3.7,8.2,7.7,10.7
		c4,2.5,10.2,3.8,18.6,3.8c9.5,0,15.9-1.2,19.2-3.6c3.3-2.4,5-5.9,5-10.5c0-3-0.8-8.1-2.5-15.1c-1.6-6.6-2.3-11.2-2.3-13.8
		c0-1.5,0.2-3,0.6-4.6l9.9,46.4h17.4l-2.1-9.5l0.2-0.2c2.9,4.3,5.4,7.1,7.6,8.6c2.2,1.5,4.6,2.2,7.2,2.2c2,0,4.1-0.5,6.4-1.5
		l-2.5-5.2c1.8,1.7,4.1,3.2,6.9,4.3c3.9,1.6,8.6,2.4,14.3,2.4c6.5,0,11.4-1,14.9-2.9c3.4-1.9,5.6-5.2,6.5-9.9l-17.4-1.9
		c-0.5,2.9-2.7,4.4-6.5,4.4c-2.2,0-3.9-0.4-5.1-1.2c-1.2-0.8-1.7-1.8-1.7-2.9C687.6-305.7,688.1-306.6,689.1-307.4L689.1-307.4z
		 M486.3-308.7c0,2.5-0.7,4.4-2.2,5.7c-1.5,1.3-3.3,1.9-5.5,1.9c-2.3,0-4.4-0.9-6.3-2.6c-1.9-1.7-3.4-4.3-4.4-7.8H486
		C486.2-310.8,486.3-309.9,486.3-308.7z M351.3-302.4c-3.4,0-6.1-1.9-7.9-5.8c-1.8-3.9-2.8-7.8-2.8-11.8c0-2.9,0.7-5,2.2-6.4
		c1.4-1.4,3.1-2.1,4.9-2.1c2.7,0,5,1.7,7,5.2c1.9,3.4,2.9,7.6,2.9,12.5c0,3-0.6,5.1-1.9,6.5C354.5-303,353-302.4,351.3-302.4z
		 M262.9-325.9c0-1.6,0.5-2.8,1.6-3.7c1.1-0.9,2.4-1.4,4.1-1.4c2.3,0,4.6,1,6.9,2.9c2.3,1.9,3.8,5.2,4.6,9.9
		c-8.5-1.4-13.5-2.7-15-3.8C263.6-323.1,262.9-324.4,262.9-325.9L262.9-325.9z M103.7-326.3c0,0,13.8-10,42.3,18.5
		C146-307.8,102.1-317.1,103.7-326.3z M598.3-325.9c0-1.6,0.5-2.8,1.6-3.7c1.1-0.9,2.4-1.4,4.1-1.4c2.3,0,4.6,1,6.9,2.9
		c2.3,1.9,3.8,5.2,4.6,9.9c-8.5-1.4-13.5-2.7-15-3.8C599-323.1,598.3-324.4,598.3-325.9"/>
</g>
</svg>
