<?xml version="1.0" encoding="utf-8"?>
<!-- Generator: Adobe Illustrator 23.0.0, SVG Export Plug-In . SVG Version: 6.00 Build 0)  -->
<svg version="1.1" id="레이어_1" xmlns="http://www.w3.org/2000/svg" xmlns:xlink="http://www.w3.org/1999/xlink" x="0px"
	 y="0px" viewBox="0 0 1000 1000" style="enable-background:new 0 0 1000 1000;" xml:space="preserve">
<style type="text/css">
	.st0{fill-rule:evenodd;clip-rule:evenodd;fill:#FFFFFF;}
</style>
<path class="st0" d="M264.3,373.2c1.3,0,2,0,2.7,0.7c0.7,0.3,1.3,1.3,2.3,3.4l0.3,156.9l0.7,2.3c0.3,1.3,1,3,1.3,3.7s1,2.3,1.7,3
	c0.7,1,1.7,2,2,2.7c0.7,0.7,1.7,1.3,2.3,1.7c0.7,0.3,2,1,3,1.3s3,0.7,4.4,1c2,0.3,3.7,0.3,5.7,0c1.7,0,4.7-0.7,6.4-1
	c1.7-0.3,4.4-1,6-1.7c2-0.7,3-0.7,4-0.7c0.7,0,1.7,0.3,2.3,0.7c0.7,0.3,1.3,1,1.7,1.7c0.3,0.7,1,3,1.7,5.4c0.7,2.3,1.3,5.4,1.3,6.4
	c0,1.7,0,2-0.7,3c-0.3,0.7-1.3,1.7-2,2c-0.7,0.7-3,1.3-5.4,2.3c-2.3,0.7-5,1.7-6.4,2c-1.3,0.3-4,1-5.7,1c-2.3,0.3-5.4,0.7-9.1,0.7
	c-3.4,0-6.7,0-8.4-0.3c-1.7,0-4-0.7-5.7-1c-1.3-0.3-4-1-5.7-1.7s-4-1.3-5.4-2c-1.3-0.7-3-1.7-4-2.3c-1-0.7-2.7-2-3.7-3.4
	c-1-1-2.3-2.7-3-3.7s-1.7-2.7-2-4c-0.7-1.3-1.3-3.4-1.7-4.7c-0.3-1.3-1-3.7-1.3-5c-0.3-1.7-0.7-4.4-0.7-6.7
	c-0.3-2.7-0.3-30.2-0.3-77.8c0-62.7,0-73.7,0.3-74.4c0.3-0.3,1.3-1.7,2.3-2.7s3-2.7,4-3.4c1.3-1,3-2.3,4.4-3c1.3-0.7,3.4-1.7,5-2.3
	C262,373.5,263,373.2,264.3,373.2z M367.9,382.2c0.7,0,1.3,0.3,1.7,0.3s1,0.7,1.3,1s1,1.3,1.3,2c0.3,1.3,0.3,5,0.3,48.3h16.1
	c14.1,0,16.4,0,17.1,0.7c0.7,0.3,1.3,1,2.3,2.3v7c0,6.7,0,7-0.7,8c-0.3,0.3-1,1-1.3,1.3c-0.7,0.7-1.3,0.7-17.4,0.7
	c-15.4,0-16.4,0-16.4,0.7c0,0.3-0.3,17.1-0.3,37.5c-0.3,25.8-0.3,38.2,0,39.9s0.3,3.7,0.7,4.7c0.3,1,0.7,2.7,1,3.4
	c0.3,1,1,2.3,1.3,3s1.7,2,2.3,2.7c0.7,0.7,2.3,1.7,3.4,2.3c1,0.3,2.7,1,4,1.3s3.4,0.3,5,0.3c1.7,0,4.4-0.3,6.7-0.7
	c2-0.3,5.4-1,7.4-1.7s4.4-1,4.7-1s1.7,0.3,2.3,0.3c0.7,0.3,1.3,1,2,1.7c0.3,0.7,1,1.7,1.3,2.3c0.3,0.7,0.7,2.7,1,4
	c0.3,1.7,1,3.7,1,4.7c0.3,1.3,0.3,2.3,0,3c0,0.7-0.7,1.7-1,2c-0.3,0.7-1.7,1.3-2.3,1.7c-1,0.3-3.4,1.3-5,2c-2,0.7-5,1.3-6.7,2
	c-1.7,0.3-5,1-7,1.3c-3,0.3-5.4,0.3-10.1,0.3c-3.7,0-7-0.3-8.7-0.7c-1.3-0.3-3.7-0.7-5.4-1.3c-1.3-0.3-3.7-1-5-1.7s-3.4-1.7-4.7-2.3
	s-3-2.3-4.4-3.4c-1-1-2.7-2.7-3.4-3.7s-2-2.7-2.7-4s-1.7-3.4-2-4.4c-0.3-1.3-1-3.4-1.3-4.7s-0.7-3.7-1-4.7
	c-0.3-1.3-0.3-6.4-0.3-11.1c0-5,0-21.5,0.3-39.6c0.3-16.8,0.7-31.8,0.7-36.5h-8.7c-8.4,0-8.7,0-9.7-0.7c-0.7-0.3-1.3-1-1.7-1.7
	c0,0.3,0-0.7,0-6.4c0-4,0-6.7,0.3-7.7c0.3-0.7,0.7-1.7,1-2s1-1,1.7-1.3c1-0.3,2-0.3,18.1-0.3l0.3-6c0-3.4,0.3-11.1,0.3-17.1
	s0.3-12.4,0.3-17.1l2.3-2.3c1.3-1.3,3.7-3,5-4s3.7-2.3,5-3s3.4-1.3,4.4-1.7C366.2,382.2,366.9,382.2,367.9,382.2z M133.3,426.5
	c5,0,9.7,0.3,12.1,0.7c2,0.3,5.4,0.7,7.4,1s4.4,0.7,5.4,1s4,1,6.4,1.7c2.7,0.7,6,1.7,7.7,2.3c1.7,0.7,4,1.3,5.7,2
	c1.3,0.7,3.4,1.7,4.4,2.3c1,0.7,2,1.7,2.7,2.3c0.3,0.7,1,2,1.3,2.7c0.3,1,0.3,13.7,0.3,50.3c0,33.9,0,49.3,0.3,50.3c0,1,0.7,2.3,1,3
	s1,1.3,1.7,1.7c1,0.7,1.7,0.7,4.4,0.7c2.3,0,4.4-0.3,7.7-1c3-0.7,5-1,5.7-0.7c0.7,0,1.7,0.3,2.3,0.7c0.7,0.3,1.3,1,2,1.3
	c0.3,0.7,1,1.3,1.3,2s1,2.7,1.3,5c0.7,2.3,1,4.7,1.3,6c0,1.3,0,2-0.3,3s-1,1.7-1.7,2.7c-0.7,0.7-2.3,1.7-3.4,2.3
	c-1.3,0.7-3.4,1.3-4.7,1.7s-3.7,1-5.4,1.3s-4.4,0.7-6,1c-2,0.3-4,0.3-6.7,0c-2,0-4.7-0.7-6-1s-3.4-1-4.4-1.3s-2.3-1-3-1.3
	s-1.7-1.3-2.7-2s-2.3-2.3-3.4-3.4c-1-1-2-3-2.3-4s-1-2-1.3-1.7c0,0-1.3,1-2.7,2c-1.3,1-3.7,2.7-5,3.4c-1.3,1-3.7,2.3-5.4,3
	s-4,2-5.7,2.3c-1.7,0.7-4.4,1.3-6,2c-1.7,0.3-4.7,1-6.7,1.3c-2.3,0.3-5.4,0.7-8.7,0.7c-3,0-6.4,0-7.7-0.3s-3.7-0.7-5.4-1
	c-1.3-0.3-3.7-1-5.4-1.3c-1.3-0.3-4-1.7-5.4-2.3c-2.3-1.3-4.7-3-5.7-3.7c-1-1-3-2.7-4-3.7c-1-1.3-2.7-3.4-3.7-4.7s-2-3.7-2.7-5
	s-1.3-3.7-1.7-4.7c-0.3-1.3-0.7-3.7-1-5.4c-0.3-2.7-0.3-5-0.3-10.4s0.3-7.4,0.7-9.7c0.3-1.7,1-4,1.3-5.4c0.3-1.3,1.3-3.4,2-4.7
	s1.7-3,2.3-4c0.7-1,2.3-3,4-4.7c1.3-1.3,3.7-3.4,5-4.4s3.7-2.3,5.4-3c1.7-0.7,4.4-1.7,5.7-2.3c1.3-0.3,4-1.3,5.7-1.7
	c1.7-0.3,4-1,5.7-1s4-0.7,5.4-0.7c1.3,0,6.4-0.3,10.7-0.7c4.7,0,12.1-0.3,25.5-0.7v-36.9l-2.3-0.7c-1.3-0.7-3.7-1.7-5.4-2
	s-4.7-1.3-6.4-1.7c-2-0.3-5-1-6.7-1c-1.7-0.3-6-0.3-9.7-0.3c-4.7,0-7.7,0-10.4,0.3c-2,0.3-6,1-9.1,1.3c-3,0.7-6.4,1-7.7,1
	c-1,0-2.3-0.3-2.7-0.3c-0.7-0.3-1.3-1-2-1.7s-1.3-2.3-2-5c-0.7-2-1.3-4.4-1.3-5c0-1,0-1.7,0.3-2.7c0.3-0.7,1-1.7,1.7-2.3
	c0.7-0.7,2-1.3,2.7-1.7c1-0.3,3.7-1,6.4-1.7c2.7-0.7,6.7-1.3,9.1-1.7c2.3-0.3,5.4-0.7,7-1C123.9,426.5,128.9,426.1,133.3,426.5z
	 M126.9,508.3c-2,0.3-4.7,0.7-6.4,1.3c-1.3,0.3-3.7,1-4.7,1.7s-2.7,1.7-3.7,2.3s-2,2-2.7,3s-1.3,2.7-1.7,4c-0.3,1-1,3.4-1,5
	c-0.3,2.3-0.3,4.4-0.3,7.4c0,2.7,0.3,5.4,0.7,6.7c0.3,1,1,3,1.7,4.4c0.7,1.7,1.7,2.7,2.7,4c1,1,2.3,2,3.7,2.7c1,0.7,3,1.3,4.4,1.7
	c1.3,0.3,3.7,0.7,5.7,1c2.3,0.3,4.4,0.3,6.7,0c2,0,4.7-0.7,6.4-1s4.4-1,6-1.3c1.7-0.3,4.4-1.3,6-2c1.7-0.7,3.7-1.7,4.7-2
	c1-0.7,3-1.7,4.4-2.3l2.3-1.7v-36.5c-3.4,0-10.4,0.3-18.1,0.7C136.6,507.6,128.9,508.3,126.9,508.3z M497.3,428.2c3.4,0,7,0,8.7,0.3
	c1.3,0,4.4,0.7,6,1c2,0.3,4.7,1.3,6,1.7c1.3,0.7,3.7,1.3,4.7,2c1.3,0.7,3,1.7,4,2.3s3,2,4.4,3c1.3,1,3,2.7,4,3.7s2.3,2.7,3,3.7
	s2,2.7,2.7,3.7s2,3.4,2.7,5c0.7,1.7,1.7,4,2.3,5.4c0.3,1.7,1,3.7,1.3,5c0.3,1,0.7,3.7,1,5.4c0.3,1.7,0.7,4.7,1,6.7
	c0.3,2.3,0.3,7,0.3,14.4c0,9.4-0.3,11.1-0.7,12.1c-0.3,0.7-0.7,1.3-1,1.7c-0.3,0.3-1,1-1.3,1c-0.7,0.3-7,0.3-80.8,0.3l0.3,6.4
	c0,3.7,0.3,7.7,0.7,9.4s0.7,4.4,1,5.7s1,4,1.7,5.4c0.7,1.3,1.7,3.7,2.3,5s2.3,3.4,3,4.4c1,1,2.3,2.3,3.4,3c1,0.7,2.7,1.7,3.7,2.3
	c1,0.7,3.4,1.7,5,2c1.7,0.7,4.4,1.3,6.4,1.7c3,0.7,4.4,0.7,11.1,0.7c6.4,0,8.4,0,11.4-0.7c2-0.3,6-1,8.7-1.7s7-1.7,9.4-2
	c4-0.7,4.7-1,5.7-0.7s1.7,0.7,2.7,1.7s1.3,1.7,1.7,3c0.3,1,1,3,1.3,5c0.7,2,1,4.4,1,5.4c0,1.3,0,2-0.3,2.7c-0.3,0.3-1,1.3-1.3,1.7
	c-0.7,0.7-2,1.3-3,2s-3.4,1.3-5,2c-1.7,0.7-4.7,1.7-6.4,2s-4.7,1-6.4,1.3s-5,0.7-6.7,1c-2,0.3-5.7,0.7-8.4,0.7s-7,0-9.7,0
	s-6.4-0.3-8.4-0.7s-5-0.7-6.7-1.3c-1.7-0.3-4.7-1-6.4-1.7c-1.7-0.7-4-1.7-5.7-2c-1.3-0.7-3.7-1.7-5-2.7c-1.3-0.7-3.7-2.3-4.7-3.4
	c-1.3-1-3.4-2.7-5-4.4c-1.3-1.3-3.4-3.7-4.4-5s-2.3-3.4-3.4-4.7c-0.7-1.3-2.3-4-3-6c-1-2-2.3-5.4-3-7.7s-1.7-5.7-2-7.4s-1-5-1.3-7.4
	c-0.3-2.3-0.7-6-1-8.4c-0.3-2.7-0.3-7.4-0.3-13.1c0-5.4,0.3-10.4,0.7-12.7c0.3-2,0.7-5.7,1.3-7.7c0.3-2.3,1-5.7,1.7-7.7s1.3-5,2-6.7
	s1.7-4.7,2.7-6.7s2.3-4.7,3.4-6c0.7-1.3,2.3-3.4,3-4.7c1-1.3,2.3-3,3.4-4c1-1,3-3,4.4-4.4c1.3-1.3,3.7-3,5-3.7c1.3-1,3.7-2.3,5.4-3
	c1.7-1,4.7-2,6.4-2.7c1.7-0.7,4.4-1.3,6-1.7c1.7-0.3,4-0.7,5-1C490.6,428.5,493.9,428.2,497.3,428.2z M486.9,448.9
	c-1,0.3-2.7,1-4,1.7s-2.7,1.7-4,2.3c-1,1-2.7,2.3-3.4,3s-1.7,2-2.3,3c-0.7,0.7-1.3,2.7-2,4s-1.7,3.7-2.3,5.7c-0.7,1.7-1.3,4.4-1.7,6
	c-0.3,1.7-0.7,4-1,5.4c-0.3,1.3-0.3,4-0.7,6l-0.3,3.7h59c0.3-1.3,0.3-4.7,0.3-8.7c0-5-0.3-8-0.7-10.1c-0.3-1.3-1-4-1.3-5.7
	c-0.7-1.7-1.7-4-2.3-5.4c-1-1.7-2-3-3.7-4.7s-3-2.7-4.7-3.7c-1-0.7-3-1.3-4.4-2c-1-0.3-3.4-1-4.7-1c-1.7-0.3-4-0.3-6.7-0.3
	c-2.3,0-5,0.3-6,0.3C489.6,448.3,487.9,448.6,486.9,448.9z M641.8,433.5c2.7,0,5.4,0.3,6.4,0.3s2,0.3,2.3,0.7c0.3,0.3,1,1,1.3,1.7
	s0.7,1.7,0.7,2c0,0.7-0.3,4-1,8c-0.7,4.7-1.3,7.4-1.7,8c-0.3,0.7-1,1.3-1.7,1.7c-1.3,0.7-1.3,0.7-5,0c-2.7-0.3-4.7-0.3-6.7-0.3
	c-1.7,0-4,0.3-5,0.7c-1,0.3-3,1-4.4,1.7c-1,0.7-2.7,1.3-3.7,2c-0.7,0.3-2.3,1.7-3.7,2.7c-1.3,1-3,2.7-3.7,3.4c-1,1-2.3,2.3-4.4,5
	V519c0,35.2,0,48.3-0.3,49.3s-0.7,2-1.3,2.7c-0.7,0.7-1.3,1.3-2.3,1.7c-1,0.3-3.4,0.3-18.1,0.3l-1-0.7c-0.7-0.3-1.3-1.3-1.7-2
	c-0.7-1-0.7-1.7-0.7-65c0-35.2,0-64.4,0-64.7c0-0.7,0.7-1.3,1.3-2c0.7-0.7,1.7-1.3,2-1.3c0.7-0.3,3.4-0.3,8.7-0.3c6.7,0,8,0,9.1,0.3
	c1,0.3,1.7,1,2,1.3c0.3,0.7,0.7,1.3,1,2s0.3,2.3,0.3,3.7s0,2.7,0,3s1-0.3,3.4-2.7c1.7-1.7,4.4-3.7,5.7-4.7s3.4-2,4.7-2.7
	c1-0.7,3.4-1.3,4.7-2c1.7-0.3,4-1,5.4-1.3C636.4,433.5,638.4,433.5,641.8,433.5z M822.5,435.5c8.4,0,8.7,0,10.1,0.7
	c0.7,0.3,1.7,1,2,1.7s7,10.4,14.4,21.8s13.7,20.8,13.7,20.8s6.4-9.4,13.7-20.4c7.4-11.4,13.7-21.1,14.4-21.8
	c0.3-0.7,1.3-1.3,3.7-2.7h8.7c7,0,9.1,0,9.7,0.3c0.7,0.3,1.3,1,2,1.3c0.7,0.7,0.7,1,0.7,2.3c0,0.7-0.3,1.7-0.3,2.3
	c-0.3,0.3-9.1,14.1-19.4,30.2c-10.4,16.1-19.1,29.5-19.1,29.5s9.4,14.7,20.8,32.2s21.1,32.2,21.1,32.5s0.3,1.3,0.3,2.3
	s-0.3,1.7-0.3,2.3c-0.3,0.3-1,1-1.3,1c-0.7,0.3-3.4,0.3-10.1,0.3c-6,0-9.7,0-10.4-0.3s-1.7-0.7-2.3-1c-0.7-0.3-2-2-4.7-6
	c-2-3-8.7-13.4-15.1-23.5c-6.4-10.1-11.7-18.1-11.7-18.1s-7,10.1-15.1,22.8c-8.7,13.4-15.4,23.5-16.1,24.1c-0.7,0.7-1.7,1.3-2.7,1.7
	c-1.3,0.3-2.7,0.3-10.7,0.3c-7,0-9.4,0-10.1-0.3c-0.3-0.3-1.3-0.7-1.7-1.3c-0.3-0.7-0.7-1.3-0.7-2.3c0-0.7,0.3-1.7,0.3-2.3
	c0.3-0.7,9.7-15.1,21.5-32.9c11.4-17.4,20.8-31.8,20.8-31.8s-8.4-13.1-18.8-29.2s-19.1-29.5-19.4-30.5c-0.3-0.7-0.7-1.7-0.7-2.3
	s0.3-1.3,0.3-2c0.3-0.3,0.7-1,1-1.3s1-0.7,1.7-0.7C813.7,435.5,816.1,435.5,822.5,435.5z M676.3,436.2H687c10.4,0,10.7,0,11.7,0.7
	c0.7,0.3,1.3,1,1.7,1.7c0.3,0.3,8,22.5,17.1,48.9c11.1,31.5,16.8,47.9,16.8,47.6s7.7-21.8,17.1-47.6c9.4-25.8,17.1-47.6,17.4-48.3
	c0.3-0.7,1-1.7,2.7-3h9.4c7.4,0,9.7,0,10.4,0.3c0.3,0.3,1,0.7,1,1.3c0.3,0.7,0.3,1.3,0,2c0,0.7-12.4,34.5-27.5,74.8
	c-15.1,40.6-28.2,75.1-28.8,77.1c-0.7,2-2,4.7-2.7,6c-0.7,1.7-2,4-3,5.7s-2.7,4-3.4,5.4c-1,1.3-3,3.7-4.7,5.4s-4,3.7-5.4,4.7
	c-1.3,1-4,2.7-6,3.7s-4.7,2-6,2.7c-1.3,0.3-3.7,1-5.7,1.3s-5,1-7,1c-2.3,0.3-6,0.3-10.1,0.3c-4,0-7-0.3-8.7-0.7
	c-1.7-0.3-2.7-0.7-3.4-1c-0.3-0.3-1-1.3-1-2.3c-0.3-1.3-0.3-2.3-0.3-4.4c0-1.7,0.3-4,0.7-5.7c0.3-1.3,0.7-3.4,1-4
	c0.3-0.7,0.7-1.7,1.3-2c0.3-0.3,1-1,1.7-1c0.3,0,3,0,5.7,0.3c3,0.3,6,0.3,8.4,0.3c2,0,5-0.3,6.4-0.7c1.7-0.3,4-1,5.4-1.7
	c1.3-0.7,3-1.3,3.7-2c1-0.7,2.7-2,4-3.4c1.3-1.3,3-3.4,3.7-4.7s2-3.4,2.7-4.7s3-7,5.4-12.4c2.3-5.4,4-10.1,4-10.4
	s-10.7-28.8-23.8-63.7c-20.1-53-23.8-63.7-23.8-64.7s0.3-1.7,0.7-2L676.3,436.2z"/>
</svg>
