<?xml version="1.0" encoding="utf-8"?>
<!-- Generator: Adobe Illustrator 23.0.0, SVG Export Plug-In . SVG Version: 6.00 Build 0)  -->
<svg version="1.1" id="레이어_1" xmlns="http://www.w3.org/2000/svg" xmlns:xlink="http://www.w3.org/1999/xlink" x="0px"
	 y="0px" viewBox="0 0 1000 1000" style="enable-background:new 0 0 1000 1000;" xml:space="preserve">
<style type="text/css">
	.st0{fill:#FFFFFF;}
</style>
<path class="st0" d="M920.6,559.1c-0.1-0.5-0.1-0.9-0.2-1.4c-0.5-2.8-1-5.6-1.7-8.3c-1.2-4.8-2.7-9.5-4.4-14
	c-1.5-3.8-3.2-7.6-5.1-11.2c-2.4-4.6-5.2-9.1-8.2-13.4c-3.7-5.2-7.8-10.1-12.4-14.6c-1.9-1.9-3.9-3.7-5.9-5.5
	c-4.4-3.8-9.1-7.2-14.1-10.4c0-0.1,0.1-0.1,0.1-0.2c2.3-3.9,4.5-7.8,6.8-11.8c2.2-3.8,4.4-7.6,6.6-11.5c1.6-2.7,3.2-5.5,4.8-8.2
	c0.4-0.7,0.7-1.3,0.9-2c0.6-1.9,0.6-3.9,0.1-5.8c-0.1-0.5-0.3-0.9-0.5-1.4s-0.4-0.9-0.6-1.3c-0.8-1.4-2.1-2.7-3.6-3.6
	c-1.3-0.8-2.8-1.3-4.4-1.4c-0.6-0.1-1.3,0-1.9,0c-0.5,0.1-1.1,0.2-1.6,0.3c-1.9,0.5-3.6,1.5-5,3c-0.5,0.5-0.9,1.1-1.3,1.8
	c-1.6,2.7-3.2,5.5-4.8,8.2l-6.6,11.5c-2.3,3.9-4.5,7.8-6.8,11.8c-0.2,0.4-0.5,0.9-0.7,1.3c-0.3-0.1-0.7-0.3-1-0.4
	c-12.5-4.8-26.1-7.4-40.2-7.4c-0.4,0-0.8,0-1.2,0c-12.6,0.1-24.7,2.3-36,6.2c-1.3,0.5-2.6,0.9-3.9,1.4c-0.2-0.4-0.5-0.8-0.7-1.2
	c-2.3-3.9-4.5-7.8-6.8-11.8c-2.2-3.8-4.4-7.6-6.6-11.5c-1.6-2.7-3.2-5.5-4.8-8.2c-0.4-0.7-0.8-1.2-1.3-1.8c-1.4-1.5-3.1-2.5-5-3
	c-0.5-0.1-1.1-0.2-1.6-0.3c-0.6-0.1-1.3-0.1-1.9,0c-1.5,0.1-3,0.6-4.4,1.4c-1.5,0.9-2.7,2.1-3.6,3.6c-0.2,0.4-0.5,0.8-0.6,1.3
	c-0.2,0.4-0.3,0.9-0.5,1.4c-0.5,1.9-0.5,3.9,0.1,5.8c0.2,0.7,0.5,1.4,0.9,2c1.6,2.7,3.2,5.5,4.8,8.2c2.2,3.8,4.4,7.6,6.6,11.5
	c2.3,3.9,4.5,7.8,6.8,11.8c0,0,0,0.1,0.1,0.1c-4.6,2.8-8.9,6-13,9.4c-2.5,2.1-4.8,4.2-7.1,6.5c-4.5,4.5-8.7,9.4-12.4,14.6
	c-3,4.2-5.8,8.7-8.2,13.4c-1.9,3.6-3.6,7.4-5.1,11.2c-1.8,4.5-3.2,9.2-4.4,14c-0.7,2.7-1.2,5.5-1.7,8.3c-0.1,0.5-0.1,0.9-0.2,1.4
	c-0.3,1.6-0.5,3.3-0.6,4.9h224.7C921,562.4,920.8,560.8,920.6,559.1z M765.4,528.4c-3.7,5.5-10.3,7.6-14.8,4.6s-5.2-9.9-1.5-15.5
	c3.7-5.6,10.3-7.6,14.8-4.6C768.4,515.9,769.1,522.9,765.4,528.4z M867.3,533c-4.5,3-11.1,0.9-14.8-4.6s-3-12.5,1.5-15.5
	s11.1-0.9,14.8,4.6C872.4,523.1,871.8,530,867.3,533z"/>
<path id="path4" class="st0" d="M585.3,522c0-15.1,10.9-27,24.6-27s23.8,11.6,23.8,27c0,15.4-10.2,27.3-23.8,27.3
	S585.3,537.3,585.3,522L585.3,522z M538.1,564.1h19.3v-83.8h-19.3V564.1z M535.1,452.3c0,7.2,5.9,13.1,12.7,13.1
	c6.9,0,12.6-5.9,12.6-13.1c0-6.7-5.7-12.4-12.6-12.4S535.1,445.6,535.1,452.3z M459.6,521.8c0-15.1,11.1-26.8,25.3-26.8
	s25.3,11.7,25.3,26.8s-11.2,27.5-25.3,27.5S459.6,537.1,459.6,521.8z M440,521.8c0,25.1,19.8,44.9,44.9,44.9s44.9-19.8,44.9-44.9
	c0-25.1-19.4-44.2-44.9-44.2C459.4,477.6,440,496.9,440,521.8z M387.9,564.1h19.3v-43.9c0-17.4,9.2-25.1,24.6-25.1
	c2.8,0,5,0.2,7,0.7v-16.9c-2-0.7-5.5-1.2-9.4-1.2c-26.1,0-41.5,16.4-41.5,42.6V564.1z M310.7,522c0-15.1,10.9-27,24.6-27
	s23.8,11.6,23.8,27c0,15.4-10.2,27.3-23.8,27.3C321.7,549.3,310.7,537.3,310.7,522z M291.1,522c0,24.3,19.4,44.7,42.4,44.7
	c9.5,0,18.3-3.8,23.4-10.2h0.8v7.5H377V433.2h-19.3v54h-0.8c-5-6-13.7-9.5-23.4-9.5C310.4,477.6,291.1,497.9,291.1,522L291.1,522z
	 M206.7,564.1H226V515c0-11.7,7.9-19.9,18.8-19.9s18.8,8.2,18.8,19.9v49.1h19.3V515c0-20.4-16.3-37.4-38-37.4s-38,16.9-38,37.4
	L206.7,564.1z M118.3,513.8l20.8-59.5h1l20.8,59.5H118.3z M79.1,564.1h21.8l10.9-31.2h55.6l10.9,31.2H200l-48.4-130.9h-24.1
	L79.1,564.1z M608.1,566.7c9.5,0,18.3-3.8,23.4-10.2h0.8v7.5h19.3V433.2h-19.3v54h-0.8c-5-6-13.7-9.5-23.4-9.5
	c-23.1,0-42.4,20.3-42.4,44.4C565.7,546.1,585.1,566.7,608.1,566.7L608.1,566.7z"/>
</svg>
