<?xml version="1.0" encoding="utf-8"?>
<!-- Generator: Adobe Illustrator 23.0.0, SVG Export Plug-In . SVG Version: 6.00 Build 0)  -->
<svg version="1.1" id="레이어_1" xmlns="http://www.w3.org/2000/svg" xmlns:xlink="http://www.w3.org/1999/xlink" x="0px"
	 y="0px" viewBox="0 0 1000 1000" style="enable-background:new 0 0 1000 1000;" xml:space="preserve">
<style type="text/css">
	.st0{fill-rule:evenodd;clip-rule:evenodd;fill:#FFFFFF;}
</style>
<g id="Logo-Arrow">
	<path id="arrow-logo" class="st0" d="M803.3,577.2h28.6c6.3,0,11.8-4.2,12.5-10.4l25.1-130.3c1.4-7-3.5-13.9-10.4-15.3
		c-7-1.4-13.9,3.5-15.3,10.4l-23,119.8h-7l-22.3-117.7c-1.4-6.3-7-11.1-13.2-11.1h-25.1c-6.3,0-11.8,4.2-12.5,10.4l-23,117.7h-7
		l-22.3-117c-1.4-6.3-6.3-10.4-12.5-10.4H550.4c-7,0-13.2,5.6-13.2,13.2V525c0,7,5.6,13.2,13.2,13.2c7,0,13.2-5.6,13.2-13.2v-75.9
		h101l23,117.7c1.4,6.3,6.3,10.4,12.5,10.4h28.6c6.3,0,11.8-4.2,12.5-10.4l23-117.7h3.5l23,117.7C791.4,572.4,797,577.2,803.3,577.2
		z M140.1,579.3c0.7,0,2.1,0.7,2.8,0.7c5.6,0,11.1-4.2,12.5-9.8l30-121.2H200l28.6,117.7c1.4,5.6,7,9.8,12.5,9.8H285
		c7,0,13.2-5.6,13.2-13.2V449.1h39v49.5c0,2.1,0.7,4.2,1.4,6.3l35.5,65.5c2.1,4.2,7,7,11.1,7h33.4c7,0,13.2-5.6,13.2-13.2V449.1h39
		v49.5c0,2.1,0.7,4.2,1.4,6.3l35.5,65.5c2.1,4.2,7,7,11.1,7h110.1c7,0,13.2-5.6,13.2-13.2V475c0-7-5.6-13.2-13.2-13.2
		c-7,0-13.2,5.6-13.2,13.2v75.9h-88.5l-30-55.7V436c0-7-5.6-13.2-13.2-13.2h-65.5c-7,0-13.2,5.6-13.2,13.2v114.9H393L363,495v-59.2
		c0-7-5.6-13.2-13.2-13.2h-65.5c-7,0-13.2,5.6-13.2,13.2v114.9h-20.9l-28.6-118.4c-1.4-5.6-7-9.8-12.5-9.8H175
		c-6.3,0-11.1,4.2-12.5,9.8l-31.3,131C128.9,570.3,133.1,577.2,140.1,579.3z"/>
</g>
</svg>
