<?xml version="1.0" encoding="utf-8"?>
<!-- Generator: Adobe Illustrator 27.9.0, SVG Export Plug-In . SVG Version: 6.00 Build 0)  -->
<svg version="1.1" id="레이어_1" xmlns="http://www.w3.org/2000/svg" xmlns:xlink="http://www.w3.org/1999/xlink" x="0px"
	 y="0px" viewBox="0 0 1000 1000" style="enable-background:new 0 0 1000 1000;" xml:space="preserve">
<style type="text/css">
	.st0{fill:#FFFFFF;}
</style>
<path class="st0" d="M758.5,584.5c-7.5-1.5-14.7-3.6-21-6.3l-0.3-33.3h3.6c3.3,8.4,5.7,12.3,10.8,18c6,6.9,10.8,10.8,16.8,13.2
	c13.2,5.1,24.3,2.4,30-1.8c4.8-3.6,6.6-6.6,6.6-12.3c0-5.4-2.1-9.6-6.3-12.6s-10.8-5.7-20.7-7.8c-13.5-3-24-7.5-31.5-13.8
	s-11.4-15-11.4-26.1c0-7.8,2.1-14.7,6.3-20.7s9.9-10.5,17.1-13.8c7.2-3.3,15.6-4.8,24.9-4.8c11.7,0,24.9,2.7,39.3,8.4V501h-3.6
	c-4.2-10.8-6.3-15.9-13.8-22.2c-6.9-5.7-13.2-8.4-23.7-8.4c-7.8,0-13.2,2.1-17.1,5.4c-3.6,3-4.5,6.6-4.2,9.9c0.3,4.2,3,8.1,6.9,11.1
	c4.2,3,11.1,5.7,20.7,8.4c14.1,3.9,24.9,9,32.4,15.3c7.5,6.3,11.1,15.3,11.1,26.7c0,13.5-4.8,23.4-14.7,30s-21.9,9.6-36,9.6
	C773.5,586.6,766.3,586,758.5,584.5 M273.8,584.5c-7.5-1.5-14.4-3.6-21-6.3l-0.3-33.3h3.6c3.3,8.4,5.7,12.3,10.8,18
	c6,6.9,10.8,10.8,16.8,13.2c13.2,5.1,24.3,2.4,30-1.8c4.8-3.6,6.6-6.6,6.6-12.3c0-5.4-2.1-9.6-6.3-12.6c-4.2-3-11.1-5.7-20.4-7.8
	c-13.5-3-24-7.5-31.5-13.8s-11.4-15-11.4-26.1c0-7.8,2.1-14.7,6-20.7c4.2-6,9.9-10.5,17.1-13.8s15.6-4.8,24.9-4.8
	c11.7,0,24.9,2.7,39.3,8.4V501h-3.6c-4.2-10.8-6.3-15.9-13.8-22.2c-6.9-5.7-13.2-8.4-23.7-8.4c-7.8,0-13.2,2.1-17.1,5.4
	c-3.6,3-4.5,6.6-4.2,9.9c0.3,4.2,3,8.1,6.9,11.1c4.2,3,11.1,5.7,20.7,8.4c14.1,3.9,24.9,9,32.4,15.3s11.1,15.3,11.1,26.7
	c0,13.5-4.8,23.4-14.7,30c-9.9,6.6-21.9,9.6-36,9.6C288.8,586.6,281.6,586,273.8,584.5 M628.7,569.8h-15.6v-93.4
	c0-8.7-4.8-12.3-13.5-12.3c-13.2,0-23.1,4.2-37.2,10.8v3.6h15v82.6c-5.4,0.9-10.5,1.5-14.7,1.5c-14.4,0-24.3-6.3-24.3-29.4v-56.8
	c0-8.7-4.8-12.3-13.5-12.3c-13.2,0-23.1,4.2-37.2,10.8v3.6h15v65.2c0,32.7,15.3,42,33.9,42c13.8,0,29.1-6.9,41.1-17.7
	c0.9,9.9,7.8,17.4,22.5,17.4c9,0,20.7-4.8,29.1-12L628.7,569.8L628.7,569.8L628.7,569.8z M484.9,577.6c-5.7-2.1-7.8-4.8-7.8-10.5
	v-61.3c0-32.7-15.3-42-33.9-42c-15,0-33.3,9.9-44.1,19.2v-51.7c0-8.4-4.2-12.3-13.5-12.3c-13.2,0-21.9,4.2-36,10.8v3.6h13.8
	L362.5,567c-0.3,6.3-4.5,9.6-8.4,11.1c-3,1.2-5.1,1.5-5.1,1.5v3.9h65V579c-1.5,0-3-0.3-6.6-1.5c-5.4-1.5-8.1-5.1-8.4-10.2v-77.5
	c5.1-1.8,12.3-3,17.7-3c14.1,0,23.7,6,24.3,27.9c0,0,0.3,41.4-0.6,51.1c-0.6,8.7-5.7,10.8-9,12.3c-1.8,0.6-3.9,0.9-4.5,0.9v4.2h64.3
	v-4.5C491.2,579.1,487.3,578.8,484.9,577.6L484.9,577.6L484.9,577.6z M702.9,488.1c6.3,0,13.2,1.2,20.1,4.5
	c1.2-7.2,3.9-13.8,7.8-19.8c1.5-2.1,3-4.2,4.8-6c-5.1-2.1-9.9-3-14.7-3c-15.3,0-29.4,7.5-37.2,21v-8.7c0-8.7-4.8-12.3-13.5-12.3
	c-13.2,0-23.1,4.2-37.2,10.8v3.6h15v88.6c-0.3,6.3-6,9.9-9.3,10.8c-2.1,0.6-4.5,1.2-5.7,1.2v4.5h65.2v-5.1c-2.1,0-4.2-0.3-7.2-1.2
	c-4.5-1.5-7.2-4.5-7.2-10.2v-75.1C689.1,489.9,696,488.1,702.9,488.1L702.9,488.1L702.9,488.1z M904.7,565.9
	c-11.1,0-20.7-4.8-20.7-24v-64.6h36v-10.8h-36v-27.9h-5.7c-1.5,9.6-6.3,16.8-14.1,21.9s-16.8,8.1-27.3,9.3c-0.3,0-0.3,0-0.6,0
	c-0.6,0-1.2,0-1.5,0v7.8h13.5l-0.9,66.1c-0.3,32.4,15.9,42,34.5,42c16.5,0,32.1-5.7,43.5-18.6v-4.5
	C919.1,564.1,911.9,565.9,904.7,565.9L904.7,565.9z M172.6,414.5h-18.9l-45.3,119.2H218L172.6,414.5z M125.1,522.9l24.3-64l24.3,64
	H125.1L125.1,522.9z M110.4,565.6c0-3.6,1.2-7.5,3-12.6l3.3-8.7h-12.6l-3.9,10.5c-5.7,13.2-10.8,19.8-17.1,22.5
	c-4.8,2.1-9,2.4-9,2.4v3.6h54.1v-4.8c0,0-1.8,0-8.4-1.8C113.1,575.5,110.4,571,110.4,565.6z M240.4,576.4
	c-5.7-2.4-10.5-11.1-12.9-17.4c-0.3-1.2-2.4-6.6-5.4-14.4h-40.2c2.1,5.1,3.9,10.5,4.8,12.6c1.8,4.5,2.7,9.6,1.8,12.3
	c-0.9,3.9-3,5.7-6.6,7.5c-4.5,2.1-12,2.1-12,2.1v4.8H247v-5.4C247,578.5,244.9,578.2,240.4,576.4L240.4,576.4z"/>
</svg>
