<?xml version="1.0" encoding="utf-8"?>
<!-- Generator: Adobe Illustrator 23.0.0, SVG Export Plug-In . SVG Version: 6.00 Build 0)  -->
<svg version="1.1" id="레이어_1" xmlns="http://www.w3.org/2000/svg" xmlns:xlink="http://www.w3.org/1999/xlink" x="0px"
	 y="0px" viewBox="0 0 1000 1000" style="enable-background:new 0 0 1000 1000;" xml:space="preserve">
<g transform="translate(10.07 40.7)">
	<path d="M208.4,402.7H268v-16.1h-59.6V402.7z"/>
	<g transform="matrix(.5857 0 0 -.5857 -6.335 -31.28)">
		<path d="M282.6-958.1c-5.4-2.7-15-5.9-27.9-5.9c-41.3,0-69.2,30.6-69.2,88c0,52.6,29,91.7,75.1,91.7c10.2,0,17.2-2.7,22-4.8v-30.6
			c-3.8,1.6-12.9,4.3-20.9,4.3c-25.2,0-37.6-27.4-37.6-59.6c0-35.9,14.5-57.4,38.1-57.4c7,0,15.6,1.6,20.9,4.3v-30"/>
	</g>
	<g transform="matrix(.5857 0 0 -.5857 -.6332 -32.24)">
		<path d="M421.1-934.8v61.7c-15,0-41.8-4.3-41.8-34.9c0-19.9,10.7-26.8,18.8-26.8H421.1z M458.7-920.9c0-13.4,1.1-31.1,2.7-42.4
			h-75.1c-25.2,0-44,20.9-44,51.5c0,45.1,38.1,63.8,77.8,64.4v3.2c0,18.2-7,31.1-26.3,31.1c-12.3,0-26.8-3.8-36.5-9.7v26.3
			c8.6,5.4,23.1,12.3,44.5,12.3c45.1,0,56.3-29.5,56.3-66.5L458.7-920.9"/>
	</g>
	<g transform="matrix(.5857 0 0 -.5857 7.314 -32.25)">
		<path d="M613.9-934.7h-22.5c-16.1,0-25.2,24.1-25.2,59c0,31.1,7,59,26.3,59c11.3,0,19.3-12.3,20.9-26.3c0.5-3.8,0.5-7.5,0.5-10.7
			V-934.7z M652-920.8V-733h-38.1v-70.3h-0.5c-5.4,12.3-16.1,18.8-30.6,18.8c-28.4,0-54.7-29.5-54.7-90.7
			c0-52.6,18.8-88.5,52.6-88.5h74C652.5-951.9,652-934.2,652-920.8"/>
	</g>
	<g transform="matrix(.5857 0 0 -.5857 15.23 -35.17)">
		<path d="M805.4-863.6c0.5,27.9-9.1,44.5-22.5,44.5c-16.6,0-24.1-24.1-24.7-44.5H805.4z M758.2-891c0.5-39.2,18.8-49.9,39.2-49.9
			c12.9,0,26.3,2.7,34.3,6.4v-27.4c-10.7-5.4-25.2-8-40.8-8c-45.1,0-69.2,32.7-69.2,86.9c0,57.9,27.9,92.8,64.9,92.8
			c37,0,55.3-33.3,55.3-79.9c0-10.2-0.5-15.6-1.1-20.4L758.2-891"/>
	</g>
	<g transform="matrix(.5857 0 0 -.5857 21.26 -36.74)">
		<path d="M951.8-825.6V-971h-38.1v125.5c0,19.9-1.1,35.4-1.6,51h75.6c29,0,46.7-21.5,46.7-61.7v-114.3h-38.1v111.1
			c0,17.7-3.8,34.3-20.4,34.3L951.8-825.6"/>
	</g>
	<g transform="matrix(.5857 0 0 -.5857 31.3 -31.28)">
		<path d="M1195.6-958.1c-5.4-2.7-15-5.9-27.9-5.9c-41.3,0-69.2,30.6-69.2,88c0,52.6,29,91.7,75.1,91.7c10.2,0,17.2-2.7,22-4.8
			v-30.6c-3.8,1.6-12.9,3.8-20.9,3.8c-25.2,0-37.6-27.4-37.6-59.6c0-35.9,14.5-57.4,38.1-57.4c7,0,15.6,1.6,20.9,4.3v-29.5"/>
	</g>
	<g transform="matrix(.5857 0 0 -.5857 35.36 -35.17)">
		<path d="M1294-863.6c0.5,20.4,8,44.5,24.7,44.5c13.4,0,23.1-16.6,22.5-44.5H1294z M1377.1-870.6c0,46.7-18.2,79.9-55.3,79.9
			c-37.6,0-64.9-35.4-64.9-92.8c0-54.2,24.1-86.9,69.2-86.9c16.1,0,30,3.2,41.3,8v27.4c-8-3.2-21.5-6.4-34.3-6.4
			c-20.4,0-38.6,10.7-39.2,49.9h82.1C1376.6-886.2,1377.1-880.8,1377.1-870.6"/>
	</g>
	<g transform="matrix(.5857 0 0 -.5857 40.06 -40.42)">
		<path d="M1407.9-736.5c12.9,0,23.1-11.8,23.1-26.3c0-14.5-10.2-26.3-23.1-26.3c-12.9,0-23.1,11.8-23.1,26.3
			C1384.8-748.3,1395.5-736.5,1407.9-736.5z M1407.9-784.8c10.7,0,18.8,9.7,18.8,22.5c0,12.3-8,22.5-18.8,22.5
			c-10.7,0-18.8-9.7-18.8-22.5C1389.6-775.1,1397.1-784.8,1407.9-784.8z M1399.3-747.2h10.2c6.4,0,9.1-2.7,9.1-8.6
			c0-4.8-2.7-8.6-7-8.6l7.5-13.4h-4.8l-7.5,13.4h-3.8v-13.4h-4.3v30.6H1399.3z M1403.6-760.7h5.4c3.2,0,5.4,0.5,5.4,4.8
			c0,3.8-2.7,4.3-5.4,4.3h-5.4V-760.7"/>
	</g>
</g>
</svg>
