<?xml version="1.0" encoding="utf-8"?>
<!-- Generator: Adobe Illustrator 23.0.0, SVG Export Plug-In . SVG Version: 6.00 Build 0)  -->
<svg version="1.1" id="레이어_1" xmlns="http://www.w3.org/2000/svg" xmlns:xlink="http://www.w3.org/1999/xlink" x="0px"
	 y="0px" viewBox="0 0 1000 1000" style="enable-background:new 0 0 1000 1000;" xml:space="preserve">
<path d="M563.5,544.7c-3.8-3.3-8.8-7.8-13.7-12.3c-1.1,1.8-3.3,3.3-6.7,4.6c-2.9,1.1-6.5,1.9-10,2.4l-3.8,0.5
	c-0.2,0.3-0.3,0.6-0.6,1C545.2,549,567.5,548.2,563.5,544.7 M600.6,527.3c-5.3-2.5-16.2-7.6-27.7-13.1c-1,3-4.6,5.9-10.7,8.6
	c-3.8,1.7-7.8,2.8-11.9,3.5c0.6,1.3,0.8,2.9,0.3,4.3c-0.2,0.3-0.3,0.8-0.5,1.1C576.7,548.7,606.5,530.2,600.6,527.3 M671.5,369
	c-6,3.3-13.1,4.5-17.7,4.9c-10,1.1-19.7,5.1-29,10.8l-1.1,5.4c-0.5,2.4-1.9,8-5.9,14.3h0.5c2.2,0,4,1.1,4.9,3
	c35.5-16.1,50.3-32.5,54.5-43.2C675.9,366.2,673.8,367.8,671.5,369 M672.6,386.5c-3.3,1.4-23.3,10-49.2,21.2
	c0.3,0.6,0.5,1.3,0.6,1.9c0.6,4.3-2.9,13.2-8,21c-1.3,1.9-2.9,4.1-4.8,6.2h1c2.6,0,4.8,1.6,5.6,4
	C679.5,425.4,678.8,383.8,672.6,386.5 M631.2,502.2c-6.8-1.4-21.8-4.6-39.8-8.4v0.2c-0.3,3.2-3,5.3-4.9,6.5
	c-1.9,1.3-4.6,2.5-7.5,3.8c-3,1.1-6,2.1-9.1,2.9c2.6,1.3,3.8,4,3.3,6.7C604.6,522.7,638.2,503.6,631.2,502.2 M669.1,430.2
	c-8.4,1.8-27.9,5.9-51.3,10.8c0.2,0.5,0.3,1.1,0.3,1.8c0.2,5.7-7.2,13.9-11.6,17.8c-1,1-2.1,1.8-3.3,2.7c0.8,0.3,1.4,0.6,2.1,1.1
	c1,1,1.6,2.1,1.8,3.3C660.5,463.1,676.3,428.6,669.1,430.2 M655.6,467.4c-9.2,0.2-28.7,0.5-48.6,0.6v0.6c0,1.6-0.5,3.8-4.3,8
	c-2.2,2.4-5.4,4.9-8.6,7.2c-1.6,1.1-3.8,2.5-6.5,3.8c2.7,1.1,3.8,3.5,3.8,5.7C644,500.3,662.9,467.4,655.6,467.4"/>
<path d="M553.5,472.2c11-24.7,25.3-47.8,40.3-65c9.1-10.4,18.3-18.6,27.7-24.7c10.5-6.8,21.2-11,31.7-12.1
	c15.8-1.9,24.4-7.6,26.1-17.5c-5.6,4.6-14.5,7.3-26.8,8.4c-30.3,2.7-58.9,34.6-86.7,65.5c-22.8,25.2-44.3,70.4-65.5,76.5
	c-21.2-6.2-42.7-51.3-65.5-76.5c-27.7-31.1-56.4-62.9-86.7-65.6c-12.3-1.1-21.2-3.8-26.8-8.4c1.8,9.9,10.4,15.6,26.1,17.5
	c10.5,1.3,21.2,5.3,31.7,12.1c9.4,6.1,18.6,14.5,27.7,24.7c15.1,17.4,29.5,40.5,40.5,65.1c4.9,11.2,8.9,22,12.6,31.7
	c5.6,15,10.4,27.9,16.6,37c3.3,4.8,6.8,8.3,11,10.7c3.7,2.2,7.8,3.3,12.3,3.3h1.6c4.5,0,8.6-1.1,12.3-3.3c4-2.2,7.6-5.7,11-10.7
	c6.2-9.1,11-22,16.6-37C544.6,494.2,548.5,483.2,553.5,472.2"/>
<path d="M532.6,534.2c7.6-1,14.7-4,12.7-5.7c-2.4-2.2-4.9-4.3-7.2-6.4C536.3,526.4,534.5,530.4,532.6,534.2 M567.7,511.7
	c-4.1-1.9-8.3-4-12.3-5.7c-1,3.2-4.3,5.6-10.4,7.2l-3.7,1c-1,2.2-1.8,4.6-2.5,6.7C551.6,524.8,571.3,513.5,567.7,511.7 M604.6,401.3
	l-2.4,9.4c-0.5,2.1-1.6,4.3-3,6.4c13.1-9.1,18-21.3,19.4-27.7C613.7,392.7,609.1,396.9,604.6,401.3 M618.3,409.9
	c-2.2,1-10,4.3-20.5,8.9c-0.6,0.8-1.4,1.8-2.4,2.5c0.3,1.8,0,3.7-1.1,6.5c-1,2.2-2.2,4.8-4,7.3c-1.4,2.2-3.5,4.9-6.2,7.8
	c1.9,0.5,3.5,1.9,4.1,3.8C613.1,438,620.9,408.8,618.3,409.9 M601.1,468.2c-6.2,0.2-14.2,0.2-21.3,0.3c0.3,4.8-5.6,10.2-7.5,11.6
	c-1.7,1.5-3.7,2.9-5.7,4c0.8,1,1.3,2.2,1.3,3.5C587.9,486.9,605.1,468.2,601.1,468.2 M611.9,442.1c-4,0.8-12.9,2.5-23.6,4.8
	c0,0.3,0.2,0.6,0.2,1c0.5,4-3.2,9.4-6.7,13.1c-1.1,1.1-2.4,2.4-4.1,3.7c1.1,0.8,1.7,2.1,2.1,3.5
	C602.7,464.4,616.7,441.2,611.9,442.1 M585,492.3c-5.3-1.1-11.3-2.4-17-3.7c-0.3,2.7-2.6,5.4-6.5,8.1c-2.1,1.6-4.6,2.9-7,3.8
	c0.5,0.8,0.8,1.6,1,2.4C572.9,503.9,590.8,493.6,585,492.3 M544.6,505.2c-0.3,0.8-0.6,1.6-0.8,2.4c0,0.2-0.2,0.3-0.2,0.5
	c5.3-1.4,8.3-3.7,5.9-4.8c-1.1-0.5-2.4-1.1-3.5-1.6C545.4,502.6,545,503.9,544.6,505.2 M552,485.4c-0.8,2.1-1.6,4-2.4,6.1
	c-0.8,1.9-1.4,3.8-2.2,5.7c10-1.9,16.7-9.2,14.8-9.7C559.2,486.9,555.7,486.1,552,485.4C552,485.3,552,485.4,552,485.4 M558.1,471.3
	c-0.3,1-0.8,1.8-1.1,2.5c-0.3,0.8-0.6,1.6-1,2.2c-0.2,0.2-0.2,0.3-0.3,0.6c-0.3,0.6-0.5,1.1-0.8,1.8c0,0.2-0.2,0.3-0.2,0.5
	c-0.3,0.6-0.5,1.3-0.8,1.9c0,0.2-0.2,0.2-0.2,0.3c-0.3,0.8-0.6,1.4-1,2.2c15.6-2.2,23.6-14.8,21.2-14.8c-4.5,0-9.6,0.2-15,0.2
	C558.9,469.7,558.4,470.5,558.1,471.3 M568.1,451.2c-0.3,0.6-0.8,1.3-1.1,1.9v0.2l-1,1.9v0.2c-0.3,0.6-0.6,1.3-1,1.9v0.2l-1,1.9v0.2
	l-1,1.9v0.2c-0.3,0.6-0.6,1.3-1,1.9l-1,1.9c-0.3,0.6-0.6,1.3-1,2.1c19.1-4.8,25.3-19.9,22.9-19.4C578.8,449,573.9,450.1,568.1,451.2
	L568.1,451.2z M572,444.7c-0.6,1-1.1,2.1-1.8,3c16.2-10.2,21.7-26.3,19.8-25.5c-1.3,0.5-2.9,1.3-4.6,2.1
	C580.4,430.8,576.1,437.7,572,444.7 M597,409.3c-3.3,3.8-6.5,7.6-9.6,11.8C593.5,416.6,596.2,412.7,597,409.3 M467.6,539.3
	c-3.5-0.5-7-1.3-10-2.4c-3.3-1.3-5.6-2.7-6.7-4.6c-4.9,4.5-9.9,8.8-13.7,12.3c-4,3.5,18.5,4.5,34.7-3.8c-0.2-0.3-0.3-0.6-0.6-1
	L467.6,539.3z M450.3,530.8c-0.5-1.4-0.3-3,0.3-4.3c-5.1-0.8-9.4-2.4-11.9-3.5c-6.1-2.7-9.7-5.6-10.7-8.6
	c-11.5,5.4-22.5,10.7-27.7,13.1c-5.9,2.7,23.9,21.3,50.5,4.5C450.6,531.6,450.5,531.2,450.3,530.8 M376.2,384.9
	c-9.2-5.9-19-9.7-29-10.8c-4.8-0.5-11.6-1.6-17.7-4.9c-2.3-1.2-4.4-2.8-6.2-4.8c4.1,10.7,19,27.1,54.3,43.3c1-1.9,2.7-3,4.9-3h0.5
	c-3.8-6.4-5.4-11.9-5.9-14.3L376.2,384.9z M383.2,440.8c0.8-2.4,3.1-4,5.6-4h1c-1.9-2.1-3.3-4.3-4.8-6.2c-5.1-7.8-8.4-16.7-8-21
	c0.2-0.6,0.3-1.3,0.6-1.9c-26-11.2-46-19.9-49.2-21.2C322,383.8,321.6,425.4,383.2,440.8 M427.8,513.6c-0.6-2.7,0.8-5.4,3.3-6.7
	c-3.8-1-7-1.9-9.1-2.9c-2.9-1.1-5.4-2.4-7.5-3.8c-1.9-1.3-4.6-3.3-4.9-6.5v-0.2c-18,3.8-33.1,7-39.8,8.4
	C362.8,503.6,396.4,522.7,427.8,513.6 M395.9,464.4c0.6-0.5,1.3-1,2.1-1.1c-1.3-1-2.4-1.9-3.3-2.7c-4.5-4-11.9-12.3-11.6-17.8
	c0-0.6,0.2-1.1,0.3-1.8c-23.6-4.9-43-9.1-51.4-10.8c-7.2-1.4,8.6,33,62.1,37.8C394.2,466.5,394.8,465.4,395.9,464.4 M409.6,493.3
	c0-2.2,1.1-4.6,3.8-5.7c-2.3-1.1-4.5-2.4-6.5-3.8c-3.1-2.1-5.9-4.5-8.6-7.2c-3.8-4-4.3-6.4-4.3-8v-0.6c-19.9,0-39.3-0.3-48.6-0.5
	C338.1,467.4,357.1,500.3,409.6,493.3 M468.3,534.2c-1.9-3.7-3.7-7.8-5.4-12.1c-2.4,2.1-4.9,4.2-7.3,6.4
	C453.6,530,460.6,533.2,468.3,534.2 M456.2,513c-6.1-1.6-9.4-4-10.4-7.2c-4,1.9-8.1,3.8-12.3,5.7c-3.8,1.7,15.9,13.1,29,9.1
	c-0.8-2.2-1.8-4.5-2.5-6.7L456.2,513z M396.4,401.3c-4.5-4.5-9.2-8.6-14-12.1c1.3,6.5,6.4,18.8,19.4,27.7c-1.4-1.9-2.4-4.1-3-6.4
	L396.4,401.3z"/>
<path d="M382.7,409.9c-2.5-1.1,5.3,28,29.9,36.8c0.6-1.9,2.2-3.3,4.1-3.8c-2.7-2.9-4.8-5.6-6.2-7.8c-1.6-2.5-3-5.1-4-7.3
	c-1.1-2.9-1.4-4.8-1.1-6.5c-0.8-0.8-1.6-1.8-2.4-2.5C396.3,415.8,389.5,412.9,382.7,409.9 M433.1,487.7c0-1.3,0.5-2.5,1.3-3.5
	c-2.1-1.1-4-2.4-5.7-4c-1.8-1.6-7.8-6.8-7.5-11.6c-7.2-0.2-15.1-0.2-21.3-0.3C395.8,468.2,413.1,486.9,433.1,487.7 M412.7,446.9
	c-10.7-2.2-19.6-4-23.6-4.8c-4.8-1,9.2,22.3,32.2,26c0.2-1.4,0.9-2.7,2.1-3.5c-1.6-1.3-3-2.5-4.1-3.7c-3.5-3.7-7.2-9.1-6.7-13.1
	C412.5,447.5,412.5,447.2,412.7,446.9 M445.5,503.1c0.2-0.8,0.5-1.8,1-2.4c-2.5-1-4.9-2.2-7-3.8c-4-2.9-6.1-5.6-6.5-8.1
	c-5.7,1.3-11.8,2.5-17,3.7C410.3,493.6,428.1,503.9,445.5,503.1 M456.5,505.2c-0.5-1.2-0.9-2.4-1.3-3.7c-1.3,0.6-2.4,1.1-3.5,1.6
	c-2.4,1.1,0.6,3.3,5.9,4.8c0-0.2-0.2-0.3-0.2-0.5C457,506.6,456.8,505.8,456.5,505.2 M451.2,491.3c-0.8-2.1-1.6-4-2.4-6.1
	c-3.7,0.8-7.2,1.4-10.4,2.2c-1.9,0.5,4.9,7.8,14.8,9.7C452.8,495.3,452,493.4,451.2,491.3 M447.1,480.8c-0.3-0.6-0.5-1.3-0.8-1.9
	c0-0.2-0.2-0.3-0.2-0.5c-0.3-0.6-0.5-1.1-0.8-1.8c-0.2-0.2-0.2-0.3-0.3-0.6c-0.3-0.8-0.6-1.6-1-2.2c-0.3-0.8-0.6-1.6-1.1-2.4
	c-0.3-0.8-0.8-1.6-1.1-2.4c-5.4,0-10.5-0.2-15-0.2c-2.2,0,5.7,12.4,21.2,14.8c-0.3-0.8-0.6-1.4-1-2.2L447.1,480.8z M440.2,465.5
	l-1-1.9v-0.2l-1-1.9v-0.2l-1-1.9v-0.2l-1-1.9v-0.2l-1-1.9v-0.2l-1-1.9v-0.2c-0.3-0.6-0.6-1.3-1.1-1.9c-5.7-1.3-10.7-2.2-14.7-3.2
	c-2.4-0.5,3.8,14.7,22.9,19.4C440.9,466.8,440.5,466.2,440.2,465.5L440.2,465.5z M415.9,424.3c-1.9-0.8-3.5-1.4-4.6-2.1
	c-2.1-0.8,3.5,15.3,19.8,25.5c-0.6-1-1.1-2.1-1.8-3C424.9,437.7,420.5,430.8,415.9,424.3 M413.5,421.1c-3-4.1-6.2-8.1-9.6-11.8
	C404.9,412.7,407.6,416.6,413.5,421.1 M344.8,648.2h-5.7c-2.7,0-4.8-0.8-6.4-2.2c-1.4-1.4-2.2-3.5-2.2-6.2v-16.4
	c0-2.7,0.8-4.8,2.2-6.2c1.4-1.4,3.7-2.2,6.4-2.2h5.6c2.7,0,4.8,0.8,6.2,2.2c1.4,1.4,2.2,3.5,2.2,6.2v2.4c0,0.8-0.3,1.1-1.1,1.1h-4.3
	c-0.8,0-1.1-0.3-1.1-1.1v-2.1c0-1.1-0.2-1.9-0.6-2.4c-0.5-0.5-1.3-0.6-2.4-0.6H340c-1.1,0-1.9,0.2-2.2,0.6c-0.5,0.5-0.6,1.3-0.6,2.4
	v15.8c0,1.1,0.2,1.9,0.6,2.4c0.5,0.5,1.3,0.6,2.2,0.6h3.5c1.1,0,1.9-0.2,2.4-0.6c0.5-0.5,0.6-1.3,0.6-2.4v-2.1
	c0-0.8,0.3-1.1,1.1-1.1h4.3c0.8,0,1.1,0.3,1.1,1.1v2.4c0,2.7-0.8,4.8-2.2,6.2C349.6,647.6,347.5,648.2,344.8,648.2 M388.5,648.2
	h-4.9c-0.6,0-0.8-0.3-0.6-1.1l8.1-31.1c0.3-0.8,0.8-1.1,1.6-1.1h6.8c0.8,0,1.4,0.3,1.6,1.1l8.1,31.1c0.2,0.8,0,1.1-0.6,1.1h-4.9
	c-0.3,0-0.6,0-0.8-0.2c-0.2-0.2-0.3-0.5-0.3-0.8l-1.4-5.7h-10l-1.4,5.7c0,0.5-0.2,0.6-0.3,0.8C389.1,648.2,388.8,648.2,388.5,648.2
	 M395.9,621.3l-3.7,15h7.6l-3.7-15H395.9z M439,639.8v-1c0-0.8,0.3-1.1,1.1-1.1h4.5c0.8,0,1.1,0.3,1.1,1.1v0.5
	c0,1.3,0.3,2.2,0.8,2.7c0.5,0.5,1.4,0.8,2.9,0.8h2.4c1.3,0,2.2-0.3,2.9-0.8c0.5-0.5,0.8-1.4,0.8-2.9v-0.6c0-1-0.5-1.8-1.3-2.2
	c-0.8-0.5-1.8-0.8-3-1c-1.3-0.2-2.5-0.3-4-0.6c-1.4-0.3-2.7-0.6-4-1.1c-1.3-0.5-2.2-1.4-3-2.7c-0.8-1.4-1.3-3.2-1.3-5.3v-2.1
	c0-2.7,0.8-4.8,2.2-6.2c1.6-1.4,3.7-2.2,6.4-2.2h5.1c2.7,0,4.8,0.8,6.4,2.2c1.6,1.4,2.2,3.5,2.2,6.2v1c0,0.8-0.3,1.1-1.1,1.1h-4.5
	c-0.8,0-1.1-0.3-1.1-1.1v-0.3c0-1.3-0.3-2.2-0.8-2.7c-0.5-0.5-1.4-0.8-2.9-0.8H449c-1.4,0-2.4,0.3-2.9,0.8c-0.5,0.5-0.8,1.6-0.8,3.2
	v1c0,1.6,1.4,2.6,4.3,2.9c2.9,0.3,5.6,0.8,7.8,1.8c1.3,0.5,2.2,1.4,3,2.7c0.8,1.3,1.3,3,1.3,5.1v1.7c0,2.7-0.8,4.8-2.2,6.2
	c-1.6,1.4-3.7,2.2-6.4,2.2h-5.6c-2.7,0-4.8-0.8-6.4-2.2C439.6,644.6,439,642.5,439,639.8 M504.4,648.2h-4.3c-0.8,0-1.1-0.3-1.1-1.1
	v-26c0-0.3-0.2-0.6-0.6-0.6h-5.9c-0.8,0-1.1-0.3-1.1-1.1v-3.5c0-0.8,0.3-1.1,1.1-1.1h19.6c0.8,0,1.1,0.3,1.1,1.1v3.5
	c0,0.8-0.3,1.1-1.1,1.1h-5.9c-0.5,0-0.6,0.2-0.6,0.6v26C505.5,647.9,505.1,648.2,504.4,648.2 M557.5,648.2h-5.7
	c-2.7,0-4.8-0.8-6.4-2.2c-1.4-1.4-2.2-3.5-2.2-6.2v-16.4c0-2.7,0.8-4.8,2.2-6.2c1.4-1.4,3.7-2.2,6.4-2.2h5.7c2.7,0,4.8,0.8,6.4,2.2
	c1.4,1.4,2.2,3.5,2.2,6.2v16.4c0,2.7-0.8,4.8-2.2,6.2C562.2,647.6,560.2,648.2,557.5,648.2 M552.7,642.7h3.7c1.1,0,1.9-0.2,2.4-0.6
	c0.5-0.5,0.6-1.3,0.6-2.4v-15.8c0-1.1-0.2-1.9-0.6-2.4c-0.5-0.5-1.3-0.6-2.4-0.6h-3.7c-1.1,0-1.9,0.2-2.4,0.6
	c-0.5,0.5-0.6,1.3-0.6,2.4v15.8c0,1.1,0.2,1.9,0.6,2.4C550.8,642.3,551.6,642.7,552.7,642.7 M603,648.2h-4.3c-0.8,0-1.1-0.3-1.1-1.1
	v-31.1c0-0.8,0.3-1.1,1.1-1.1H611c2.7,0,4.8,0.8,6.4,2.2c1.6,1.4,2.2,3.5,2.2,6.2v4c0,3.8-1.6,6.5-4.6,7.8v0.2l5.6,11.5
	c0.3,0.8,0,1.3-1,1.3h-4.1c-0.6,0-1.1,0-1.3-0.2c-0.3-0.2-0.5-0.5-0.6-1l-5.1-11.1h-3.5c-0.5,0-0.6,0.2-0.6,0.6v10.7
	C604.1,647.9,603.8,648.2,603,648.2 M604.8,630.7h5.1c1.1,0,1.9-0.2,2.4-0.6c0.5-0.5,0.8-1.3,0.8-2.2v-4c0-1.1-0.3-1.9-0.8-2.4
	c-0.5-0.5-1.3-0.8-2.4-0.8h-5.1c-0.3,0-0.6,0.2-0.6,0.6v8.9C604.1,630.6,604.3,630.7,604.8,630.7 M669.8,648.2h-16.9
	c-0.8,0-1.1-0.3-1.1-1.1v-31.1c0-0.8,0.3-1.1,1.1-1.1h16.9c0.6,0,1,0.3,1,1.1v3.5c0,0.8-0.3,1.1-1,1.1h-10.8c-0.5,0-0.6,0.2-0.6,0.6
	v6.7c0,0.3,0.2,0.6,0.6,0.6h8.9c0.8,0,1.1,0.3,1.1,1.1v3.5c0,0.8-0.3,1.1-1.1,1.1h-8.9c-0.5,0-0.6,0.2-0.6,0.6v7.2
	c0,0.3,0.2,0.6,0.6,0.6h10.8c0.6,0,1,0.3,1,1.1v3.5C670.7,647.9,670.4,648.2,669.8,648.2"/>
</svg>
