<?xml version="1.0" encoding="utf-8"?>
<!-- Generator: Adobe Illustrator 23.0.0, SVG Export Plug-In . SVG Version: 6.00 Build 0)  -->
<svg version="1.1" id="레이어_1" xmlns="http://www.w3.org/2000/svg" xmlns:xlink="http://www.w3.org/1999/xlink" x="0px"
	 y="0px" viewBox="0 0 1000 1000" style="enable-background:new 0 0 1000 1000;" xml:space="preserve">
<style type="text/css">
	.st0{fill:#FFFFFF;}
	.st1{enable-background:new    ;}
</style>
<path class="st0" d="M223,554.9c-10.8,0-20.7-3-29.7-8.9c-8.9-5.9-15.6-13.3-20-22.7l-44.5-77.1c-9.2,16.7-13.3,34.8-13.3,53.8
	c0,27,8.9,50.4,26.4,70.4c17.4,20,39.3,31.9,65.3,36l31.1-54.2C235.3,553.4,229.7,554.9,223,554.9"/>
<path class="st0" d="M189.3,455.5c10-7.8,21.1-11.1,33.8-11.1h92.3c-9.6-16.3-22.7-28.2-38.9-37.5c-16.3-9.5-34.1-14.4-53.4-14.4
	c-16.7,0-32.6,3.7-47.1,10.8c-14.5,7-28.2,17.4-37.8,30.7l31.1,51.2C172.2,473.3,179.3,463.3,189.3,455.5"/>
<path class="st0" d="M322.4,459.5h-62.2c10.8,10.8,18.2,24.8,18.2,40.5c0,11.5-3.3,21.9-9.6,31.5l-44.5,76.1
	c29.3-0.4,54.5-10.8,75.3-31.9s31.1-46.4,31.1-75.7C330.6,486.3,328.4,471.8,322.4,459.5"/>
<path class="st0" d="M223,459.2c22.3,0,40.8,18.6,40.8,40.8c0,22.3-18.6,40.8-40.8,40.8s-40.8-18.6-40.8-40.8S200.8,459.2,223,459.2
	"/>
<g class="st1">
	<path class="st0" d="M408.3,558.5c-11.6,0-20.9-3.7-27.9-11.2c-6.9-7.5-10.5-18-10.5-31.6c0-13.6,3.5-24.2,10.5-31.6
		c6.9-7.4,16.3-11.2,27.9-11.2c8.9,0,16.5,2.3,22.4,6.8c6,4.6,9.5,11,10.6,19.6h-14.9c-0.2-4.9-2-8.7-5.5-11.2
		c-3.4-2.6-7.6-3.9-12.6-3.9c-6.9,0-12.6,2.7-16.9,7.9c-4.3,5.2-6.5,13.1-6.5,23.6c0,10.4,2.2,18.2,6.5,23.5
		c4.3,5.2,10,7.9,16.9,7.9c4.9,0,9-1.2,12.6-3.9c3.4-2.6,5.3-6.3,5.5-11.1h14.9c-1,8.6-4.7,15-10.6,19.6
		C424.6,556.3,417.2,558.5,408.3,558.5z"/>
	<path class="st0" d="M468.6,485.2c7.2-8.2,15.4-12.3,24.5-12.3c18.5,0,27.7,10.1,27.7,30.2v53.6h-14.6v-52.9
		c0-6.7-1.2-11.5-3.6-14.5s-6.3-4.4-11.8-4.4c-7.4,0-14.8,4.4-22.2,13.1v58.6H454V443.5h14.6L468.6,485.2L468.6,485.2z"/>
	<path class="st0" d="M584.5,488c-2.1-0.6-5-1-8.9-1c-7.4,0-13.8,3.9-19,11.6v57.9h-14.7v-81.9h14.6V486
		c6.1-8.9,13.2-13.2,21.3-13.2c2.1,0,4.3,0.2,6.7,0.6L584.5,488L584.5,488z"/>
	<path class="st0" d="M627.8,472.9c11.7,0,21,3.7,28,11.2c6.9,7.4,10.5,18,10.5,31.6c0,13.6-3.5,24.1-10.5,31.6
		c-6.9,7.5-16.3,11.2-28,11.2c-11.6,0-20.9-3.7-27.9-11.2c-6.9-7.5-10.5-18-10.5-31.6c0-13.6,3.5-24.2,10.5-31.6
		C606.8,476.6,616.1,472.9,627.8,472.9z M627.8,547.1c6.9,0,12.6-2.7,16.9-7.9c4.3-5.2,6.5-13.1,6.5-23.5c0-10.5-2.2-18.3-6.5-23.6
		c-4.3-5.2-10-7.9-16.9-7.9s-12.6,2.7-16.9,7.9c-4.3,5.2-6.5,13.1-6.5,23.6c0,10.4,2.2,18.2,6.5,23.5
		C615.2,544.4,620.8,547.1,627.8,547.1z"/>
	<path class="st0" d="M793.1,556.5h-14.6v-52.9c0-6.8-1-11.6-3-14.5s-5.2-4.3-9.8-4.3c-7,0-14,4.4-20.7,13.1v58.6h-14.5v-52.9
		c0-6.8-1-11.6-3-14.5s-5.2-4.3-9.9-4.3c-7,0-13.9,4.4-20.7,13.1v58.6h-14.6v-81.9h14.6V485c6.9-8.2,14.6-12.3,22.9-12.3
		c12,0,19.6,4.9,22.9,14.8c5.4-6.5,10.1-10.5,13.9-12.2c3.8-1.7,7.5-2.6,11.2-2.6c16.8,0,25.1,10.1,25.1,30.2L793.1,556.5
		L793.1,556.5z"/>
	<path class="st0" d="M848.9,558.5c-12,0-21.7-3.8-29-11.3S809,529.1,809,515.7c0-13.3,3.5-23.9,10.6-31.4
		c7-7.6,16.3-11.4,27.7-11.4c11.7,0,21,3.7,28,11.2c6.9,7.4,10.5,18,10.5,31.6v3.4h-61.7c0.6,9.4,3.2,16.5,7.8,21
		c4.6,4.6,10.3,6.9,17,6.9c5.1,0,9.7-1.3,13.8-3.9s6.3-6.3,6.5-11h15c-1.1,8.5-4.9,14.9-11.4,19.5
		C866.2,556.3,858.2,558.5,848.9,558.5z M870.3,507.7c-1.1-7.9-3.8-13.8-7.9-17.7s-9.1-5.9-15.1-5.9c-5.8,0-10.8,1.9-14.9,5.8
		s-6.9,9.8-7.9,17.7L870.3,507.7L870.3,507.7z"/>
</g>
</svg>
