<?xml version="1.0" encoding="utf-8"?>
<!-- Generator: Adobe Illustrator 23.0.0, SVG Export Plug-In . SVG Version: 6.00 Build 0)  -->
<svg version="1.1" id="레이어_1" xmlns="http://www.w3.org/2000/svg" xmlns:xlink="http://www.w3.org/1999/xlink" x="0px"
	 y="0px" viewBox="0 0 1000 1000" style="enable-background:new 0 0 1000 1000;" xml:space="preserve">
<path d="M618,537.8c-26.4,0.6-48.1-20.1-49.3-47c0-1.1,0-1.7,0-2.9c-0.6-13.2,4.6-25.8,13.8-35c9.2-9.2,21.8-14.3,35-14.3
	c13.2-0.6,25.8,5.2,34.4,15.5l-8.6,8.6c-6.3-8-16-12.6-25.8-12c-9.7,0-19.5,3.4-26.4,10.3c-6.9,7.5-10.9,17.2-10.3,26.9
	c-0.6,10.3,3.4,20.1,10.3,26.9c6.9,6.9,16.6,10.9,26.4,10.3c10.9,0,21.8-5.2,28.7-13.8l8.6,8.6c-4.6,5.2-10.3,9.7-16.6,12.6
	C632.3,536.7,624.9,537.8,618,537.8z M677,441.5v94.6h-12v-94.6H677z M687.4,503.4c0-9.2,2.9-17.8,9.2-24.6
	c6.3-6.3,14.9-9.7,24.1-9.7c9.2,0,17.8,3.4,23.5,9.7c6.3,6.9,9.7,15.5,9.7,24.6c0.6,9.2-2.9,18.3-9.7,24.6
	c-6.3,6.3-14.9,9.7-23.5,9.7c-9.2,0-17.8-3.4-24.1-9.7C690.8,521.8,687.4,512.6,687.4,503.4z M700,503.4c0,6.3,1.7,12,6.3,16.6
	c8,8,20.6,8.6,29.2,1.1c0.6,0,0.6-0.6,1.1-1.1c4-4.6,6.3-10.9,6.3-16.6c0-6.3-1.7-12-6.3-16.6c-7.5-8-20.6-8.6-28.7-1.1
	c-0.6,0.6-0.6,0.6-1.1,1.1C701.7,491.4,699.4,497.1,700,503.4z M820.9,536.1h-11.5v-9.2h-0.6c-2.3,3.4-5.2,6.3-8.6,8
	c-3.4,2.3-8,2.9-12,2.9c-6.9,0.6-13.2-2.3-18.3-6.9c-4.6-5.2-6.9-12-6.3-19.5v-40.1h12v39.5c-1.1,8,4.6,14.9,12.6,16
	c1.1,0,2.3,0,3.4,0c4.6,0,9.2-2.3,12-5.7c3.4-4,5.2-9.2,4.6-13.8v-36.1h12L820.9,536.1z M862.2,537.8c-8.6,0-16-3.4-21.8-9.7
	c-6.3-6.9-9.2-15.5-9.2-24.6c0-9.2,2.9-17.8,9.2-24.6c5.2-6.3,13.2-10.3,21.8-10.3c4.6,0,9.2,1.1,13.2,2.9c3.4,1.7,6.9,4.6,9.2,8
	h0.6v-8.6v-29.2h12v94.6h-11.5v-9.2h-0.6c-2.3,3.4-5.2,6.3-9.2,8C871.3,537.3,866.7,537.8,862.2,537.8z M863.9,526.9
	c5.7,0,10.9-2.3,14.9-6.3c4-4.6,6.3-10.9,5.7-16.6c0-6.3-1.7-12-5.7-16.6c-3.4-4.6-9.2-6.9-14.9-6.3c-5.7,0-10.9,2.3-14.9,6.3
	c-4,4.6-5.7,10.9-5.7,16.6c-0.6,6.3,1.7,12,5.7,16.6C853,524.6,858.7,526.9,863.9,526.9z"/>
<g id="_75x24px">
	<path d="M157.8,537.8c-29.8,0-53.9-23.5-54.4-53.3c0.6-29.8,24.6-53.3,54.4-53.3c13.8,0,26.9,5.2,36.7,14.9l-10.3,10.3
		c-6.9-6.9-16.6-10.3-26.4-10.3c-21.2,0-38.4,17.2-38.4,38.4v0.6c0,21.2,16.6,38.4,37.8,39h0.6c10.3,0.6,20.1-3.4,26.9-10.9
		c4.6-5.2,7.5-11.5,8-18.3h-35v-14.9h49.3c0.6,2.9,0.6,6.3,0.6,9.2c0.6,12.6-4,24.6-12.6,33.8C185.3,533.2,171.6,538.4,157.8,537.8z
		"/>
	<path d="M283.9,503.4c0.6,18.9-13.8,34.4-32.7,35.5c-18.9,0.6-34.4-13.8-35.5-32.7c0-1.1,0-1.7,0-2.9
		c-0.6-18.9,13.8-34.4,32.7-35.5c18.9-0.6,34.4,13.8,35.5,32.7C283.9,501.7,283.9,502.9,283.9,503.4z M269,503.4
		c1.1-10.3-6.9-20.1-17.2-21.2c-10.3-1.1-20.1,6.9-21.2,17.2c0,1.1,0,2.3,0,3.4c-1.1,10.3,6.9,20.1,17.2,21.2s20.1-6.9,21.2-17.2
		C269,505.7,269,504.6,269,503.4z"/>
	<path d="M360.1,503.4c0.6,18.9-13.8,34.4-32.7,35.5c-18.9,0.6-34.4-13.8-35.5-32.7c0-1.1,0-1.7,0-2.9
		c-0.6-18.9,13.8-34.4,32.7-35.5c18.9-0.6,34.4,13.8,35.5,32.7C360.1,501.7,360.1,502.9,360.1,503.4z M345.2,503.4
		c0.6-10.3-6.9-20.1-17.8-20.6c-10.3-0.6-20.1,6.9-20.6,17.8c0,1.1,0,1.7,0,2.9c-0.6,10.3,6.9,20.1,17.8,20.6
		c10.3,0.6,20.1-6.9,20.6-17.8C345.2,505.7,345.2,504.6,345.2,503.4z"/>
	<path d="M434.6,471.3v61.9c0,25.2-14.9,35.5-32.7,35.5c-13.2,0-25.2-8-30.4-20.1l13.2-5.7c2.9,7.5,9.7,12,17.2,12
		c11.5,0,18.3-6.9,18.3-20.1v-5.2h-0.6c-4.6,5.2-11.5,8-18.3,8c-18.9,0-34.4-15.5-34.4-34.4c0-18.9,15.5-34.4,34.4-34.4
		c6.9,0,13.8,2.9,18.3,8h0.6v-5.7H434.6z M421.5,504c1.1-10.9-6.9-20.1-17.8-21.2h-0.6c-10.9,0.6-19.5,9.7-19.5,20.6c0,0,0,0,0,0.6
		c-0.6,10.9,8,20.1,18.9,20.6c0,0,0,0,0.6,0c10.3-0.6,18.9-9.2,18.3-20.1C421.5,504.6,421.5,504,421.5,504L421.5,504z"/>
	<path d="M461,434.7v100.9h-14.9V434.7H461z"/>
	<path d="M520.6,514.9l12,8c-6.3,9.7-17.2,15.5-28.7,15.5c-18.3,0-33.2-14.3-33.8-32.7c0-0.6,0-1.1,0-1.7
		c-1.7-17.2,11.5-32.7,28.7-34.4c14.9-1.1,28.1,8,32.7,21.8l1.7,4l-45.8,18.9c2.9,6.3,9.7,10.9,16.6,10.3
		C510.9,524.6,517.2,520.6,520.6,514.9z M484.5,502.3l30.9-12.6c-2.3-4.6-7.5-7.5-12.6-6.9C491.9,483.4,483.9,492,484.5,502.3
		L484.5,502.3z"/>
</g>
</svg>
