<?xml version="1.0" encoding="utf-8"?>
<!-- Generator: Adobe Illustrator 27.9.0, SVG Export Plug-In . SVG Version: 6.00 Build 0)  -->
<svg version="1.1" id="레이어_1" xmlns="http://www.w3.org/2000/svg" xmlns:xlink="http://www.w3.org/1999/xlink" x="0px"
	 y="0px" viewBox="0 0 1000 1000" style="enable-background:new 0 0 1000 1000;" xml:space="preserve">
<style type="text/css">
	.st0{fill:#FFFFFF;}
</style>
<path class="st0" d="M259.2,465.6L225,543.8l-9.8-67.9c-1.4-9.4,14.5-15,14.5-15c-1.4-3.3-6.6-3.3-6.6-3.3h-10.8
	c-1.9-16.9,13.6-29,30-25.3S264.4,453.4,259.2,465.6z"/>
<path class="st0" d="M196,569l-66.9-44.5c-16.9-11.2-33.7,0.5-37.5,12.2c-5.1,17.8,6.6,32.3,24.8,32.3H196z"/>
<path class="st0" d="M204.5,458.5c2.3-17.3-13.1-30-29.5-26.2c-15.9,3.7-22,21.1-16.9,32.8l34.2,78.2L204.5,458.5L204.5,458.5z"/>
<path class="st0" d="M189.5,556.4l-32.8-74.9c-7.5-17.3-28.1-19.7-39.3-9.4c-8,7-14,26.7,3.7,38.4L189.5,556.4z"/>
<path class="st0" d="M300.9,569c18.3,0,30-14.5,24.8-32.3c-3.7-12.2-20.1-23.4-37.5-12.2L221.8,569H300.9z"/>
<path class="st0" d="M296.2,511c17.8-11.7,11.7-31.4,3.7-38.4c-11.2-10.3-31.4-8-39.3,9.4l-32.8,74.9L296.2,511z"/>
<path class="st0" d="M491,435.6h31.4l64.6,86.1v-86.1h29.5V569h-31.4l-64.6-86.6V569H491V435.6z"/>
<path class="st0" d="M765.3,526.9c0,36.5-29,42.1-47.3,42.1h-77.7V435.6H718c23.9,0,42.6,13.6,42.6,38.9c0,12.6-8.9,19.7-15.4,22.9
	C756.4,502.6,765.3,510.5,765.3,526.9z M668.9,460.4v25.3h45.9c7.5,0,15.9-3.3,15.9-12.6s-6.6-12.6-16.9-12.6
	C713.8,460.4,668.9,460.4,668.9,460.4z M735.3,526.9c0-12.6-10.8-15.9-21.1-15.9h-45.4v31.8h46.3
	C723.6,542.3,735.3,539.5,735.3,526.9L735.3,526.9z"/>
<path class="st0" d="M913.2,547c-14.5,12.6-30.4,25.3-61.3,25.3c-41.7,0-73.5-32.3-73.5-70.7c0-39.3,33.2-69.8,73.5-69.8
	c35.1,0,53.8,22.5,56.2,24.8l-22,22c-4.7-4.7-15-15.9-34.6-15.9c-23.4,0-42.6,17.8-42.6,39.3c0,18.7,16.4,39.3,42.6,39.3
	c21.1,0,28.6-7,41.2-17.8L913.2,547L913.2,547z"/>
<path class="st0" d="M477.4,547c-14.5,12.6-30.4,25.3-61.8,25.3c-41.7,0-73.5-32.3-73.5-70.7c0.5-39.3,34.2-69.8,74.4-69.8
	c35.1,0,53.8,22.5,56.2,24.8l-22,22c-4.7-4.7-15-15.9-34.2-15.9c-23.4,0-42.6,17.8-42.6,39.3c0,18.7,16.4,39.3,42.1,39.3
	c21.1,0,28.6-7,41.2-17.8L477.4,547L477.4,547z"/>
</svg>
