<?xml version="1.0" encoding="utf-8"?>
<!-- Generator: Adobe Illustrator 27.9.0, SVG Export Plug-In . SVG Version: 6.00 Build 0)  -->
<svg version="1.1" id="레이어_1" xmlns="http://www.w3.org/2000/svg" xmlns:xlink="http://www.w3.org/1999/xlink" x="0px"
	 y="0px" viewBox="0 0 1000 1000" style="enable-background:new 0 0 1000 1000;" xml:space="preserve">
<style type="text/css">
	.st0{fill:#FFFFFF;}
</style>
<g>
	<g>
		<path class="st0" d="M631.1,417c0,0-12.2,4.9-26.3,20.5c-14.2,15.7-22.5,33.2-16.4,37.9c2.3,1.8,7.7,2.1,17.6-6.8
			c9.1-7.8,16.2-17.8,20.8-28.9C633.1,424.3,631.1,417.3,631.1,417 M708.8,445.2c-15.8-8-27.3-18-39.3-24.1
			c-11.4-5.9-18.8-8.4-28-7.1c-1.3,0.2-2.5,0.5-3.8,1c0,0,4.8,16.3-14.2,43.6c-19.2,27.7-36.6,27.5-41.6,19.9
			c-5.2-8,1.5-24.4,12.7-38.9c11.7-15.2,32.3-27.8,32.3-27.8s-6.6-4-22.6,5.1c-15.8,8.9-42.8,30.1-67.8,65.7
			c-25.1,35.7-30.1,55.3-33.7,70.8c-3.6,15.4-0.3,32.1,16.8,32.1s37.1-26.1,42.8-35.2c10.5-16.9,17.2-42.9,3.1-39.4
			c-7,1.8-12.7,9.5-16.3,17c-2.2,4.8-4,9.8-5.2,15c-5,2-9.6,4.8-13.9,8c-4.8,3.5-9.1,7.4-13.2,11.6c0,0,0.1-12.4,9.9-32.4
			s27.9-29.1,38.2-29.9c9.2-0.7,21.3,7.1,11.1,36c-10.2,28.9-40.2,64-71.7,64.4c-29.1,0.4-48.1-36.7-7.6-101.6
			c44.6-71.6,97.1-93.7,114.3-96.1s22.6,5.1,22.6,5.1c10.3-4.2,21.4-6,32.5-5.4c20.8,1.4,37,16.2,58.3,26.6
			C718.8,434.4,713.5,440,708.8,445.2 M802.4,421.1c-14.5,9.3-34.5,17.7-53.7,15.9c-4.9,5.1-10.1,10.9-15.3,17.2
			c33.3,6.6,62.5-14.1,78.1-31.6c5.6-6.3,10.5-13.3,14.5-20.8C818.9,409.1,811,415.6,802.4,421.1 M758.1,514.9
			c0.2-0.4,0.4-1,0.6-1.4c-0.2-1.6-1.5-2.8-3.1-3c-3.2-0.1-7.5,0.4-18.8,13c-9.4,10.4-17.6,21.9-24.1,34.3
			c-6.5,11.9-9.1,20.7-5.4,23c1.2,0.6,2.6,0.7,3.9,0.4c2.5-0.6,5.4-3,9.7-8c2-2.3,4.3-5.7,7-9.4
			C735.4,553.7,754.3,521.5,758.1,514.9 M640.1,528.7c1.9-5,4.3-14.7-0.7-18.5c-5.4-4-19.2,5.5-19.2,15.2
			c-0.1,9.9,9.6,14.5,12.1,15.1c1.4,0.3,1.8,0.3,2.4-0.7C636.7,536.2,638.5,532.5,640.1,528.7 M629.7,546.8c-3.4-1.6-6.6-3.6-9.4-6
			c-2.9-2.4-5.3-5.3-7.1-8.6c-0.2-0.3-0.4-0.1-0.6,0.2c-0.2,0.3-1.1,1.1-8.4,11.7c-7.3,10.7-18.5,32.9-8.4,36.7
			c6.6,2.4,17.4-9,23.3-16.5c4-5.3,7.7-10.8,10.9-16.6C630.3,547.1,630,547,629.7,546.8 M745.2,572.5c-2.8,4.4-5.9,12.9,3.2,7.6
			c11.1-6.5,27-30.5,27-30.5h7.2c-6.6,10.1-13.9,19.6-21.8,28.6c-11.3,12.5-25,23.8-34.7,22.8c-11.3-1.4-7.7-16.2-7.7-16.2
			s-16.2,17.2-27.4,16c-15.1-1.7-10.5-20.3-10.5-20.3s-17.1,21-28.8,20.3c-18.3-1.1-13.7-23.3-8.6-38.9c2.8-8.4,5.3-14.9,5.3-14.9
			s-1.8,0.4-5.7,1.1c-2,0.3-5.7,0.5-5.7,0.5s-7.6,13.4-13.7,21.5c-6,8-32,35.9-47.2,30.3c-14.1-5.2-9.4-26.7-1.3-43.8
			c12-25,45.6-60.8,65-56.1c20.1,4.9,0.4,41.6,0.4,41.6s0,0.1,0.2,0.2c0.4,0.1,1.5,0.3,3.9-0.2c2.5-0.5,5-1.3,7.4-2.2
			c0,0,20.2-42.3,42.5-70.1c22.3-27.7,66.9-75.3,84.3-63.8c4.2,2.9,2.3,12.6-3.4,24.4c-2.6,0.8-5.2,1.6-7.9,2.1
			c3.8-7,6.3-12.9,7.2-17c2.6-14.3-30.8,15.9-54.6,48.3c-14.4,19.6-27.2,40.2-38.2,61.8c4.3-2.6,8.5-5.6,12.3-8.8
			c10.7-8.8,20.7-18.3,30.3-28.3c9.2-9.4,17.8-19.4,25.8-29.7c2.5-0.1,5.1-0.4,7.6-0.7c-8.7,11.9-18.2,23.1-28.5,33.7
			c-9.5,9.6-19.8,20-28.8,27.5c-8,6.8-16.4,13-25.3,18.7c0,0-20.8,42.1-9.5,44.8c6.7,1.6,19.9-18.7,19.9-18.7s17.2-26.2,27.6-38.1
			c14.2-16.1,26.3-25.4,38.5-25.6c7.1-0.1,11.3,7.4,11.3,7.4l3.4-5.2h20.5C786.5,502.4,748.2,567.5,745.2,572.5 M802.4,421.1
			c-14.5,9.3-34.5,17.7-53.7,15.9c-4.9,5.1-10.1,10.9-15.3,17.2c33.3,6.6,62.5-14.1,78.1-31.6c5.7-6.3,10.5-13.3,14.5-20.8
			C818.9,409.1,811,415.6,802.4,421.1 M514.1,453h-19.5l-11,17.9h19.6L514.1,453z M421.7,514.7c8.4-11.4,31.2-51.3,31.2-51.3
			c-0.2-1.6-1.5-2.8-3.1-3c-3.2-0.1-8.5,1-18.9,14.1c-10.5,13.1-18.6,23.6-24.7,34.5c-6.6,11.9-9.4,20.3-5.6,22.5
			c1.2,0.6,2.6,0.7,3.9,0.4c2.4-0.6,5.6-3.1,9.9-8C416.6,521.6,418.9,518.4,421.7,514.7 M316.9,460.8c-5.4-4-19.2,5.5-19.2,15.2
			c-0.1,9.9,12.4,13,14,13.1c0.4,0,1-0.1,1.4-0.3c0.3-0.2,0.5-0.4,0.6-0.7c1.5-2.9,2.8-5.8,3.9-8.8
			C319.5,474.3,321.9,464.6,316.9,460.8 M308.8,495.2c-3.7-1.2-7.3-2.8-10.6-4.9c-3.2-2.1-5.8-5-7.5-8.4c-0.2-0.3-0.4-0.1-0.6,0.2
			c-0.2,0.3-1.3,1.7-8.7,12.5c-7.4,10.8-18.2,32.8-8,36.6c6.5,2.4,17.5-9.1,23.4-16.6c4.4-5.9,8.6-12.1,12.4-18.5
			C309.4,495.5,309.2,495.4,308.8,495.2 M468.2,501.8h7.2c0,0-35.9,51.9-56.1,49.4c-11.3-1.4-7.9-15.2-7.9-15.2
			s-15.9,18.6-30.5,14.8c-13.2-3.4-4.7-25.4-4.7-25.4c-1.5,0.6-30.2,32.9-50.3,25.2c-21.1-8.1-10.2-35.1-6.1-43.3
			c3.4-6.9,7.2-13.5,7.2-13.5s-3.3,1-5.3,1.4s-5.1,1.1-5.1,1.1s-9.9,16.2-16.1,24.2c-6.1,8-32,35.9-47.2,30.3
			c-15.2-5.6-11.4-26.9-2.9-43.8c13.9-27.4,46.9-61.2,66.7-56.1c20,5.1,3.5,37.7,3.5,37.7s4,0.5,13.5-6c13.8-9.4,32-34.6,51.5-31.6
			c9.2,1.4,17.9,10.9,6,28.9c-3.8,5.8-10.1,10.9-14.9,5.8c-3.1-3.2-0.4-9,2.8-12.9c2.5-3.3,6.5-5.1,10.6-4.9c0,0,3.3-7.4-5-7.3
			c-6.7,0.1-23.6,15.7-33.2,31.4c-8.8,14.5-22,39-8.7,44.4c12.3,5,35.4-22.6,46.2-37.1c10.8-14.5,35.3-47.3,55.9-48.6
			c7.1-0.4,11.3,6,11.3,6l2.4-3.8h20.6c0,0-38.7,64.8-41.8,69.6c-2.4,3.8-5.5,12.5,3.2,7.6C449.9,525.2,468.2,501.8,468.2,501.8
			 M457,605.5c-15.1-10.5-33.3-15.8-51.7-15.1c-10.2,0.3-19.5,5.4-25.3,13.7c-7.8-13.7-23.4-22.1-47.4-21.9
			c-38.8,0.4-77.2,18.3-107.7,18.3c-29.1,0.1-50.4-18.3-49.7-50.9c1.3-57.2,49.6-108.8,85.7-132c20.8-13.3,38.2-17.2,49.5-16
			c8.3,1,18.3,10.5,12,24.7c-9.2,20.6-22,18.9-21.6,9.1c0.3-6.5,4.6-10.5,7.7-12.7c2-1.4,5.6-1.8,7.5-1.9c1.8-1.6,3.2-12.8-11.6-9.1
			c-14.8,3.7-32.6,18.3-49.7,37.1c-17.1,18.8-43.7,54.5-50.3,92c-3.1,17.4-1.1,49,40.1,48.7c34.9-0.3,86.3-23.3,133.7-22.9
			c18.4,0.2,34.3,5.2,46.8,12.8C437.2,587,451.8,598,457,605.5"/>
	</g>
</g>
</svg>
