<?xml version="1.0" encoding="utf-8"?>
<!-- Generator: Adobe Illustrator 23.0.0, SVG Export Plug-In . SVG Version: 6.00 Build 0)  -->
<svg version="1.1" id="레이어_1" xmlns="http://www.w3.org/2000/svg" xmlns:xlink="http://www.w3.org/1999/xlink" x="0px"
	 y="0px" viewBox="0 0 1000 1000" style="enable-background:new 0 0 1000 1000;" xml:space="preserve">
<style type="text/css">
	.st0{fill:#FFFFFF;}
</style>
<g id="Layer_2">
	<g id="Layer_1-2">
		<path class="st0" d="M401.6,461.9V498l34.1-43.2c1.7-2.3,4.3-3.6,7.2-3.6h19.3l-37.6,47.6l38,49.8h-20.7c-2.9,0-5.8-1.4-7.3-3.9
			l-33-44.6v48.5h-10.1c-5.3,0-9.6-4.7-9.6-10.6v-86.9H392C397.3,451.1,401.6,455.8,401.6,461.9L401.6,461.9z"/>
		<path class="st0" d="M293.8,468.2H328c0,0,7.8-0.3,12.1,1.9c3.5,1.6,5.5,5.2,5.5,10.9c0,4.6-1.2,7.6-3.5,9.4
			c2.4,2.2,4.5,4.5,6.3,7.2c1,1.4,2.4,3.9,4.3,7.3c0.1,0.3,0.3,0.4,0.4,0.6c3.2-1.7,5.9-4.2,7.9-7.2c3.2-5.3,4.7-11.4,4.5-17.6
			c0-0.6-0.6-9.5-2.3-13.5c-1.2-3-3-5.9-5.3-8.3c-2.4-2.6-5.6-4.6-9.2-5.6c-5.2-1.6-10.6-2.2-16.1-2.2h-48.5v6.9
			c-0.3,5.3,3.9,9.9,9.2,10.2C293.5,468.2,293.6,468.2,293.8,468.2L293.8,468.2z"/>
		<path class="st0" d="M342.7,502c-4.9-7.3-9.8-8.9-12.8-9.2c-3-0.3-26,0-26,0v-6.6c0-5.9-4.3-10.6-9.6-10.6h-10.1V538
			c0,5.9,4.3,10.6,9.6,10.6h10.1v-38.7h23.3l19.3,36.1c0.7,1.6,2.3,2.6,4.2,2.6h19.4l-23-39.4C346.9,509.1,343.6,503.3,342.7,502z"
			/>
		<path class="st0" d="M839.2,475.8c2-6.3,5.9-11.9,10.9-16.3c4-3.5,8.8-5.8,14-6.9c5-1,10.2-1.4,15.4-1.4h23.7
			c5.3,0,9.6,4.7,9.6,10.6v6.3h-32.4c0,0-6.9,0-10.4,0.3c0,0-10.6,0.9-18.4,5.2c-7.6,4.2-11.4,7.6-15.5,13.4
			C836,486.9,837.9,479.6,839.2,475.8z"/>
		<path class="st0" d="M797,548.6c-14.2,0-24.9-3.9-31.9-11.1c-5.6-5.8-9.2-14-11.1-24.9c0.1,0.3,0.4,0.9,0.6,1
			c6.3,9.1,18.3,16.3,36.1,17.6c2.6,0.3,12.8,0.3,15,0.3h14.5c5.3,0,9.6,4.7,9.6,10.6v6.3L797,548.6z"/>
		<path class="st0" d="M215.9,493.7L198.8,542c-1.3,3.9-4.7,6.5-8.9,6.6h-13.1l35.7-97.4h23.6c-2.9,2.7-6.8,6.5-14.2,25.6
			C220.3,481.4,218.8,485,215.9,493.7z"/>
		<path class="st0" d="M269.9,533.5l-30.8-75.1c-4.5,6.9-8.1,14.2-10.6,21.9l10.5,27.5h-13.8c-4.5,0.1-8.2,3.3-9.2,7.6l-3.3,9.8h33
			l8.6,23.3h7.1C268,548.6,272.8,540.6,269.9,533.5L269.9,533.5z"/>
		<path class="st0" d="M497.4,475.7v73h10.8c5.3,0,9.6-4.7,9.6-10.6v-62.5L497.4,475.7L497.4,475.7z"/>
		<path class="st0" d="M476.8,451.2c-5.3,0-9.6,4.7-9.6,10.6v6.2h71.4c5.3,0,9.6-4.7,9.6-10.6v-6.2H476.8z"/>
		<path class="st0" d="M106.6,468.2c0,0,22,0,22.9,0s4.9,0.3,6.9,0.6c25,2.9,33.5,14.1,37.1,19.6c-1.7-11.4-5.8-20-11.5-26
			c-7.1-7.2-17.8-10.9-32.1-10.9H87v17L106.6,468.2z"/>
		<path class="st0" d="M693.1,493.7L676,542c-1.3,3.9-4.7,6.5-8.9,6.6H654l35.7-97.4h23.6c-2.9,2.7-6.8,6.5-14.2,25.6
			C697.4,481.4,695.9,485.5,693.1,493.7z"/>
		<path class="st0" d="M747.1,533.5l-30.8-75.1c-4.5,6.9-8.1,14.2-10.8,21.9l10.5,27.5h-13.5c-4.5,0.1-8.2,3.3-9.2,7.6l-2.6,9.8
			h31.9l8.6,23.3h7.1C745.2,548.6,750,540.6,747.1,533.5L747.1,533.5z"/>
		<path class="st0" d="M569.2,468.1h34.4c0,0,7.8-0.3,12.1,1.9c3.5,1.6,5.5,5.2,5.5,10.9c0,4.6-1.2,7.6-3.5,9.4
			c2.4,2.2,4.5,4.5,6.3,7.2c1,1.4,2.4,3.9,4.3,7.3c0.1,0.3,0.3,0.4,0.4,0.6c3.2-1.7,5.9-4.2,7.9-7.2c3.2-5.3,4.7-11.4,4.5-17.6
			c0-0.6-0.6-9.5-2.3-13.5c-1.2-3-3-5.9-5.3-8.3c-2.4-2.6-5.6-4.6-9.1-5.6c-5.2-1.4-10.6-2.2-16.1-2h-48.6v6.8
			C559.4,463.3,563.6,467.9,569.2,468.1C569.1,468.1,569.2,468.1,569.2,468.1z"/>
		<path class="st0" d="M618.1,502c-4.9-7.3-9.8-8.9-12.8-9.2c-3-0.3-26,0-26,0v-6.6c0-5.9-4.3-10.6-9.6-10.6h-10.1V538
			c0,5.9,4.3,10.6,9.6,10.6h10.1v-38.7h23.3l19.3,36.1c0.7,1.6,2.3,2.6,4.2,2.6h19.4l-23-39.4C622.3,509.1,619.2,503.3,618.1,502z"
			/>
		<path class="st0" d="M163.8,487.5c1.3,1.4,2.4,2.9,3.5,4.5c4,5.9,6.2,13,6.2,20.1c0,20-16.3,36.3-36.3,36.4l-6.6,0.1h-34
			c-5.3,0-9.6-4.7-9.6-10.6v-62.5h19.7v56.1h22.9c3.2,0.1,6.5-0.1,9.6-0.7c2.9-0.7,5.3-2.3,7.2-4.6c2-2.4,3.6-5.5,4.3-8.6
			s1.3-6.3,1.6-9.6c0.3-4.2,0.3-8.3,0.1-12.4c-0.1-4.6-0.7-9.2-1.7-13.8c-0.3-1-0.6-2-1-2.9c5.2,1.6,9.9,4.5,13.8,8.2L163.8,487.5z"
			/>
		<path class="st0" d="M790.5,468.6l1.4-0.1c1.4-0.1,2.9-0.3,4.3-0.3l33.5-0.1v-6.3c0-5.9-4.3-10.6-9.6-10.6h-23.7
			c-4.6,0-9.1,0.4-13.7,1.2h-0.1c-17.1,2.9-29.8,17.7-29.9,35.1c0,7.2,2.2,14.1,6.2,20c6.5,9.4,13.5,12.4,20.3,14.5l0,0l0,0
			c-2.6-5.3-4.3-10.9-4.9-16.8C772,486.5,779.3,470.2,790.5,468.6"/>
		<path class="st0" d="M912.9,503.7c0-5.9-4.3-10.6-9.6-10.6h-46.6c0.7-5.3,2.3-10.4,4.7-15.1l0,0l0,0l-0.6,0.1
			c-1.4,0.4-2.9,0.9-4.2,1.6c-6.3,2.6-11.7,7.1-15.4,12.8c-4,5.9-6.2,12.8-6.2,20c0,14.2,8.6,27.1,21.7,32.7c2.2,1,4.3,1.7,6.8,2.3
			c5,1,10.2,1.4,15.4,1.4h23.6c5,0,9.1-4.3,9.5-9.6c0-0.4,0-0.7,0-1.2v-6.5h-33.5c-1.4,0-2.9,0-4.3-0.3l-1.4-0.3l0,0
			c-7.9-1.2-13.8-9.6-15.8-21.2h56L912.9,503.7z"/>
		<path class="st0" d="M401.6,461.9V498l34.1-43.2c1.7-2.3,4.3-3.6,7.2-3.6h19.3l-37.6,47.6l38,49.8h-20.7c-3,0-5.8-1.4-7.3-3.9
			l-33-44.6v48.5h-10.1c-5.3,0-9.6-4.7-9.6-10.6v-86.8H392C397.3,451.2,401.6,456,401.6,461.9L401.6,461.9z"/>
		<path class="st0" d="M293.8,468.2H328c0,0,7.8-0.3,12.1,1.9c3.5,1.6,5.5,5.2,5.5,10.9c0,4.6-1.2,7.6-3.5,9.4
			c2.4,2.2,4.5,4.5,6.3,7.2c1,1.4,2.4,3.9,4.3,7.3c0.1,0.1,0.3,0.4,0.4,0.6c3.2-1.7,5.9-4.2,7.9-7.2c3.2-5.3,4.7-11.4,4.5-17.6
			c0-0.6-0.6-9.5-2.3-13.5c-1.2-3-3-5.9-5.3-8.3c-2.4-2.6-5.6-4.6-9.1-5.6c-5.2-1.4-10.6-2.2-16.1-2h-48.6v6.8
			c-0.3,5.3,3.9,9.9,9.4,10.2C293.5,468.2,293.6,468.2,293.8,468.2L293.8,468.2z"/>
		<path class="st0" d="M342.7,502c-4.9-7.3-9.8-8.9-12.8-9.2c-3-0.3-26,0-26,0v-6.6c0-5.9-4.3-10.6-9.6-10.6h-10.1V538
			c0,5.9,4.3,10.6,9.6,10.6h10.1v-38.7H327l19.4,36.1c0.7,1.6,2.3,2.6,4.2,2.6h19.6l-23-39.4C346.9,509.1,343.6,503.3,342.7,502z"/>
		<path class="st0" d="M839.2,475.8c2-6.3,5.9-11.9,10.9-16.3c4-3.5,8.8-5.8,14-6.9c5-1,10.2-1.4,15.4-1.4h23.7
			c5.3,0,9.6,4.7,9.6,10.6v6.3h-32.4c0,0-6.9,0-10.4,0.3c0,0-10.6,0.9-18.4,5.2c-7.6,4.2-11.4,7.6-15.5,13.4
			C836,487.1,837.9,479.6,839.2,475.8z"/>
		<path class="st0" d="M797,548.6c-14.2,0-24.9-3.9-31.9-11.1c-5.6-5.8-9.2-14-11.1-24.9c0.1,0.3,0.4,0.9,0.6,1
			c6.3,9.1,18.4,16.3,36.1,17.6c2.6,0.3,12.8,0.3,15,0.3h14.5c5.3,0,9.6,4.7,9.6,10.6v6.2L797,548.6z"/>
		<path class="st0" d="M215.9,493.7L198.8,542c-1.3,3.9-4.9,6.5-8.9,6.6h-13.1l35.7-97.4h23.6c-2.9,2.7-6.8,6.5-14.2,25.6
			C220.3,481.4,218.8,485,215.9,493.7z"/>
		<path class="st0" d="M269.9,533.5l-30.8-75.1c-4.5,6.9-8.1,14.2-10.6,21.9l10.5,27.6h-13.8c-4.5,0.1-8.2,3.3-9.2,7.6l-3.3,9.8h33
			l8.8,23.2h7.1C268,548.6,272.8,540.6,269.9,533.5z"/>
		<path class="st0" d="M497.4,475.8v73h10.8c5.3,0,9.6-4.7,9.6-10.6v-62.5L497.4,475.8L497.4,475.8z"/>
		<path class="st0" d="M476.8,451.4c-5.3,0-9.6,4.7-9.6,10.6v6.2h71.4c5.3,0,9.6-4.7,9.6-10.6v-6.2H476.8z"/>
		<path class="st0" d="M693.1,493.7L676,542c-1.3,3.9-4.9,6.5-8.9,6.6H654l35.7-97.4h23.6c-2.9,2.7-6.8,6.5-14.2,25.6
			C697.4,481.4,695.9,485.6,693.1,493.7z"/>
		<path class="st0" d="M747.1,533.5l-30.8-75.1c-4.5,6.9-8.1,14.2-10.8,21.9l10.5,27.6h-13.5c-4.5,0.1-8.2,3.3-9.2,7.6l-2.6,9.8
			h31.9l8.6,23.2h7.1C745.4,548.6,750,540.6,747.1,533.5L747.1,533.5z"/>
		<path class="st0" d="M569.4,468.2h34.2c0,0,7.8-0.3,12.1,1.9c3.5,1.6,5.5,5.2,5.5,10.9c0,4.6-1.2,7.6-3.3,9.4
			c2.4,2.2,4.5,4.5,6.3,7.2c1,1.4,2.4,3.9,4.3,7.3c0.1,0.3,0.3,0.4,0.4,0.6c3.2-1.7,5.9-4.2,7.9-7.2c3.2-5.3,4.6-11.4,4.3-17.6
			c0-0.6-0.6-9.5-2.3-13.5c-1.2-3-3-5.9-5.3-8.3c-2.4-2.6-5.6-4.6-9.1-5.6c-5.2-1.6-10.6-2.2-16.1-2h-48.6v6.9
			c-0.3,5.3,3.9,9.9,9.4,10.2C569.1,468.1,569.2,468.1,569.4,468.2L569.4,468.2z"/>
		<path class="st0" d="M618.1,502c-4.9-7.3-9.8-8.9-12.8-9.2c-3-0.3-26,0-26,0v-6.6c0-5.9-4.3-10.6-9.6-10.6h-10.1V538
			c0,5.9,4.3,10.6,9.6,10.6h10.1v-38.7h23.3l19.3,36.1c0.7,1.6,2.3,2.6,4.2,2.6h19.4l-23-39.4C622.5,509.1,619.2,503.3,618.1,502z"
			/>
		<path class="st0" d="M163.6,487.9c1.4,1.6,2.7,3.2,3.9,4.9c4,5.8,6,12.5,6,19.4c0,20-16.3,36.3-36.3,36.3l-6.6,0.1h-34
			c-5.3,0-9.6-4.7-9.6-10.6v-62.5h19.7v56.1h22.9c3.2,0.1,6.5-0.1,9.6-0.7c2.9-0.7,5.3-2.3,7.2-4.6c2-2.6,3.6-5.5,4.3-8.6
			c0.9-3.2,1.3-6.3,1.6-9.6c0.3-4.2,0.3-8.3,0.1-12.4c-0.1-4.6-0.7-9.2-1.7-13.8c-0.3-1-0.6-1.9-1-2.9c5,1.7,9.8,4.7,13.5,8.6
			L163.6,487.9z"/>
		<path class="st0" d="M790.5,468.6l1.4-0.1c1.4-0.1,2.9-0.3,4.3-0.1l33.5-0.1v-6.5c0-5.9-4.3-10.6-9.6-10.6h-23.7
			c-4.6,0-9.1,0.4-13.7,1.2h-0.1c-17.1,2.9-29.8,17.7-29.9,35.1c0,7.2,2.2,14.1,6.2,20c6.5,9.4,13.5,12.4,20.3,14.5l0,0l0,0
			c-2.6-5.3-4.3-10.9-4.9-16.8C772,486.6,779.3,470.4,790.5,468.6"/>
		<path class="st0" d="M912.9,503.7c0-5.9-4.3-10.6-9.6-10.6h-46.6c0.7-5.3,2.3-10.4,4.7-15.1l0,0l0,0l-0.6,0.1
			c-1.4,0.4-2.9,0.9-4.2,1.6c-6.3,2.6-11.7,7.1-15.4,12.8c-4,5.9-6.2,12.8-6.2,20c0,14.2,8.5,27.1,21.6,32.7c2.2,1,4.3,1.7,6.8,2.3
			c5,1,10.2,1.4,15.4,1.4h23.6c5,0,9.1-4.3,9.5-9.6c0-0.4,0-0.7,0-1.2v-6.2l-33.7-0.3c-1.4,0-2.9,0-4.3-0.3l-1.4-0.3l0,0
			c-7.9-1.2-13.8-9.6-15.8-21.2h56.1L912.9,503.7z"/>
	</g>
</g>
</svg>
