<?xml version="1.0" encoding="utf-8"?>
<!-- Generator: Adobe Illustrator 23.0.0, SVG Export Plug-In . SVG Version: 6.00 Build 0)  -->
<svg version="1.1" id="레이어_1" xmlns="http://www.w3.org/2000/svg" xmlns:xlink="http://www.w3.org/1999/xlink" x="0px"
	 y="0px" viewBox="0 0 1000 1000" style="enable-background:new 0 0 1000 1000;" xml:space="preserve">
<style type="text/css">
	.st0{fill:#FFFFFF;}
</style>
<g>
	<path class="st0" d="M738.8,486.2v28h-90.9V373.3h32v112.9L738.8,486.2L738.8,486.2z M318.5,514.2c32.8,0,60.4-22.4,68.2-52.7
		l79.7,62.3l79.7-62.3v52.7H637v-28h-58.9V373.3h-32V426l-76.4,59.7l-17.1-13.4l36.6-28.6l39.8-31.1l-22.8-17.8l-76.4,59.8
		l-17.1-13.4l76.5-59.7l-22.8-17.8L386.7,426c-7.8-30.4-35.4-52.8-68.2-52.8h-57.1v140.9h57.1V514.2z M293.3,486.2v-84.9h25.1
		c21.2,0,38.5,19,38.5,42.5c0,23.4-17.2,42.5-38.4,42.5h-25.2V486.2z"/>
	<path class="st0" d="M738.8,605.2c0-8.4-4.7-12.2-14-14c-9.3-1.9-15-2.8-15-9.3c0-4.7,3.7-7.5,10.3-7.5c8.4,0,11.2,3.7,11.2,8.4
		l0.9,0.9h3.7l1-0.9c0-9.3-7.5-13.1-16.9-13.1c-10.3,0-15.9,5.6-15.9,12.2c0,7.5,5.6,11.2,15,13.1c9.3,1.9,14,2.8,14,10.3
		c0,4.7-2.8,8.4-12.2,8.4c-8.4,0-12.2-4.7-12.2-10.3l-0.9-0.9h-3.7l-0.9,0.9c0,8.4,6.6,15,17.8,15
		C733.1,618.3,738.8,612.6,738.8,605.2 M698.5,595.8l0.9-1V592c0-13.1-7.5-22.5-20.6-22.5s-20.6,9.3-20.6,22.5v1.9
		c0,13.1,6.6,24.3,21.5,24.3c13.1,0,17.8-8.4,18.7-14l-1-0.9h-3.7l-0.9,0.9c-1.9,5.6-5.6,9.3-13.1,9.3c-12.2,0-15.9-11.2-15.9-16.9
		l1-0.9h33.7V595.8z M692.9,591.1h-28.1l-1-0.9c0-6.6,3.7-15.9,15-15.9c11.2,0,15,9.3,15,15.9L692.9,591.1z M651.7,616.4v-45
		l-0.9-0.9H647l-0.9,0.9v45l0.9,0.9h3.7L651.7,616.4z M651.7,562.1v-5.6l-0.9-1H647l-0.9,1v5.6l0.9,1h3.7L651.7,562.1z M616.1,613.6
		c-9.3,0-15-6.6-15-19.7c0-13.1,5.6-19.7,15-19.7c9.3,0,15,6.6,15,19.7S625.5,613.6,616.1,613.6 M631.1,610.8
		c0,12.2-2.8,21.5-14,21.5c-8.4,0-11.2-3.7-12.2-8.4l-0.9-1h-3.7l-0.9,1c0.9,7.5,6.6,13.1,17.8,13.1c12.2,0,19.7-7.5,19.7-26.2
		v-39.3l-0.9-0.9h-3l-0.9,0.9l-0.9,5.6h-1c-1.9-3.7-6.6-7.5-15-7.5c-13.1,0-19.7,10.3-19.7,24.3s6.6,24.3,19.7,24.3
		c8.4,0,13.1-3.7,15-7.5h0.9V610.8z M570.3,574.3c9.3,0,15.9,7.5,15.9,19.7s-6.6,19.7-15.9,19.7c-9.3,0-15.9-7.5-15.9-19.7
		C554.3,581.8,560.9,574.3,570.3,574.3 M570.3,618.3c12.2,0,21.5-8.4,21.5-24.3c0-15.9-9.3-24.3-21.5-24.3s-21.5,8.4-21.5,24.3
		C548.7,609.9,558.1,618.3,570.3,618.3 M542.2,616.4v-63.7l-0.9-1h-3.7l-1,1v63.7l1,0.9h3.7L542.2,616.4z M508.5,574.3
		c9.3,0,15.9,7.5,15.9,19.7s-6.6,19.7-15.9,19.7s-15.9-7.5-15.9-19.7C492.5,581.8,499.1,574.3,508.5,574.3 M508.5,618.3
		c12.2,0,21.5-8.4,21.5-24.3c0-15.9-9.3-24.3-21.5-24.3s-21.6,8.4-21.6,24.3C486.9,609.9,496.3,618.3,508.5,618.3 M481.3,616.4
		v-28.1c0-12.2-6.6-18.7-16.9-18.7c-6.6,0-12.2,2.8-15,7.5h-1l-0.9-5.6l-1-0.9h-2.8l-1,0.9v45l1,0.9h3.7l0.9-0.9v-25.3
		c0-10.3,4.7-16.9,15-16.9c7.5,0,12.2,4.7,12.2,14v28.1l1,0.9h3.7L481.3,616.4z M433.5,616.4v-28.1c0-12.2-6.6-18.7-16.9-18.7
		c-6.6,0-12.2,2.8-15,7.5h-1v-24.3l-1-1h-3.7l-1,1v63.7l1,0.9h3.7l1-0.9v-25.3c0-10.3,4.7-16.9,15-16.9c7.5,0,12.2,4.7,12.2,14v28.1
		l1,0.9h3.7L433.5,616.4z M353,593.9c0-13.1,6.6-19.7,15.9-19.7s13.1,5.6,14,11.2l1,1h3.7l1-1c-1-9.3-8.4-15.9-19.7-15.9
		c-12.2,0-21.5,7.5-21.5,24.3s9.3,24.3,21.5,24.3c11.2,0,18.7-6.6,19.7-15.9l-1-0.9h-3.7l-1,0.9c-1,5.6-4.7,11.2-14,11.2
		C359.6,613.6,353,607,353,593.9 M342.7,595.8l1-1V592c0-13.1-7.5-22.5-20.6-22.5s-20.6,9.3-20.6,22.5v1.9
		c0,13.1,6.6,24.3,21.5,24.3c13.1,0,17.8-8.4,18.7-14l-1-0.9H338l-1,0.9c-1.9,5.6-5.6,9.3-13.1,9.3c-12.2,0-15.9-11.2-15.9-16.9
		l0.9-0.9h33.8V595.8z M337.1,591.1H309l-0.9-0.9c0-6.6,3.7-15.9,15-15.9s15,9.3,15,15.9L337.1,591.1z M311.9,555.6v-2.8l-0.9-1
		h-48.7l-1,1v2.8l1,1h20.6l0.9,1v58.9l1,0.9h3.7l0.9-0.9v-59l0.9-1h20.6L311.9,555.6z"/>
</g>
</svg>
