<?xml version="1.0" encoding="utf-8"?>
<!-- Generator: Adobe Illustrator 23.0.0, SVG Export Plug-In . SVG Version: 6.00 Build 0)  -->
<svg version="1.1" id="레이어_1" xmlns="http://www.w3.org/2000/svg" xmlns:xlink="http://www.w3.org/1999/xlink" x="0px"
	 y="0px" viewBox="0 0 1000 1000" style="enable-background:new 0 0 1000 1000;" xml:space="preserve">
<g>
	<path d="M843.8,551.1c0-11.5,9.3-20.4,20.4-20.4c11.5,0,20.4,9.3,20.4,20.4s-9.3,20.4-20.4,20.4
		C853.2,571.4,843.8,562.5,843.8,551.1"/>
	<path d="M232,496.3c0,23.8-5.9,41.6-18.7,54.3c-12.7,12.7-30.6,19.1-53.5,19.1h-45V428.5h47.5c22.5,0,39.5,5.5,51.3,17.4
		C226,457.3,232,474.3,232,496.3 M192.9,497.6c0-13.2-2.5-22.5-7.6-28.9c-4.7-5.9-12.7-9.3-22.9-9.3h-10.2v78.9h8.5
		c11.5,0,19.5-3.4,25-10.2C190.4,521.4,192.9,511.2,192.9,497.6"/>
	<rect x="355.4" y="428" width="35.2" height="141.7"/>
	<path d="M506.9,516.7c0,17-4.2,30.6-13.6,40.3s-22.1,14.4-38.2,14.4c-15.7,0-28-4.7-37.3-14.9c-9.3-10.2-14-23.3-14-39.9
		c0-17,4.2-30.6,13.6-39.9c9.3-9.8,22.1-14.4,38.2-14.4c10.2,0,19.1,2.1,26.7,6.4c8.1,4.2,13.6,10.6,17.8,18.7
		C505.2,496.3,506.9,505.7,506.9,516.7 M440.3,516.7c0,9.3,1.3,15.7,3.4,20.4c2.1,4.7,5.9,6.8,11.9,6.8c5.9,0,9.3-2.1,11.9-6.8
		c2.1-4.7,3.4-11.9,3.4-20.4c0-9.3-1.3-15.7-3.4-20.4c-2.1-4.2-5.9-6.8-11.9-6.8c-5.1,0-9.3,2.1-11.9,6.8
		C441.6,501,440.3,507.4,440.3,516.7"/>
	<rect x="521.3" y="464.1" width="35.2" height="105.2"/>
	<rect x="521.3" y="428" width="35.2" height="23.8"/>
	<path d="M628.3,542.6c4.7,0,10.6-1.3,17-3.4v26.7c-4.7,2.1-9.3,3.4-13.6,4.2s-9.3,1.3-15.3,1.3c-11.9,0-20.4-3-25.9-9.3
		c-5.1-5.9-8.1-15.3-8.1-27.6v-43.3h-12.3v-27.2h12.3v-26.3l35.6-5.9v33.1H641v26.7h-22.9v40.7C618.9,539.6,621.9,542.6,628.3,542.6
		"/>
	<path d="M710.6,542.6c4.7,0,10.6-1.3,17-3.4v26.7c-4.7,2.1-9.3,3.4-13.6,4.2s-9.3,1.3-15.3,1.3c-11.9,0-20.4-3-25.9-9.3
		c-5.1-5.9-8.1-15.3-8.1-27.6v-43.3h-12.3v-27.2h12.3v-26.7l35.6-5.5v33.1h22.9v26.7h-22.9v40.7
		C700.8,539.6,704.2,542.6,710.6,542.6"/>
	<path d="M822.6,474.7c-8.5-8.5-20.4-12.3-35.6-12.3c-16.1,0-28.9,4.7-37.8,14.4c-8.9,9.8-13.2,23.3-13.2,41.2
		c0,17,4.7,30.6,14,39.9c9.8,9.3,22.9,14,39.9,14c8.5,0,15.3-0.4,21.2-1.7c5.5-1.3,11.9-3,17-5.9l-5.1-23.8c-3.8,1.7-8.1,3-11.5,3.8
		c-5.1,1.3-11,1.7-17,1.7c-6.8,0-12.3-1.7-16.1-4.7c-3.8-3.4-5.9-8.1-5.9-14h63.2v-16.5C835.3,495.1,830.7,483.2,822.6,474.7
		 M772.5,504c0.4-5.5,2.1-10.2,4.7-12.7c2.5-2.5,5.9-3.8,10.6-3.8c4.2,0,8.5,1.3,11,4.2c2.5,3,3.8,6.8,4.2,12.3H772.5z"/>
	<path d="M329.1,474.7c-8.9-8.5-20.4-12.3-35.6-12.3c-16.1,0-28.9,4.7-37.8,14.4c-8.9,9.8-13.2,23.3-13.2,41.2
		c0,17,4.7,30.6,14,39.9c9.8,9.3,22.9,14,39.9,14c8.5,0,15.3-0.4,21.2-1.7c5.5-1.3,11.9-3,17-5.9l-5.1-24.2c-3.8,1.7-8.1,3-11.5,3.8
		c-5.1,1.3-11,1.7-17,1.7c-6.8,0-12.3-1.7-16.1-4.7c-3.8-3.4-5.9-8.1-5.9-14h63.2v-16.1C341.9,495.1,337.2,483.2,329.1,474.7
		 M278.6,504c0.4-5.5,2.1-10.2,4.7-12.7c2.5-2.5,5.9-3.8,10.6-3.8s8.5,1.3,11,4.2s3.8,6.8,4.2,12.3H278.6z"/>
</g>
</svg>
