<?xml version="1.0" encoding="utf-8"?>
<!-- Generator: Adobe Illustrator 23.0.0, SVG Export Plug-In . SVG Version: 6.00 Build 0)  -->
<svg version="1.1" id="레이어_1" xmlns="http://www.w3.org/2000/svg" xmlns:xlink="http://www.w3.org/1999/xlink" x="0px"
	 y="0px" viewBox="0 0 1000 1000" style="enable-background:new 0 0 1000 1000;" xml:space="preserve">
<style type="text/css">
	.st0{fill:#FFFFFF;}
	.st1{opacity:0.5;fill:#FFFFFF;enable-background:new    ;}
</style>
<g id="DP_World_Logo_Colour_BlackBG_Horizontal_RGB" transform="translate(-143.9 -143.924)">
	<path id="Path_70212" class="st0" d="M428.6,680.3c-26.6,9.5-55.5,11-83,4.2c-22.5-5.1-43.2-15.9-64.8-23.3
		c-34.1-12.1-51.1,0-73.3,25.3c8.8-21.6,27.8-46.3,65.9-43.2c25.1,2,48.2,9.3,66.5,11.9c86.3,11.9,148-36.8,146.9-87.7
		C491.1,592.9,493.7,652.8,428.6,680.3z"/>
	<path id="Path_70213" class="st0" d="M339.8,655.4L339.8,655.4c-1.8-51.5,38.8-94.9,90.3-96.5c5.9-0.2,11.9,0.2,17.8,1.1
		c-48.9-23.6-107.7-2.9-131.3,46c-6.4,13.4-9.7,28-9.7,42.7C319.1,651.2,330.1,654.1,339.8,655.4z"/>
	<g id="Group_14038" transform="translate(161.828 143.924)">
		<path id="Path_70214" class="st1" d="M178,511.3L178,511.3c-1.8-51.5,38.8-94.9,90.3-96.5c5.9-0.2,11.9,0.2,17.8,1.1
			c-48.9-23.6-107.7-2.9-131.3,46c-6.4,13.4-9.7,28-9.7,42.7C157.3,507.4,168.3,510,178,511.3z"/>
	</g>
	<g id="Group_14039" transform="translate(207.828 155.967)">
		<path id="Path_70215" class="st0" d="M386.6,461.7h-31.9v61.4h31.7c17,0.7,31.3-12.6,31.9-29.5c0.7-17-12.6-31.3-29.5-31.9
			C388.2,461.7,387.3,461.7,386.6,461.7z M386.4,509.7h-17v-34.1h17.2c9.5-0.2,17.2,7.3,17.4,16.7c0.2,9.5-7.3,17.2-16.7,17.4
			C386.9,509.7,386.6,509.7,386.4,509.7z"/>
		<path id="Path_70216" class="st0" d="M841.2,461.7h-31.7v61.4h31.7c17,0.7,31.3-12.6,31.9-29.5s-12.6-31.3-29.5-31.9
			C843,461.7,842.1,461.7,841.2,461.7z M841.2,509.7H824v-34.1h17.2c9.5-0.2,17.2,7.3,17.4,16.7c0.2,9.5-7.3,17.2-16.7,17.4
			C841.7,509.7,841.4,509.7,841.2,509.7z"/>
		<path id="Path_70217" class="st0" d="M425,461.7h36.1c12.6-0.7,23.1,9,23.8,21.6c0,0.4,0,0.9,0,1.3c0,12.8-10.1,23.1-22.7,23.1
			c-0.4,0-0.7,0-1.1,0h-21.4v15.4H425V461.7L425,461.7z M439.7,475.1v19.2h20.7c5.3,0,9.5-4.2,9.5-9.5s-4.2-9.5-9.5-9.5h-20.7V475.1
			z"/>
		<path id="Path_70218" class="st0" d="M589.7,461.7l-12.8,37.7L563,461.7h-18.7l-13.9,37.7l-12.8-37.7h-15l19.4,61.4h14.8l17-46
			l17,46h14.5l19.4-61.4L589.7,461.7L589.7,461.7z"/>
		<path id="Path_70219" class="st0" d="M678,461.7h38.1c6.4-0.2,12.3,2,17.2,6.2c8.1,8.6,7.9,22.2-0.7,30.4
			c-1.1,0.9-2.2,1.8-3.3,2.6l11.5,22.2h-16.1l-8.6-18.5H693v18.5h-14.8L678,461.7L678,461.7z M692.6,475.1v16.3h22.2
			c4.4,0.7,8.4-2.4,9-6.8c0-0.4,0-0.9,0-1.3c0-5.5-3.5-8.1-9.3-8.1h-21.9V475.1z"/>
		<path id="Path_70220" class="st0" d="M747.4,461.7h14.8v47.4h41v14.1h-55.7L747.4,461.7L747.4,461.7z"/>
		<path id="Path_70221" class="st0" d="M637.5,461c-19.8,0-33.7,12.3-33.7,31.5s13.7,31.5,33.7,31.5c19.8,0,33.7-12.3,33.7-31.5
			C671.2,473.4,657.5,461,637.5,461z M637.5,509.5L637.5,509.5c-11.2,0-18.9-6.8-18.9-17s7.7-17,18.9-17l0,0
			c11.2,0,18.9,6.8,18.9,17c0,9.5-7.7,17.2-17.2,17.2C638.8,509.7,638.2,509.7,637.5,509.5z"/>
	</g>
	<path id="Path_70222" class="st0" d="M412.7,746.8c-37.7,2.9-73.6-16.1-92.5-48.9c62.3,54.8,184.8,11.7,179.1-78.6
		c16.1,52.2-13.2,107.5-65.4,123.6C427,744.8,420,746.1,412.7,746.8z"/>
</g>
</svg>
