<?xml version="1.0" encoding="utf-8"?>
<!-- Generator: Adobe Illustrator 23.0.0, SVG Export Plug-In . SVG Version: 6.00 Build 0)  -->
<svg version="1.1" id="레이어_1" xmlns="http://www.w3.org/2000/svg" xmlns:xlink="http://www.w3.org/1999/xlink" x="0px"
	 y="0px" viewBox="0 0 1000 1000" style="enable-background:new 0 0 1000 1000;" xml:space="preserve">
<style type="text/css">
	.st0{fill:#FFFFFF;}
</style>
<g>
	<g id="Layer_1">
		<g id="g6">
			<polygon id="polygon8" class="st0" points="125.8,440.1 170.5,475.9 235.5,435.5 190.4,397.8 			"/>
			<polygon id="polygon10" class="st0" points="190.4,553.7 235.5,516 170.5,475.9 125.8,511.6 			"/>
			<polygon id="polygon12" class="st0" points="280.8,553.7 345.4,511.6 300.7,475.9 235.5,516 			"/>
			<polygon id="polygon14" class="st0" points="280.8,397.8 235.5,435.5 300.7,475.9 345.4,440.1 			"/>
			<polygon id="polygon16" class="st0" points="300.5,563.3 300.5,549.1 281.1,561.8 235.7,524.1 190.4,561.8 171,549.1 171,563.3 
				235.7,602.1 			"/>
		</g>
	</g>
	<g id="Layer_2">
		<g id="g19">
			<path id="path21" class="st0" d="M378.3,553.7h29.9c8.7,0,20.9,0,31-7.8c12.2-9.4,18.5-28.3,18.5-49.7c0-55.8-35.3-56-52.8-56
				h-26.8v113.6L378.3,553.7L378.3,553.7z M403.2,459.7h4.4c10,0,24,1.1,24,36.2c0,37.1-14,38.4-24,38.4h-4.4V459.7z"/>
			<path id="path23" class="st0" d="M466.4,469.8v83.9h23.3v-36.2c0-6.5,0-25.9,17.2-25.9c0.9,0,2,0,3.9,0.4v-22.9
				c-1.1-0.4-2.4-0.4-4.1-0.4c-13.7,0-17.7,14.4-19.8,21.4v-20.3L466.4,469.8L466.4,469.8z"/>
			<path id="path25" class="st0" d="M548.4,467.8c-25.1,0-34.2,17.4-34.2,43.8c0,27,9.8,43.8,34.2,43.8c24.6,0,34.2-16.8,34.2-43.8
				C582.6,485.5,573.5,467.8,548.4,467.8z M548.4,484.2c7.2,0,9.8,5.9,9.8,27.5c0,22.5-3.1,27.5-9.8,27.5c-7,0-10-5-10-27.5
				C538.3,490.9,540.7,484.2,548.4,484.2L548.4,484.2L548.4,484.2z"/>
			<path id="path27" class="st0" d="M589.6,469.8v112.5h23.1v-34.7c2.6,2.6,6.8,7.4,16.1,7.4c26.8,0,28.6-32.3,28.6-44.3
				c0-14.2-2.8-27.3-10.9-35.5c-4.1-4.1-10.5-6.5-16.1-6.5c-11.3,0-16.1,8.3-19,13.7v-12.6L589.6,469.8L589.6,469.8z M612.5,503.3
				c0-7.4,0-19.4,10.7-19.4c8.9,0,9.8,11.8,9.8,26.6c0,17.7-0.9,28.1-10.5,28.1c-9.8,0-9.8-7.2-9.8-19.2L612.5,503.3L612.5,503.3z"
				/>
			<path id="path29" class="st0" d="M664.2,440.1v113.6h13.7c2-5.9,2.8-7.6,4.4-10.9c2,4.4,5.9,12.6,19.4,12.6
				c4.4,0,8.9-0.9,13.7-3.3c15.3-8.1,16.4-33.1,16.4-41c0-20.3-6.5-42.5-27-42.5c-10,0-14.6,5.5-17.7,8.9V440h-22.9V440.1z
				 M687,499.4c0-4.4,0-8.5,2.8-11.8c1.7-2.2,4.4-3.5,7.4-3.5c6.8,0,10.2,5.7,10.2,27.7c0,21.6-3.3,27.5-10.7,27.5
				c-9.8,0-9.8-10.9-9.8-20.5L687,499.4L687,499.4z"/>
			<path id="path31" class="st0" d="M772.1,467.8c-25.1,0-34.2,17.4-34.2,43.8c0,27,9.8,43.8,34.2,43.8c24.6,0,34.2-16.8,34.2-43.8
				C806.1,485.5,796.9,467.8,772.1,467.8L772.1,467.8z M772.1,484.2c7.2,0,9.8,5.9,9.8,27.5c0,22.5-3.1,27.5-9.8,27.5
				c-7,0-10-5-10-27.5C762.1,490.9,764.2,484.2,772.1,484.2L772.1,484.2z"/>
			<path id="path33" class="st0" d="M805.2,469.8l21.6,41l-24.9,43h20.3l14.2-25.3l12.2,25.3h25.5L849,506.6l21.6-37.1h-20.3
				L839.7,489l-8.9-19.4L805.2,469.8L805.2,469.8z"/>
		</g>
	</g>
</g>
</svg>
