<?xml version="1.0" encoding="utf-8"?>
<!-- Generator: Adobe Illustrator 23.0.0, SVG Export Plug-In . SVG Version: 6.00 Build 0)  -->
<svg version="1.1" id="레이어_1" xmlns="http://www.w3.org/2000/svg" xmlns:xlink="http://www.w3.org/1999/xlink" x="0px"
	 y="0px" viewBox="0 0 1000 1000" style="enable-background:new 0 0 1000 1000;" xml:space="preserve">
<g>
	<path d="M596.1,509.1c-32.9,1.1-53.3,7.2-53.3,28.7c0,14,11.3,29.1,39.7,29.1c38.2,0,58.2-20.8,58.2-54.8v-3.8
		C627.5,508.3,610.8,508.7,596.1,509.1z M677,554.1c0,10.6,0.4,20.8,1.1,30.2h-33.6c-0.8-7.6-1.1-15.5-1.1-22.7
		c-18.1,22.3-40.1,28.7-69.9,28.7c-45,0-68.8-23.4-68.8-51c0-39.7,32.5-53.3,88.8-54.8c15.5-0.4,32.9-0.4,47.2-0.4v-3.8
		c0-26.5-17-37.4-46.5-37.4c-21.9,0-37.8,9.1-39.7,24.6h-38.2c4.2-38.9,45-48.8,80.9-48.8c43.1,0,79.4,15.5,79.4,60.9v74.5
		C676.6,554.1,677,554.1,677,554.1z"/>
	<path d="M282.4,489.8c-1.5-34-25.7-46.5-52.2-46.5c-28-0.4-50.7,14-54.4,46.5H282.4z M175,514c1.9,32.9,24.6,52.5,55.9,52.5
		c21.5,0,40.8-8.7,47.2-28h37.4c-7.6,38.6-48.8,51.8-84.3,51.8c-64.6,0-93.4-35.5-93.4-83.5c0-52.9,29.5-87.7,93.7-87.7
		c51,0,88.8,26.8,88.8,85v9.8H175z"/>
	<path d="M413.5,565.4c33.6,0,56.7-24.2,56.7-60.9s-23.1-60.9-56.7-60.9s-56.7,24.2-56.7,60.9S379.9,565.4,413.5,565.4z
		 M320.5,355.2h36.3v91.1c17.8-21.2,42.3-27.2,66.5-27.2c40.4,0,85.4,27.2,85.4,86.2c0,49.1-35.5,85-85.8,85c-26.5,0-51-9.4-66.5-28
		c0,7.6-0.4,15.1-1.1,22.3h-35.9c0.8-11.3,1.1-25.7,1.1-37.4V355.2z"/>
	<path d="M861.4,425.2L749.2,645.6h-40.4l32.1-61.2l-84.3-159.1h42.3l62,124.4l62-124.4C822.9,425.2,861.4,425.2,861.4,425.2z"/>
</g>
</svg>
