<?xml version="1.0" encoding="utf-8"?>
<!-- Generator: Adobe Illustrator 27.9.0, SVG Export Plug-In . SVG Version: 6.00 Build 0)  -->
<svg version="1.1" id="레이어_1" xmlns="http://www.w3.org/2000/svg" xmlns:xlink="http://www.w3.org/1999/xlink" x="0px"
	 y="0px" viewBox="0 0 1000 1000" style="enable-background:new 0 0 1000 1000;" xml:space="preserve">
<style type="text/css">
	.st0{fill-rule:evenodd;clip-rule:evenodd;fill:#FFFFFF;}
	.st1{fill:#FFFFFF;}
</style>
<g id="g10" transform="matrix(1.25,0,0,-1.25,-347.82319,413.70518)">
	<path id="path44" class="st0" d="M602.5-51.9c-2.3,0.2-3.9-0.5-5.5-0.7c-11.7,6.9-24.7,14.7-36.4,20.4
		c10.3-8.2,21.3-15.6,30.9-24.7c-1.1-0.2-0.9-1.6-2.1-2.1C577.9-53,566-45.3,555-40.2c11-8.5,22.2-16.7,32.8-25.4
		c-0.2-2.3,0.5-3.7,0.7-5c-6.4-12.1-14.7-24.7-19.9-36.7c8,10.3,15.4,21.5,24.3,30.9c0.2-1.1,1.6-0.9,2.1-2.1
		c-5.5-11.7-13.7-23.1-18.3-34.4c8,11.2,16.7,22,25,32.8c2.3-0.2,3.9,0.2,5.5,0.7c11.7-6.9,24.5-14.4,36.4-19.9
		c-10.5,7.8-20.9,15.6-30.9,23.8c1.1,0.5,1.1,1.8,2.1,2.3c11.7-5.7,23.4-13.5,34.4-18.3c-11,8.2-21.8,16.5-32.5,25
		c-0.2,1.8-0.9,3.4-0.7,5.5c6.6,11.9,14.4,24.7,19.9,36.4c-8-10.3-15.6-21.1-24.3-30.9c-0.7,0.7-1.6,1.1-2.3,2.1
		c6.2,11.5,13.5,23.4,18.8,34.4C619.5-29.9,611.2-41.1,602.5-51.9 M598.6-7.2h7.1c21.1-2.1,36-11.9,45.4-26.6
		c9.6-15.1,13.3-37.6,4.4-56.6c-8.7-18.8-24.3-31.2-49.7-33.9h-7.1c-16.7,1.1-29.3,8.9-38.7,18.3c-9.4,9.6-16.5,23.4-16.5,40.3
		C543.4-32,567.9-11.1,598.6-7.2"/>
	<path id="path48" class="st0" d="M788.6-79.2h20.6c-3.7,12.6-6.2,26.1-10.5,38C795.2-53.7,792-66.6,788.6-79.2 M772.5-10.4h53.6
		c11.2-37.3,23.1-74.2,34.8-111.4h-40.6c-0.9,5.3-2.5,10.1-3.9,14.9h-34.8c-1.6-4.6-3-9.6-3.9-14.9h-40.6
		C748.9-84.9,759.9-46.8,772.5-10.4"/>
	<path id="path52" class="st0" d="M372.2-10.9c28-0.2,56.8,0.5,84.1-0.5c-0.2-10.3,0.5-21.5-0.5-31.4h-46.5v-9.4h40.6
		c-0.2-9.6,0.5-20.2-0.5-28.9h-40.3v-8.7c15.6-0.2,32.1,0.5,47-0.5c-0.2-10.5,0.5-22-0.5-31.6H372L372.2-10.9L372.2-10.9z"/>
	<path id="path56" class="st0" d="M541.8-10.9v-31.6c-19.7,1.1-36-0.5-41.9-13.3c-5.5-11.9,0-25.2,9.4-30.5
		c7.6-4.4,19.7-3.7,32.5-3.4v-32.1c-36.2-2.1-61.4,2.7-74.2,23.1c-10.3,16.3-11.2,41.2-3.2,58.7C475.8-15.2,502.4-7.7,541.8-10.9"/>
	<path id="path68" class="st0" d="M665.8-10.9h36.7v-78.6c12.6-0.9,27-0.2,40.3-0.5c-3.4-10.8-6.9-21.5-10.5-32.1h-66.9v110
		C665.3-11.3,665.3-10.9,665.8-10.9"/>
	<path id="path72" class="st0" d="M921.2-94c3.4,3.4,3.2,10.5,0.5,14c-3.9,4.8-13.5,2.5-21.1,3.2c-0.9-6-0.2-19.7-0.5-19.9
		C908.4-96.3,917.1-98.2,921.2-94 M918.9-50.3c4.1,3.7,3.2,11.7-1.1,14c-4.4,2.5-14.7,1.1-17.6,1.1v-17.2
		C906.8-52.3,915.1-53.7,918.9-50.3 M864.2-10.9c4.4,0,61.2,6,79.7-4.6c11-6.4,19-24.1,10.1-39.2c-2.7-4.6-6.6-7.3-12.6-9.4
		c9.9-4.4,18.8-10.8,19.5-24.3c2.5-45.1-56.6-31.6-97.4-33.7v110C863.7-11.3,863.7-10.9,864.2-10.9"/>
	<path id="path3138" class="st1" d="M974.2-12.2c1.6,0,3.4-0.5,5-1.4s3-2.1,3.9-3.7s1.4-3.4,1.4-5c0-1.8-0.5-3.4-1.4-5
		s-2.1-3-3.7-3.7c-1.6-0.7-3.2-1.4-5-1.4s-3.4,0.5-5,1.4s-3,2.1-3.7,3.7c-0.9,1.6-1.4,3.2-1.4,5s0.5,3.4,1.4,5s2.3,3,3.9,3.7
		C970.7-12.7,972.3-12.2,974.2-12.2z M974.2-13.9c-1.4,0-2.7-0.5-4.1-1.1c-1.4-0.7-2.5-1.8-3.2-3.2c-0.7-1.4-1.1-2.7-1.1-4.4
		c0-1.4,0.5-3,1.1-4.1c0.7-1.4,1.8-2.3,3.2-3.2c1.4-0.9,2.7-1.1,4.1-1.1c1.4,0,3,0.5,4.1,1.1c1.4,0.7,2.3,1.8,3.2,3.2
		c0.9,1.4,1.1,2.7,1.1,4.1s-0.5,3-1.1,4.4c-0.7,1.4-1.8,2.5-3.2,3.2C976.9-14.3,975.5-13.9,974.2-13.9z M969.6-28.1v11h3.7
		c1.4,0,2.3,0,2.7-0.2c0.7-0.2,1.1-0.5,1.4-1.1c0.2-0.5,0.5-1.1,0.5-1.6c0-0.9-0.2-1.6-0.9-2.1c-0.5-0.7-1.4-0.9-2.3-0.9
		c0.5-0.2,0.7-0.5,0.9-0.7c0.5-0.5,0.9-1.1,1.6-2.3l1.4-2.1h-2.1l-0.9,1.8c-0.7,1.4-1.4,2.3-1.8,2.5c-0.2,0.2-0.7,0.5-1.4,0.5h-1.1
		v-4.6L969.6-28.1z M971.4-21.9h2.1c0.9,0,1.8,0.2,2.1,0.5c0.5,0.2,0.5,0.7,0.5,1.1c0,0.2,0,0.7-0.2,0.9s-0.5,0.5-0.7,0.7
		s-0.9,0.2-1.8,0.2h-2.1L971.4-21.9z"/>
</g>
</svg>
