<?xml version="1.0" encoding="utf-8"?>
<!-- Generator: Adobe Illustrator 23.0.0, SVG Export Plug-In . SVG Version: 6.00 Build 0)  -->
<svg version="1.1" id="레이어_1" xmlns="http://www.w3.org/2000/svg" xmlns:xlink="http://www.w3.org/1999/xlink" x="0px"
	 y="0px" viewBox="0 0 1000 1000" style="enable-background:new 0 0 1000 1000;" xml:space="preserve">
<style type="text/css">
	.st0{fill:#FFFFFF;stroke:#141214;stroke-miterlimit:10;}
	.st1{fill:none;stroke:#FFFFFF;stroke-miterlimit:10;}
	.st2{fill:#FFFFFF;}
</style>
<path class="st0" d="M592.1,538.6c-0.4,0-0.8-0.4-1.6-0.4c0,0-0.4,0-0.8,0c-0.4,0-0.4,0.4-0.8,0.8c-0.4,0.8-0.4,2-0.4,3.1
	c0,0.8,0,1.2,0,1.6c0,2,0,3.9,0,5.9l-0.4,4.7c0,3.5,0,6.7,0.8,10.2c0.4,2,1.6,3.1,3.1,3.1c2.4,0,4.3-0.8,5.9-2.4v-22.8
	c-2.4-1.6-4.3-2.7-5.5-3.5L592.1,538.6z"/>
<path class="st0" d="M523.5,468.8c-0.4,0-0.4,0-0.4,0c0,0.4-0.4,0.8-0.4,1.6c-0.4,1.6-0.4,3.5-0.4,5.1v11.4c1.2-0.8,3.9-2,5.9-3.1
	c1.2-0.8,3.1-1.6,3.5-2l-7.5-12.6C524.3,468.8,523.9,468.8,523.5,468.8z"/>
<path class="st0" d="M455.2,538.6c-0.4,0-0.8-0.4-1.6-0.4c0,0-0.4,0-0.8,0s-0.4,0.4-0.8,0.8c-0.4,0.8-0.4,2-0.4,3.1
	c0,0.8,0,1.2,0,1.6c0,2,0,3.9,0,5.9l-0.4,4.3c0,3.5,0,6.7,0.8,10.2c0.4,2,1.6,3.1,3.1,3.1c2.4,0,4.3-0.8,5.9-2.4V542
	c-2.4-1.6-4.3-2.7-5.5-3.5h-0.3V538.6z"/>
<path class="st1" d="M341.7,601.4H658c26.4-24.2,41.1-54.1,41.1-83.9c0-35.3-20.4-70.6-56.5-96.5c-29.4-20.4-62.8-33.3-98.1-38.4
	c-8.2-25.1-35.3-38.4-60-29.8c-14.1,4.7-25.5,16.1-30.2,30.2c-34.9,5.1-68.3,18-97.3,38.4c-35.7,25.5-56.5,60.8-56.5,96.1
	C300.5,547.4,315.5,577.2,341.7,601.4z M437.6,519c-0.4,2.4-1.2,4.7-2.7,6.7c-1.2,2-3.1,3.5-5.1,4.7c-2.4,1.2-4.7,2-7.1,2
	c-2,0-3.5-0.4-5.5-1.2c-2-1.2-3.9-2.4-5.5-3.5c-1.2-1.2-2.7-2-4.3-2.7c-1.6-0.8-3.5-1.2-5.5-1.2c-2.4,0-4.7,0.8-6.3,2.4
	c-1.6,1.2-3.1,3.1-3.9,5.5s-1.6,4.7-1.2,8.2c-0.4,4.3,0.4,8.6,2.4,12.2c2,3.1,4.3,5.9,7.1,7.8c4.7,3.5,9.8,6.3,15.7,7.8
	c1.6,0.4,3.1,0.4,4.7,0l-0.4-12.2h-1.2c-5.5,0-7.1-1.6-8.2-2.7c-2-2-3.1-4.3-4.3-7.1c0-0.4,0-0.4,0-0.4h0.4c0.4,0.8,0.8,1.2,2.7,1.2
	c2-0.4,4.3-0.8,6.3-1.6c2.7-1.2,5.5-2,8.6-2s6.7,1.2,9,3.5c0.8,1.6,1.6,3.1,2,4.7h-0.4c-1.6-0.4-3.5-0.4-5.1,0.4c0,2,0,3.9,0,5.5
	c0,5.1,0,7.1,1.2,7.8c0.8,0.4,1.6,0.8,3.5-0.8h0.4l0.8,1.2c0,0.4,0,0.4,0,0.4c-5.5,7.1-14.1,11-23.1,11c-11.4,0-21.2-6.7-25.5-17.3
	c-2-5.5-2.7-11-2.4-16.9c0.4-5.1,1.6-9.8,3.9-14.1c2.4-4.3,5.1-8.2,9-11c3.5-2.7,7.8-4.3,12.2-4.3c3.1,0,6.3,0.8,9,2.4
	c2.4,1.2,4.3,2.7,6.3,4.3c1.6,1.6,3.5,2.4,5.5,2.4c1.2,0,2-0.4,3.1-0.8c1.2-0.8,2.4-2,2.7-3.5h0.4l0.8,0.8V519z M477.6,568.8
	c0,0.4,0,0.4,0,0.4c-1.6,0.8-3.1,2-4.7,3.1c-1.6,1.2-3.1,2.4-4.3,3.9c-2-1.2-3.5-2.7-4.7-4.3c-0.8-1.6-1.2-3.1-1.6-4.7
	c-2.4,2-11.4,8.6-11.8,9c-0.4,0-0.4,0-0.4,0c-2-1.2-3.9-2.7-5.5-4.3c-1.6-2-2.7-4.3-3.1-6.7c-0.4-3.5-0.8-7.5-0.8-11
	c0-2.7,0-5.5,0.8-8.2c0.8-2.4,2-4.7,3.5-6.7c4.3-4.3,9.4-7.5,14.9-10.2c0.4,0,0.4,0,0.4,0c2.7,2,5.5,3.5,8.6,5.1
	c1.2,0.8,2.7,1.6,3.9,2c0,0.4,0,0.4,0,0.4v27.5c0,0.8,0,2,0.4,2.7c0.4,0.4,0.8,0.8,1.6,0.8c0.8,0,1.6-0.4,2.4-0.8
	c0.4,0,0.4,0.4,0.4,0.4L477.6,568.8L477.6,568.8z M498.8,568.8c-1.2,0.8-1.6,1.2-2.4,2c-0.4,0.4-0.8,0.8-1.2,1.2
	c-2,1.6-3.5,3.1-5.1,4.7h-0.4c-1.6-1.2-3.1-2.7-5.1-3.9c-0.4-0.4-0.8-0.8-1.6-1.2c0-0.4,0-0.4,0-0.4v-9c0-0.4,0-1.2,0-2v-29
	c0-2.4-0.4-4.7-1.2-7.1c-0.4-1.6-1.2-2.7-2.4-3.5v-0.4l0.8-1.2c0,0,0.4,0,0.8,0h0.8c0.8,0.4,2,0.4,2.7,0.4c2.4,0,4.3-0.4,6.3-1.2
	c1.2-0.8,2.4-1.2,3.1-1.6c0.4,0,0.4,0.4,0.4,0.4v45.9c0,2.7,0.8,3.9,2.4,3.9c0.4,0,0.8,0,1.6,0c-0.4,0-0.4-0.4,0,0v-0.2
	c0-0.1,0,0.2,0,0.2l0.4,1.6v0.4H498.8z M496.4,495.5c0.8,0.8,1.2,1.2,2,1.6c0.4,0.4,1.2,0.8,1.6,0.8c0.8,0,1.2-0.4,1.6-0.8
	c0.4,0,0.4,0,0.4,0c0.4,0,0.4,0,0.4,0l1.2,2v0.4l-0.4,0.4c-0.8,0.8-1.2,1.2-2,2c-2,2-3.9,3.9-6.3,6.3c-2.4-1.6-4.3-3.1-6.7-4.7
	c-0.8-0.4-2-1.2-2.7-1.6c0-0.4,0-0.4,0-0.4v-8.2c0,0,0,0,0-0.4V476c0-1.6,0-2.7-1.2-4.7c-0.4-0.8-1.2-1.2-2-1.2
	c-1.2,0.4-2.4,0.8-3.1,2h-0.4v-0.4v-2.4l8.6-8.6h0.4c1.6,1.2,3.1,2.4,4.7,3.5c1.6,1.2,2.4,2.7,3.1,4.7c0.8-2,2-3.5,3.5-5.1
	c1.2-1.6,2.7-2.4,4.7-3.1c0.4,0,0.4,0,0.4,0l6.7,9v0.4l-7.5,7.1l-4.7-5.5c-1.2,1.6-2,3.1-2,4.7c-0.4,2-0.4,4.3-1.2,6.3v11.4
	C495.6,494.7,496,495.1,496.4,495.5z M511.3,513.9c3.9,0,6.7,3.1,6.7,6.7c0,3.9-3.1,6.7-6.7,6.7c-3.5,0-6.7-2.7-6.7-6.7
	S507.8,513.9,511.3,513.9z M523.5,566.5l-9.4,9.8h-0.4c-2-1.2-3.9-2.4-5.5-4.3c-1.2-1.6-1.6-3.5-1.6-5.5v-21.2c0-0.8,0-1.6,0-2v-9.8
	c0-0.4,0-0.4,0-0.4c0.4-0.4,2.7-1.2,5.1-2l5.5-1.6c0.4,0,0.4,0,0.4,0c0,0.4,0,0.4,0,0.4v32.6c0,1.2,0,2,0.4,2.7
	c0.4,0.8,0.8,1.2,1.6,1.2c0.4,0,1.2-0.4,1.6-0.8c0,0,0,0,0-0.4s0-0.4,0.4-0.4l2,1.2L523.5,566.5L523.5,566.5z M575.3,566.5l-9.4,9.8
	h-0.4c-2-1.2-3.9-2.4-5.5-4.3c-1.2-1.6-1.6-3.5-1.6-5.5v-21.2c0-0.8,0-1.6,0-2v-9.8c0-0.4,0-0.4,0-0.4c0.4-0.4,2.7-1.2,5.1-2
	l5.5-1.6c0.4,0,0.4,0,0.4,0c0,0.4,0,0.4,0,0.4v32.6c0,1.2,0,2,0.4,2.7c0.4,0.8,0.8,1.2,1.6,1.2c0.4,0,1.2-0.4,1.6-0.8c0,0,0,0,0-0.4
	s0-0.4,0.4-0.4c-0.2,0-0.3,0-0.3,0s0.1,0,0.3,0l2,1.2L575.3,566.5L575.3,566.5z M613.3,567.2v1.6c0,0.4,0,0.4,0,0.4
	c-1.6,0.8-3.1,2-4.7,3.1c-1.6,1.2-3.1,2.4-4.3,3.9c-2-1.2-3.5-2.7-4.7-4.3c-0.8-1.6-1.2-3.1-1.6-4.7c-2.4,2-11.4,8.6-11.8,9
	c-0.4,0-0.4,0-0.4,0c-2-1.2-3.9-2.7-5.5-4.3c-1.6-2-2.7-4.3-3.1-6.7c-0.4-3.5-0.8-7.5-0.8-11c0-2.7,0-5.5,0.8-8.2
	c0.8-2.4,2-4.7,3.5-6.7h0.4c4.3-4.3,9.4-7.5,14.9-10.2c0.4,0,0.4,0,0.4,0c2.7,2,5.5,3.9,9,5.1c1.2,0.8,2.7,1.6,3.9,2
	c0,0.4,0,0.4,0,0.4v27.5c0,0.8,0,2,0.4,2.7c0.4,0.4,0.8,0.8,1.6,0.8s1.6-0.4,2.4-0.8c0.1,0,0.1,0,0.2,0c0,0-0.1,0-0.2,0
	C614.1,566.8,614.1,567.2,613.3,567.2z M589.8,478.2c0.4-2.7,1.6-5.1,3.1-7.1c4.3-4.3,9.4-7.5,14.9-10.2c0.4,0,0.4,0,0.4,0
	c2.7,2,5.5,3.5,8.6,5.1c1.2,0.8,2.7,1.6,3.9,2c0,0.4,0,0.4,0,0.4v27.5c0,0.8,0,2,0.4,2.7c0.4,0.4,0.8,0.8,1.6,0.8s1.6-0.4,2.7-0.8
	c0.4,0,0.4,0.4,0,0l0.4,2.4c0,0.4,0,0.4,0,0.4c-1.6,0.8-3.1,2-4.7,3.1c-1.6,1.2-3.1,2.4-4.3,3.9c-2-1.2-3.5-2.7-4.7-4.3
	c-0.8-1.6-1.2-3.1-1.6-4.7c-2.4,2-11.4,8.6-11.8,9c-0.4,0-0.4,0-0.4,0c-2-1.2-3.9-2.7-5.5-4.3c-1.6-2-2.7-4.3-3.1-6.7
	c-0.4-3.5-0.8-7.5-0.8-11C589,483.7,589,480.9,589.8,478.2z M564.7,451.9l0.8-1.2c0,0,0,0,0.8,0h0.8c0.8,0.4,2,0.4,2.7,0.4
	c2.4,0,4.3-0.4,6.3-1.2c1.2-0.8,2.4-1.2,3.1-1.6c0.4,0,0.4,0,0.4,0c0,0.4,0,0.4,0,0.4v45.9c0,2.7,0.8,3.9,2.4,3.9c0.4,0,0.8,0,1.2,0
	s0.4,0,0.4,0l1.2,1.2v0.4c-1.2,0.8-1.6,1.2-2.4,2c-0.4,0.4-0.8,0.8-1.2,1.2c-2,1.6-3.5,3.1-5.9,5.1h-0.4c-1.6-1.2-3.1-2.7-5.1-3.9
	c-0.4-0.4-0.8-0.8-1.6-1.2c0-0.4,0-0.4,0-0.4v-9c0-0.4,0-1.2,0-2v-29c0-2.4-0.4-4.7-1.2-7.1c-0.4-1.6-1.2-2.7-2.4-3.5v-0.4H564.7z
	 M569.4,520.6c0,3.9-3.1,6.7-6.7,6.7c-3.5,0-6.7-2.7-6.7-6.7s3.1-6.7,6.7-6.7C566.6,513.9,569.4,517,569.4,520.6z M542.7,451.9
	l0.8-1.2c0,0,0,0,0.8,0h0.4c0.8,0.4,2,0.4,2.7,0.4c2.4,0,4.3-0.4,6.3-1.2c1.2-0.8,2.4-1.2,3.1-1.6c0.4,0,0.4,0,0.4,0
	c0,0.4,0,0.4,0,0.4v45.9c0,2.7,0.8,3.9,2.4,3.9c0.4,0,0.8,0,1.2,0s0.4,0,0.4,0l0.8,1.2v0.4c-1.2,0.8-1.6,1.2-2.4,2
	c-0.4,0.4-0.8,0.8-1.2,1.6c-2,1.6-3.5,3.1-5.1,4.7h-0.4c-1.6-1.2-3.1-2.7-5.1-3.9c-0.4-0.4-0.8-0.8-1.6-1.2c0-0.4,0-0.4,0-0.4v-9
	c0-0.4,0-1.2,0-2v-29c0-2.4-0.4-4.7-1.2-7.1c-0.4-1.6-1.2-2.7-2.4-3.5L542.7,451.9L542.7,451.9z M545.1,533.1
	c0.8,0.4,1.6,1.2,2.7,1.2c0.8,0,1.6-0.8,2-2c0.4,0,0.4,0,0.4,0l1.2,0.8v0.4c-0.4,1.6-0.8,3.1-1.6,4.7c-0.4,1.6-1.2,2.7-2.4,3.9
	s-2.7,1.6-4.3,1.6c-1.2-0.4-2.4-0.8-3.1-2c-1.2-1.2-2-2.4-2.4-3.5c-0.4,1.6-0.4,3.1-0.4,4.7c0,2.4,0,4.7,0,7.5v2.7
	c0,3.5,0.8,7.5,2.4,10.6c0.8,1.6,2.4,2.7,4.3,2.7s3.9-0.8,5.1-2.4h0.4l1.2,1.2v0.4c-1.6,2.4-3.5,4.7-5.5,6.3
	c-2.4,2.4-4.7,3.9-7.5,5.1c-1.6-0.8-2.7-1.6-3.5-2.4c-0.8-0.4-1.6-1.2-2.4-2c-1.6-2-2.7-3.9-3.5-5.9c-1.6-3.9-2-7.5-2-11.4
	c-0.4-3.5,0-7.1,0.8-10.6c0.4-2.4,1.6-4.7,3.1-6.7c0.8-1.2,2-2,3.1-3.1c1.6-1.2,2.7-2.4,4.3-3.1c1.2-0.8,2.7-1.6,4.3-2
	c0.4,0,0.4,0,0.4,0C543.1,531.2,544.3,532.3,545.1,533.1z M541.9,477.8c0,0-4.3,2.4-9.8,5.9c-3.1,2-7.8,4.7-9,5.1
	c0.4,2.4,1.6,4.7,3.5,6.3c1.6,1.2,3.1,2,5.1,2c1.2,0,2.7,0,3.9-0.8c1.2-0.4,2-0.8,2.7-1.6c0-0.4,0.8-0.8,1.2-1.2h0.4l1.2,1.6v0.4
	c-2,2.7-3.9,5.1-6.3,7.1c-2.4,2.4-4.7,4.3-7.8,5.5c-2.7-0.8-4.7-2-7.1-3.5c-2.4-1.6-4.3-3.9-6.3-8.2c-1.6-3.9-2.4-8.6-2.4-12.9
	c0-3.1,0.4-6.3,1.2-9.4c0.8-2.4,2-4.3,3.5-5.9c1.6-1.6,3.5-3.1,5.5-4.3c2.7-1.6,6.3-2.7,9.4-2.7c2,0.4,10.2,14.9,11,16.5
	L541.9,477.8L541.9,477.8z M499.2,365.5c0.4,0,0.4,0,0.8,0c18,0,33.3,14.5,33.3,33c0.4,18.4-14.5,33.7-33,34.1
	c-18.4,0.4-33.7-14.5-34.1-33C465.9,381.1,480.8,365.8,499.2,365.5z M451.7,472.3V468c0-0.4,0-0.4,0-0.4c3.1-1.6,5.9-3.9,7.8-7.1
	c2-3.9,3.9-8.6,4.7-13.3h0.4h3.5c0.4,0,0.4,0.4,0.4,0.4V466h7.8c0.4,0,0.4,0.4,0.4,0.4v5.5c0,0.4-0.4,0.4-0.4,0.4h-7.8v21.6
	c0,1.2,0,2.4,0.8,3.5c0.8,0.8,1.6,1.2,2.7,1.2c0.4,0,0.8,0,1.2-0.4c0.4,0,0.4,0,0.4,0l0.8,2c0,0.4,0,0.4,0,0.4
	c-2.4,2-5.9,4.7-9.4,7.8h-0.4c-1.6-1.6-3.1-3.1-5.1-4.3c-0.4-0.4-1.2-0.8-2-1.2c0-0.4,0-0.4,0-0.4v-8.6c0-0.8,0-1.2,0-2v-19.6H451.7
	c-0.1,0-0.1,0-0.2,0C451.6,472.3,451.6,472.3,451.7,472.3z M419.1,505.3c1.2-2.7,2.7-5.1,4.7-7.1c1.6-2,3.9-3.1,6.3-3.1
	c3.9,0.4,7.5,2.4,9.8,5.5c0.4-0.8,0.8-2,0.8-2.7c0-1.2-0.4-2.4-1.2-3.1c-1.2-0.8-2.4-1.6-3.5-2.4c-1.2-0.8-2.7-1.6-4.3-2.4
	c-1.6-0.8-3.1-1.6-4.7-2.7c-1.6-1.2-2.7-2.7-3.5-3.9c-1.2-2-1.6-4.3-1.6-6.3c0-2.7,0.8-5.1,2.4-7.1c0.8-1.2,2-2.7,3.1-3.5
	c1.2-1.2,2-1.6,3.1-2.4c1.6-0.8,2.7-2,3.9-3.1c1.2,1.6,2.7,2.7,3.9,4.3c1.6,0.8,3.1,1.2,4.7,1.2c0.8,0,1.6-0.4,2.4-0.4
	s1.6-0.4,2.4-0.8c0.4,0,0.4,0,0.4,0v0.4c-0.8,2.4-2,4.7-3.9,6.3c-2,1.6-3.9,2.4-6.3,2.4c-2-0.4-3.5-0.8-5.1-2
	c-1.2-0.8-2-1.6-3.1-2.4c-0.4,0.4-0.4,1.2-0.4,1.6c0,1.2,0.8,2.4,1.6,3.1c1.2,0.8,2.4,1.6,3.9,2.4c1.6,0.8,3.5,1.6,5.1,2.4
	s3.1,1.6,4.3,2.7c1.2,1.2,2.4,2.4,3.1,3.9c0.8,2,1.2,3.9,1.2,5.9c0,5.1-2.7,9.8-7.5,11.8c-1.6,1.2-3.1,2.4-4.7,3.9l-0.8,0.8
	c-2.7-2.4-5.9-3.9-9.4-4.3c-2,0-4.3,0.8-5.9,2h-0.4l-0.8-0.4V505.3z M374,506c0.4-2.7,1.2-5.1,2.4-7.5c1.2-2,2.4-3.5,3.5-4.7
	c0.8-0.8,3.1-2.4,3.1-2.4s1.6-0.8,2.4-5.9c0.4-2.4,0-4.7-0.8-6.7c-0.8-2.4-2-4.7-2.7-7.1c-0.8-2.4-1.2-5.5-0.8-8.2
	c0.4-1.6,1.2-3.5,2.4-5.1c1.6-2,3.1-3.9,5.5-5.9s5.9-4.7,9.8-7.8c0.8,1.6,2.4,2.7,3.5,3.9c4.3,2.4,9.4,2,12.6-1.6h0.4l0.8,1.2v0.4
	c-0.8,2-2,3.1-3.1,4.7c-1.2,1.6-2.7,2.7-4.3,3.5c-3.9,1.6-8.6,2-12.9,0c-1.6-1.2-3.1-2.4-4.3-3.5c0,0.4,0,0.4,0,0.4
	c-0.4,0.4-0.4,0.4-0.4,0.8c0,2,0.4,3.9,1.2,5.5c0.8,2,2,4.3,3.1,6.7c1.2,3.1,2,6.3,2.4,9.4c0.8-1.6,1.2-3.5,2-4.7
	c0.8-1.6,2-3.1,3.5-4.3c2-1.2,3.9-2,5.9-1.6c2.4,0.4,4.3,1.6,5.9,3.5v0.4c-1.2,1.2-2.4,2.7-3.5,4.3c-1.2,1.6-2,3.5-3.1,5.1
	c-0.4,0-0.4,0-0.4,0c-0.8-0.8-1.6-1.2-2.7-1.2c-0.8-0.4-2-1.2-2.7-1.2c-1.2-0.4-2.4,0-3.1,1.2c-1.2,2-2.4,3.9-3.5,5.9
	c-1.6,3.1-3.9,5.9-7.1,7.5c0.4,0,0.8,0,1.2,0c2.4,0,4.7,0.4,7.1,1.6s4.3,2,6.3,3.1c1.6,0.8,3.5,1.6,5.5,1.6s3.9-0.4,5.5-1.6
	c1.6-1.6,2.7-3.9,2.7-6.3c0-0.4,0.4-0.4,0.4-0.4h1.6c0,3.9-0.8,7.8-2.7,11.4c-1.2,2.4-3.5,4.7-6.3,5.9c-2.4,0.8-4.7,1.6-7.5,1.6
	h-0.4c-2.4,0-5.1-0.4-7.5-1.6c-2-0.8-3.9-2-5.5-2.7c-2-0.8-3.9-1.6-5.9-1.6c-3.1-0.4-6.3,1.2-7.1,4.3H376h-2
	C374,506,374,506,374,506z"/>
<path class="st0" d="M603.9,499c2.4,0,4.3-0.8,5.9-2.4v-22.8c-2.4-1.6-4.3-2.7-5.5-3.5h-0.8c-0.4,0-0.8-0.4-1.6-0.4c0,0-0.4,0-0.8,0
	c-0.4,0-0.4,0.4-0.8,0.8c-0.4,0.8-0.4,2-0.4,3.1c0,0.8,0,1.2,0,1.6c0,2,0,3.9,0,5.9v4.3c0,3.5,0,6.7,0.8,10.2
	C601.2,497.8,602.3,499,603.9,499z"/>
<path class="st2" d="M357,614c37.7,27.1,88.3,42,142.8,42s105.5-14.9,142.8-42c5.5-4,10.6-8.2,15.4-12.6H341.7
	C346.5,605.8,351.5,610,357,614z"/>
<path class="st2" d="M436.4,517.8c-0.4,1.6-1.6,2.7-2.7,3.5c-1.2,0.4-2,0.8-3.1,0.8c-2,0-3.9-0.8-5.5-2.4c-2-1.6-3.9-3.1-6.3-4.3
	c-2.7-1.6-5.9-2.4-9-2.4c-4.3,0-8.6,1.6-12.2,4.3c-3.9,2.7-6.7,6.7-9,11c-2.4,4.3-3.5,9-3.9,14.1c-0.4,5.9,0.4,11.4,2.4,16.9
	c4.3,10.6,14.1,17.3,25.5,17.3c9,0,17.7-3.9,23.1-11c0,0,0,0,0-0.4l-0.8-1.2h-0.4c-2,1.6-2.7,1.2-3.5,0.8c-1.2-0.8-1.2-2.7-1.2-7.8
	c0-1.6,0-3.5,0-5.5c1.6-0.8,3.5-0.8,5.1-0.4h0.4c-0.4-1.6-1.2-3.1-2-4.7c-2.4-2.4-5.9-3.5-9-3.5s-5.9,0.8-8.6,2
	c-2,0.8-4.3,1.2-6.3,1.6c-2,0-2.4-0.4-2.7-1.2h-0.4c0,0,0,0,0,0.4c1.2,2.7,2.4,5.1,4.3,7.1c1.2,1.2,2.7,2.7,8.2,2.7h1.2l0.4,12.2
	c-1.6,0.4-3.1,0.4-4.7,0c-5.9-1.6-11-4.3-15.7-7.8c-2.7-2-5.1-4.7-7.1-7.8c-2-3.5-2.7-7.8-2.4-12.2c-0.4-3.5,0.4-5.9,1.2-8.2
	c0.8-2.4,2.4-4.3,3.9-5.5c1.6-1.6,3.9-2.4,6.3-2.4c2,0,3.9,0.4,5.5,1.2s3.1,1.6,4.3,2.7c1.6,1.2,3.5,2.4,5.5,3.5
	c2,0.8,3.5,1.2,5.5,1.2c2.4,0,4.7-0.8,7.1-2c2-1.2,3.9-2.7,5.1-4.7c1.6-2,2.4-4.3,2.7-6.7v-0.4l-0.8-0.8L436.4,517.8L436.4,517.8z"
	/>
<path class="st2" d="M537.6,531.9c-1.6,0.8-2.7,2-4.3,3.1c-1.2,1.2-2.4,2-3.1,3.1c-1.6,2-2.7,4.3-3.1,6.7c-0.8,3.5-1.2,7.1-0.8,10.6
	c0,3.9,0.4,7.5,2,11.4c0.8,2,2,3.9,3.5,5.9c0.8,0.8,1.6,1.6,2.4,2c0.8,0.8,2,1.6,3.5,2.4c2.7-1.2,5.1-2.7,7.5-5.1
	c2-1.6,3.9-3.9,5.5-6.3v-0.4l-1.2-1.2H549c-1.2,1.6-3.1,2.4-5.1,2.4s-3.5-1.2-4.3-2.7c-1.6-3.1-2.4-7.1-2.4-10.6v-2.7
	c0-2.7,0-5.1,0-7.5c0-1.6,0-3.1,0.4-4.7c0.4,1.2,1.2,2.4,2.4,3.5c0.8,1.2,2,1.6,3.1,2c1.6,0,3.1-0.4,4.3-1.6c1.2-1.2,2-2.4,2.4-3.9
	c0.8-1.6,1.2-3.1,1.6-4.7v-0.4l-1.2-0.8c0,0,0,0-0.4,0c-0.4,1.2-1.2,2-2,2c-1.2,0-2-0.8-2.7-1.2c-0.8-0.8-2-2-2.7-3.1c0,0,0,0-0.4,0
	C540.4,530.4,538.8,531.2,537.6,531.9z"/>
<path class="st2" d="M498.4,566.8C498,566.5,498,566.8,498.4,566.8L498.4,566.8z"/>
<path class="st2" d="M496.8,566.8c-1.6,0-2.4-1.2-2.4-3.9V517c0,0,0-0.4-0.4-0.4c-0.8,0.4-2,0.8-3.1,1.6c-2,0.8-3.9,1.2-6.3,1.2
	c-0.8,0-2,0-2.7-0.4h-0.8c-0.4,0-0.8,0-0.8,0l-0.8,1.2v0.4c1.2,0.8,2,2,2.4,3.5c0.8,2.4,1.2,4.7,1.2,7.1v29c0,0.8,0,1.6,0,2v9
	c0,0,0,0,0,0.4c0.8,0.4,1.2,0.8,1.6,1.2c2,1.2,3.5,2.7,5.1,3.9h0.4c1.6-1.6,3.1-3.1,5.1-4.7c0.4-0.4,0.8-0.8,1.2-1.2
	c0.8-0.8,1.2-1.2,2.4-2v-0.4l-0.4-1.6C497.6,566.8,497.2,566.8,496.8,566.8z"/>
<path class="st2" d="M521.1,565.3c0,0.4,0,0.4,0,0.4c-0.4,0.4-1.2,0.8-1.6,0.8c-0.8,0-1.2-0.4-1.6-1.2c-0.4-0.8-0.4-1.6-0.4-2.7V530
	c0,0,0,0,0-0.4c0,0,0,0-0.4,0l-5.5,1.6c-2.4,0.8-4.7,1.6-5.1,2c0,0,0,0,0,0.4v9.8c0,0.4,0,1.2,0,2v21.2c0,2,0.4,3.9,1.6,5.5
	c1.6,2,3.5,3.1,5.5,4.3h0.4l9.4-9.8v-0.4l-2-1.2C521.1,564.9,521.1,564.9,521.1,565.3z"/>
<path class="st2" d="M511.3,527.2c3.5,0,6.7-2.7,6.7-6.7c0-3.5-2.7-6.7-6.7-6.7c-3.5,0-6.7,2.7-6.7,6.7S507.8,527.2,511.3,527.2z"/>
<path class="st2" d="M477.2,566.8c-0.8,0.4-1.6,0.8-2.4,0.8s-1.2-0.4-1.6-0.8c-0.4-0.8-0.4-2-0.4-2.7v-27.5c0,0,0,0,0-0.4
	c-1.2-0.4-2.7-1.2-3.9-2c-3.1-1.6-5.9-3.1-8.6-5.1c0,0,0,0-0.4,0c-5.5,2.7-10.6,5.9-14.9,10.2c-1.6,2-2.7,4.3-3.5,6.7
	c-0.8,2.7-0.8,5.5-0.8,8.2c0,3.5,0.4,7.5,0.8,11c0.4,2.4,1.6,4.7,3.1,6.7c1.6,1.6,3.5,3.1,5.5,4.3c0,0,0,0,0.4,0
	c0.4-0.4,9.4-7.1,11.8-9c0.4,1.6,0.8,3.1,1.6,4.7c1.2,1.6,2.7,3.1,4.7,4.3c1.2-1.6,2.7-2.7,4.3-3.9c1.6-1.2,3.1-2.4,4.7-3.1
	c0,0,0,0,0-0.4v-1.6C477.6,567.2,477.6,566.8,477.2,566.8z M461.1,564.9c-1.6,1.6-3.5,2.4-5.9,2.4c-1.6,0-2.7-1.2-3.1-3.1
	c-0.8-3.5-0.8-6.7-0.8-10.2l0.4-4.3c0-2,0-3.9,0-5.9c0-0.4,0-0.8,0-1.6c0-1.2,0-2.4,0.4-3.1c0.4-0.4,0.4-0.8,0.8-0.8s0.8,0,0.8,0
	c0.8,0,1.2,0.4,1.6,0.4h0.4c1.2,0.8,3.1,2,5.5,3.5L461.1,564.9L461.1,564.9z"/>
<path class="st2" d="M613.7,566.8c-0.8,0.4-1.6,0.8-2.4,0.8c-0.8,0-1.2-0.4-1.6-0.8c-0.4-0.8-0.4-2-0.4-2.7v-27.5c0,0,0,0,0-0.4
	c-1.2-0.4-2.7-1.2-3.9-2c-3.5-1.2-6.3-3.1-9-5.1c0,0,0,0-0.4,0c-5.5,2.7-10.6,5.9-14.9,10.2h-0.4c-1.6,2-2.7,4.3-3.5,6.7
	c-0.8,2.7-0.8,5.5-0.8,8.2c0,3.5,0.4,7.5,0.8,11c0.4,2.4,1.6,4.7,3.1,6.7c1.6,1.6,3.5,3.1,5.5,4.3c0,0,0,0,0.4,0
	c0.4-0.4,9.4-7.1,11.8-9c0.4,1.6,0.8,3.1,1.6,4.7c1.2,1.6,2.7,3.1,4.7,4.3c1.2-1.6,2.7-2.7,4.3-3.9s3.1-2.4,4.7-3.1c0,0,0,0,0-0.4
	v-1.6C614.1,567.2,614.1,566.8,613.7,566.8z M598,565.3c-1.6,1.6-3.5,2.4-5.9,2.4c-1.6,0-2.7-1.2-3.1-3.1c-0.8-3.5-0.8-6.7-0.8-10.2
	l0.4-4.7c0-2,0-3.9,0-5.9c0-0.4,0-0.8,0-1.6c0-1.2,0-2.4,0.4-3.1c0.4-0.4,0.4-0.8,0.8-0.8c0.4,0,0.8,0,0.8,0c0.8,0,1.2,0.4,1.6,0.4
	l0.4,0.4c1.2,0.8,3.1,2,5.5,3.5v22.7H598z"/>
<path class="st2" d="M572.9,565.3c0,0.4,0,0.4,0,0.4c-0.4,0.4-1.2,0.8-1.6,0.8c-0.8,0-1.2-0.4-1.6-1.2c-0.4-0.8-0.4-1.6-0.4-2.7V530
	c0,0,0,0,0-0.4c0,0,0,0-0.4,0l-5.5,1.6c-2.4,0.8-4.7,1.6-5.1,2c0,0,0,0,0,0.4v9.8c0,0.4,0,1.2,0,2v21.2c0,2,0.4,3.9,1.6,5.5
	c1.6,2,3.5,3.1,5.5,4.3h0.4l9.4-9.8v-0.4l-2-1.2C572.9,564.9,572.9,564.9,572.9,565.3z"/>
<circle class="st2" cx="562.7" cy="520.6" r="6.7"/>
<path class="st2" d="M376,506.4c0.8-3.1,3.9-4.7,7.1-4.3c2,0,3.9,0.8,5.9,1.6c1.6,0.8,3.5,2,5.5,2.7c2.4,1.2,5.1,1.6,7.5,1.6h0.4
	c2.7,0,5.1-0.8,7.5-1.6c2.7-1.2,5.1-3.5,6.3-5.9c2-3.5,2.7-7.5,2.7-11.4h-1.6c0,0-0.4,0-0.4,0.4c0,2.4-1.2,4.7-2.7,6.3
	c-1.6,1.2-3.5,1.6-5.5,1.6s-3.9-0.8-5.5-1.6c-2-1.2-3.9-2-6.3-3.1c-2.4-1.2-4.7-1.6-7.1-1.6c-0.4,0-0.8,0-1.2,0
	c3.1-1.6,5.5-4.3,7.1-7.5c1.2-2,2.4-3.9,3.5-5.9c0.8-1.2,2-1.6,3.1-1.2c0.8,0,2,0.8,2.7,1.2c1.2,0,2,0.4,2.7,1.2c0,0,0,0,0.4,0
	c1.2-1.6,2-3.5,3.1-5.1c1.2-1.6,2.4-3.1,3.5-4.3v-0.4c-1.6-2-3.5-3.1-5.9-3.5c-2-0.4-3.9,0.4-5.9,1.6c-1.6,1.2-2.7,2.7-3.5,4.3
	c-0.8,1.2-1.2,3.1-2,4.7c-0.4-3.1-1.2-6.3-2.4-9.4c-1.2-2.4-2.4-4.7-3.1-6.7c-0.8-1.6-1.2-3.5-1.2-5.5c0-0.4,0-0.4,0.4-0.8
	c0,0,0,0,0-0.4c1.2,1.2,2.7,2.4,4.3,3.5c4.3,2,9,1.6,12.9,0c1.6-0.8,3.1-2,4.3-3.5c1.2-1.6,2.4-2.7,3.1-4.7v-0.4l-0.8-1.2h-0.4
	c-3.1,3.5-8.2,3.9-12.6,1.6c-1.2-1.2-2.7-2.4-3.5-3.9c-3.9,3.1-7.5,5.9-9.8,7.8c-2.4,2-3.9,3.9-5.5,5.9c-1.2,1.6-2,3.5-2.4,5.1
	c-0.4,2.7,0,5.9,0.8,8.2c0.8,2.4,2,4.7,2.7,7.1c0.8,2,1.2,4.3,0.8,6.7c-0.8,5.1-2.4,5.9-2.4,5.9s-2.4,1.6-3.1,2.4
	c-1.2,1.2-2.4,2.7-3.5,4.7c-1.2,2.4-2,4.7-2.4,7.5c0,0,0,0,0,0.4h1.6h0.8V506.4z"/>
<path class="st2" d="M530.9,460.9c-3.1,0-6.7,1.2-9.4,2.7c-2,1.2-3.9,2.7-5.5,4.3c-1.6,1.6-2.7,3.5-3.5,5.9
	c-0.8,3.1-1.2,6.3-1.2,9.4c0,4.3,0.8,9,2.4,12.9c2,4.3,3.9,6.7,6.3,8.2c2.4,1.6,4.3,2.7,7.1,3.5c3.1-1.2,5.5-3.1,7.8-5.5
	c2.4-2,4.3-4.3,6.3-7.1v-0.4l-1.2-1.6h-0.4c-0.4,0.4-1.2,0.8-1.2,1.2c-0.8,0.8-1.6,1.2-2.7,1.6c-1.2,0.8-2.7,0.8-3.9,0.8
	c-2,0-3.5-0.8-5.1-2c-2-1.6-3.1-3.9-3.5-6.3c1.2-0.4,5.9-3.1,9-5.1c5.5-3.5,9.8-5.9,9.8-5.9v-0.4
	C541.1,475.8,532.9,461.3,530.9,460.9z M528.2,483.7c-2,1.2-4.7,2.4-5.9,3.1v-11.4c0-1.6,0-3.5,0.4-5.1c0-0.8,0.4-1.2,0.4-1.6
	c0,0,0,0,0.4,0s0.8,0,0.8,0.4l7.5,12.6C531.3,482.1,529.4,482.9,528.2,483.7z"/>
<path class="st2" d="M546.2,462.9v29c0,0.8,0,1.6,0,2v9c0,0,0,0,0,0.4c0.8,0.4,1.2,0.8,1.6,1.2c2,1.2,3.5,2.7,5.1,3.9h0.4
	c1.6-1.6,3.1-3.1,5.1-4.7c0.4-0.8,0.8-1.2,1.2-1.6c0.8-0.8,1.2-1.2,2.4-2v-0.4l-0.8-1.2c0,0,0,0-0.4,0s-0.8,0-1.2,0
	c-1.6,0-2.4-1.2-2.4-3.9v-45.9c0,0,0,0,0-0.4c0,0,0,0-0.4,0c-0.8,0.4-2,0.8-3.1,1.6c-2,0.8-3.9,1.2-6.3,1.2c-0.8,0-2,0-2.7-0.4h-0.4
	c-0.8,0-0.8,0-0.8,0l-0.8,1.2v0.4c1.2,0.8,2,2,2.4,3.5C545.8,458.2,546.2,460.5,546.2,462.9z"/>
<path class="st2" d="M568.2,462.9v29c0,0.8,0,1.6,0,2v9c0,0,0,0,0,0.4c0.8,0.4,1.2,0.8,1.6,1.2c2,1.2,3.5,2.7,5.1,3.9h0.4
	c2.4-2,3.9-3.5,5.9-5.1c0.4-0.4,0.8-0.8,1.2-1.2c0.8-0.8,1.2-1.2,2.4-2v-0.4l-1.2-1.2c0,0,0,0-0.4,0s-0.8,0-1.2,0
	c-1.6,0-2.4-1.2-2.4-3.9v-45.9c0,0,0,0,0-0.4c0,0,0,0-0.4,0c-0.8,0.4-2,0.8-3.1,1.6c-2,0.8-3.9,1.2-6.3,1.2c-0.8,0-2,0-2.7-0.4h-0.8
	c-0.8,0-0.8,0-0.8,0l-0.8,1.2v0.4c1.2,0.8,2,2,2.4,3.5C567.8,458.2,568.2,460.5,568.2,462.9z"/>
<path class="st2" d="M496.8,476.2c0-1.6,0.8-3.1,2-4.7l4.7,5.5l7.5-7.1v-0.4l-6.7-9c0,0,0,0-0.4,0c-2,0.8-3.5,1.6-4.7,3.1
	c-1.6,1.6-2.7,3.1-3.5,5.1c-0.8-2-1.6-3.5-3.1-4.7c-1.6-1.2-3.1-2.4-4.7-3.5h-0.4l-8.6,8.6v2.4v0.4h0.4c0.8-1.2,2-1.6,3.1-2
	c0.8,0,1.6,0.4,2,1.2c1.2,2,1.2,3.1,1.2,4.7v16.9c0,0.4,0,0.4,0,0.4v8.2c0,0,0,0,0,0.4c0.8,0.4,2,1.2,2.7,1.6
	c2.4,1.6,4.3,3.1,6.7,4.7c2.4-2.4,4.3-4.3,6.3-6.3c0.8-0.8,1.2-1.2,2-2l0.4-0.4V499l-1.2-2c0,0,0,0-0.4,0c0,0,0,0-0.4,0
	c-0.4,0.4-0.8,0.8-1.6,0.8c-0.4,0-1.2-0.4-1.6-0.8c-0.8-0.4-1.2-0.8-2-1.6c-0.4-0.4-0.8-0.8-0.8-1.6v-11.4
	C496.4,480.5,496.4,478.2,496.8,476.2z"/>
<path class="st2" d="M457.6,491.9c0,0.8,0,1.2,0,2v8.6c0,0,0,0,0,0.4c0.8,0.4,1.6,0.8,2,1.2c2,1.2,3.5,2.7,5.1,4.3h0.4
	c3.5-3.1,7.1-5.9,9.4-7.8c0,0,0,0,0-0.4l-0.8-2c0,0,0,0-0.4,0c-0.4,0.4-0.8,0.4-1.2,0.4c-1.2,0-2-0.4-2.7-1.2
	c-0.8-1.2-0.8-2.4-0.8-3.5v-21.6h7.8c0,0,0.4,0,0.4-0.4v-5.5c0,0,0-0.4-0.4-0.4h-7.8v-18.4c0,0,0-0.4-0.4-0.4h-3.5h-0.4
	c-0.8,4.7-2.7,9.4-4.7,13.3c-2,3.1-4.7,5.5-7.8,7.1c0,0,0,0,0,0.4v4.3h5.9v19.6H457.6z"/>
<path class="st2" d="M420.3,506c1.6-1.2,3.9-2,5.9-2c3.5,0.4,6.7,2,9.4,4.3l0.8-0.8c1.6-1.6,3.1-2.7,4.7-3.9c4.7-2,7.5-6.7,7.5-11.8
	c0-2-0.4-3.9-1.2-5.9c-0.8-1.6-2-2.7-3.1-3.9c-1.2-1.2-2.7-2-4.3-2.7c-1.6-0.8-3.5-1.6-5.1-2.4s-2.7-1.6-3.9-2.4
	c-0.8-0.8-1.6-2-1.6-3.1c0-0.4,0-1.2,0.4-1.6c1.2,0.8,2,1.6,3.1,2.4c1.6,1.2,3.1,1.6,5.1,2c2.4,0,4.3-0.8,6.3-2.4s3.1-3.9,3.9-6.3
	v-0.4c0,0,0,0-0.4,0c-0.8,0.4-1.6,0.8-2.4,0.8s-1.6,0.4-2.4,0.4c-1.6,0-3.1-0.4-4.7-1.2c-1.2-1.6-2.7-2.7-3.9-4.3
	c-1.2,1.2-2.4,2.4-3.9,3.1c-1.2,0.8-2,1.2-3.1,2.4c-1.2,0.8-2.4,2.4-3.1,3.5c-1.6,2-2.4,4.3-2.4,7.1c0,2,0.4,4.3,1.6,6.3
	c0.8,1.2,2,2.7,3.5,3.9c1.6,1.2,3.1,2,4.7,2.7c1.6,0.8,3.1,1.6,4.3,2.4c1.2,0.8,2.4,1.6,3.5,2.4c0.8,0.8,1.2,2,1.2,3.1
	c0,0.8-0.4,2-0.8,2.7c-2.4-3.1-5.9-5.1-9.8-5.5c-2.4,0-4.7,1.2-6.3,3.1c-2,2-3.5,4.3-4.7,7.1v0.4l0.8,0.4L420.3,506L420.3,506z"/>
<path class="st2" d="M625.5,498.6C625.9,499,625.9,498.6,625.5,498.6L625.5,498.6z"/>
<path class="st2" d="M592.9,504.1c1.6,1.6,3.5,3.1,5.5,4.3c0,0,0,0,0.4,0c0.4-0.4,9.4-7.1,11.8-9c0.4,1.6,0.8,3.1,1.6,4.7
	c1.2,1.6,2.7,3.1,4.7,4.3c1.2-1.6,2.7-2.7,4.3-3.9c1.6-1.2,3.1-2.4,4.7-3.1c0,0,0,0,0-0.4l-0.4-2.4c-1.2,0.4-2,0.8-2.7,0.8
	s-1.2-0.4-1.6-0.8c-0.4-0.8-0.4-2-0.4-2.7v-27.5c0,0,0,0,0-0.4c-1.2-0.4-2.7-1.2-3.9-2c-3.1-1.6-5.9-3.1-8.6-5.1c0,0,0,0-0.4,0
	c-5.5,2.7-10.6,5.9-14.9,10.2c-1.6,2-2.7,4.3-3.1,7.1c-0.8,2.7-0.8,5.5-0.8,8.2c0,3.5,0.4,7.5,0.8,11
	C590.2,499.8,591.3,502.1,592.9,504.1z M600,481.3c0-2,0-3.9,0-5.9c0-0.4,0-0.8,0-1.6c0-1.2,0-2.4,0.4-3.1c0.4-0.4,0.4-0.8,0.8-0.8
	c0.4,0,0.8,0,0.8,0c0.8,0,1.2,0.4,1.6,0.4h0.8c1.2,0.8,3.1,2,5.5,3.5v22.8c-1.6,1.6-3.5,2.4-5.9,2.4c-1.6,0-2.7-1.2-3.1-3.1
	c-0.8-3.5-0.8-6.7-0.8-10.2L600,481.3L600,481.3z"/>
<path class="st2" d="M500.4,432.5c18.4-0.4,33.3-15.7,33-34.1c0-18.4-15.3-33-33.3-33c-0.4,0-0.4,0-0.8,0
	c-18.4,0.4-33.3,15.7-33,34.1C466.7,418,482,432.9,500.4,432.5z M475.7,385.1h16.1l8.2-13.7l8.2,13.7h16.1l-8.2,13.7l7.8,13.7h-16.5
	l-7.8,13.7l-7.8-13.7h-16.1l8.2-13.7L475.7,385.1z"/>
</svg>
