<?xml version="1.0" encoding="utf-8"?>
<!-- Generator: Adobe Illustrator 27.9.0, SVG Export Plug-In . SVG Version: 6.00 Build 0)  -->
<svg version="1.1" id="레이어_1" xmlns="http://www.w3.org/2000/svg" xmlns:xlink="http://www.w3.org/1999/xlink" x="0px"
	 y="0px" viewBox="0 0 1000 1000" style="enable-background:new 0 0 1000 1000;" xml:space="preserve">
<style type="text/css">
	.st0{fill:#FFFFFF;}
</style>
<path id="Fill-10" class="st0" d="M588.9,630.2h-6.4l-0.9-3.6h-6l0.8,3.6h-2.3l0.9,4.2h2.3l2,9.1c1.1,4.9,4.6,5.4,8.8,5.4
	c5.3,0,6.7-1.3,4.9-6.4l-0.6-1.7h-4.5l0.2,1c0.3,1.3,0.8,2.5-0.9,2.5c-1.2,0-1.5-0.5-1.8-1.6l-2-8.2h6.8L588.9,630.2 M560.9,636.9
	c-0.3-2.3,0.3-2.8,2.5-2.8c2.1,0,3.1,0.2,3.6,2.8H560.9L560.9,636.9L560.9,636.9z M568.1,642.2c0.4,2-0.8,2.2-2.8,2.2
	c-2.6,0-3.3-1-3.9-4.3H574l-0.2-1c-1.5-7.3-4-9.1-11-9.1c-7.4,0-8.7,2.2-7.7,9.1c1,7,3.3,9.7,11.1,9.7c2.9,0,5.2-0.2,6.7-1.2
	s2.1-2.6,1.5-5.5L568.1,642.2L568.1,642.2L568.1,642.2z M550.4,630.2h-6.1l2,18c0.1,1,0,1.9-1.6,1.9l0.5,4.5c0.7,0.2,1.3,0.3,2,0.3
	c4.4,0,6.4-1.5,5.7-6L550.4,630.2L550.4,630.2L550.4,630.2z M549.7,624.7h-5.9l0.5,4.2h6L549.7,624.7L549.7,624.7L549.7,624.7z
	 M530.7,635.8l0.4,5.7h10l-0.5-5.7H530.7 M516.9,640.8c2,0,3.5,0.1,3.5,1.7c0,2-0.8,2.3-3.4,2.3c-1,0-2.8,0-2.8-2
	C514.1,641,515.4,640.8,516.9,640.8L516.9,640.8L516.9,640.8z M520.6,648.7h6.5l-0.6-11.8c-0.3-6.1-2.9-6.9-9.2-6.9
	c-4.4,0-8.5,0-8.6,5.4h6.2c0-1.6,1-1.9,2.5-1.9c2.7,0,2.8,1,2.8,2.7l0.1,2.9H520c-0.8-2.1-3.5-2-5.2-2c-4.5,0-6.9,1.3-7,5.8
	c-0.1,4.9,2.6,6,7.1,6c2.3,0,5.2-0.5,5.6-3.1h0.2L520.6,648.7L520.6,648.7L520.6,648.7z M494.4,635.8l-0.4,5.7h10l0.2-5.7H494.4
	 M488.4,630.2h-7l0.4-3.6h-6l-0.5,3.6H473l-0.6,4.2h2.3l-1.2,9.1c-0.7,4.9,2.7,5.4,6.9,5.4c5.3,0,7.4-1.2,7.8-6.4l0.1-1.7h-5l-0.1,1
	c-0.2,1.3-0.3,2.5-1.9,2.5c-1.2,0-1.3-0.5-1.3-1.6l0.9-8.2h7.2L488.4,630.2 M451.8,630.2l-4,18.4h6.5l2-10.4c0.4-2.2,1.2-3.8,4-3.8
	c2,0,2.4,0.8,2.1,2.6l-2,11.6h6.5l2-13c0.6-3.8-1-5.6-5.1-5.6c-2.8,0-4.8,0.7-6.2,3.5h-0.3l0.6-3.3H451.8 M434,636.9
	c0.7-2.3,1.5-2.8,3.7-2.8c2.1,0,3.1,0.2,2.4,2.8H434L434,636.9z M438.9,642.2c-0.5,2-1.8,2.2-3.8,2.2c-2.6,0-2.9-1-2-4.3h12.5l0.3-1
	c1.7-7.3,0-9.1-6.9-9.1c-7.4,0-9.7,2.2-11.8,9.1c-2.1,7-1,9.7,6.8,9.7c2.9,0,5.4-0.2,7.3-1.2s3.3-2.6,3.9-5.5L438.9,642.2
	L438.9,642.2L438.9,642.2z M418.8,638h5.6l0.4-1.4c1-3.3,1.7-6.5-2.6-6.5c-2.3,0-4.1,0.8-5.6,2.8h-0.3l0.9-2.6h-5.7l-6.5,18.4h6.1
	l3.8-11.3c0.5-1.5,1.4-2.9,3.3-2.9c1.7,0,1.2,1.4,0.8,2.7L418.8,638"/>
<path id="Fill-11" class="st0" d="M414,620.8l26.1-74.7h49.4l-8.2,21.6h-23l-9.8,27.7h28.7l17.4-49.3h29.1l26,74.7h-22.4l-5.4-15.1
	h-22.6l-5.6,15.1h-25.3l5.5-15.6h-29l-5.2,15.6H414L414,620.8L414,620.8z M510.8,569.9l-9,25.7h18.5L510.8,569.9L510.8,569.9z
	 M585,620.8l-26-74.7h-26.2l26.3,74.7H585L585,620.8z"/>
<path id="Fill-12" class="st0" d="M499.5,351.5c-48.7,0-88.1,39.4-88.1,88.1s39.4,88.1,88.1,88.1s88.1-39.4,88.1-88.1
	S548.2,351.5,499.5,351.5L499.5,351.5L499.5,351.5z M499.5,345.1c52.2,0,94.5,42.3,94.5,94.5s-42.3,94.5-94.5,94.5
	S405,491.8,405,439.6S447.3,345.1,499.5,345.1L499.5,345.1z"/>
<path id="Fill-13" class="st0" d="M411,439l145.8-67.5c0,0-39.9,23.7-39.4,71.1c0.5,44.4,41.2,64.6,41.2,64.6L411,439"/>
</svg>
