<?xml version="1.0" encoding="utf-8"?>
<!-- Generator: Adobe Illustrator 27.9.0, SVG Export Plug-In . SVG Version: 6.00 Build 0)  -->
<svg version="1.1" id="레이어_1" xmlns="http://www.w3.org/2000/svg" xmlns:xlink="http://www.w3.org/1999/xlink" x="0px"
	 y="0px" viewBox="0 0 1000 1000" style="enable-background:new 0 0 1000 1000;" xml:space="preserve">
<style type="text/css">
	.st0{fill:#FFFFFF;}
</style>
<path class="st0" d="M160.2,406.2c0,2.7,1.2,3.4,8.3,4.1c6.7,0.7,10.2,3.1,12.9,8.7c1.4,2.8,1.5,6.1,1.5,81.4
	c0,74.6-0.1,78.6-1.4,81.4c-2.8,5.9-6.7,8.1-14.8,8.7c-5,0.4-5.8,0.7-6.5,2.2c-2,4.3-3.7,4.1,43,4.1H246v-2.7c0-2.9,0-2.9-10.3-3.8
	c-8.1-0.7-12.8-3.7-15.3-9.9c-1.1-2.5-1.2-7.9-1.2-40.3v-37.4h21c16.6,0,22.1,0.2,26.6,1.2c12.5,2.8,17.8,7.9,22.2,21.4
	c1.7,5.1,2.2,6.2,3.7,6.4c3.8,0.6,3.9,0,3.8-34.8l-0.1-32.4l-1.9-0.5c-3-0.8-4,0.2-5.3,4.8c-2.5,8.9-6.9,15.2-11.8,17
	c-8.7,3.1-10.2,3.4-32.4,3.7c-12,0.2-22.8,0.2-23.9-0.2l-2-0.5V455c0-37.1-0.1-36.4,4.8-38.1c3.1-1.1,41.1-1.1,51,0
	c17.8,1.9,26.4,8,31.2,22.1c1.4,4,2.1,5.1,3.7,5.7c3.5,1.2,4.6-0.2,4.4-5.4c-0.2-2.4-0.5-11.4-0.8-19.8l-0.5-15.3l-76.3-0.2
	l-76.4-0.2L160.2,406.2L160.2,406.2z M462.3,404.4c-1.1,1.1-0.5,3.3,1.2,4.4c0.9,0.5,3.8,1.2,6.4,1.5c4.8,0.5,9.1,2.4,11.9,5.5
	c0.7,0.9,1.8,3.6,2.4,6.1c1.1,4.1,1.2,13.6,1.2,78.2c0,77.6-0.1,78.9-3.4,84.1c-2.2,3.4-7,5.7-12.8,6.1c-5.7,0.5-7.7,1.7-7.3,4.4
	l0.2,1.6h83.4l0.2-2.1c0.3-2.7-1.1-3.4-8-3.9c-8.7-0.7-13.6-4-15.6-10.4c-0.6-1.8-1-13.1-1.2-32.6c-0.3-24.5-0.2-30.1,0.7-30.8
	c0.6-0.5,7.7-1,20.1-1.2c24.6-0.5,29.6-1.2,42.5-5.7c6.4-2.3,14.9-7.4,18.8-11.2c15.2-15.2,19.2-42.7,9.4-64.7
	c-6.2-13.7-19.9-23.9-37.1-27.6c-2-0.4-5.1-1.1-6.7-1.5C565,403.9,463.1,403.6,462.3,404.4L462.3,404.4z M549,414.7
	c13.6,2.9,24.6,12.1,29.5,24.7c1.2,3.3,1.5,5.7,1.5,17.2c0,11.9-0.2,13.9-1.8,18.5c-6.3,18.2-22.4,28.4-47.4,30.2
	c-5.9,0.5-8.2,0.3-9-0.4c-1-0.9-1.2-6.2-1.2-40.5c0-40.2,0.4-45.1,3-47.6C527.6,413.1,537.7,412.3,549,414.7L549,414.7z
	 M315.9,453.2c-1.2,3,0.1,5.4,3.6,7.1c6.6,3.2,10.9,9.2,28.8,39.6c0.5,0.9,1.3,2.3,1.8,3.1c0.5,0.9,1.5,2.5,2.3,3.8
	c0.9,1.2,2.1,3.5,2.9,5c0.8,1.5,3.7,6.5,6.5,11.2c2.8,4.7,5.1,9,5.1,9.7s-4.6,7.3-10.2,14.8S346,562,345.4,563
	c-0.7,1.1-2.1,2.7-3,3.8s-2.8,3.7-4.3,5.9c-5.4,8-16.8,17.1-21.7,17.1c-2.4,0-3.1,1.9-2.4,6.3c0.2,1.1,47.4,0.8,47.7-0.3
	c0.2-0.5,0.2-1.8,0-3c-0.3-1.9-0.7-2.1-4.2-2.6c-4.4-0.6-6.7-1.9-8.6-4.8c-1.1-1.6-1.2-2.3-0.3-4.3c0.9-2.4,5.7-10.9,7-12.4
	c0.3-0.5,2.3-3.2,4.4-6.1c9.3-13.2,12.5-17.2,13.6-17.2c0.8,0,2.1,1.6,3.1,3.8c1.1,2.1,2.2,3.8,2.5,3.8s0.6,0.4,0.6,0.9s1,2.2,2.2,4
	s3.2,5.1,4.4,7.4c1.3,2.3,3.9,7,5.8,10.3c3.7,6.4,4.3,8.5,2.7,10.4c-1.7,2-5.1,3.7-7.3,3.7c-4.7,0-5.7,0.8-5.4,3.7l0.2,2.7l33.9,0.2
	l33.8,0.2v-3c0-2.8-0.2-3-2.7-3.5c-5.1-0.9-9.3-4.3-13.5-10.7c-6-9-38.1-63.4-38.1-64.3c0-0.7,1.8-3.7,4.1-6.7c2.2-3,5.4-7.6,7-10.1
	c1.7-2.5,3.4-4.9,3.7-5.4c0.3-0.4,2.8-3.9,5.5-7.6c7.6-10.6,8-11.1,13.8-16.9c5-4.9,8.5-7.3,14.4-9.4c1.9-0.8,2.1-1.2,1.9-3.7
	l-0.2-2.9l-22.6-0.2c-12.4-0.1-23.3,0-24.3,0.2c-1.3,0.3-1.6,0.9-1.6,2.9c0.1,2.8,0.9,3.6,3.9,3.6s8,3.4,8.7,5.8
	c0.3,1.1,0.3,3.5,0.2,5.5c-0.5,4.2-2.7,8.3-11.9,20.7c-3.5,4.8-6.6,9.1-6.8,9.7c-0.2,0.6-1.2,1.1-2.1,1.1c-1.3,0-2.4-1.2-4.5-4.7
	c-1.5-2.5-2.7-4.8-2.7-5s-2.3-4.1-5.1-8.8c-2.9-4.7-5.7-9.3-6.3-10.4c-1.5-2.7-1.9-7.4-0.9-9.3c1.1-2,6.5-4.8,9.3-4.8
	c2.6,0,3.1-1.5,2.3-6.4c0-0.3-14.7-0.5-32.6-0.5C321.5,452.1,316.3,452.2,315.9,453.2L315.9,453.2z M669.6,453
	c-1.2,0.4-4.2,1.2-6.5,1.8c-7,1.9-11.6,3.2-16.1,4.5s-11.7,3.1-16.1,4.1c-2.5,0.5-2.7,0.8-2.7,3.5c0,3,0,3,4.2,4.1
	c5.4,1.4,7.5,2.7,9,6.2c1.2,2.5,1.3,7.9,1.5,50.6c0.2,51.7,0.1,54.3-3.5,57.6c-3.1,2.8-6,4.4-8,4.4c-2.4,0-3.7,1.7-3.4,4.4l0.2,2.1
	l32.4,0.2c18.9,0.1,32.8-0.2,33.2-0.5c0.4-0.4,0.5-1.7,0.2-3c-0.5-2.1-0.8-2.3-4.8-2.7c-7.3-0.9-12.3-5.1-13.9-11.9
	c-0.5-2.1-0.9-19.3-0.9-45.2v-41.9l2.5-3.7c1.5-2.1,4.1-4.9,6-6.4c2.9-2.2,3.7-2.5,6.9-2.2c2.7,0.3,4.6,1.2,8,3.8
	c6.1,4.8,10.9,6,15.9,4.1c6-2.3,10.1-9.4,9.4-16.2c-0.9-8.3-3.1-12.6-8.5-16.1c-2.7-1.8-3.8-2.1-9.3-2c-5.4,0-6.7,0.3-10.7,2.5
	c-2.5,1.4-6,4.1-7.8,6c-3.3,3.4-8.7,11.6-8.7,13.1c0,0.8-2.4,2.4-3.4,2.4c-0.2,0-0.5-5.1-0.5-11.3c0-7.8-0.3-11.6-0.9-12.2
	C672.6,451.9,672.6,451.9,669.6,453L669.6,453z M773.3,452.9c-5.4,0.9-10.3,2.3-11,3.1c-0.5,0.4-1.2,0.7-1.8,0.7
	c-1.2,0-9.3,4.8-12.4,7.3c-10.3,8.3-16.4,17.6-21,31.5c-3.7,11.3-4.2,14.2-4.8,24.1c-0.9,15.9,2.5,32.7,9.1,45.4
	c8,15.4,20.1,25.5,36.4,30.3c5,1.5,6.8,1.6,17.2,1.2c9-0.3,12.6-0.7,15.8-1.9c10.6-3.8,19.7-10,25.8-17.8c1.8-2.3,3.7-4.6,4.1-5.1
	c3.7-4.7,8.9-17.6,11.2-28.2c1.7-7.6,1.9-29,0.4-36c-4-17.9-9.5-28.8-19.7-39.1c-9.2-9.2-17.4-13.4-30.5-15.6
	C787.4,452.1,778,452.1,773.3,452.9L773.3,452.9z M793.5,465c5.7,3.3,8.7,7.3,12.6,17.3c6,15.2,6,70.2,0,85
	c-4.1,10-7.4,14.5-12.3,17c-7.7,3.7-18.8,2.9-24.5-1.9c-10.4-9-13.9-23.2-13.9-57.5c0-21.1,1.3-34.8,4.1-42.5c1.4-3.8,4-9.1,5-10.2
	c0.5-0.5,1.4-1.6,1.9-2.4c1.2-1.7,7.3-5.9,9.4-6.4c0.9-0.2,4.4-0.4,8-0.2C789,463.2,791.2,463.7,793.5,465L793.5,465z"/>
</svg>
