<?xml version="1.0" encoding="utf-8"?>
<!-- Generator: Adobe Illustrator 23.0.0, SVG Export Plug-In . SVG Version: 6.00 Build 0)  -->
<svg version="1.1" id="레이어_1" xmlns="http://www.w3.org/2000/svg" xmlns:xlink="http://www.w3.org/1999/xlink" x="0px"
	 y="0px" viewBox="0 0 1000 1000" style="enable-background:new 0 0 1000 1000;" xml:space="preserve">
<style type="text/css">
	.st0{fill-rule:evenodd;clip-rule:evenodd;fill:#FFFFFF;}
</style>
<g>
	<path class="st0" d="M756.8,491.6h-23.4v-92.5h22.2v10.3c2.9-6.2,9.9-12,18.5-12.3c15.2-0.8,25.5,8.2,25.5,27.5v67.1h-24.3v-69.9
		c0-8.2,0-15.2-5.3-16.4c-2.1-0.8-5.3,0-8.2,2.1c-3.3,3.3-4.9,7.8-4.9,14.4C756.8,423.4,756.8,491.6,756.8,491.6"/>
	<path class="st0" d="M356.8,405.1c-5.3-4.9-12.3-8.2-20.6-8.2c-8.2,0-14.4,3.3-20.6,8.2c-9.9,8.2-16,23.4-16,40.3
		c0,17.3,6.2,31.7,16,40.3c6.2,4.9,12.3,8.2,20.6,8.2c8.2,0,15.2-3.3,20.6-8.2c10.3-8.2,16-23.1,16-40.3
		C372.8,428.5,367,413.4,356.8,405.1 M347.7,445.4c0,17.3,0,31.2-2.9,38.2c-2.1,3.3-4.1,5.3-9,5.3c-4.1,0-7-2.1-8.2-5.3
		c-3.3-7-3.3-20.6-3.3-38.2c0-16.4,0-31.2,3.3-38.2c1.2-3.3,4.1-5.3,8.2-5.3c4.9,0,7,2.1,9,5.3C348.5,414.2,347.7,428.5,347.7,445.4
		"/>
	<path class="st0" d="M598.1,527v25.1h-4.5c-2.9-10.7-7-19.7-18.1-20.1c-7-0.8-13.2,3.3-14,9.9c-0.8,6.2,1.2,12,14,18.5
		c16,9,28.4,13.2,28.4,31.7c0,20.1-17.3,29.6-31.7,29.6c-6.2,0-27.5,0-27.5,0v-34.5h4.9c3.3,18.1,9,29.2,22.2,29.6
		c8.2,0,14.4-4.9,14.4-14c0-9-5.8-14-18.9-21.8c-14.4-9-23.4-14.4-23.4-27.1c0-16.4,12-27.1,30.5-27.1
		C580.4,527,598.1,527,598.1,527"/>
	<path class="st0" d="M628.6,491.6v-67c0-19.4-10.3-28.4-25.5-27.5c-10.3,0.8-16.4,7.8-19.4,13.2c-3.3-9.9-11.1-14-22.2-13.2
		c-9,0.8-16,6.2-18.5,12.3v-10.3h-21.4v92.5H545c0,0,0-67.8,0-69.9c0-7,0.8-11.1,4.9-14.4c2.9-2.1,5.3-2.9,7.8-2.1
		c5.3,1.2,5.3,8.2,5.3,16.4v70h23.4v-70.3c0-6.2,1.2-10.3,4.9-14c2.9-2.1,5.3-2.9,7.8-2.1c5.3,1.2,6.2,8.2,6.2,16.4v69.9h23.3"/>
	<path class="st0" d="M388.8,379.6h24.3v112.3h-24.3V379.6"/>
	<path class="st0" d="M498.6,491.8V379.6h-24.3v26.3c-2.1-4.9-7-8.2-14-8.2c-16.9,0-30.8,18.1-31.7,45.6
		c-0.8,18.5,5.3,49.7,29.6,49.7c9.9,0,15.2-5.3,17.3-10.3v9L498.6,491.8 M470.3,406.7c4.9,7,4.9,23.4,4.9,36.6
		c0,14,0.8,31.7-4.9,39.5c-2.1,2.9-4.1,4.1-7.8,4.1c-4.9,0-7.8-5.3-9-14.4c-0.8-8.2-0.8-18.5-0.8-29.6c0-18.5,1.2-39.5,10.3-39.5
		C466.9,403,468.2,404.7,470.3,406.7"/>
	<path class="st0" d="M700.8,401.9c6.2,3.3,10.3,9,10.3,21.4V492h-22.6v-10.3c-2.9,7.8-10.3,12.3-20.6,12.3
		c-8.2,0-23.1-4.1-23.1-25.5c0-20.1,13.2-24.3,27.5-30.5c13.2-5.8,14.4-6.6,14.4-12c0-4.9,0-9,0-15.2s-3.3-9-10.3-9
		c-2.9,0.8-7.8,2.1-7.8,5.3c-0.8,4.1,4.1,4.1,4.9,10.3c0.8,9.9-7,13.2-14,12.3c-4.9,0-10.3-2.9-11.1-10.3
		c-0.8-12.3,13.2-23.1,32.5-23.1C690.5,396.9,695.9,398.9,700.8,401.9 M686.8,436.4l-7.4,4.9c-7.8,4.9-9,11.1-9.9,18.1
		c-0.8,5.3-0.8,10.3,0,18.5c0.8,7.8,5.3,9,9.9,7.8c4.9-2.1,7.8-11.1,7.8-20.6C686.8,464.8,686.8,439.6,686.8,436.4"/>
	<path class="st0" d="M358.3,531.1c6.2,4.1,9.5,9,9.5,21.4v69.1H346v-10.3c-2.9,7-10.3,12-20.6,12c-9,0-23.1-3.3-23.1-25.1
		c0-20.1,13.2-24.3,27.1-30.5c13.6-6.2,14.8-7,14.8-11.5c0-4.9,0-9,0-15.2c0-7-3.3-9.9-10.3-9c-2.9,0-7.8,1.2-7.8,4.9
		c-0.8,4.9,4.1,4.9,4.9,11.1c0.8,9-7,12.3-14,12.3c-4.9-0.8-10.3-3.3-11.1-11.1c-0.4-12,13.6-22.2,32.9-22.2
		C348,527,353.4,528.2,358.3,531.1 M344.3,565.6l-7.8,4.9c-7.4,4.9-8.6,11.1-9.5,18.1c-0.8,5.3-0.8,11.1,0,18.5c0,8.2,4.9,9.9,9,7.8
		c5.3-2.1,8.2-10.3,8.2-20.6C344.3,594,344.3,569.3,344.3,565.6"/>
	<path class="st0" d="M525.5,554.7c0-19.4-10.3-29.2-25.5-27.5c-7.8,0.8-14,4.1-17.3,9V509h-23.4v63.8c0,23.4-16.4,45.6-33.3,44.8
		c-12,0-14.4-9-16-18.5c-2.1-14-2.1-30-0.4-47.3c1.2-11.1,4.1-20.1,12.3-20.1c6.2,0,7,4.1,4.1,7c-2.9,3.7-7,7-4.9,14.8
		c2.1,8.2,15.2,9.9,21.4,3.3c4.9-5.3,4.1-14.4,0.8-20.1c-4.1-7-11.1-9.9-21.4-9.9c-13.2,0-38.2,12-38.2,49
		c0,40.3,25.5,46.9,40.3,46.9c16.4,0,31.2-14.4,35.4-26.3v25.1h23.4v-69.9c0-7,1.2-11.1,4.9-14.4c2.9-2.1,6.2-2.9,8.2-2.1
		c5.3,1.2,5.3,8.2,5.3,16.4v69.9h24.2v-66.7"/>
	<path class="st0" d="M283.4,377.6v39.5h-4.9c-4.1-19.4-13.2-34.2-25.5-34.5c-8.2-0.8-13.2,4.1-17.3,11.1
		c-4.1,8.2-6.2,25.5-6.2,46.5c0,19.4,0.8,33.7,2.9,44.4c1.2,4.9,4.9,12.3,14,12.3c4.9,0,8.2-1.2,10.3-4.1c3.3-4.1,4.1-12.3,4.1-18.1
		c0-9,0-12,0-18.5c0-6.6-2.1-11.5-5.8-13.6c-2.9-1.2-7-1.2-9-2.1v-4.9h38.6v99.1h-4.9c-2.1-7.8-3.3-13.2-7-19.4
		c-3.3-6.2-9.5-13.2-19.7-13.2c-11.1-0.8-19.4,6.2-19.4,16.4c0,14,8.2,17.3,23.4,25.5c14.4,8.2,33.3,15.2,33.3,39.5
		c0,23.4-20.1,38.2-42.8,38.2c-4.9,0-36.6,0-36.6,0v-47.6h4.9c6.2,36.2,21.4,42.3,31.7,42.3c13.2,0,19.4-8.2,19.4-20.1
		c-0.8-15.2-11.1-20.6-25.5-28.4c-20.6-12-30.5-17.3-30.5-36.6c0.8-16.4,14-27.1,28.4-31.2c-30.5-3.3-39.5-31.2-38.6-60.8
		c0-29.6,17.3-61.7,51.4-61.7C267,377.6,283.4,377.6,283.4,377.6"/>
</g>
</svg>
