<?xml version="1.0" encoding="utf-8"?>
<!-- Generator: Adobe Illustrator 27.9.0, SVG Export Plug-In . SVG Version: 6.00 Build 0)  -->
<svg version="1.1" id="레이어_1" xmlns="http://www.w3.org/2000/svg" xmlns:xlink="http://www.w3.org/1999/xlink" x="0px"
	 y="0px" viewBox="0 0 1000 1000" style="enable-background:new 0 0 1000 1000;" xml:space="preserve">
<style type="text/css">
	.st0{fill:#FFFFFF;}
</style>
<path class="st0" d="M154.2,406.7v193.5h50.9v-79.3h70.6v79.3h51.6V406.7h-50.9v74.2h-72.7v-74.2
	C203.7,406.7,153.8,406.4,154.2,406.7z"/>
<path class="st0" d="M464.1,407.5l-54.9-0.4l-72.7,192.8h53.1l11.3-33.1h69.8l11.6,32.7h55.3L464.1,407.5z M415.3,527.5l21.8-59.6
	l20.4,59.6H415.3z"/>
<polygon class="st0" points="547,406.7 547,599.5 656.8,599.5 656.8,556.6 596.4,556.6 596.4,406.7 "/>
<path class="st0" d="M747.4,401.3c-54.6,0-98.9,44.3-98.9,98.9s44.3,98.9,98.9,98.9s98.9-44.3,98.9-98.9S802,401.3,747.4,401.3z
	 M747.7,552.6c-6.5,0-12.9-1.3-18.6-3.6l-17.4,8.7l1-19.5c-9.2-9-14.8-21.6-14.8-35.4c0-27.5,22.3-49.8,49.8-49.8
	s49.8,22.3,49.8,49.8C797.5,530.3,775.2,552.6,747.7,552.6z"/>
</svg>
