<?xml version="1.0" encoding="utf-8"?>
<!-- Generator: Adobe Illustrator 23.0.0, SVG Export Plug-In . SVG Version: 6.00 Build 0)  -->
<svg version="1.1" id="레이어_1" xmlns="http://www.w3.org/2000/svg" xmlns:xlink="http://www.w3.org/1999/xlink" x="0px"
	 y="0px" viewBox="0 0 1000 1000" style="enable-background:new 0 0 1000 1000;" xml:space="preserve">
<style type="text/css">
	.st0{fill:#FFFFFF;}
</style>
<g transform="matrix(.0316623 0 0 -.0316623 100 266.807)">
	<path class="st0" d="M3228.8-7365.2v-3490.5h18809.8v6981.3h-9404.9H3228.8C3228.8-3874.4,3228.8-7365.2,3228.8-7365.2z
		 M21724.1-7365.2v-3176.3l-9085.6,3.4l-9087.3,5l-5,3173l-3.4,3171.4h18181.1v-3176.5H21724.1z"/>
	<path class="st0" d="M4849.9-5568.6v-89.3l71.2-11.6c38-5,94.4-15,124.1-19.9l53-8.2l-3.4-1665.9l-5-1664.2l-119.1-13.3l-120.8-15
		v-97.6v-97.6h1257.2v195.2l-119.1,15l-120.8,13.3l-5,757.7l-3.4,756h1654.3v-751c0-627-3.4-752.7-23.2-759.4
		c-13.3-4.9-76.1-15-140.6-21.5l-117.4-11.6v-95.9v-97.7h1290.4v195.2l-110.9,11.6c-59.6,6.6-119.1,15-132.4,19.9
		c-18.2,6.6-21.5,304.3-21.5,1667.5v1659.3l66.1,9.9c36.3,5,95.9,15,132.4,19.9l66.1,9.9v178.7H7877h-645.2v-89.3v-89.3l79.4-9.9
		c43.1-6.6,105.8-15,140.6-19.9l61.2-9.9v-709.8v-709.8h-827.2h-826.6v1419.4l71.2,11.6c195.2,29.8,177,18.2,177,117.4v89.3h-628.7
		h-628.7L4849.9-5568.6L4849.9-5568.6z"/>
	<path class="st0" d="M9496.9-5525.5c-344-178.7-206.8-698.2,183.7-698.2c117.4,0,208.4,43.1,284.5,130.7
		c124.1,145.5,124.1,337.5-1.7,483C9847.7-5472.6,9660.8-5439.6,9496.9-5525.5z"/>
	<path class="st0" d="M10789-5560.4v-81.1l112.5-13.3l110.9-14.8l4.9-1690.7l3.4-1689.1l-44.7-9.9c-26.4-5-77.7-13.3-115.8-18.2
		l-71.2-11.6v-81.1v-81.1h1174.6v162.2l-69.5,11.6c-39.7,5-91,13.3-115.8,18.2l-46.3,9.9v3570.1h-471.5H10789L10789-5560.4
		L10789-5560.4z"/>
	<path class="st0" d="M13060.5-5899.4l-335.8-100.9v-284.5v-286.3h-256.4h-256.4v-124.1v-124.1h494.6l4.9-1004.2
		c6.6-1118.3,6.6-1106.8,120.8-1265.6c173.8-238.2,693.1-263.1,1311.9-61.2l102.6,34.8v182l-49.6-11.6
		c-28.1-6.6-145.5-11.6-261.4-11.6c-301.1-1.7-397,34.8-469.9,182l-38,77.7l-4.9,939.6l-5,938.1h630.4v248.3h-314.4h-314.3v388.8
		c0,213.5-5,388.8-11.6,387.1C13399.5-5796.9,13244-5843.2,13060.5-5899.4z"/>
	<path class="st0" d="M15603.1-6498.3c-248.1-33.1-557.5-157.1-731.2-294.4c-203.5-162.2-367.3-420.2-443.3-696.5
		c-51.3-185.2-64.6-597.2-26.4-817.3c54.7-307.7,144-498,324.2-680c215-216.7,511.3-322.7,959.4-340.8
		c473.1-21.5,860.2,104.3,1141.5,368.9c266.3,249.8,390.5,539.3,408.6,948c11.6,259.7-13.3,456.6-84.4,665
		c-72.8,216.7-142.3,327.6-299.5,484.7c-107.5,109.2-162.2,147.2-289.5,211.8c-216.7,105.8-383.8,144-670.1,152.2
		C15765.2-6493.4,15634.5-6494.9,15603.1-6498.3z M15901-6703.4c193.6-36.3,325.9-147.2,421.9-355.7
		c104.3-224.9,140.6-443.3,140.6-858.7c0-828.9-201.9-1202.7-653.4-1204.4c-163.8-1.7-283,44.7-383.8,150.6
		c-210.1,215-312.7,714.7-269.7,1300.3c43.1,587.3,220,904.9,534.3,967.8C15788.4-6685.2,15803.2-6685.2,15901-6703.4z"/>
	<path class="st0" d="M19295.7-6523.2c-206.8-26.4-461.6-140.6-678.3-304.3c-66.1-49.6-129-91-137.3-91c-8.2,0-15,77.7-15,173.8
		v173.6h-471.5h-471.5v-89.3v-89.3l79.4-9.9c43.1-6.6,97.6-15,124.1-19.9l44.7-9.9v-1129.9v-1129.9l-94.4-9.9
		c-153.9-18.2-153.9-18.2-153.9-110.9v-81.1h1191.1v82.8c0,46.3-4.9,82.8-11.6,84.4c-8.3,1.7-61.2,9.9-120.8,21.5l-107.5,18.2v1919
		l82.8,54.7c46.3,29.8,142.3,77.7,215,105.8c114.2,46.3,152.2,53,281.3,54.7c163.8,0,239.9-28.1,325.9-119.1
		c130.7-137.3,148.9-291.2,142.3-1262.3l-4.9-752.7l-107.5-18.2c-59.6-11.6-112.5-19.9-119.1-21.5c-8.2-1.7-13.3-38-13.3-84.4v-82.9
		h1191.1v81.1c0,92.7,0,92.7-152.2,109.2l-94.4,11.6l-4.9,962.8c-5,952.9-6.6,962.8-44.7,1077c-51.3,157.1-100.9,238.2-200.2,327.6
		c-97.6,87.7-221.7,139-387.1,160.5C19451.1-6503.3,19439.5-6503.3,19295.7-6523.2z"/>
	<path class="st0" d="M9085.1-6652.2v-81.1l79.4-9.9c43.1-6.6,97.6-15,124.1-19.9l44.7-9.9l-3.4-1134.9l-5-1136.6l-107.5-18.2
		c-59.6-11.6-112.5-19.9-119.1-21.5c-8.2-1.7-13.3-38-13.3-84.4v-82.5h1192.8l-5,76.1c-6.6,91-18.2,100.9-148.9,114.2l-95.9,9.9
		v2479.8h-471.5H9085v-81.1H9085.1z"/>
</g>
</svg>
