<?xml version="1.0" encoding="utf-8"?>
<!-- Generator: Adobe Illustrator 23.0.0, SVG Export Plug-In . SVG Version: 6.00 Build 0)  -->
<svg version="1.1" id="레이어_1" xmlns="http://www.w3.org/2000/svg" xmlns:xlink="http://www.w3.org/1999/xlink" x="0px"
	 y="0px" viewBox="0 0 1000 1000" style="enable-background:new 0 0 1000 1000;" xml:space="preserve">
<style type="text/css">
	.st0{fill:#FFFFFF;}
</style>
<g>
	<path class="st0" d="M773.2,454.5c0,0-3.8,2.7-5.9,0.3c-6.9-8.2-16.2-13.6-26.6-10.3c-10.1,2.9-14.8,13.9-13.9,29.4
		c0.6,11.2,0.9,13,1.6,19.3c1.7,17.7-3.7,25.1-10.3,24.5c-5.5-0.6-8.3-5.1-9-11c-0.8-6.8,1.1-14.9,1.1-14.9l-12.3,20.6
		c0,0,4.6-1,7.5,1.8c1.6,1.5,4.7,7.1,14,10.3c9,2.9,18.3-0.3,23.6-9.8c6.8-12.3,4.5-25.6,2.3-41.2c-2.4-17,2.7-23.2,8.9-22.7
		c4.6,0.4,8.5,4.8,9,11.9c0.4,5.5-1.7,11.7-1.7,11.7L773.2,454.5z"/>
	<path class="st0" d="M251.4,411.6c-2.2-4.2,0.1-7.6,0.1-7.6s-5.2,2.8-11.9,6.9c-6.8,4.1-12.7,8-12.7,8s5.4-0.9,7.7,2.9
		c2,3.3,38.1,63.3,41.5,68.9c4.5,7.5,6,11.6,5.3,16.9c-0.7,5.2-5.2,9.1-10.3,10.4c-5,1.3-9.9-0.2-14.2-3.6c-4.2-3.4-6.9-10-5.2-15.2
		c1.6-4.9,7.5-6.5,9.5-3.6c1.6-5.4-3.7-12.6-9.9-13.3c-6.3-0.7-15.6,5.6-16.2,16.4c-0.5,9.8,7.2,20.2,15.2,23.8s17.9,4.3,32-5.5
		c11.3-8,15.3-22.7,7.3-37.3C282.4,467.1,253,414.6,251.4,411.6z"/>
	<path class="st0" d="M684.4,495c0,0,29.9-59,33.1-65.1c3.1-6.1,7.1-4.6,7.1-4.6s-4.4-2.3-10.6-5.7c-6.3-3.4-11.9-6.1-11.9-6.1
		s2,2.4-0.8,8.2c-2.3,4.7-24.9,52.4-29.1,61.2c-3.7,7.8-8.2,6.9-8.2,6.9s7.2,3.1,15.3,8c8.2,5,16.6,10.1,16.5,10.1l12.3-15.1
		C708.2,493,696.1,501.6,684.4,495z"/>
	<path class="st0" d="M646.6,477.3l14-36.6c0,0,3.4,1.4,5.1,2.1c5.2,2.1,2.3,12.7,2.3,12.7l9.7-22.2c0,0-5.3,6-9.6,4.3
		c-2.6-0.9-5.5-2.3-5.5-2.3l10.6-27.7c0,0,2.8,1.2,5.9,2.6c7.9,3.5,6.5,16.8,6.5,16.8l4.8-18.8c0,0-8.1-3.6-17.5-7.4s-17-6.3-17-6.3
		s2.1,2.3,0.1,7.8c-2,5.4-21.8,61.4-23.6,66.4s-6,5.7-6,5.7s9.3,3.1,17.9,6.7c8.6,3.6,16.9,7.5,17,7.6l7.3-12.8
		C668.7,476,661.8,483.6,646.6,477.3z"/>
	<path class="st0" d="M618.7,464.3c1.7-5.3,18.9-62.6,20.8-68.3c1.9-5.7,6.3-5.2,6.3-5.2s-6.4-1.7-11.7-3.3
		c-5.3-1.5-11.8-3.2-11.8-3.2s2.5,1.7,0.7,8s-16.5,60.2-18.5,67c-1.9,6.6-5.9,6.9-5.9,6.9s6.4,1.5,10.8,2.9
		c4.5,1.4,10.2,3.2,10.2,3.2S617,469.6,618.7,464.3z"/>
	<path class="st0" d="M369.5,441.8c2,1.6,4,3.4,6.1,9.9c2.2,6.6,2.6,14.7-3.9,16.8c-5,1.6-10-1.7-12.9-10.1
		c-1.9-5.5-12.6-36.7-12.6-36.7c-5.9-17.2-5.6-25.8,1.5-28c8.3-2.7,14.1,8.7,17.9,18.5c-2.8-9.2-8.1-27.7-8.1-27.7s-0.8,4-6.5,4.7
		c-13.6,2.2-22.4,10.3-22.4,25.3c-0.1,15,6.9,34.5,13.6,45.3c6.7,10.7,17.7,17.8,28.9,13.8c7.4-2.6,10.5-6,11.7-11.6
		s-0.9-13.2-4.1-16.8C376.2,442.4,372.7,440.6,369.5,441.8z"/>
	<path class="st0" d="M347.1,473.7c-2.7-3.5-49-64.5-49-64.5l-17.3,8.4c0,0,3.8-1.1,5,4.3c1,4.4,16.7,69.1,17.7,74.2
		c1,5.1-1.4,7.4-1.4,7.4s3.2-2,6.6-4s6.3-3.6,6.3-3.6s-4.4,1.1-5.5-4.1c-0.8-3.4-3.9-16.4-3.9-16.4s2.8-1.5,7.2-3.8
		c4.5-2.2,8.2-4,8.2-4s7.9,10.3,10.1,13.3c3.1,4.1,0.5,6.7,0.5,6.7s5.6-2.6,12.1-5.4c6.5-2.7,12-4.7,12-4.7S350.7,478.4,347.1,473.7
		z M310.8,466.1c-3.2,1.5-6.5,3.2-6.5,3.2l-9.1-38.5l22.3,32.1C317.4,462.9,313.8,464.4,310.8,466.1z"/>
	<path class="st0" d="M403.5,456.4c-0.9-4.3-7.8-33.8-7.8-33.8l2-4.7c0,0,15.2,31,18.2,37.2c1.7,3.3,4.3,5,8.8,4.2
		c4.8-0.8,15.4-2.3,15.4-2.3s-4.3-0.2-7.2-6.1c-1.8-3.5-17-37-17-37s-3.5,2.2-8.4,1.5s-6.6-5-6.6-5s11.6-28.1,13.1-31.5
		c1.6-4.1,4.7-4.9,4.7-4.9s-5.1,0.9-8.5,1.4c-3.4,0.6-6.6,1.2-6.6,1.2s4.5,0,1.6,6.7c-1.7,3.8-11.9,28.6-11.9,28.6s-4.9-20.9-6-25.7
		c-1.2-5.6,2-6.8,2-6.8s-5.4,1.2-12.2,2.8c-6.8,1.6-11.7,3-11.7,3s2.9-0.4,4.5,5.3c1.2,4.5,17.6,64.9,18.9,69.5
		c1.2,4.5-1.6,7.6-1.6,7.6s6.3-1.7,11.4-2.9c5-1.2,11-2.5,11-2.5S404.6,461.3,403.5,456.4z"/>
	<path class="st0" d="M612.3,381.9l-14-3.1c0,0,2.7,1.6,1.4,7c-1.2,5.4-10,45.1-10,45.1l-11.2-55.7l-18.1-2.8c0,0,2,2.3,1.1,8.1
		c-0.9,5.8-8.8,63.5-9.6,68.5c-0.5,2.9-2,6.2-3.9,5.9c-1.9-0.3-2.1-4.1-2.6-7.7c-0.8-5.3-10.4-77.5-10.4-77.5l-18.3-1
		c0,0,3.5,0.9,1.5,6.7c-1.7,5.3-18.4,63-20.5,70.1s-6.3,8-6.3,8h13.1c0,0-3-0.2-1-6.8c1.3-4.5,5-16.4,5-16.4s2.5,0.1,7,0.3
		c4.6,0.2,9.8,0.7,9.8,0.7s1.7,9.9,2.3,16.2c0.6,5.4-2.3,7-2.3,7s9.1,0.6,19.8,1.8c1.7,0.2,3.3,0.5,4.9,0.7l-5.4-0.6
		c8.8,1.1,15.6,2.2,15.6,2.2s-2.5-1.7-1.4-8c0.8-4.7,7.9-49.9,7.9-49.9l11.7,61.1l10.8,2.3c0,0,17-71.4,18.3-76.2
		C609.1,382.3,612.3,381.9,612.3,381.9z M516.2,425.6c-4-0.1-5.9-0.3-6-0.2l10.8-39.6l3.8,40.2C524.8,426,520.2,425.7,516.2,425.6z"
		/>
	<path class="st0" d="M735,427.2c7.1,1.1,12.9-1.1,15.4-5.4c2.6-4.2,1.2-8.7-1.8-10.2c-3.3-1.7-6.9-0.9-8.7,2.3
		c-1.4,2.6-0.9,5.6,1.4,7.3C743.9,423,739.9,427.1,735,427.2z"/>
	<path class="st0" d="M445.3,351.6c0.3,3.4,6.7,89.1,7.4,95.3c0.6,6.2-4.7,9.2-4.7,9.2s19.5-1.9,28.5-2.1
		c8.8-0.4,24.2-6.3,24.5-53.8c0.2-46.9-15.9-56.7-29.9-56.3c-11.5,0.4-30.3,2.2-30.3,2.2S444.8,346.8,445.3,351.6z M482.7,394.4
		c1.7,43.9-0.8,51-13.3,52.3l-6.2-96C475.6,349.5,481,355.3,482.7,394.4z"/>
	<path class="st0" d="M522.2,519.5c0.1-1.2,0.1-2.1-0.1-3.2c-0.3-1.6-1.9-4.2-4.3-4.2c-1.9,0-4.4,0-4.4,0l-0.1,12.4h4.4
		C520.8,524.6,522,521.3,522.2,519.5z"/>
	<path class="st0" d="M496.7,545.2c-3.8,0-6.8,4.2-6.8,9.3c-0.1,5.1,3,9.3,6.8,9.3s6.8-4.2,6.8-9.3S500.5,545.2,496.7,545.2z"/>
	<path class="st0" d="M518.3,628.9h-1.4v4.6h1.8c1.6,0,2.1-1.5,2.1-2.4c0-0.3-0.1-0.6-0.1-0.8C520.2,629.3,519.2,628.9,518.3,628.9z
		"/>
	<path class="st0" d="M473.3,524.6c3.4,0,6.3-2.7,6.3-6.3s-2.7-6.3-6.3-6.3s-6.3,2.7-6.3,6.3C467.1,521.8,469.9,524.6,473.3,524.6z"
		/>
	<path class="st0" d="M495.7,492.2c-45.6,0-82.5,36.9-82.5,82.5s36.9,82.5,82.5,82.5s82.5-36.9,82.5-82.5
		C578.2,529.1,541.3,492.2,495.7,492.2z M509,508.4c0-0.1,4.2-0.1,8.8-0.1c4.9,0,8,3.4,8.6,7c0.3,1.9,0.3,2.3,0.3,4
		c0,3.4-1.4,9.4-8,9.4H509V508.4z M489.4,503h4.6v20.9h9.3v4.6h-13.9V503z M473.4,508.2c5.9,0.1,10.7,4.5,10.7,10.1
		s-4.8,10.1-10.7,10.1c-6,0-10.7-4.5-10.7-10.1C462.7,512.7,467.5,508.2,473.4,508.2z M472.7,641.5c0.4,0,0.9,0,1.4-0.1
		c0.9-0.2,1.4-0.5,1.4-0.5v4.5v0.1c-0.9,0.4-1.9,0.5-2.3,0.5c-6.6,0-11.4-5-11.2-11.1c0.2-6.1,4.1-9.9,8.8-9.9c0.1,0,0.6,0,1.2,0
		c1,0,2.4,0.1,3.5,0.7l-0.1,5c-0.8-0.8-2-1.4-3.8-1.4c-3.2,0-5.3,2.8-5.3,5.7C466.4,638.8,468.2,641.5,472.7,641.5z M474.4,554.6
		v61.7h-7.1c-2,0-2-1-2.5-1.7c-0.4-0.6-21.6-39.7-21.6-39.7v23.8c0,9.3,2,9.2,2.7,9.8c0.8,0.8,3.4,1.4,3.4,1.4v6.3H430v-5.5
		c7.6-1.7,7.1-8.1,7.1-11.7v-42.5c0-9.1-7.7-11.3-7.7-11.3v-6l18,0.2c0,0,15.9,33.6,17.4,36.8c1.2,2.7,2.5,1.8,2.5-0.3v-22.7
		c0-8.4-4.1-8.4-7.3-8.8V540h21.2v5.1C476.3,545.2,474.4,551.7,474.4,554.6z M489.7,647.5L489.7,647.5l-9.8-0.9v-0.1v-20.8h4.1v17.1
		l5.8,0.7v4H489.7z M485.5,577.2v-5.4h21.8v5.4H485.5z M508.2,640.9c0,2-1.3,4.6-3.8,6.1c-1.4,0.8-2.4,0.9-4,0.9l0,0l0,0
		c-1.8,0-2.9-0.2-4.5-1.2c-2.3-1.5-3.3-4.2-3.3-6.3l0.1-5l-0.1-9.9h0.2h3.8h0.2l0.1,13.8c0,1.8,1.1,4.3,3.6,4.4
		c2.8-0.1,3.7-2.8,3.7-4v-14.2h0.2v-0.1h3.9v15.5H508.2z M496.8,568.7c-6.8,0-12.3-6.3-12.3-14.2s5.5-14.2,12.3-14.2
		c6.7,0,12.3,6.3,12.3,14.2S503.6,568.7,496.8,568.7z M517.5,645.5c-1.4,0.3-3.8,0.7-4.1,0.7s-0.5-0.1-0.7-0.4v-20.3v-0.1h5.6
		c2.1,0,6.2,0.9,6.2,4.5v0.1l0,0c0,0.4,0,1.8-0.6,2.8c-0.3,0.6-1,1.3-1.5,1.7c2.6,0.3,3.7,1.8,3.7,4.1
		C526.1,643,521.4,644.6,517.5,645.5z M566.3,542.9c-0.9,0.9-21.2,27-25.2,41.5s-1,21.7,8.2,20.6c3.6-0.5,6.2-4,6.5-4.5
		c0.7-0.9,1.2-1.5,0.5,1c-1.6,5.3-7.7,14.5-16.8,17c-6.3,1.8-11.7,0.7-14.8-0.6c-3-1.3-6.9-4.2-8.7-6.9c-1.7-2.8-4-8-1.8-16.9
		c1.6-6.3,5.9-14.3,11.2-20.4c3.4-4,10.4-12.1,22.4-22c0.3-0.3-0.6-0.1-1.1,0.2c-3.5,1.4-7.8,5.9-13.6,5.9h-8
		c-1.6,0-5.2,0.8-6.5,5.3c-0.1,0.3-4.3,0.5-4.3,0c-0.1-0.5,5.1-16.5,6.7-21.8c0.7-2.2,0.7-4.1,3.4-3.3c2.5,0.7,1.7,2.2,1.8,3
		c0.3,0.7,0.8,0.8,1.6,0.8H566C566.4,541.8,567.1,541.9,566.3,542.9z"/>
	<path class="st0" d="M518.9,636.8c-0.4,0-1,0-2.2,0v5.3c2-0.5,5.3-0.7,5.3-3C522.1,636.8,520.5,636.8,518.9,636.8z"/>
</g>
</svg>
