<?xml version="1.0" encoding="utf-8"?>
<!-- Generator: Adobe Illustrator 27.9.0, SVG Export Plug-In . SVG Version: 6.00 Build 0)  -->
<svg version="1.1" id="레이어_1" xmlns="http://www.w3.org/2000/svg" xmlns:xlink="http://www.w3.org/1999/xlink" x="0px"
	 y="0px" viewBox="0 0 1000 1000" style="enable-background:new 0 0 1000 1000;" xml:space="preserve">
<style type="text/css">
	.st0{fill:#FFFFFF;}
</style>
<g>
	<path id="path5" class="st0" d="M378.1,354.3h7.9c6.8,0.6,13.5,2.1,19.5,5c9.8,4.6,17.6,13.1,22.6,22.8c5.2,9.8,7.7,20.9,8.7,31.9
		c-14.9-11.8-34-17.2-52.7-16.8c-21.2,0.8-42.5,4.6-62.8,10.6c5-12.9,11.8-25.3,21.4-35.3C351.8,362.4,364.5,355.4,378.1,354.3z"/>
	<path id="path7" class="st0" d="M365.7,405.8c11.6-1.4,23.4-2.1,34.8-0.2c6.6,1,13.1,3.1,19.3,6c6.4,3.1,12,7.3,17.2,12
		c-0.2,2.7-0.6,5.2-1,7.9c-2.9-1.7-5.2-4.2-7.7-6.4c-12.7-10.4-29.3-16-45.8-16.2c-18-0.4-35.9,2.7-53.3,7c-4.1,1-7.9,2.5-12,3.3
		c0.8-1.2,1.2-2.7,2.7-3.1C334.8,411,350.3,407.6,365.7,405.8z"/>
	<path id="path9" class="st0" d="M318.2,425.5c15.4-5.2,31.3-8.5,47.5-10c9.7-0.4,19.5-1,29,0.8c15.1,2.7,29.2,10.8,39,22.6
		c-1,2.5-1.9,4.8-2.9,7.3c-4.2-4.4-8.5-9.1-13.5-12.6c-11.2-8.1-25.1-12.6-38.8-13.5c-9.7-0.8-19.5,0.4-29,1.5
		c-11.6,1.5-23,4.6-34,8.1C315.1,427.6,316.3,425.9,318.2,425.5z"/>
	<path id="path11" class="st0" d="M357,425.9c14.7-1.7,29.9-1.2,43.6,4.4c10.2,4.1,19.3,11,26.3,19.5c1.2,2.7-1,5.8-3.5,7
		c-0.8-0.6-1.4-1.4-1.9-2.1c-10.6-11.8-25.1-19.9-40.7-22.4c-9.3-1.5-18.5-1.4-27.8-0.8c-12,1.2-23.9,3.5-35.1,7.5
		c-0.4-1.4-0.8-2.7-1.2-4.1C329.6,430.5,343.1,427.5,357,425.9z"/>
	<path id="path13" class="st0" d="M319.8,442.9c16.8-5.2,34.6-8.3,52.3-7.1C391,437,409.6,446,421,461.3c-1.7,1.7-3.5,3.5-5.2,5.2
		c-5.6-6.8-12.6-12.4-20.5-16.2c-14.1-7-30.3-8.9-45.8-7.9c-9.1,0.6-18,2.3-26.8,4.6C321.7,445.8,320.7,444.4,319.8,442.9z"/>
	<path id="path15" class="st0" d="M325.7,450.2c16.2-4.1,33.4-6,49.8-2.5c12.7,2.5,25.1,8.3,34.2,17.8c1,1.2,2.5,2.3,2.3,4.1
		c-1.9,1.4-4.1,2.5-6.2,3.7c-9.5-10.6-23.6-16-37.3-18.2c-6.8-0.8-13.5-1.7-20.3-1.4c-5.8,0.2-11.6,1-17.2,1.9
		C329.2,453.7,327.3,452,325.7,450.2z"/>
	<path id="path17" class="st0" d="M334.4,457.6c17.2-2.5,35.1-1.7,51.4,4.6c6.6,2.9,13.1,6.2,17.4,12.2c-11.6,4.2-24.3,2.9-35.9-0.6
		C355.7,470.1,344.3,464.9,334.4,457.6z"/>
</g>
<g>
	<path id="path20" class="st0" d="M231.3,442.3c13.5-8.9,29.7-14.3,46.1-13.5c-5,5-10.6,9.7-14.7,15.4c-6.6,9.5-9.7,21.2-8.7,32.8
		c1.5,17.4,7.5,34,15.1,49.6c-15.6-3.1-30.7-10.2-42.3-21.4c-7.9-7.7-13.7-18-14.7-29.2v-5.8C213.4,458.5,221.7,448.7,231.3,442.3z"
		/>
	<path id="path22" class="st0" d="M281.1,435.2c2.5-1.7,4.8-4.2,8.1-4.1c-1.2,2.5-3.9,3.5-5.8,5.2c-9.3,7-17.2,16.4-19.9,27.8
		c-1.9,7-1,14.1-1,21c-1.2-3.3-1.2-6.8-1.2-10c0-4.2-0.2-8.7,1.2-12.9C265.1,451.4,272.3,442.1,281.1,435.2z"/>
	<path id="path24" class="st0" d="M278.2,449.7c4.8-5.8,11.2-10.2,17.6-14.1c0.8,0.2,1.5,0.4,2.3,0.6c0,0.4,0.2,1,0.4,1.4
		c-11,6.2-21.2,14.7-25.9,26.5c-3.1,7.3-3.1,15.4-2.1,23.2c1.9,11,5.8,21.4,10.8,31.3c1.4,2.3,2.7,4.8,3.3,7.3
		c-2.3-1.9-3.5-5-4.8-7.7c-6.6-13.3-11.4-27.8-11.6-42.9C268.2,465.9,272.1,456.6,278.2,449.7z"/>
	<path id="path26" class="st0" d="M300.1,442.7c1-0.6,2.3-1.2,3.3-0.2c0.4,0.8,0.6,1.5,1,2.3c-10.2,5-19.5,12.9-23.9,23.6
		c-4.1,9.3-2.7,20.1,0.2,29.5c1.9,6.6,5,12.7,8.1,18.7c0.8,1.5,1.9,3.1,2.5,5c-2.5,0.6-3.3-2.3-4.2-3.9
		c-6.6-12.7-12.2-26.6-11.6-41.1c0.2-9.8,5.6-18.5,12.7-25.1C291.6,447.9,295.8,445.2,300.1,442.7z"/>
	<path id="path28" class="st0" d="M291.4,459.5c4.2-4.4,9.5-7.9,15.1-10.8c0.6,1.4,1,2.9,1.5,4.2c-8.1,4.4-15.6,10.6-19.7,18.9
		c-3.1,6.4-3.5,13.7-1.9,20.7c1.7,8.1,5.6,15.6,9.8,22.8c-1,0.4-1.7,0.6-2.7,1c-5.8-11-11.4-22.8-11.4-35.5
		C282.1,472.8,286,465.3,291.4,459.5z"/>
	<path id="path30" class="st0" d="M298.7,463.8c2.9-2.7,6.2-5,9.7-7c0.6,1.9,0.6,4.1,0.6,6.2c-8.1,4.4-14.7,12.6-15.4,21.8
		c-1,7.5,2.1,14.9,5.6,21.4c1,1.5,0.6,4.2-1.5,4.2c-5-8.9-9.1-18.7-8.1-29.2C289.8,474.6,293.7,468.4,298.7,463.8z"/>
	<path id="path32" class="st0" d="M297,481.1c1.7-6.4,6.6-11.4,12-15.1c-0.6,13.1-2.9,26.3-7.7,38.6
		C297.2,497.7,294.7,489.1,297,481.1z"/>
</g>
<g>
	<path id="path35" class="st0" d="M456.8,472.4c1.4,0,2.9-0.4,4.1,0c2.5,14.5,2.5,29.3,1.4,43.8c-1.5,18-6,35.9-15.3,51.6
		c-1.5-0.4-3.1-1-4.4-1.4c1.5-3.9,4.1-7.1,5.8-10.8c8.3-16.8,10.6-35.7,11-54.5C459.9,491.6,458.2,482.1,456.8,472.4z"/>
	<path id="path37" class="st0" d="M468,471.9c12.6,1,25.5,4.1,35.3,12.4c7.7,6.4,11.8,16.4,11.4,26.3c-0.4,8.1-1.7,16.2-4.6,23.9
		c-3.9,10.8-11,20.9-20.7,27.2c-10.2,6.6-22.6,8.7-34.6,7.9c1.9-5,4.8-9.5,6.4-14.5c7-18.5,9.3-38.6,9.1-58.5
		C470.4,488.3,469.2,480.2,468,471.9z"/>
	<path id="path39" class="st0" d="M445.3,474.8c1.7-0.4,3.5-0.8,5.2-1.2c3.7,17.2,3.5,35.1,0.8,52.5c-2.1,13.1-6.6,25.9-14.1,36.9
		c-1.9-0.6-3.7-1.7-5.2-3.1c10.4-13.1,15.1-29.9,16.4-46.5C449.3,500.4,448.9,487.3,445.3,474.8z"/>
	<path id="path41" class="st0" d="M434.4,478.2c1.9-0.8,3.9-1.7,6-1.5c4.4,16.8,3.7,34.8,0.4,51.6c-2.3,10-6.2,20.1-12.9,28.2
		c-1.5-1.7-2.9-3.5-4.4-5.4c9.8-11.8,13.7-27.2,14.5-42.3C438.5,498.5,437.5,488.1,434.4,478.2z"/>
	<path id="path43" class="st0" d="M424.4,482.9c1.9-1,3.9-2.1,5.8-3.1c2.7,8.1,3.7,16.6,3.3,24.9c-0.2,15.1-3.7,30.7-12.7,42.9
		c-1.4-2.1-3.3-3.9-3.7-6.4c-0.2-1,0.2-1.9,0.8-2.7c6.6-10,9.5-22.2,9.5-34.2C427.3,497,426.1,489.8,424.4,482.9z"/>
	<path id="path45" class="st0" d="M414.8,490.2c1.9-1.9,4.1-3.9,6.4-5.2c3.3,12.7,3.7,26.5-0.4,39.2c-1.4,4.1-3.1,7.9-5.4,11.4
		c-0.4,0-1.2,0-1.5,0c-1.4-3.3-3.7-7-1.9-10.4C417.5,514.5,417.5,501.8,414.8,490.2z"/>
	<path id="path47" class="st0" d="M408,503.7c0.6-4.1,2.1-7.9,4.6-11c2.1,10.4,1.7,21.6-2.5,31.5C408.4,517.4,406.8,510.5,408,503.7
		z"/>
</g>
<g>
	<path id="path50" class="st0" d="M705.4,502.6c3.9-4.1,9.5-5.4,14.9-5.8c6-0.4,11.8,0.6,17.6,1.7c0,3.1,0,6,0,9.1
		c-5-2.5-10.6-4.4-16.4-4.4c-3.3,0-6.8,1.4-8.5,4.2c-1.5,2.5-1.4,5.6,0,8.1c1.7,2.9,4.8,4.6,7.5,6.4c6.4,3.7,13.5,6.6,18.3,12.4
		c4.4,5.4,4.6,13.5,1.7,19.7c-3.1,6-9.8,9.1-16.2,9.7c-7.5,0.6-15.3,0.4-22.4-2.3c0.2-3.3,0.2-6.8,0.2-10c6,3.1,12.4,6.2,19.3,5.8
		c3.1-0.2,6.8-1,8.7-3.7c2.9-3.9,2.3-9.7-1.2-12.7c-6.8-6.6-16.8-8.7-23.2-15.6C700,519.2,699.6,508.6,705.4,502.6z"/>
	<path id="path52" class="st0" d="M543,497.9c3.3-0.2,6.8-0.2,10,0c0,9.5,0,18.9,0.2,28.4c7.3-9.3,13.3-19.3,20.5-28.6
		c3.1,0,6.2,0.2,9.3,0.2c-6.4,10.2-13.5,19.7-20.5,29.5c7.7,7.7,12.4,18,18.5,26.8c1.5,2.1,2.9,4.4,5.2,5.6
		c7-20.9,13.5-41.7,21-62.2c3.5,0.2,7,0.2,10.2,0c7.7,21.6,14.9,43.6,22,65.5c-3.5,0-7.1,0-10.6,0c-2.3-6.4-4.1-12.9-6.2-19.3
		c-7,0-13.9,0-21,0c-0.4,0-1,0.2-1.4,0.2c-2.3,6.2-3.7,12.7-6.2,18.9c-4.2,0.8-8.7,0.2-12.9,0.4c-2.1,0-4.6,0.4-6.2-1.4
		c-8.3-9.5-12.4-21.8-21.8-30.3c-0.6,10.6,0,21-0.4,31.7c-3.5,0.2-7,0-10.2-0.2c0-21,0-41.9,0-62.9
		C542.6,499.5,542.8,498.7,543,497.9 M611.1,508.6c-2.9,9.7-5.8,19.3-8.9,29c6,0,12.2,0,18.2,0c-2.5-8.5-5.2-17-7.7-25.7
		C612.5,510.5,611.9,509.5,611.1,508.6z"/>
	<path id="path54" class="st0" d="M645.7,539.6c0-13.9,0-27.8,0.2-41.7c3.5,0,7,0,10.4,0c0,15.1,0,30.1,0,45.2
		c0,4.2,0.4,8.7,3.1,12.2c2.9,3.3,7.7,3.7,11.6,2.9c2.3-0.4,4.4-1.5,5.8-3.5c2.3-3.3,2.5-7.7,2.7-11.6c0-15.1,0-30.1,0-45.2
		c3.5,0,7,0,10.4,0c0.4,14.1,0.2,28.2,0.2,42.5c0,6.4-0.6,13.7-5.2,18.5c-5,5-12.6,5.6-19.1,5.2c-6,0-12.4-1.9-16-6.8
		C646.3,552.2,645.7,545.6,645.7,539.6z"/>
	<path id="path56" class="st0" d="M746.1,497.9c13.9-0.2,28-0.2,41.9,0c0,2.1,0,4.2,0,6.4c-5.2,0-10.4,0-15.6,0
		c0,19.5,0,39.2,0,58.7c-3.5,0.4-7.1,0.4-10.6,0.2c-0.2-19.7,0.2-39.4-0.2-59.1c-5.2,0.2-10.2,0-15.4,0.2
		C746.1,502.2,746.1,500.1,746.1,497.9z"/>
</g>
<g>
	<path id="path59" class="st0" d="M319.2,525.4c10.2-3.1,20.9-5.6,31.5-4.6c16,1.4,32.2,6.6,44.2,17.8c-22.2,9.5-48.7,6.4-68.5-7
		C323.8,529.6,320.7,528.2,319.2,525.4z"/>
	<path id="path61" class="st0" d="M311.4,528.4c1.5-0.6,2.9-1.2,4.4-1.7c13.5,11.8,31.1,19.5,49.2,19.5c10.8,0.2,22-1.2,31.9-6
		c2.1,2.3,4.1,4.8,5.8,7.3c-11.2,6.2-24.3,7.9-36.9,7.1c-17.2-0.4-33.4-7.9-46.5-18.7C316.5,533.8,313.4,531.7,311.4,528.4z"/>
	<path id="path63" class="st0" d="M304.3,532.1c1.2-0.6,2.3-1.2,3.7-1.5c12.7,13.9,29.9,23.9,48.5,27.2c16.2,2.7,33.2,0.6,48.1-6.8
		c1,2.5,2.1,5,3.1,7.5c-14.1,7.5-30.9,9.5-46.7,7.3C338.5,562.6,318.8,549.1,304.3,532.1z"/>
	<path id="path65" class="st0" d="M299.9,533.8c2.5,2.5,5,5.2,7.3,7.9c13.5,14.1,31.1,24.5,50.4,28.2c5.6,1.2,11.4,1.4,17.2,1.2
		c11.6-0.2,23.4-2.5,33.6-8.1c0.6,2.5,1,5.2,1.4,7.7c-15.6,7.3-33.4,9.1-50.4,5.8c-15.4-2.9-29.7-10.6-41.7-20.7
		c-4.1-3.3-7.9-6.8-11.2-10.8c-2.7-2.9-5.6-6-7.7-9.5C299.3,535.2,299.5,534.6,299.9,533.8z"/>
	<path id="path67" class="st0" d="M292.9,538.3c2.5,1.5,4.1,4.1,5.8,6.2c12.4,14.7,28.2,27,46.3,33.8c20.9,7.7,44.6,7.3,65.1-1.4
		c0,2.5-0.2,4.8-0.4,7.3c-17,6.4-35.7,7.3-53.3,2.9c-16.2-4.2-31.1-13.1-43.4-24.5c-6.8-6.2-12.9-13.1-18.5-20.5
		C293.7,541,293.3,539.6,292.9,538.3z"/>
	<path id="path69" class="st0" d="M287.5,543.5c1.9,1.5,3.1,3.7,4.6,5.6c12.2,15.6,27.6,29.2,45.8,37.7c14.3,6.8,30.1,10.4,46,9.5
		c8.5-0.4,17-2.1,25.3-4.8c-0.2,1.9-0.4,3.9-0.6,5.8c-16.2,5.4-33.8,5.6-50.4,1.4c-16.6-4.2-31.9-13.1-44.8-24.5
		C303.5,564.9,294.7,554.7,287.5,543.5z"/>
	<path id="path71" class="st0" d="M278.4,552c1.2-1.4,2.3-2.3,3.9-3.3c11,16.2,24.9,30.9,41.3,41.7c8.5,5.6,18,10.2,27.6,13.3
		c17.8,5.6,36.9,5.8,55,1.7c-2.9,10-7.9,19.7-15.6,26.8c-6.8,6.4-15.6,10.2-24.7,11.8c-8.7,1.4-17.8,0.6-26.5-1.5
		c-13.1-3.1-25.7-7.7-37.5-14.5c-12-6.8-23.4-15.4-30.3-27.6c-4.6-8.3-7.3-18.5-4.8-28C269,564.7,273.4,558,278.4,552z"/>
</g>
</svg>
