<?xml version="1.0" encoding="utf-8"?>
<!-- Generator: Adobe Illustrator 27.9.0, SVG Export Plug-In . SVG Version: 6.00 Build 0)  -->
<svg version="1.1" id="레이어_1" xmlns="http://www.w3.org/2000/svg" xmlns:xlink="http://www.w3.org/1999/xlink" x="0px"
	 y="0px" viewBox="0 0 1000 1000" style="enable-background:new 0 0 1000 1000;" xml:space="preserve">
<style type="text/css">
	.st0{fill:#FFFFFF;}
	.st1{fill-rule:evenodd;clip-rule:evenodd;fill:#FFFFFF;}
</style>
<path class="st0" d="M296.9,425.8c-13.2-4.2-23.7-13.9-27.1-26.4c-35.6,14.5-71,14.5-106.5,0c-3.6,12.5-13.9,22.3-27.2,26.4
	c17.8,22.9,15.5,56.1-1.1,78.9c5.9,48.6,35.9,82.2,81.5,96.7c45.7-14.5,75.6-48.1,81.5-96.7C281.5,481.9,279.2,448.6,296.9,425.8z
	 M216.4,597.6c-43.4-14.2-71.7-46.3-77.7-91.9c15.9-22.8,18.5-54.6,3.2-78.1c10.6-4.6,19.4-12.7,23.5-23.4c34,13,68,13,102,0
	c4.3,10.7,13,18.9,23.6,23.4c-15.3,23.5-12.6,55.3,3.2,78.1C288.1,551.4,259.9,583.4,216.4,597.6z"/>
<path class="st0" d="M159.3,456.2c0,0.1,0,0.2,0,0.2C159.3,456.3,159.3,456.3,159.3,456.2z"/>
<path class="st0" d="M285.9,429.1c-8.6-4.6-16-11.6-20.3-20.3c-32.6,11.8-65.4,11.8-98,0.1c-4.4,8.7-11.6,15.7-20.3,20.2
	c13.4,23.9,10.7,54.7-4.6,77.5c6.1,43.1,32.8,73.2,73.9,87.1c41.1-13.8,67.7-43.9,73.9-87.1C275.3,483.8,272.4,453,285.9,429.1z
	 M277.1,538.3c-0.6,1.1-1.1,2.3-1.7,3.4c-0.1,0.1-0.1,0.2-0.2,0.3c-0.4,0.8-0.8,1.5-1.3,2.3c-0.2,0.3-0.4,0.6-0.5,0.9
	c-0.2,0.4-0.5,0.8-0.8,1.2c-2.2,3.6-4.6,6.9-7.2,10.2c0,0.1-0.1,0.1-0.1,0.2l0,0c-1.4,1.7-2.8,3.3-4.3,4.9v0.1
	c-1.4,1.4-2.8,2.8-4.3,4.2c-0.7,0.6-1.3,1.2-2,1.8c-0.6,0.6-1.3,1.1-1.9,1.7c-0.7,0.6-1.3,1.1-2,1.7c-0.6,0.5-1.2,0.9-1.8,1.4
	c-0.5,0.3-0.9,0.7-1.4,1c-0.6,0.4-1.2,0.9-1.8,1.3l0,0c-1.8,1.3-3.7,2.5-5.6,3.7l0,0h-0.1c-0.6,0.4-1.3,0.8-2,1.2
	c-4.9,2.9-10.1,5.5-15.7,7.7v-0.1c-2,0.8-4,1.5-6,2.3l0,0h-0.1c-1.5-0.5-3-1.1-4.4-1.6c-0.3-0.1-0.7-0.3-1-0.4
	c-1.2-0.5-2.5-1-3.7-1.5c-0.2-0.1-0.4-0.2-0.6-0.3c-2.9-1.3-5.7-2.7-8.5-4.2c-0.2-0.1-0.4-0.2-0.6-0.3c-1.2-0.7-2.5-1.4-3.7-2.1
	c-0.1-0.1-0.2-0.1-0.3-0.2c-1.3-0.8-2.6-1.6-3.8-2.4c-0.3-0.2-0.5-0.3-0.8-0.5c-0.9-0.6-1.8-1.2-2.6-1.8c-0.5-0.4-1-0.7-1.5-1.1
	c-0.5-0.4-1.1-0.8-1.6-1.2s-1-0.7-1.5-1.1v-0.1c-16.8-13.6-28.4-32-33.6-54.7l-0.4-0.6c-0.6-2.7-1.1-5.5-1.5-8.2
	c3.7-5.6,6.5-11.7,8.6-18l0.1,0.2c0.9-2.7,1.7-5.5,2.4-8.4l0,0c1-4.2,1.6-8.4,1.9-12.7l0,0c0.1-0.8,0.1-1.7,0.1-2.5
	c0-0.4,0-0.7,0-1.1c0-0.5,0-1,0-1.5c0-0.3,0-0.6,0-0.9c0-0.6,0-1.2,0-1.8c0-0.2,0-0.4,0-0.7c0-0.7-0.1-1.4-0.1-2c0-0.2,0-0.3,0-0.5
	c-0.1-0.7-0.1-1.5-0.2-2.2c0-0.1,0-0.3,0-0.4c-0.1-0.7-0.2-1.4-0.3-2.1c0-0.2-0.1-0.4-0.1-0.6c-0.1-0.5-0.2-1.1-0.2-1.6
	c-0.1-0.4-0.1-0.9-0.2-1.3c0-0.2-0.1-0.4-0.1-0.5c-1.2-6.3-3.2-12.4-6.1-18.2c7-4.3,12.9-10.2,17.1-17.2h0.1l0,0
	c15.7,5.3,31.4,7.9,47.2,7.9s31.5-2.6,47.3-7.9l0,0h0.1c4.2,7,10.1,12.9,17.1,17.2c-8.9,18.1-9.5,39.3-3.2,58.3l0.1,0.1
	c2.1,6.5,5.1,12.7,8.7,18.5c-0.2,1.1-0.3,2.1-0.5,3.2c-0.1,0.8-0.3,1.6-0.5,2.4c-0.1,0.3-0.1,0.6-0.2,0.9c-0.2,0.7-0.3,1.4-0.5,2.1
	c-0.1,0.5-0.2,1-0.3,1.4c-0.1,0.5-0.3,1.1-0.4,1.6c-1.1,4.1-2.3,8.1-3.8,11.9l0,0C279.4,533.4,278.3,535.9,277.1,538.3L277.1,538.3z
	"/>
<path class="st0" d="M158.7,451.4v0.1V451.4z"/>
<path class="st0" d="M159,453.7c0,0.1,0,0.2,0,0.3C159,453.9,159,453.8,159,453.7z"/>
<path class="st0" d="M211.1,587.7c-1.2-0.5-2.5-1-3.7-1.5C208.6,586.7,209.9,587.2,211.1,587.7z"/>
<path class="st0" d="M284.6,517.4c-0.1,0.5-0.3,1.1-0.4,1.6C284.3,518.5,284.4,518,284.6,517.4z"/>
<path class="st0" d="M249,572.6c-0.5,0.3-0.9,0.7-1.4,1C248.1,573.3,248.6,572.9,249,572.6z"/>
<path class="st0" d="M185,573.3c-0.5-0.4-1.1-0.8-1.6-1.2C183.9,572.5,184.5,572.9,185,573.3z"/>
<path class="st0" d="M286,510.6c-0.1,0.8-0.3,1.6-0.5,2.4C285.7,512.2,285.9,511.4,286,510.6z"/>
<path class="st0" d="M216.5,589.8c-1.5-0.5-3-1.1-4.4-1.6C213.5,588.7,215,589.3,216.5,589.8z"/>
<path class="st0" d="M216.5,421.3c-15.8,0-31.5-2.6-47.2-7.9l0,0C185,418.7,200.8,421.3,216.5,421.3z"/>
<path class="st0" d="M240.2,578.6c-0.6,0.4-1.3,0.8-2,1.2C238.9,579.4,239.6,579,240.2,578.6z"/>
<path class="st0" d="M285.4,513.9c-0.2,0.7-0.3,1.4-0.5,2.1C285.1,515.3,285.2,514.6,285.4,513.9z"/>
<path class="st0" d="M206.8,585.9c-2.9-1.3-5.7-2.7-8.5-4.2C201,583.3,203.9,584.6,206.8,585.9z"/>
<path class="st0" d="M273.9,544.3c-0.2,0.3-0.4,0.6-0.5,0.9C273.6,545,273.7,544.6,273.9,544.3z"/>
<path class="st0" d="M272.6,546.5c-2.2,3.5-4.6,6.9-7.2,10.2C268.1,553.4,270.4,550.1,272.6,546.5z"/>
<path class="st0" d="M189.1,576.2c-0.9-0.6-1.8-1.2-2.6-1.8C187.3,575,188.2,575.6,189.1,576.2z"/>
<path class="st0" d="M256.8,566c-0.7,0.6-1.3,1.2-2,1.8C255.4,567.3,256.1,566.6,256.8,566z"/>
<path class="st0" d="M275.4,541.7c-0.1,0.1-0.1,0.2-0.2,0.3C275.3,541.9,275.3,541.8,275.4,541.7z"/>
<path class="st0" d="M252.9,569.5c-0.7,0.6-1.3,1.1-2,1.7C251.5,570.6,252.2,570.1,252.9,569.5z"/>
<path class="st0" d="M193.7,579.1c-1.3-0.8-2.6-1.6-3.8-2.4C191.1,577.6,192.4,578.4,193.7,579.1z"/>
<path class="st0" d="M197.7,581.4c-1.2-0.7-2.5-1.4-3.7-2.1C195.2,580.1,196.4,580.8,197.7,581.4z"/>
<path class="st0" d="M159.5,460c0-0.7-0.1-1.4-0.1-2C159.4,458.7,159.5,459.4,159.5,460z"/>
<path class="st0" d="M158.3,449.3c0-0.2-0.1-0.4-0.1-0.5C158.3,448.9,158.3,449.1,158.3,449.3z"/>
<path class="st0" d="M159.6,462.5c0-0.6,0-1.2,0-1.8C159.5,461.3,159.5,461.9,159.6,462.5z"/>
<path class="st0" d="M159.4,468.5c0.1-0.8,0.1-1.7,0.1-2.5C159.5,466.8,159.4,467.6,159.4,468.5z"/>
<path class="st0" d="M159.3,456.2c0-0.3-0.1-0.5-0.1-0.8c0.1,0.7,0.1,1.5,0.2,2.2c0-0.4,0-0.7-0.1-1.1
	C159.3,456.3,159.3,456.3,159.3,456.2z"/>
<path class="st0" d="M273.4,545.3c-0.2,0.4-0.5,0.8-0.8,1.2C272.9,546.1,273.1,545.7,273.4,545.3z"/>
<path class="st0" d="M265.3,556.8c0-0.1,0.1-0.1,0.1-0.2C265.4,556.7,265.4,556.8,265.3,556.8L265.3,556.8z"/>
<path class="st0" d="M159.4,468.5c-0.3,4.3-0.9,8.5-1.9,12.7l0,0C158.5,477,159.2,472.8,159.4,468.5L159.4,468.5z"/>
<path class="st0" d="M275.2,542c-0.4,0.8-0.8,1.5-1.3,2.3C274.4,543.6,274.8,542.8,275.2,542z"/>
<path class="st0" d="M277.1,538.3L277.1,538.3c-0.6,1.1-1.1,2.3-1.7,3.4C276,540.6,276.6,539.5,277.1,538.3z"/>
<path class="st0" d="M159.6,463.4c0,0.5,0,1,0,1.5C159.5,464.4,159.6,463.9,159.6,463.4z"/>
<path class="st0" d="M222.6,587.5c5.5-2.2,10.7-4.8,15.7-7.7C233.4,582.7,228.1,585.3,222.6,587.5L222.6,587.5z"/>
<path class="st0" d="M158.7,451.4c0-0.3-0.1-0.5-0.1-0.8c0.1,0.5,0.2,1.1,0.2,1.6c0-0.2-0.1-0.5-0.1-0.7
	C158.7,451.5,158.7,451.4,158.7,451.4z"/>
<path class="st0" d="M240.3,578.6L240.3,578.6L240.3,578.6L240.3,578.6z"/>
<path class="st0" d="M159,453.7c0-0.3-0.1-0.6-0.1-0.9c0.1,0.7,0.2,1.4,0.3,2.1c0-0.3-0.1-0.6-0.1-0.9
	C159,453.9,159,453.8,159,453.7z"/>
<path class="st0" d="M211.1,468.5l54.2,88.4c0-0.1,0.1-0.1,0.1-0.2c2.6-3.2,5-6.6,7.2-10.2c0.3-0.4,0.5-0.8,0.8-1.2
	c0.2-0.3,0.4-0.6,0.5-0.9c0.4-0.8,0.9-1.5,1.3-2.3c0.1-0.1,0.1-0.2,0.2-0.3c0.6-1.1,1.2-2.2,1.7-3.4l-42.8-69.8L211.1,468.5
	L211.1,468.5z"/>
<path class="st0" d="M159.4,468.5c-0.3,4.3-0.9,8.6-1.9,12.8l65,106.3c5.5-2.2,10.8-4.8,15.7-7.7c0.7-0.4,1.3-0.8,2-1.2h0.1
	l-67.5-110.1L159.4,468.5L159.4,468.5z"/>
<path class="st0" d="M212.1,588.1c-0.3-0.1-0.7-0.3-1-0.4C211.4,587.9,211.8,588,212.1,588.1z"/>
<path class="st0" d="M216.6,589.8L216.6,589.8h-0.1H216.6z"/>
<path class="st0" d="M186.5,574.4c-0.5-0.4-1-0.7-1.5-1.1C185.5,573.7,186,574,186.5,574.4z"/>
<path class="st0" d="M194,579.3c-0.1-0.1-0.2-0.1-0.3-0.2C193.8,579.2,193.9,579.3,194,579.3z"/>
<path class="st0" d="M198.3,581.8c-0.2-0.1-0.4-0.2-0.6-0.3C197.9,581.6,198.1,581.7,198.3,581.8z"/>
<path class="st0" d="M207.4,586.2c-0.2-0.1-0.4-0.2-0.6-0.3C207,586,207.2,586.1,207.4,586.2z"/>
<path class="st0" d="M250.8,571.2c-0.6,0.5-1.2,0.9-1.8,1.4C249.6,572.1,250.2,571.7,250.8,571.2z"/>
<path class="st0" d="M189.9,576.7c-0.3-0.2-0.5-0.3-0.8-0.5C189.3,576.4,189.6,576.6,189.9,576.7z"/>
<path class="st0" d="M245.9,574.9c0.6-0.4,1.2-0.9,1.8-1.3C247.1,574.1,246.5,574.5,245.9,574.9L245.9,574.9z"/>
<path class="st0" d="M254.8,567.9c-0.6,0.6-1.3,1.1-1.9,1.7C253.5,569,254.1,568.4,254.8,567.9z"/>
<path class="st0" d="M155.2,489.6l-0.1-0.2c-2.1,6.3-5,12.4-8.6,18c0.4,2.7,0.9,5.5,1.5,8.2l0.4,0.6c-0.7-2.9-1.2-5.8-1.7-8.8
	C150.2,501.9,153.1,495.9,155.2,489.6z"/>
<path class="st0" d="M284.9,516c-0.1,0.5-0.2,1-0.3,1.4C284.7,517,284.8,516.5,284.9,516z"/>
<path class="st0" d="M263.8,413.4L263.8,413.4c-15.8,5.3-31.5,7.9-47.3,7.9C232.3,421.3,248.1,418.7,263.8,413.4z"/>
<path class="st0" d="M280.4,530.9c1.5-3.8,2.7-7.8,3.8-11.9C283.1,523.1,281.8,527.1,280.4,530.9L280.4,530.9z"/>
<path class="st0" d="M285.6,513c-0.1,0.3-0.1,0.6-0.2,0.9C285.4,513.6,285.5,513.3,285.6,513z"/>
<path class="st0" d="M256.8,566c1.5-1.4,2.9-2.8,4.3-4.2v-0.1C259.7,563.2,258.2,564.6,256.8,566z"/>
<path class="st0" d="M286.6,507.4c-0.2,1.1-0.4,2.1-0.5,3.2C286.2,509.5,286.4,508.5,286.6,507.4z"/>
<path class="st0" d="M152.3,430.5c6.9-4.3,12.9-10.2,17.1-17.2h-0.1c-4.2,7-10.1,12.9-17.1,17.2c2.9,5.8,4.9,11.9,6.1,18.2
	c-0.1-0.5-0.2-1-0.3-1.4c0.3,1.3,0.5,2.7,0.7,4.1v0.1c0.1,0.7,0.2,1.5,0.3,2.2c0,0.1,0,0.2,0,0.3c0.1,0.7,0.2,1.4,0.2,2.2
	c0,0.1,0,0.2,0,0.2c0.3,4,0.4,8,0.1,12l0,0C160.3,455.5,158.1,442.3,152.3,430.5z"/>
<path class="st0" d="M159.6,462.5c0,0.3,0,0.6,0,0.9C159.6,463.1,159.6,462.8,159.6,462.5z"/>
<path class="st0" d="M159.5,466c0-0.4,0-0.7,0-1.1C159.5,465.2,159.5,465.6,159.5,466z"/>
<path class="st0" d="M277.8,488.9l-0.1-0.1c2.2,6.5,5.1,12.8,8.8,18.6C282.9,501.6,280,495.4,277.8,488.9z"/>
<path class="st0" d="M159.4,458c0-0.2,0-0.3,0-0.5C159.4,457.7,159.4,457.9,159.4,458z"/>
<path class="st0" d="M159.5,460.7c0-0.2,0-0.4,0-0.7C159.5,460.3,159.5,460.5,159.5,460.7z"/>
<path class="st0" d="M181.9,571c0.5,0.4,1,0.8,1.5,1.1C182.9,571.7,182.4,571.3,181.9,571L181.9,571z"/>
<path class="st0" d="M158.5,450.6c-0.1-0.4-0.1-0.9-0.2-1.3C158.4,449.7,158.5,450.2,158.5,450.6z"/>
<path class="st0" d="M159.2,455.4c0-0.1,0-0.3,0-0.4C159.1,455.1,159.2,455.2,159.2,455.4z"/>
<path class="st0" d="M158.9,452.9c0-0.2-0.1-0.4-0.1-0.6C158.8,452.4,158.9,452.7,158.9,452.9z"/>
<path class="st0" d="M211.1,468.5h23.2h7.8l38.2,62.4c1.5-3.8,2.8-7.7,3.8-11.8c0.1-0.5,0.3-1.1,0.4-1.6s0.2-1,0.3-1.4
	c0.2-0.7,0.3-1.4,0.5-2.1c0.1-0.3,0.1-0.6,0.2-0.9c0.2-0.8,0.3-1.6,0.5-2.4c0.2-1,0.4-2.1,0.5-3.2c-3.7-5.8-6.7-12.1-8.8-18.6
	l-12.5-20.3h8.4c-0.9-13,1.4-26.1,7.2-37.9c-7-4.3-12.9-10.2-17.1-17.2c-15.7,5.3-31.5,7.9-47.3,7.9s-31.5-2.6-47.2-7.9
	c-4.2,7-10.2,12.9-17.1,17.2c5.8,11.8,8.1,24.9,7.2,37.9h13.3h7.8L245.7,575c0.6-0.4,1.2-0.9,1.8-1.3c0.5-0.3,0.9-0.7,1.4-1
	c0.6-0.5,1.2-0.9,1.8-1.4c0.7-0.6,1.4-1.1,2-1.7c0.6-0.5,1.3-1.1,1.9-1.7c0.7-0.6,1.4-1.2,2-1.8c1.5-1.4,2.9-2.8,4.2-4.3l-57.2-93.3
	L211.1,468.5L211.1,468.5z M262.1,427.9c3.7,0,5.6,0.9,6.7,2.9c1.3,2.2,1,4.8,1,7l-6.3-0.1c0-1.1,0.6-4.7-1.1-4.7
	c-1.8,0-1.4,3.6-1,4.6c2.8,5.8,9.4,5.4,9.3,13.3c-0.1,5.4-2.1,8.3-7.9,8.3c-2,0-3.8-0.3-5.1-1.2c-2.9-1.9-2.7-4.8-2.7-8.5h6.2v1.9
	c0,1.1,0.1,1.8,0.3,2.1c0.2,0.3,0.5,0.5,1,0.5s0.9-0.2,1.1-0.6s0.4-1,0.4-1.8c0-3.7-1.7-4.2-4.6-6.7c-2.3-2-4.6-3.7-4.6-8.6
	C254.7,431,256.3,427.9,262.1,427.9z M245.4,427.9c3.7,0,5.6,0.9,6.7,2.9c1.3,2.2,1,4.8,1,7l-6.3-0.1c0-1.1,0.6-4.7-1.1-4.7
	c-1.8,0-1.4,3.6-1,4.6c2.8,5.8,9.4,5.4,9.3,13.3c-0.1,5.4-2.1,8.3-7.9,8.3c-2,0-3.8-0.3-5.1-1.2c-2.9-1.9-2.7-4.8-2.7-8.5h6.2v1.9
	c0,1.1,0.1,1.8,0.3,2.1c0.2,0.3,0.5,0.5,1,0.5s0.9-0.2,1.1-0.6c0.2-0.4,0.4-1,0.4-1.8c0-3.7-1.7-4.2-4.6-6.7c-2.3-2-4.6-3.7-4.6-8.6
	C238.1,431,239.6,427.9,245.4,427.9z M230.2,428.3h6.8v30.8h-6.8V428.3z M173.6,458.9l-5-11.9l-0.2,11.9h-6.1v-30.4h6.1v9.7l4.7-9.7
	h7l-6.9,14.6l7.3,15.8H173.6z M180.5,447.7c-2.1,0-4-1.7-4-4c0.1-2.2,1.8-4,4-4c2.1,0,4,1.7,4,4S182.8,447.7,180.5,447.7z
	 M193.1,459.4c-2,0-3.8-0.3-5.1-1.2c-2.9-1.9-2.7-4.8-2.7-8.5h6.2v1.9c0,1.1,0.1,1.8,0.3,2.1c0.2,0.3,0.5,0.5,1,0.5s0.9-0.2,1.1-0.6
	c0.2-0.4,0.4-1,0.4-1.8c0-3.7-1.7-4.2-4.6-6.7c-2.3-2-4.6-3.7-4.6-8.6c0-5.4,1.5-8.4,7.3-8.4c3.7,0,5.6,0.9,6.7,2.9
	c1.2,2.1,1,4.7,1,6.9h-6.3c0-1.1,0.6-4.7-1.1-4.7c-1.8,0-1.4,3.6-1,4.6c2.8,5.8,9.4,5.4,9.3,13.3C201,456.5,198.9,459.4,193.1,459.4
	z M207.3,428.3l1.6,15.7l2.8-15.6l6-0.1l3.1,15.2l1.6-15.2h6.6l-3.2,30.8h-7.2l-3.7-13.6l-3.3,13.6h-7.4l-3.2-30.8H207.3z"/>
<path class="st0" d="M146.7,507.4c0.5,3,1,5.9,1.7,8.8l33.6,54.7c0.5,0.4,1,0.8,1.5,1.2s1.1,0.8,1.6,1.2s1,0.7,1.5,1.1
	c0.9,0.6,1.7,1.2,2.6,1.8c0.3,0.2,0.5,0.3,0.8,0.5c1.3,0.8,2.5,1.6,3.8,2.4c0.1,0.1,0.2,0.1,0.3,0.2c1.2,0.7,2.4,1.4,3.7,2.1
	c0.2,0.1,0.4,0.2,0.6,0.3c2.7,1.5,5.6,2.9,8.5,4.2c0.2,0.1,0.4,0.2,0.6,0.3c1.2,0.5,2.5,1,3.7,1.5c0.3,0.1,0.7,0.3,1,0.4
	c1.5,0.6,2.9,1.1,4.4,1.6h0.1l-61.4-100.2C153.1,495.9,150.2,501.9,146.7,507.4z"/>
<path class="st0" d="M159,454c0,0.3,0.1,0.6,0.1,0.9c0,0.1,0,0.3,0,0.4c0,0.3,0.1,0.5,0.1,0.8C159.2,455.5,159.1,454.7,159,454z"/>
<path class="st0" d="M158,447.3c0.1,0.5,0.2,1,0.3,1.4c0,0.2,0.1,0.4,0.1,0.5c0.1,0.4,0.2,0.9,0.2,1.3c0,0.3,0.1,0.5,0.1,0.8
	C158.5,450,158.2,448.7,158,447.3z"/>
<path class="st0" d="M158.7,451.5c0,0.2,0.1,0.5,0.1,0.7s0.1,0.4,0.1,0.6c0,0.3,0.1,0.6,0.1,0.9C158.9,453,158.8,452.2,158.7,451.5z
	"/>
<path class="st0" d="M159.3,456.4c0,0.4,0.1,0.7,0.1,1.1c0,0.2,0,0.3,0,0.5c0,0.7,0.1,1.4,0.1,2c0,0.2,0,0.4,0,0.7
	c0,0.6,0,1.2,0,1.8c0,0.3,0,0.6,0,0.9c0,0.5,0,1,0,1.5c0,0.4,0,0.7,0,1.1c0,0.8-0.1,1.7-0.1,2.5l0,0
	C159.7,464.5,159.6,460.4,159.3,456.4z"/>
<path class="st1" d="M445.8,483.3c10.1,0,18.3,8.2,18.3,18.4s-8.1,18.4-18.3,18.4c-10.1,0-18.3-8.2-18.3-18.4
	C427.6,491.7,435.7,483.3,445.8,483.3L445.8,483.3z M861.4,474.6l-29.3-0.3c0-5.1,2.6-21.6-5.4-21.6c-8.7,0-6.8,16.6-4.6,21.4
	c13.2,26.8,43.6,24.9,43.2,61.9c-0.3,25.1-10,38.6-36.7,38.6c-9.3,0-17.5-1.4-23.8-5.5c-13.8-9-12.5-22.1-12.5-39.6h28.8v9.2
	c0,5.3,0.4,8.6,1.3,10.1c0.9,1.5,2.5,2.2,4.9,2.2c2.3,0,4.1-0.9,5.2-2.8c1.1-1.9,1.7-4.7,1.7-8.4c0-17-8-19.4-21.4-31.2
	c-11-9.7-21.4-17.1-21.4-40.2c0-25.2,7.2-39.2,34.1-39.2c16.9,0,26.1,4.5,31.4,13.5C862.5,452.1,861.4,463.9,861.4,474.6
	L861.4,474.6z M783.6,474.6l-29.3-0.3c0-5.1,2.6-21.6-5.4-21.6c-8.7,0-6.8,16.6-4.6,21.4c13.2,26.8,43.6,24.9,43.2,61.9
	c-0.3,25.1-10,38.6-36.7,38.6c-9.3,0-17.5-1.4-23.8-5.5c-13.8-9-12.5-22.1-12.5-39.6h28.9v9.2c0,5.3,0.4,8.6,1.3,10.1
	c0.9,1.5,2.5,2.2,4.9,2.2c2.3,0,4.1-0.9,5.2-2.8c1.1-1.9,1.7-4.7,1.7-8.4c0-17-8-19.4-21.4-31.2c-11-9.7-21.4-17.1-21.4-40.2
	c0-25.2,7.2-39.2,34.1-39.2c16.9,0,26.2,4.5,31.4,13.5C784.7,452.1,783.6,463.9,783.6,474.6L783.6,474.6z M443.8,431l-32.4,68
	l34.3,73.5h-32l-23.3-55.4l-0.8,55.4H361V431h28.5v45.1l21.7-45.1C411.1,431,443.8,431,443.8,431z M537.3,474.6l-29.3-0.3
	c0-5.1,2.6-21.6-5.4-21.6c-8.7,0-6.8,16.6-4.6,21.4c13.2,26.8,43.6,24.9,43.2,61.9c-0.3,25.1-10,38.6-36.7,38.6
	c-9.3,0-17.5-1.4-23.8-5.5c-13.8-9-12.5-22.1-12.5-39.6h28.9v9.2c0,5.3,0.4,8.6,1.3,10.1s2.5,2.2,4.9,2.2c2.3,0,4.1-0.9,5.2-2.8
	c1.1-1.9,1.7-4.7,1.7-8.4c0-17-8-19.4-21.4-31.2c-11-9.7-21.4-17.1-21.4-40.2c0-25.2,7.1-39.2,34.1-39.2c16.9,0,26.1,4.5,31.4,13.5
	C538.4,452.1,537.3,463.9,537.3,474.6L537.3,474.6z M671.3,430l-14.4,143.6h-33.5l-17-63.6l-15,63.7h-34.5L542.3,430h28.5l7.5,72.9
	l13.3-72.4l27.9-0.5l14.3,70.4l7.4-70.4H671.3z M708.7,430v143.6H677V430H708.7"/>
</svg>
