<?xml version="1.0" encoding="utf-8"?>
<!-- Generator: Adobe Illustrator 27.9.0, SVG Export Plug-In . SVG Version: 6.00 Build 0)  -->
<svg version="1.1" id="레이어_1" xmlns="http://www.w3.org/2000/svg" xmlns:xlink="http://www.w3.org/1999/xlink" x="0px"
	 y="0px" viewBox="0 0 1000 1000" style="enable-background:new 0 0 1000 1000;" xml:space="preserve">
<style type="text/css">
	.st0{fill:#FFFFFF;}
</style>
<path class="st0" d="M339.1,339.1v321.7h321.7V339.1H339.1z M658.7,658.7H341.3V341.3h317.4L658.7,658.7L658.7,658.7z"/>
<path class="st0" d="M341.3,658.7h317.4V341.3H341.3V658.7z M343.6,343.6h312.8v312.8H343.6V343.6z"/>
<path class="st0" d="M602.4,467.5c-2.7,0-5,0.5-7,3.8c-4.6,6.1-18.2,43.3-18.1,50.6c0,2.7,1.6,5,4.8,5c3.8-0.2,5.9-2.7,7.7-5.9
	c4.3-7.3,16.3-40,16.6-48.3C606.7,470.3,606.2,467.5,602.4,467.5z"/>
<path class="st0" d="M604.4,439.1c-14.3,0-25.7,5-34.1,15l-2.1,2.7l-1.4-3c-1.3-2.5-2.1-3.6-3.4-5c-5.7-6.4-15.4-9.8-28.6-9.8
	c-12.2,0-23.1,3.6-30.9,10.2l-2,1.6l-1.4-2.1c-3.8-5.9-12.9-9.8-23.4-9.8c-15.2,0-30.4,2.1-39.5,16.8l-3.8,6.1l-0.4-7.1
	c-0.2-5.5-0.7-7.9-3.4-10.7c-2.9-3-7.7-4.5-14.7-4.5c-10.4,0-18.1,4.5-23.8,13.8c-8.6,13.8-29.7,59.3-29.1,81
	c0.4,14.1,9.7,22.7,25,23.1c12.7,0.4,22.9-3,29.1-9.5l1.6-1.6l1.6,1.8c5.7,6.3,14.5,9.7,24.7,9.7c12.9,0,24-3.9,30.4-11.1l1.8-2
	l1.6,2c5.9,7.3,15.2,11.1,26.6,11.1c14.8,0,28.8-7,38.2-18.8l2.5-3l1.4,3.8c5.7,15.7,21.4,18.1,30.2,18.1c29.8,0,42.9-20.6,54-53.6
	c2.9-8.2,5.9-20.6,6.4-30.4c0.4-7.5-0.5-17.9-7.7-25.4C624.4,442.1,615.8,439.1,604.4,439.1z M404,507.7c-2.7,5.5-5,10.5-6.6,14.1
	c16.1-2.9,20.2,3,19.7,8.4c-1.6,16.1-16.3,19.8-29.3,19.5c-9.3-0.4-17.7-4.5-17.9-15.4c-0.4-18.9,18.9-62.7,28.1-77.2
	c4.3-7,9.3-10.4,17.5-10.4c7.7,0,9.7,3.9,9.5,8.8C424.6,465.1,412.6,489.8,404,507.7z M449.8,507c-1.1,2.9-3,8.9-4.6,15.4
	c5.4-1.3,9.3-2.1,16.1-2.1c7.7,0.2,12.7,3.4,12.7,9.8c0,15.5-17.2,20-29,20c-13,0-24.5-7.5-24.5-21.6c0-16.8,9.1-42.2,17.5-59
	c10.4-20.7,21.1-23.6,39.5-23.6c8,0,17.3,3.4,17.3,11.1c0,10.5-8.9,14.7-17.9,15.2c-3.8,0.2-9.7,0.4-13,0.2c0,0-3,4.5-6.1,12.5
	c16.4-2.3,23.4,1.4,20.7,10.9C474.6,508.6,463.5,509.5,449.8,507z M549,508.4c-4.6,23.1-21.1,41.6-44.3,41.6
	c-15.9,0-25.7-8.8-25.7-25c0-11.6,5.9-29.8,10.4-40.4c9.7-22.5,19.8-38.4,45.8-38.4c15.5,0,27.7,5.7,25.9,20.2
	c-1.4,10.7-6.8,17-16.4,17.7c-2.7,0.2-13.9,0-10.2-10.5c1.4-3.8,2-6.6-3.6-6.6c-4.5,0-7.3,2.9-9.5,5.9c-4.8,6.6-15,33.4-17,44.5
	c-1.1,7.5,2.1,9.1,5.7,9.1c5.7,0,12.2-6.1,14.3-16.1c0,0-10.9-0.2-7.9-9.8c3-9.5,8.6-11.4,17.7-11.8
	C552.2,488,550.4,501.3,549,508.4z M628.5,486.1c-2.7,13.6-8.9,29.7-15.5,41.8c-10.9,19.7-24.1,22.3-35.7,22.2
	c-11.6-0.2-24.7-4.5-24.7-22.2c0-12.9,5.4-30.9,10.2-42.7c8.2-21.4,16.4-39,42.9-38.6C636.4,446.7,631,474.1,628.5,486.1z"/>
<path class="st0" d="M604.6,436.7c-16.6,0-28.2,6.4-35.9,15.7c-1.4-2.7-2.3-3.9-3.8-5.4c-6.4-7.1-16.6-10.5-30.4-10.5
	c-13.4,0-24.7,4.1-32.4,10.7c-3.9-6.6-13.6-10.9-25.2-10.9c-15.2,0-31.6,2.1-41.5,17.9c-0.2-5.5-0.7-8.6-3.9-12
	c-3.9-4.1-10.2-5.2-16.3-5.2c-11.1,0-19.5,5-25.6,14.8c-8.8,13.9-30,59.9-29.5,82.2c0.4,14.5,10,24.8,27.3,25.2
	c13.6,0.4,24.1-3.2,30.9-10c6.1,6.4,15.2,10.4,26.3,10.4c12.3,0,24.7-3.8,32-11.8c6.1,7.7,15.7,12,28.2,12
	c16.3-0.2,30.6-7.9,39.9-19.7c5.2,13.9,18.2,19.5,32.4,19.5c31.1,0,44.7-21.4,56.1-55.2c2.7-7.7,6.1-20.4,6.6-31.1
	C640.8,455.5,633.3,436.7,604.6,436.7z M637.6,473.4c-0.5,9.8-3.6,22.2-6.4,30.4c-11.1,33.1-24.1,53.6-54,53.6
	c-8.8,0-24.5-2.3-30.2-18.1l-1.4-3.8l-2.5,3c-9.5,11.8-23.4,18.8-38.2,18.8c-11.4,0-20.7-3.8-26.6-11.1l-1.6-2l-1.8,2
	c-6.4,7.1-17.5,11.1-30.4,11.1c-10.2,0-18.9-3.4-24.7-9.7l-1.6-1.8l-1.6,1.6c-6.3,6.4-16.4,9.8-29.1,9.5c-15.4-0.4-24.7-8.9-25-23.1
	c-0.5-21.6,20.6-67.2,29.1-81c5.7-9.3,13.4-13.8,23.8-13.8c7,0,11.8,1.4,14.7,4.5c2.7,2.9,3.2,5.2,3.4,10.7l0.4,7.1l3.8-6.1
	c9.1-14.7,24.3-16.8,39.5-16.8c10.5,0,19.7,3.9,23.4,9.8l1.4,2.1l2-1.6c7.9-6.6,18.8-10.2,30.9-10.2c13.2,0,22.9,3.4,28.6,9.8
	c1.3,1.4,2.1,2.5,3.4,5l1.4,3l2.1-2.7c8.4-10,19.8-15,34.1-15c11.4,0,20,3,25.6,8.9C637.1,455.5,638,465.9,637.6,473.4z"/>
<path class="st0" d="M343.6,343.6v312.8h312.8V343.6H343.6z M646.6,485.3v0.2c-1.4,11.4-9.3,32.9-13.4,41.5
	c-11.1,22.9-25.9,40.4-54.9,40.4c-15.2,0-27.9-5-35.2-14.3c-10.7,9.5-24.1,14.5-38.4,14.5c-11.1,0-20.7-3.2-28.2-9.1
	c-8.2,5.9-19.3,9.1-31.6,9.1c-10.4,0-19.5-2.9-26.8-8c-7.9,5.4-18.4,8-30.7,7.7c-20.6-0.5-34.7-13.4-35-32.4
	c-0.5-25.2,20.6-71.1,30.7-86.9c7.3-12.2,18.8-18.8,32.7-18.8c15,0,20.6,4.3,23.2,9.8c11.6-10,27-10.5,38.1-10.5
	c12.2,0,19.8,3.2,26.3,8.4c8.9-5.4,19.1-8.2,31.5-8.2c15.7,0,27.3,3.6,35.4,11.6c9.5-7.9,21.3-11.4,34.5-11.4
	c17.7,0,29.1,6.3,35.9,15.7C650,457.8,648.3,471.2,646.6,485.3z"/>
</svg>
