<?xml version="1.0" encoding="utf-8"?>
<!-- Generator: Adobe Illustrator 27.9.0, SVG Export Plug-In . SVG Version: 6.00 Build 0)  -->
<svg version="1.1" id="레이어_1" xmlns="http://www.w3.org/2000/svg" xmlns:xlink="http://www.w3.org/1999/xlink" x="0px"
	 y="0px" viewBox="0 0 1000 1000" style="enable-background:new 0 0 1000 1000;" xml:space="preserve">
<style type="text/css">
	.st0{fill:#FFFFFF;}
</style>
<path class="st0" d="M682.1,529.3c-37.3,0-43.6-21.4-43.6-27h27c0,3.2,4,7.1,7.9,8.7c3.2,0.8,6.3,1.6,9.5,1.6l0,0
	c7.9,0,13.5-1.6,13.5-6.3c0-5.6-6.3-6.3-13.5-7.9c-19-3.2-46-6.3-46-27.8c0-20.6,21.4-30.1,45.2-30.1c37.3,0,46.8,20.6,46.8,27
	h-27.8c0-3.2-2.4-5.6-4.8-7.1l0,0c-3.2-1.6-7.1-2.4-11.1-2.4l0,0c-10.3,0-15.9,2.4-15.9,7.1c0,4,5.6,5.6,12.7,7.1
	c19.8,3.2,49.2,4.8,49.2,28.5C731.2,511.9,720.9,529.3,682.1,529.3L682.1,529.3z M636.1,453.2l-10.3,11.9h-4l4.8-12.7h-9.5V435h19.8
	v18.2H636.1z M575,442.1h34.9V527H575V442.1z M529.8,527h-30.1l-45.2-84.8h41.2l26.2,51.5l0.8,1.6l0.8-1.6l24.6-51.5h24.6L529.8,527
	z M464.8,492.1h-70.6c0,11.1,9.5,19.8,20.6,19h0.8l0,0c7.1,0,14.3-3.2,18.2-8.7l0,0h27.8c-9.5,21.4-27,27.8-51.5,27.8
	c-31.7,0-53.9-17.4-53.9-44.4c0-29.3,22.2-44.4,53.9-44.4c35.7,0,53.9,23.8,53.9,46C464.8,488.1,464.8,490.5,464.8,492.1
	L464.8,492.1L464.8,492.1z M357,527h-80.9v-84.8h36.5V504H357V527z M767.7,373.1c0,0.8,0.8,0.8,0.8,1.6c2.4,4.8,3.2,10.3,3.2,16.7
	l0,0l0,0v0.8c0,6.3-1.6,11.9-3.2,16.7l0,0c-2.4,4.8-5.6,9.5-8.7,13.5c-4,4-7.9,7.1-12.7,8.7l0,0c-4.8,2.4-10.3,3.2-15.9,3.2l0,0l0,0
	l0,0c-5.6,0-11.1-0.8-16.7-3.2l0,0c-4.8-2.4-9.5-4.8-13.5-8.7c-4-4-7.1-7.9-8.7-13.5l0,0c-2.4-5.6-3.2-11.1-3.2-16.7v-0.8l0,0l0,0
	c0-5.6,1.6-11.9,3.2-16.7l0,0c0-0.8,0.8-0.8,0.8-1.6h-498l58.7,253.7c123.7-80.1,241.8-3.2,246.6,0l0,0l0,0l0,0l0,0l0,0
	c4.8-3.2,123.7-80.1,246.6,0l58.7-253.7L767.7,373.1L767.7,373.1z M410.1,458L410.1,458c-8.7,0-16.7,7.1-16.7,15.9l0,0v0.8l0,0h34.1
	c0.8-8.7-6.3-16.7-15.1-17.4C412.5,458,411.7,458,410.1,458L410.1,458L410.1,458z M705.1,417.5c6.3,6.3,15.1,10.3,24.6,10.3l0,0l0,0
	l0,0c4.8,0,9.5-0.8,13.5-3.2l0,0c4-1.6,7.9-4.8,11.1-7.9l0,0c3.2-3.2,5.6-7.1,7.1-11.1l0,0c1.6-4,2.4-8.7,2.4-14.3l0,0l0,0l0,0
	c0-4.8-0.8-9.5-2.4-14.3l0,0c-0.8-1.6-1.6-3.2-2.4-4l0,0h-11.9c0.8,2.4,1.6,4.8,1.6,7.1v0.8l0,0c0,4-0.8,7.1-4,9.5l0,0
	c-2.4,2.4-5.6,3.2-9.5,4l0,0l14.3,22.2h-7.9l-13.5-21.4h-7.9v21.4h-7.9V373h-13.5c-0.8,0.8-1.6,2.4-1.6,4l0,0
	c-1.6,4.8-2.4,9.5-2.4,14.3l0,0l0,0l0,0c0,4.8,0.8,10.3,2.4,14.3l0,0C700.3,410.4,702.7,414.4,705.1,417.5L705.1,417.5L705.1,417.5z
	 M734.4,389c1.6,0,3.2-0.8,4-0.8l0,0c0.8-0.8,2.4-1.6,3.2-2.4l0,0c0-1.6,0.8-3.2,0.8-4.8v-0.8l0,0l0,0c0-1.6,0-2.4-0.8-4l0,0
	c-0.8-0.8-1.6-1.6-2.4-2.4l0,0c-1.6,0-2.4-0.8-4-0.8l0,0c-0.8,0-0.8,0-1.6,0h-11.9v16h7.9C731.2,389,732.8,389,734.4,389L734.4,389z
	"/>
</svg>
