<?xml version="1.0" encoding="utf-8"?>
<!-- Generator: Adobe Illustrator 23.0.0, SVG Export Plug-In . SVG Version: 6.00 Build 0)  -->
<svg version="1.1" id="Layer_1" xmlns="http://www.w3.org/2000/svg" xmlns:xlink="http://www.w3.org/1999/xlink" x="0px" y="0px"
	 viewBox="0 0 1000 1000" style="enable-background:new 0 0 1000 1000;" xml:space="preserve">
<style type="text/css">
	.st0{fill:#FFFFFF;}
</style>
<path class="st0" d="M210.5,469.1c0.5,6.5,5.9,11.6,12.5,11.6s12-5.1,12.5-11.6v0v-27.8c-0.3-6.7-5.8-12-12.5-12
	c-6.7,0-12.2,5.3-12.5,12v0V469.1z M279.9,469.1c0.6,6.5,6,11.5,12.5,11.5s12-5,12.5-11.4v-0.1v-62.4c-0.3-6.7-5.8-12-12.5-12
	s-12.2,5.3-12.5,12v0L279.9,469.1L279.9,469.1z M348.8,494.3c0.3,6.7,5.8,12,12.5,12c6.7,0,12.2-5.3,12.5-12v0v-135
	c-0.3-6.7-5.8-12-12.5-12c-6.7,0-12.2,5.3-12.5,12v0V494.3L348.8,494.3z M418.4,469.1c0.3,6.7,5.8,12,12.5,12s12.2-5.3,12.5-12v0
	v-62.4c-0.3-6.7-5.8-12-12.5-12s-12.2,5.3-12.5,12v0V469.1z M487.6,469.1c0.7,6.4,6,11.3,12.5,11.3s11.9-5,12.5-11.3v-0.1v-27.8
	c-0.3-6.7-5.8-12-12.5-12s-12.2,5.3-12.5,12v0L487.6,469.1L487.6,469.1L487.6,469.1z M557.4,469.1c0.4,6.6,5.9,11.8,12.5,11.8
	s12.1-5.2,12.5-11.8v0v-62.4c-0.3-6.7-5.8-12-12.5-12s-12.2,5.3-12.5,12v0L557.4,469.1L557.4,469.1L557.4,469.1z M625.8,494.3
	c0.5,6.5,5.9,11.6,12.5,11.6c6.6,0,12-5.1,12.5-11.6v0v-135c-0.3-6.7-5.8-12-12.5-12c-6.7,0-12.2,5.3-12.5,12v0V494.3L625.8,494.3z
	 M695.4,469.1c0.5,6.5,5.9,11.6,12.5,11.6s12-5.1,12.5-11.6v0v-62.4c-0.4-6.6-5.9-11.8-12.5-11.8s-12.1,5.2-12.5,11.8v0V469.1z
	 M763.9,469.1c0.3,6.7,5.8,12,12.5,12s12.2-5.3,12.5-12v0v-27.8c-0.3-6.7-5.8-12-12.5-12s-12.2,5.3-12.5,12v0V469.1z M630.5,600.1
	c0.5,28.8,24,52,52.8,52c4,0,8-0.5,11.8-1.3l-0.3,0.1c24-4.7,42-25.6,42-50.7c0-18.7-10-35.1-24.8-44.1l-0.2-0.1c-8-5-17.6-8-28-8
	C654.7,548.1,631.1,571.2,630.5,600.1L630.5,600.1L630.5,600.1z M667.2,579.5c4.5-3.7,10.3-5.9,16.7-5.9c14.6,0,26.4,11.8,26.4,26.4
	c0,8.2-3.8,15.6-9.7,20.4l0,0l-0.4,0.3c-4.4,3.4-10,5.5-16.1,5.5c-14.6,0-26.4-11.8-26.4-26.4C657.6,591.7,661.3,584.4,667.2,579.5
	L667.2,579.5L667.2,579.5L667.2,579.5z M374.1,650.3h25.3V549.9h-25.3V650.3z M433.7,626.3l-0.1,23.1l1.7,0.3c4.5,0.9,10,1.6,15.5,2
	l0.5,0c2.7,0.3,5.8,0.4,9,0.4c1.8,0,3.6-0.1,5.4-0.2l-0.3,0c4.9-0.4,9.4-1.3,13.7-2.6l-0.4,0.1c5.3-1.5,9.9-4.1,13.8-7.4l-0.1,0
	c3.5-3,6.3-6.9,8-11.3l0.1-0.2c1.3-3.4,2.1-7.3,2.1-11.4c0-4.2-0.8-8.3-2.4-12l0.1,0.2c-1.6-4-4.1-7.3-7.2-10l0,0
	c-3-2.6-6.5-4.7-10.3-6.1l-0.2-0.1l-17.4-6.5c-2.1-0.9-3.7-2.5-4.7-4.5l0-0.1c-0.3-0.7-0.5-1.6-0.5-2.5c0-1,0.3-2,0.7-2.8l0,0
	c0.9-1.5,2.2-2.6,3.7-3.4l0.1,0c1.8-0.9,3.9-1.5,6.1-1.8h0.1c1.5-0.2,3.3-0.4,5.2-0.4c2.1,0,4.1,0.2,6.1,0.5l-0.2,0
	c4.9,0.5,9.2,1.3,13.5,2.5l-0.6-0.1l0.9,0.2v-21.3l-1.7-0.4c-3.6-0.9-8-1.7-12.5-2.3l-0.6-0.1c-2.7-0.4-5.8-0.6-8.9-0.6
	c-2.9,0-5.8,0.2-8.7,0.5l0.4,0c-7.6,0.7-14.4,3.6-19.9,8l0.1-0.1c-3.8,3-6.7,6.9-8.4,11.5l-0.1,0.2c-1.2,3.2-1.9,6.9-1.9,10.8
	s0.7,7.6,2,11l-0.1-0.2c1.4,3.6,3.4,6.7,6.1,9.2h0c2.3,2.2,4.9,4.1,7.7,5.6l0.2,0.1c3.4,1.9,7.4,3.5,11.6,4.6l0.4,0.1
	c1.4,0.4,2.7,0.8,4.1,1.3l2,0.8l0.6,0.2c2.1,0.8,3.9,1.9,5.5,3.4l0,0c1.1,1,1.9,2.2,2.4,3.6l0,0.1c0.1,0.6,0.3,1.3,0.3,2
	c0,0.7-0.1,1.3-0.3,2l0-0.1c-0.7,2.1-2.1,3.8-4,4.7l0,0c-1.9,1-4.2,1.7-6.5,2.1l-0.1,0c-2.3,0.4-4.9,0.6-7.5,0.6c-1,0-1.9,0-2.9-0.1
	h0.1c-5.1-0.4-9.7-1-14.2-1.9l0.8,0.1c-2.3-0.5-4.6-1-6.9-1.6L433.7,626.3z M339.1,648.5v-26.8l-0.5,0.2c-5.6,2.8-12.2,4.5-19.2,4.9
	h-0.1c-0.7,0.1-1.4,0.1-2.2,0.1c-6.5,0-12.5-2.2-17.3-5.8l0.1,0.1c-3.9-3-6.9-7.1-8.4-11.8l-0.1-0.2c-0.9-2.7-1.5-5.8-1.5-9
	c0-2.5,0.3-4.9,0.9-7.2l0,0.2c1.3-5.6,4.4-10.3,8.6-13.7l0,0c3.7-3.1,8.3-5.2,13.4-5.8l0.1,0c1.5-0.2,3.2-0.3,5-0.3
	c7.5,0,14.6,1.9,20.9,5.2l-0.3-0.1l0.6,0.3v-26.9l-1.2-0.3c-6.3-2.1-13.5-3.3-21-3.3c-1.2,0-2.4,0-3.6,0.1h0.2
	c-7.9,0.2-15.4,2-22.1,5.1l0.4-0.2c-7.1,3.3-13.1,8-17.8,13.7l-0.1,0.1c-7.2,9-11.5,20.6-11.5,33.3c0,12,4,23.1,10.7,32.1l-0.1-0.1
	c7,8.9,16.8,15.4,28,18.2l0.4,0.1c4.7,1.2,10.1,1.9,15.7,1.9c7.2,0,14.1-1.2,20.6-3.3l-0.5,0.1L339.1,648.5L339.1,648.5z
	 M604.2,648.5v-26.8l-0.5,0.2c-5.6,2.8-12.2,4.5-19.2,4.9h-0.1c-0.7,0.1-1.4,0.1-2.2,0.1c-6.5,0-12.5-2.2-17.3-5.8l0.1,0.1
	c-3.9-3-6.8-7.1-8.4-11.8l-0.1-0.2c-0.9-2.7-1.4-5.8-1.4-9c0-2.5,0.3-5,0.9-7.3l0,0.2c1.3-5.6,4.4-10.3,8.6-13.7l0,0
	c3.7-3.1,8.3-5.2,13.4-5.8l0.1,0c1.5-0.2,3.2-0.3,5-0.3c7.5,0,14.6,1.9,20.8,5.2l-0.3-0.1l0.6,0.3v-26.9l-1.2-0.3
	c-6.3-2.1-13.5-3.3-21-3.3c-1.2,0-2.4,0-3.6,0.1h0.2c-7.9,0.2-15.4,2-22.1,5.1l0.3-0.2c-7.1,3.3-13,8-17.7,13.7l-0.1,0.1
	c-7.2,9-11.5,20.6-11.5,33.2c0,12,4,23.2,10.7,32.1l-0.1-0.1c7,8.9,16.8,15.4,28,18.2l0.3,0.1c4.7,1.2,10.1,1.9,15.7,1.9
	c7.2,0,14.1-1.2,20.6-3.3l-0.5,0.1L604.2,648.5L604.2,648.5z"/>
</svg>
