<?xml version="1.0" encoding="utf-8"?>
<!-- Generator: Adobe Illustrator 27.9.0, SVG Export Plug-In . SVG Version: 6.00 Build 0)  -->
<svg version="1.1" id="레이어_1" xmlns="http://www.w3.org/2000/svg" xmlns:xlink="http://www.w3.org/1999/xlink" x="0px"
	 y="0px" viewBox="0 0 1000 1000" style="enable-background:new 0 0 1000 1000;" xml:space="preserve">
<style type="text/css">
	.st0{fill-rule:evenodd;clip-rule:evenodd;fill:#FFFFFF;}
</style>
<g id="TEMPLATES">
	<g transform="translate(-100.000000, -27.000000)">
		<g id="Header">
			<g id="Medallia-Logo" transform="translate(100.000000, 27.000000)">
				<polygon id="Fill-1" class="st0" points="235.3,432 184.3,499.3 132.5,432 106,432 106,585.1 135.3,585.1 135.3,484.4 
					182.9,544.2 184.9,544.2 232.6,483.7 232.6,585.1 262.5,585.1 262.5,432 				"/>
				<polygon id="Fill-2" class="st0" points="695.2,585.1 723.7,585.1 723.7,423.1 695.2,432 				"/>
				<polygon id="Fill-3" class="st0" points="641.4,585.1 670,585.1 670,423.1 641.4,432 				"/>
				<g id="Group-17" transform="translate(25.611940, 0.113831)">
					<path id="Fill-4" class="st0" d="M445.1,559.9l-1.4,0.7c0,0-6.8,2-13.6,2h-0.7c-2.7,0-10.2,0-16.3-4.8
						c-6.8-5.4-10.2-15-10.2-29.3c0-21.8,10.2-34.7,27.2-34.7c4.1,0,8.8,0.7,13.6,2.7l1.4,0.7V559.9z M445.1,471.4l-2-0.7
						c-5.4-1.4-11.6-2-17.7-2c-9.5,0-23.8,2-35.4,11.6c-11.6,10.2-17.7,27.2-17.7,49.7c0,20.4,5.4,36.1,16.3,45.6
						c8.8,7.5,21.8,11.6,37.4,11.6c19.7,0,37.4-6.1,46.3-9.5h0.7V424.5l-27.9,7.5L445.1,471.4L445.1,471.4z"/>
					<polygon id="Fill-6" class="st0" points="722.7,584.4 751.9,584.4 751.9,467.3 722.7,476.2 					"/>
					<polygon id="Fill-8" class="st0" points="717.9,432 738.3,453.1 759.4,432.7 738.3,411.6 					"/>
					<path id="Fill-10" class="st0" d="M561.5,556.5c0,0-7.5,9.5-24.5,9.5c-10.2,0-17-5.4-17-15.6c0-12.2,12.2-17,24.5-17
						c10.9,0,17.7,1.4,17.7,1.4v21.8h-0.7V556.5z M539,468c-21.1,0-36.1,8.2-36.1,8.2V500l0,0c4.8-2,16.3-7.5,34.7-7.5
						c9.5,0,15.6,2,19.7,6.1c4.1,4.1,4.1,12.2,4.1,17.7c0,0-8.8-2-19.7-2c-33.3,0-51,14.3-51,36.7s19,36.1,40.1,36.1
						s32.7-8.8,32.7-8.8v6.1h27.9v-17.7v-7.5v-45.6C590.7,472.8,560.8,468,539,468L539,468z"/>
					<g id="Group-14" transform="translate(75.283582, 8.278607)">
						<g id="Clip-13">
						</g>
						<path id="Fill-12" class="st0" d="M762.9,548c0,0-7.5,9.5-24.5,9.5c-10.2,0-17-5.4-17-15.6c0-12.2,12.2-17,24.5-17
							c10.9,0,17.7,1.4,17.7,1.4V548H762.9z M740.5,459.6c-21.1,0-36.1,8.8-36.1,8.8v23.8l0,0c4.8-2,16.3-8.2,34.7-8.2
							c9.5,0,15.6,2,19.7,6.1c4.1,4.1,4.1,12.2,4.1,17.7c0,0-8.8-2-19.7-2c-33.3,0-51,14.3-51,36.7s19,36.1,40.1,36.1
							s32.7-8.8,32.7-8.8v6.1h27.9v-17.7v-7.5v-46.3C792.9,464.4,762.9,459.6,740.5,459.6L740.5,459.6z"/>
					</g>
					<path id="Fill-15" class="st0" d="M283.9,517.7c0-2.7,0.7-8.2,2.7-12.2c3.4-6.1,10.2-12.9,21.8-12.9s18.4,6.8,21.1,12.9
						c2,4.8,2,9.5,2,12.2H283.9z M358.1,525.9c0-21.1-4.8-36.1-15-44.9c-8.2-7.5-19.7-12.2-34-12.2c-13.6,0-26.5,4.8-35.4,12.9
						c-12.2,10.9-18.4,26.5-18.4,47.6c0,53.7,40.1,59.2,57.1,59.2s32-6.1,38.1-8.8v-25.2c-4.1,2.7-17,8.8-34,8.8
						c-8.8,0-21.8-3.4-28.6-14.3c-2.7-4.1-4.1-8.8-4.1-10.9h73.5C357.4,538.1,358.1,531.3,358.1,525.9L358.1,525.9z"/>
				</g>
			</g>
		</g>
	</g>
</g>
</svg>
