<?xml version="1.0" encoding="utf-8"?>
<!-- Generator: Adobe Illustrator 23.0.0, SVG Export Plug-In . SVG Version: 6.00 Build 0)  -->
<svg version="1.1" id="레이어_1" xmlns="http://www.w3.org/2000/svg" xmlns:xlink="http://www.w3.org/1999/xlink" x="0px"
	 y="0px" viewBox="0 0 1000 1000" style="enable-background:new 0 0 1000 1000;" xml:space="preserve">
<style type="text/css">
	.st0{fill:#FFFFFF;}
</style>
<path class="st0" d="M277.2,389.1c-1.8-2.1-3.5-4.2-5.1-6c-0.5-0.5-1.6-1.1-2.3-0.9c-2.8,0.7-5.3,0-7.6-0.9c-3-1.1-6-0.9-8.8,0.5
	c-1.4,0.7-1.4,1.6-0.9,3c1.1,2.8,1.1,2.5-0.7,4.8c-0.5,0.7-0.7,1.6-0.7,2.5s0.4,1.6,0.7,2.5c1.1,3.9-0.2,4.6-3.5,5.5
	c-4.2,1.1-6.2,3.7-6.2,7.8v7.8c0,1.4,0.5,2.1,1.6,2.8c2.3,1.1,3.2,2.5,2.3,4.8c-1.1,2.8-2.5,5.3-3.9,7.8c-0.9,1.6-1.8,3.2-1.6,5.3
	c0,0.5,0,1.1-0.5,1.6c-0.9,1.4-0.7,2.3,0.5,3.5c2.1,1.8,2.3,3.9,1.4,6.4c-0.9,2.8-0.9,5.1,0.7,7.8c1.1,2.1,1.6,4.6,2.1,7.1
	c0.7,3.2,2.5,6,4.4,8.8c1.1,1.6,2.1,3.5,2.5,5.3c0.2,1.1-0.5,2.8-0.9,3.9c-0.9,1.6-2.1,3.2-3,4.8c-0.9,1.4-1.4,3-2.3,4.4
	c-0.7,1.1-1.1,2.3-0.2,3.5c2.5,2.8,2.1,5.5,0.9,8.5c-0.9,2.5-0.7,4.6,1.6,6.7c2.5,2.3,2.8,4.6,1.4,8.3c-1.6,4.6-2.8,9.4-4.2,14
	l-2.8,9.7c-1.1,4.4-0.4,8.5,0.7,12.6c0.4,2.1,1.4,3.9,1.6,6c0.2,1.1,0,2.3-0.2,3.5c-0.2,1.4-0.9,2.5-1.4,3.9c-0.2,0.5-0.2,1.1,0,1.4
	c1.1,2.1,0.4,3.9-0.5,5.7c-1.1,2.3-1.1,4.2-0.2,6.4c0.5,1.6,0.5,3.5,0.5,5.1c0,2.3-0.5,4.6-0.7,7.1c-0.7,6,0.2,11.9,1.4,17.9
	c0.2,1.6,1.1,3,1.6,4.6c0.9,2.1,0,3.9-0.9,5.5c-0.7,1.1-0.5,1.6,0.2,2.1c0.9,0.7,1.4,1.6,0.2,2.3c-0.9,0.7-2.1,0.9-2.5-0.5
	c0-0.2-0.2-0.5-0.5-0.5c-2.5-1.4-3-3.5-2.1-6s0-4.6-1.6-6.4c-2.5-2.8-3-6.2-3.5-9.6c-0.9-5.5-1.4-11-2.3-16.5
	c-0.9-4.6-2.1-9-3.2-13.3c-0.2-1.4-1.1-2.5-1.8-3.7c-1.1-2.1-1.6-3.9,0-6c0.9-1.1,1.1-2.5,0.2-3.9c-0.7-0.9-1.4-2.1-1.6-3
	c-0.5-1.4-0.7-2.8-0.5-4.2c0-1.1,0.7-2.3,0.7-3.5c0.2-1.6-0.2-3-1.8-3.9c-1.8-1.1-3.9-2.8-3.7-5.5c0.2-1.1,0.9-2.3,1.4-3.5
	c1.8-3.7,3.9-7.1,5.5-11c1.4-3.2,0.2-6.9,0-10.1c-0.2-2.3-0.2-4.4-0.2-6.7c0-1.4-0.4-2.5-1.4-3.5c-0.7-0.5-1.4-1.1-1.6-1.8
	c-0.4-0.9-0.7-2.1-0.2-2.8c1.8-3.2,2.1-6.7,0.9-10.1c-0.2-0.5-0.2-1.1,0-1.6c0.7-3-0.2-5.7-0.7-8.5c-0.9-4.6-2.1-9-3.2-13.3
	c-0.9-3.5-2.8-6.2-4.8-9.2c-2.1-2.8-3-6.2-2.3-9.7c0.9-5,2.1-10.1,3.2-14.9c0.5-2.3,1.4-4.6,2.3-6.9c0.5-1.4,0.2-2.5-0.4-3.9
	c-0.2-0.7-0.4-1.6-0.2-2.1c1.6-3.9,0.2-7.6-0.4-11.3c-0.2-0.9-1.6-1.8-2.3-2.8c-0.2-0.2-0.7-0.5-1.1-0.7c-2.8-1.8-3.5-3.2-2.1-6.2
	c1.8-4.8-2.5-8.8-6.2-9.4c-5.7-1.4-11.7-2.5-17.5-3.5c-2.1-0.2-4.1,0.5-6.2,0.7c-0.7,0-1.6,0.5-2.3,0.5c-0.9,0-1.6-0.5-2.5-0.9
	c0.2-0.7,0.5-1.6,0.9-2.3c1.4-1.8,3.5-3.2,5.7-3.7c4.6-0.7,8.8-2.5,13.1-4.4c3.9-1.6,8.1-2.1,12.2-1.1c2.3,0.4,4.2-0.5,5.7-1.4
	c3.7-2.3,7.1-4.6,10.6-7.1c1.6-1.1,2.3-1.1,3.2,0.5c0.2,0.2,0.5,0.7,0.5,0.9c0.9,2.8,3.2,3.9,6,4.2c2.8,0.2,5.7,0.7,8.5,0.7
	c1.6,0,2.8,0.7,3.9,1.6c1.6,1.1,2.8,1.1,4.4,0c1.1-0.9,2.3-1.4,3.7-2.1s3-1.4,4.2-2.5c1.8-1.8,3.7-2.8,6.2-2.1
	c2.3,0.7,4.4,0.2,6.2-1.1c3.2-2.3,6.7-3.5,10.8-3.9c4.2-0.5,7.8-2.1,11-5.1c1.8-1.6,2.8-1.6,4.4,0.2c0.7,0.7,1.4,1.6,2.1,2.1
	c1.4,0.9,2.8,2.1,4.4,2.3c1.8,0.5,3.2,1.1,4.4,2.8c1.4,1.8,3,2.5,5.1,3c3,0.7,4.2,3.2,3.2,6c-0.2,0.4,0.2,1.4,0.7,1.4
	c1.1,0.2,2.3,0.5,3.5,0.5c1.6,0,3,0.5,3.5,2.1s-0.9,2.5-2.1,3.5c-0.5,0.5-1.4,0.7-2.1,0.7c-2.8,0.7-4.8,1.8-5.3,4.8
	c-0.5,2.8-2.5,4.6-3.9,6.7s-2.8,4.4-4.2,6.4c-0.9,1.4-0.5,2.8,0,4.2c0.4,1.1,0.4,2.3,0.9,3.5c0.5,1.1,0,2.1-0.5,3.2
	c-1.4,2.8-1.1,3.9,0.9,6.2c0.9,0.9,1.6,2.1,2.1,3.2c0.2,0.7,0.2,1.8-0.2,2.8c-2.3,4.4-1.4,8.5,0.2,12.9c1.1,3.2,2.5,6.4,0.9,9.9
	c-0.5,1.1-1.1,2.5-2.1,3.5c-1.8,2.1-2.5,4.2-1.8,6.9c0.2,1.1,0.2,2.8,0,3.9c-0.5,2.1-1.6,3.9-1.8,6c-0.2,1.6,0.2,3.2,0.7,4.8
	c1.4,5,3.2,10.1,4.4,15.2c0.7,2.3,0.7,5.1,0.5,7.4c0,1.4-0.9,2.8-1.8,3.7c-3.2,3-5.3,6.2-6,10.8c-0.7,3.9-2.1,7.8-4.4,11.5
	s-2.8,7.8-1.6,11.9c0.7,2.1,1.1,3.9-0.5,6c-0.2,0.2-0.2,1.1,0,1.4c1.4,2.3,1.4,4.6,0.7,6.9c-0.9,3.2-0.9,6.4,0.2,9.7
	c0.5,1.6,0.2,2.8-0.7,3.9c-1.4,2.1-1.6,4.2-1.4,6.7c0.5,2.5,0,5.3,0,7.8c-0.2,3.7-1.8,7.6-0.4,11.3c0.9,2.8,2.5,5.3,4.2,7.6
	c2.3,3.2,2.3,3.9-0.2,7.1c-0.7,0.9-1.4,2.1-0.7,3.5c0.7,1.8,0,3.5-0.2,5c-0.9,3.7-1.1,7.6-2.3,11.5c-0.7,2.8-0.9,5.5-0.7,8.3
	c0.2,3.2-0.7,6.7-2.5,9.4c-1.1,2.1-2.5,3.7-3.9,5.7c-0.5,0.9-0.7,2.1-1.1,3c-0.2,0.7-0.9,1.4-1.1,1.8c-0.7-0.5-1.8-0.9-2.1-1.6
	c-1.1-2.3-0.9-4.8-0.2-7.4c1.1-4.2,2.8-8.1,2.5-12.4c-0.5-7.1-2.1-13.8-6.7-19.5c-1.1-1.6-1.8-3.5-0.5-5.1c2.5-3.2,2.8-6.7,1.4-10.3
	c-0.5-0.9-0.2-2.3-0.5-3.5c-0.2-1.4-0.5-2.5-0.7-3.7c0-0.7-0.5-1.8,0-2.3c0.9-1.8,1.1-3.5,0.5-5.7c-0.5-1.4,0-3.2,0.2-4.8
	c0.5-1.8,0.5-3.7-0.7-5.3c-1.6-2.5-1.8-5.3-1.8-8.1c0-3.5,0.4-6.7,0.7-10.1c0.2-3-0.9-6-3-8.1c-2.3-2.3-2.1-4.8-1.1-7.6
	c2.1-5.7,4.4-11.3,6.2-17c0.9-3,1.1-6.4,1.6-9.7c0.2-1.4,0.9-2.8,1.1-4.2c0-0.2,0.2-0.5,0.5-0.7c1.8-2.1,2.1-4.6,1.4-7.4
	c-0.9-3.5-1.8-6.9-2.8-10.1c-0.2-0.7-0.5-1.6-0.9-2.3c-1.6-2.5-1.6-5.3-1.1-8.1c0.5-2.1,0.2-4.2,0.5-6.2c0.4-2.8,0.7-5.3,1.6-7.8
	c0.7-2.8,0.7-3.7-1.1-5.7c-0.9-0.9-1.8-1.6-2.5-2.5c-1.1-1.8-1.4-3.9-0.4-6c1.4-3.9,1.1-7.6,0-11.5c-1.1-4.4-1.4-8.5,0.4-12.6
	c1.1-2.5,1.8-4.6-3-7.6c-1.8-1.1-2.5-3-3.2-5.1c-0.2-0.9,0-1.8,1.1-2.5c0.7-0.4,1.1-1.4,1.1-2.3c0.2-1.6,0-3.5,0-5
	c0-0.5,0-0.9,0.2-1.4c1.1-1.6,0.4-2.5-0.9-3.2c-0.2-0.2-0.2-1.1-0.2-1.8C276.3,390,276.7,389.6,277.2,389.1L277.2,389.1z"/>
<path class="st0" d="M363.8,450.3c0.5,0.5,0.9,0.9,1.4,1.1c2.8,1.6,3.9,3.7,3,6.7c-0.7,2.8-1.8,5.3-2.5,8.1
	c-1.4,4.8-0.2,9.2,2.8,13.1c1.8,2.5,3.5,5.3,4.6,8.3c0.5,0.9-0.2,2.3-0.2,3.5c0,1.6-0.2,3.5-0.2,5.1c0.2,2.5-0.7,4.8-2.1,6.9
	c-2.3,3.5-3.5,7.4-4.6,11.3c-0.5,1.6,0.2,3.7,0.7,5.3c0.5,1.4,1.4,2.8,2.1,4.2c1.4,2.5,1.1,5.3,0,7.8c-0.9,1.8-2.1,3.7-3,5.5
	c-1.4,2.5-0.9,4.8,0,7.4c0.7,2.1,1.6,4.2,1.8,6.2c0.2,1.4-0.2,3-0.9,3.9c-1.4,1.8-1.6,3.7-0.9,5.7c0.4,1.6,0.2,3-0.2,4.6
	c-0.5,0.9-0.2,2.1-0.2,3c0.2,1.1,0.7,2.5,1.1,3.7c0.7,1.6,0.5,2.8-0.4,4.2c-2.8,5.1-5.5,10.1-7.8,15.2c-0.9,2.1-1.4,4.4-1.8,6.4
	c-0.7,3,0.2,6.2-1.4,9.2c-0.4,0.7-1.4,1.4-2.3,1.8c-0.2,0.2-1.4-0.5-1.4-0.9c-0.7-3.2-1.1-6.7-1.8-9.9c-0.9-3.7-0.4-7.1,0.5-10.8
	c1.4-5.5,0.9-10.8-2.3-15.6c-1.6-2.3-1.6-4.2,0.7-6.2c3-2.5,2.8-6,3.5-9.2c0.5-3,0-5.5-1.6-8.3c-0.5-0.7-0.2-2.3,0.2-2.8
	c3.2-3.9,3.7-8.5,3.9-13.3c0-2.8-0.2-5.5,0-8.3c0.2-5.1,0.9-9.9,1.1-14.9c0.2-2.5-0.2-5.3-0.7-7.8c-0.5-2.1-1.4-4.2-2.3-6.2
	c-2.3-5.1-2.3-10.3-0.2-15.4c1.6-4.2,0.2-7.6-1.8-10.8c-2.1-3.7-3.9-7.4-5.1-11.5c-0.2-0.7-0.2-1.8,0.2-2.5c1.1-2.1,1.1-3.9,0.7-6
	c-0.2-1.1,0.2-2.5,0.9-3.7c0.7-1.4,0.7-2.1-0.2-3.2c-1.1-1.1-2.1-2.1-3-3.2s-0.9-2.3,0.2-3.5c1.1-1.1,2.3-2.1,3.5-3.2
	c0.7-0.7,1.1-1.4,1.6-2.3c1.1-2.3,1.1-2.8-0.5-4.6c-0.7-0.9-1.1-1.8-0.7-3c0.5-0.7,0.7-1.6,1.1-2.5c0.5-1.1,0.7-2.3,0.2-3.7
	c-0.4-1.6-0.4-3.5-0.2-5c0-3.7,0.5-7.1,0.5-10.8c0-2.3-1.8-3.5-3.7-4.2c-1.6-0.9-3.5-1.4-5.3-2.1c-0.9-0.2-2.1-0.2-3,0.2
	c-3.5,1.6-6.4,0.5-9.2-1.6c-1.6-1.1-3.2-1.8-5.5-1.4c-1.6,0.2-3.7,0-5.3-0.5c-1.6-0.5-1.8-1.1-0.7-2.5c0.9-1.1,2.3-2.3,3.5-3.2
	l1.6-1.6c1.1-1.6,2.5-2.8,4.6-2.5c3,0.2,5.5-0.5,8.1-2.1c1.6-1.1,3.7-1.6,5.5-1.8c1.8-0.2,2.8-1.1,3.2-2.8c0.9-3.5,2.8-5.5,6.4-6.2
	c1.6-0.2,3-1.6,4.2-2.8c2.1-2.3,4.2-2.1,5.3,0.7c0.5,1.4,2.1,2.3,3.7,1.8c3.5-1.1,5.5,0.9,7.1,3.5c1.1,1.6,2.3,2.8,4.4,3.2
	c1.4,0.5,1.8,1.6,1.4,3v0.2c-1.1,3.5-1.1,3.5,1.8,5.3c2.5,1.8,3.2,3.7,1.8,6.4c-1.1,2.5-0.7,4.4,1.1,6.4c1.4,1.6,1.6,2.3,0,3.7
	c-2.8,2.3-3.2,5.5-3.5,8.8c-0.2,1.8-0.9,3.2-2.3,4.4c-0.9,0.7-1.6,2.3-2.1,3.5c-0.9,2.5-1.8,5.3-2.5,7.8c-0.2,0.5-0.2,0.7-0.2,1.1
	c0,2.3-0.7,4.2-2.3,5.5c-2.1,1.8-3.2,4.2-1.8,6.9c1.1,2.1,0.5,4.2,0.2,6.2c0,0.5-0.5,1.1-0.2,1.6
	C366.1,446.8,364.7,448.4,363.8,450.3L363.8,450.3z"/>
<path class="st0" d="M458.7,432.1c-2.3-0.9-5.3-3-7.8-4.6c-1.6-1.1-3.7,0.2-3,1.1c0.5,0.7-1.1,1.8-2.1,2.3
	c-5.5,4.6-13.6,15.8-18.4,23.5c-0.5,0.4-1.1,0.7-1.8-0.2c-0.9-1.1-17.5-24.8-20.4-26.9c-2.8,1.4-5.5,2.8-7.6,3.7
	c3,2.5,2.3,3.5,3,5.7c0.9,2.3,0.9,24.4-0.7,26.2c-1.4,1.6-2.1,3.9-0.2,5.3c1.1,0.9,3,3,3.2,3.7c0.2,1.6,2.1,1.1,2.1,0
	c-0.2-1.6-0.5-31-0.5-32.6c0-0.9,1.1-0.5,2.5,1.6c3.7,4.4,9.6,13.3,16.3,22.1c0.9,1.4,1.6,2.1,2.5,0.9c1.4-1.6,2.1-0.5,5.5-2.3
	c-1.1-0.9-3.2-3.5-3-4.2c3.2-6.4,13.8-20.7,18.9-25.3c0.9-0.9,1.6,0.7,1.6,2.3c-0.2,1.8-0.2,45-0.2,47.6c0,1.1,1.8,1.1,2.1-0.2
	c0.2-0.7,4.6-3,6.2-4.2c1.8-1.1,1.1-2.1,0-5.1c-0.9-2.5-0.4-34.7-0.4-36.5c0-1.1,0.4-2.1,1.6-2.1C459.9,433.9,460.5,433,458.7,432.1
	L458.7,432.1z M816.3,474.2c-6-2.5-18.6-20.2-18.9-22.5c-0.3-2.3-0.7-2.5-2.5-3c-3.2-0.9-6.7-3-6.7-3s-1.4-0.9,0.7-0.9
	c2.1,0,3.5-0.2,5.1,0.2c3-1.4,6.2-2.5,8.8-3.2c0.5-4.2,1.6-5.7,2.3-7.1c0.7-1.1,0.7-2.8-0.2-3.9l-0.7-0.7c-1.1-1.1-1.8-2.5-3.5-2.8
	c-0.9,0-3,0.9-5.3,1.1c-3.5,0.5-11-0.5-11.9-0.2c-1.6,0.5-8.1,5.3-8.1,4.4c0-1.1,0-1.8,0.5-2.8c0.7-0.5,1.4-1.1,2.3-1.6h-0.5
	c0.9-0.9-2.1-1.6-3-1.1c0.2-0.2-7.6,5.1-9,4.8c-2.1-0.2-1.8,1.8,0,1.8c1.6,0,2.8,0.9,2.8,2.8c0,0.5-0.5,23-1.6,24.8
	c-1.6,2.5-2.1,4.2,0.9,5.5c0,0,4.6,3.7,5.3,5.1c0.5,1.1,2.1,1.4,2.3,0c0.2-5.1-0.2-17.5,0.5-22.1c0.2-1.4,5.5-4.6,8.3-3.7
	c7.1,2.1,14.5,25.3,24.3,32.4c2.5,1.8,2.5,1.6,3.7,0.4c0.7-0.7,3.7-2.5,6.2-3C820.4,476,818.6,475.1,816.3,474.2L816.3,474.2z
	 M780.2,444.5c-3.5,1.6-6.7,2.5-6.9,1.4c-0.3-1.1-0.7-5.3,0.9-7.6c1.8-3,4.4-5.7,6.7-7.1c2.1-1.1,1.8,1.1,3.9,1.1
	c1.1,0,1.6-0.7,2.8-1.1c0.9-0.2,2.5-0.2,3.2-0.2c1.8,0,3.7,0,4.8,0.7c0.7,0.5,0.7,1.4,0.7,1.8c0.2,3.9-1.8,6.4-4.6,7.4
	C789.6,441.3,784.3,443.4,780.2,444.5z M752.1,461.3c-0.9,3.7-2.5,5.1-6.4,6.2c-4.4,1.4-17.7,1.8-22.1-0.5c-2.1-1.1-3-16.8-0.5-18.4
	c1.4-1.1,10.8-1.1,12.6-1.1c1.4,0,1.4,2.3,1.4,2.8c0,1.1,1.6,1.4,1.6,0c0-0.9,0.7-3.2,1.4-4.6c0.5-1.1,0-1.8-1.1-2.1
	c-1.6,0-0.7,1.6-3.2,2.1c-1.1,0.2-11.5,0.2-13.1-0.5c-1.6-0.5-0.7-11.5,0.9-12.4c2.3-1.4,13.1-1.8,17.7-0.5c3.2,0.9,5.1,3.2,6.7,6
	c0.5,1.1,2.8,0.5,2.5-0.5c-0.9-3.7-1.1-6.2-2.3-7.6c-0.9-0.9-2.5-1.8-3.2-1.8c-1.4,0-2.8,1.4-5.5,0.9s-12.9-0.5-15.6,0.4
	c-1.4,0.2-0.7-1.1,0.5-1.8c0.7-0.5-0.9-2.1-2.3-1.6c-1.8,0.7-4.6,4.4-9.4,4.6c-2.5,0.2-1.8,2.3,0,2.1c1.6-0.2,1.6,0.7,1.6,2.5
	s0.5,26-0.9,27.4c-1.8,1.8-2.5,3.5-0.5,4.6c2.3,0.9,7.1,2.5,7.6,3.7c0.4,1.1,2.1,1.1,2.1,0c0-2.1,1.1-1.1,3.7-0.9
	c3.7,0.2,14,0.2,20.4-0.7c1.8-0.2,0.7,0.9,2.5,1.1c1.6,0,3.2-2.3,3.7-3.7c0.5-2.1,0.5-5.1,0.5-6.2
	C753.4,459.6,752.4,460.6,752.1,461.3L752.1,461.3z M699.5,429.3c-2.1-1.4-1.6-1.4-3.7-0.7c-2.5,0.7-2.5,1.1-7.1,1.1
	c-6-0.2-24.6,0.2-30.1,0.2c-3,0-3.7-1.1-4.8-1.1s-3.5,1.4-3.7,1.6c-0.9,1.1-2.1,5.5-2.5,6.9c-0.5,1.1,2.3,1.4,2.8,0.4
	c1.8-3.5,3.2-4.4,5.5-5.5c3-1.4,11.7-0.9,13.8,0c1.6,0.7,0.2,28.3-0.5,30.6c-0.5,1.6-2.8,4.6,0,5.5c2.3,0.9,6.2,2.8,6.7,3.9
	c0.2,0.7,2.1,0.7,2.1,0c0-8.3-0.5-38.8,1.4-40c2.1-1.1,11.5-1.6,15.4,0c3.7,1.6,3.7,3,4.6,4.4c0.5,1.1,2.8,0.7,2.5-0.4
	C700.7,433.9,700.4,430,699.5,429.3L699.5,429.3z M527.6,435.1c-0.7-0.9-4.6-3.7-8.5-5.1c-1.4-0.5-5.1,0.5-7.6,0.5
	c-3,0-6.2-0.7-9-0.5v-0.2v-0.7h0.5l0.7-9c0.2-3.2,0.9-5.1-2.3-4.4c-0.5,0-4.2-0.5-5.3,0c-0.7,0.2,0.2,2.3,0.2,2.5
	c0,0.9,1.4,0,1.6,1.6c0.2,2.1,0,9.2,0.2,10.3H498v0.2c-2.3-0.2-14,0.2-13.3,0c-1.1-0.7-3-2.5-3.7-2.1c-2.5,1.8-6.9,4.4-9,5.1
	c1.4,1.4,2.3,2.1,2.1,5c-0.7,10.8,5.7,24.8,16.8,30.3c4.2,2.1,1.4,3,4.6,3.5c1.4,0.2,2.3,0.2,3.2,0c0.5,4.2,0.9,11.5-2.3,10.3
	c0.2,1.4,1.1,2.3,2.1,2.8c0.9-0.7,2.1-0.2,3-0.2c0.7,0,1.4-0.2,1.6-0.9c0.9-1.8-0.9-6.2-0.9-8.3v-4.4c1.8-0.2,2.8-0.7,3-2.1
	c6.7-3.7,12.9-4.8,17.5-9.6c2.1-2.3,1.8-17.5,2.3-19.8C525.4,437.4,528.1,436.2,527.6,435.1L527.6,435.1z M497.1,450.5
	c0.2,4.2-0.4,10.6-0.2,14.7c-8.5-4.4-17.9-21.1-15.2-30.1c0.2-0.5,1.4-1.4,2.8-1.4c0.9,0.2,2.1,1.4,3.2,1.1c1.8-0.5,2.3-3.2,4.4-3.2
	c1.1,0,3.9,0.5,5.5,0.5c0,0.9-0.2,1.8-0.2,2.5C497.5,440.2,497.1,445.7,497.1,450.5L497.1,450.5z M516.6,455.3
	c-0.4,2.1-9.4,9-14.7,9c0-3.7-0.2-7.1-0.2-10.8c0-3.5,0.9-6.9,0.7-10.3c-0.2-2.5-0.5-5.3,0-7.6c0.2-1.1,0.2-2.1,0-3
	c2.5,0,11.3,0,13.6,3.2c1.1,1.6,1.1,6,1.1,9.9C517.1,449.8,517.1,453.7,516.6,455.3L516.6,455.3z M583.5,418.8
	c-1.8-0.9-3.2-2.3-4.6-3.7c-0.2-0.2-0.5-0.5-0.9-0.5c-0.9,0-1.4,0.7-1.4,1.1c0,0.7,1.6,1.1,2.1,3.7v29.2c0,0.2,0.5,4.2-0.4,4.2
	c-0.5,0-1.1-0.5-1.6-0.7c-3.7-2.5-6.9-5.5-10.1-8.1c-7.1-5.7-14.3-11.5-21.4-17c-2.1,1.8-4.2,2.5-6.9,3.7c2.5,1.4,2.5,4.8,2.5,6.9
	c0.5,4.6,0.2,9.4,0.2,14c0,1.6,0,9.9-0.4,11.3c-0.5,1.1-1.4,2.3-1.4,3.5c0,2.1,2.8,3,3.7,5.3c0.2,0.2,0.4,0.9,1.1,0.9
	s0.9-0.7,0.9-0.9c0-11.5-0.5-23-0.5-34.7c0-0.2,0-1.1,0.7-1.1c1.6,0,30.6,23.2,33.3,26.2c0.9,0.9,0.9,3.2,0.9,4.2
	c0,1.8-0.5,3.7-0.5,5.5c0,0.2,0,0.9,0.7,0.9c0.4,0,1.1-0.7,1.1-0.9c0.7-1.1,1.4-2.3,2.5-3.2c0.5-0.4,0.7-0.7,0.7-1.4
	c0-1.6-1.4-3.2-1.4-4.8v-39.5c0-0.5,0-1.8,0.7-2.1c0.7-0.2,1.6-0.2,1.6-0.9C584.6,419.2,584,419,583.5,418.8L583.5,418.8z
	 M637.7,446.1c-1.8-0.9-3.7-2.1-4.8-3.7c-0.7-1.1-2.5-1.6-3.7-0.9c-1.4,0.9-2.5,1.4-4.4,1.4c-2.1,0-11.9,0.2-14.7,0
	c-2.1-1.4-4.6-6.4-5.1-7.6c-0.7-1.8,2.1-1.8,4.8-1.8c1.1,0,7.8,0.9,9.7,0.9c5.5,0,6.2-0.7,9.2-1.1c1.6-0.4,4.6,0.5,5.5,0.5
	c1.6,0.5,2.3-1.1,1.1-1.6c-4.1-0.9-7.4-3.9-10.1-5c-2.3-1.1-3.2-0.5-5.5,0.7s-11.7,2.5-14,3.5c-0.7,0.2-2.1,0.9-2.8,0.7
	c-1.6-0.5-2.1-1.4-3.2-0.5c-2.3,1.8-2.3,1.8-3.9,2.5c-1.8,0.7-0.5,1.1-0.2,1.8c1.6,2.8,6.2,9.6,7.6,11.9c0.9,1.6,2.8,0.9,3.2,0.2
	c0.9-1.1,2.5-1.8,4.8-2.1H622c1.8,0,3.7,1.6,3.2,4.2c-0.9,6.4-6.9,22.3-11,25c-2.8,1.8-6.2,1.6-8.1,0.2c-1.1-0.7-4.4-3-6.7-4.8
	c-2.8-2.3-5.7,0.2-4.2,1.6c3.2,2.3,6,5.1,8.8,7.1c1.4,0.9,0.9,2.1,1.4,2.8c0.2,0.5,2.5,0.7,4.2,0.7c14.7,0,24.8-24.1,28.3-32
	C637.9,448.9,640.5,447.7,637.7,446.1L637.7,446.1z"/>
<g>
	<path class="st0" d="M470.2,514.6H481v-3.5h-10.8v-4.6h18.6V503h-24.1v20.4h24.4v-3.9h-18.9V514.6z M538.4,513.7
		c0,0.7,0,1.8,0.2,3.5c-0.9-0.9-1.8-1.6-2.8-2.3L519,503h-3.7v20.4h5.1v-11c0-0.7,0-1.6-0.2-3.2c0.7,0.7,1.4,1.1,2.1,1.6l17.5,12.6
		h3.7V503h-5.1V513.7z M576.4,514.6h11v-3.5h-11v-4.6h18.9V503h-24.4v20.4h24.6v-3.9h-19.1V514.6z M641.8,515.8
		c3.7,0,5.3-1.1,5.3-3.9V507c0-2.8-1.6-3.9-5.3-3.9h-20.2v20.4h5.5v-7.8h5.3l9.7,7.8h7.8l-11-7.8L641.8,515.8L641.8,515.8z
		 M626.9,512.3v-5.7h12.4c1.6,0,2.5,0.2,2.5,1.6v2.5c0,1.4-0.7,1.6-2.5,1.6H626.9L626.9,512.3z M695.2,503.1h-16.3
		c-4.4,0-6,0.9-6,4.8v10.8c0,3.9,1.4,4.8,6,4.8h16.3c4.4,0,6-0.9,6-4.8v-7.1h-14.5v3.5h9v4.6h-17.2v-12.9h17.2v2.3l5.3-0.9v-0.5
		C700.9,504,699.3,503.1,695.2,503.1z M747.1,503.1l-8.1,7.8l-8.3-7.8h-7.4l12.4,11.3v9h5.5v-9.2l12.4-11h-6.5V503.1z M821.8,522.4
		c0-1.8-1.6-3.5-3.5-3.5c-2.1,0-3.5,1.6-3.5,3.5s1.6,3.5,3.5,3.5S821.8,524.5,821.8,522.4z M818.1,525.6c-1.8,0-3.2-1.4-3.2-3.2
		s1.4-3.2,3.2-3.2s3.2,1.4,3.2,3.2C821.3,524.2,819.9,525.6,818.1,525.6z"/>
	<path class="st0" d="M819.9,521.7c0-0.7-0.7-1.1-1.4-1.1h-1.6v3.7h0.9v-1.1h0.7l0.7,1.1h0.9l-0.9-1.4
		C819.5,522.9,819.9,522.4,819.9,521.7L819.9,521.7z M818.3,522.4h-0.9v-1.1h0.9c0.5,0,0.7,0.2,0.7,0.5
		C819,522.2,818.8,522.4,818.3,522.4z"/>
</g>
</svg>
