<?xml version="1.0" encoding="utf-8"?>
<!-- Generator: Adobe Illustrator 27.9.0, SVG Export Plug-In . SVG Version: 6.00 Build 0)  -->
<svg version="1.1" id="레이어_1" xmlns="http://www.w3.org/2000/svg" xmlns:xlink="http://www.w3.org/1999/xlink" x="0px"
	 y="0px" viewBox="0 0 1000 1000" style="enable-background:new 0 0 1000 1000;" xml:space="preserve">
<style type="text/css">
	.st0{fill:#FFFFFF;}
</style>
<path class="st0" d="M602.4,496H641v-12.2h-36.7c-1.1,0-1.8-0.9-1.8-1.8v-15.2h35.2v-12.2h-35.2V440c0-1,0.8-1.8,1.8-1.8H641V426
	h-38.6l0,0c-7.6,0.2-13.6,6.3-13.6,14v42C588.8,489.6,594.8,495.8,602.4,496"/>
<path class="st0" d="M701.7,504.3L701.7,504.3l-31.3-0.1v0.1c-7.6,0.2-13.6,6.3-13.6,14v55.9h13.6v-55.9c0-1,0.9-1.8,1.8-1.8h27.6
	c1,0,1.8,0.8,1.8,1.8v14.6h-22.1c-1.1,0-1.9,0.6-2.3,1.5l-4.6,10.6h29.1v29.2h13.7v-55.9C715.3,510.7,709.2,504.5,701.7,504.3"/>
<path class="st0" d="M701.7,482.1c0,1-0.8,1.8-1.8,1.8h-11.2v-57.8H675v57.8h-11.2c-1,0-1.8-0.8-1.8-1.8v-55.9h-13.6v55.9
	c0,7.6,6,13.8,13.6,14h39.8c7.6-0.2,13.6-6.3,13.6-14v-55.9h-13.7L701.7,482.1L701.7,482.1z"/>
<path class="st0" d="M648.2,531.2v-13c0-7.6-6-13.8-13.6-14v-0.1h-32.2v0.1c-7.6,0.2-13.6,6.4-13.6,14v55.9h13.7v-55.9
	c0-1,0.8-1.8,1.8-1.8h28.6c1,0,1.8,0.8,1.8,1.8V531c0,1.1-0.8,1.8-1.8,1.8h-21.6c-1.1,0-1.9,0.7-2.3,1.5l-4.6,10.6h17.3l14.3,29.2
	h15.8l-15.3-29.2C643,543.9,648.2,538.2,648.2,531.2"/>
<path class="st0" d="M567.8,468.8l-26.2-40.5c-1.1-1.3-2.6-2.3-4.5-2.3h-3.9c-2.9,0-5.2,2.4-5.2,5.2v64.7h13.6V453l26.2,40.7
	c1.1,1.3,2.7,2.3,4.5,2.3h3.9c2.9,0,5.2-2.4,5.2-5.2v-64.7h-13.6V468.8z"/>
<path class="st0" d="M482.4,363H212.6v274.5h269.8h2.8H759V362.8H482.4V363z M397.9,553.7c-13,7.3-23.8,6.9-27.3-2.4
	c-2.3-5.8-9-5-21.3-0.2c-9.1,3.5-66.8,26.3-73.8,28.8c-7.4,2.6-14.4-0.7-15.4-8.2c-1-7.3-18.8-139.6-18.8-139.6
	c-1.1-8,4.9-13.4,12.7-11.5l78.1,19.6c12.7,3.2,21.3,10.5,24.5,17.4c0,0,52.8,9.5,59.6,10.6c9.6,1.7,14,6,17.6,11.5
	c2.3,3.7,24.8,39.2,24.8,39.2S409.6,547.1,397.9,553.7 M491.2,369.6h260.9v261H491.2V369.6z"/>
<path class="st0" d="M541.6,504.3c-7.6,0.2-13.6,6.4-13.6,14v41.9c0,7.6,6,13.7,13.6,14h39.9V562h-38.1c-1,0-1.8-0.9-1.8-1.8V545
	h36.6v-12.1h-36.6v-14.6c0-1,0.8-1.8,1.8-1.8h38.1v-12.2L541.6,504.3L541.6,504.3z"/>
<path class="st0" d="M428.6,483.5c0,0-1.5-2.5-2-3.2c-1.4-2.4-4.2-4.6-8.7-5.1c-3.7-0.4-44.8-5.1-44.8-5.1l5.8,11.9L428.6,483.5z"/>
<path class="st0" d="M299.1,459.8c0,0,16.6,2,19,2.3c8.9,1.1,12.2,5.7,15,13.1c2.8,7.5,12,32.5,12,32.5l3.3-0.4
	c13.2-1.7,18.4-0.8,22.4,1.8l-18.2-42.3c-5.7-13.3-13-16-28.6-19.2c-3.5-0.7-12-2.4-17.5-3.5s-9.7,2.2-9.8,6.9
	c-0.2-1-2.7-9.4-2.7-9.4l-29.4-5.9l16.3,80.1l33.2-4.2L299.1,459.8z"/>
<path class="st0" d="M376.7,523.2c-3.5-8-11.8-9.4-24.7-7c-12.9,2.4-68.5,12.7-68.5,12.7l4.9,23.8l69.6-20.3
	c13.6-4,20.8-4.2,22.4-0.5c3.5,8.1,13.2,8.7,24.3,3.7c9-3.9,43.8-19.5,43.8-19.5l-5.4-8.8L378,526.4
	C378.1,526.3,377.6,525.2,376.7,523.2"/>
<polygon class="st0" points="391.8,508.9 438.9,500.3 434,492.2 385.5,495.8 "/>
<path class="st0" d="M781.8,622.7c0-2.7-1.5-3.8-4.8-3.8h-5.1v13.4h2v-5.9h2.3l3.5,5.9h2.2l-3.8-5.9
	C780.2,626.2,781.8,625.1,781.8,622.7 M774,624.8v-4.2h2.8c2.4,0,3,0.7,3,2c0,1.5-0.9,2.2-3.4,2.2H774z"/>
<path class="st0" d="M776.4,614c-6.4,0-11.8,4.9-11.8,11.6c0,6.7,5.4,11.6,11.8,11.6c6.3,0,11.7-4.9,11.7-11.6
	C788.2,618.9,782.7,614,776.4,614 M776.4,635.4c-5.4,0-9.6-4.1-9.6-9.8c0-5.6,4.2-9.7,9.6-9.7c5.3,0,9.5,4.1,9.5,9.7
	C785.9,631.2,781.8,635.4,776.4,635.4"/>
</svg>
