<?xml version="1.0" encoding="utf-8"?>
<!-- Generator: Adobe Illustrator 23.0.0, SVG Export Plug-In . SVG Version: 6.00 Build 0)  -->
<svg version="1.1" id="레이어_1" xmlns="http://www.w3.org/2000/svg" xmlns:xlink="http://www.w3.org/1999/xlink" x="0px"
	 y="0px" viewBox="0 0 1000 1000" style="enable-background:new 0 0 1000 1000;" xml:space="preserve">
<style type="text/css">
	.st0{fill:#FFFFFF;}
</style>
<path class="st0" d="M353,393.3H149.2c-1.3,0-2.5,0.5-3.4,1.4s-1.4,2.1-1.4,3.4v203.8c0,1.3,0.5,2.5,1.4,3.4s2.1,1.4,3.4,1.4H353
	c1.3,0,2.5-0.5,3.4-1.4s1.4-2.1,1.4-3.4V398.1c0-1.3-0.5-2.5-1.4-3.4C355.5,393.8,354.3,393.3,353,393.3z M286.6,530.8
	c0,1.3-0.5,2.5-1.4,3.4s-2.1,1.4-3.4,1.4h-61.6c-1.3,0-2.5-0.5-3.4-1.4s-1.4-2.1-1.4-3.4v-61.6c0-1.3,0.5-2.5,1.4-3.4
	s2.1-1.4,3.4-1.4h61.6c1.3,0,2.5,0.5,3.4,1.4s1.4,2.1,1.4,3.4V530.8z"/>
<path class="st0" d="M779.8,464.5h-61.6c-2.6,0-4.7,2.1-4.7,4.7v61.6c0,2.6,2.1,4.7,4.7,4.7h61.6c2.6,0,4.7-2.1,4.7-4.7v-61.6
	C784.5,466.6,782.4,464.5,779.8,464.5z"/>
<path class="st0" d="M708.7,393.3H647c-2.6,0-4.7,2.1-4.7,4.7v61.6c0,2.6,2.1,4.7,4.7,4.7h61.6c2.6,0,4.7-2.1,4.7-4.7V398
	C713.4,395.5,711.3,393.3,708.7,393.3z"/>
<path class="st0" d="M850.9,393.3h-61.6c-2.6,0-4.7,2.1-4.7,4.7v61.6c0,2.6,2.1,4.7,4.7,4.7h61.6c2.6,0,4.7-2.1,4.7-4.7V398
	C855.6,395.5,853.5,393.3,850.9,393.3z"/>
<path class="st0" d="M708.7,535.6H647c-2.6,0-4.7,2.1-4.7,4.7v61.6c0,2.6,2.1,4.7,4.7,4.7h61.6c2.6,0,4.7-2.1,4.7-4.7v-61.6
	C713.4,537.7,711.3,535.6,708.7,535.6z"/>
<path class="st0" d="M850.9,535.6h-61.6c-2.6,0-4.7,2.1-4.7,4.7v61.6c0,2.6,2.1,4.7,4.7,4.7h61.6c2.6,0,4.7-2.1,4.7-4.7v-61.6
	C855.6,537.7,853.5,535.6,850.9,535.6z"/>
<path class="st0" d="M601.9,393.3h-61.6c-2.6,0-4.7,2.1-4.7,4.7v61.6c0,2.6,2.1,4.7,4.7,4.7h61.6c2.6,0,4.7-2.1,4.7-4.7V398
	C606.6,395.5,604.5,393.3,601.9,393.3z"/>
<path class="st0" d="M601.9,535.6h-61.6c-2.6,0-4.7,2.1-4.7,4.7v61.6c0,2.6,2.1,4.7,4.7,4.7h61.6c2.6,0,4.7-2.1,4.7-4.7v-61.6
	C606.6,537.7,604.5,535.6,601.9,535.6z"/>
<path class="st0" d="M535.5,469.1c0-1.3-0.5-2.5-1.4-3.4s-2.1-1.4-3.4-1.4h-66.4V398c0-1.3-0.5-2.5-1.4-3.4s-2.1-1.4-3.4-1.4h-61.6
	c-1.3,0-2.5,0.5-3.4,1.4s-1.4,2.1-1.4,3.4v203.7c0,1.3,0.5,2.5,1.4,3.4s2.1,1.4,3.4,1.4h61.6c1.3,0,2.5-0.5,3.4-1.4s1.4-2.1,1.4-3.4
	v-66.3h66.4c1.3,0,2.5-0.5,3.4-1.4s1.4-2.1,1.4-3.4V469.1z"/>
</svg>
