<?xml version="1.0" encoding="utf-8"?>
<!-- Generator: Adobe Illustrator 27.9.0, SVG Export Plug-In . SVG Version: 6.00 Build 0)  -->
<svg version="1.1" id="레이어_1" xmlns="http://www.w3.org/2000/svg" xmlns:xlink="http://www.w3.org/1999/xlink" x="0px"
	 y="0px" viewBox="0 0 1000 1000" style="enable-background:new 0 0 1000 1000;" xml:space="preserve">
<style type="text/css">
	.st0{fill:#FFFFFF;}
</style>
<g>
	<path class="st0" d="M206.3,447.9c16.7,1.7,33.2,3.7,49.3,5.8l2.2-4.2c3.2-6.1,5.8-10,8-11.1c2.2-1.2,4.6-2,7.4-2
		c3.4,0,5.2,0.8,5.5,2.3s-1.1,5.1-3.8,10.8l-3.4,6.3c17.1,2.5,33.5,4.9,49.3,7.7c4.9-9.8,8-16.8,9.4-21.1c1.5-4.9,0.6-9.5-2.6-13.7
		s-8.6-7.2-16.3-9.4c-7.7-2-16.9-3.1-28-3.1c-11.7,0-22.3,1.2-32.1,3.4c-9.8,2.3-18.4,5.4-25.7,9.7c-7.2,4.2-12.6,8.8-16.1,13.8
		c-0.9,1.2-1.9,2.7-2.9,4.3h0.1L206.3,447.9z"/>
	<path class="st0" d="M219.1,541.4c11.5,0,22.3-1.1,32.1-3.4c9.8-2.3,18.4-5.4,25.7-9.5c7.2-4.3,12.6-8.8,16.1-13.8
		c3.5-4.9,8.5-13.5,14.6-25.7l10.5-20.6l0.2-0.2c-15.7-2.9-32.1-5.8-48.9-8.5l-23.1,45c-3.7,7.1-6.5,11.7-8.5,13.4
		c-2,2-4.8,2.9-8.6,2.9c-3.5,0-5.4-0.8-5.5-2.5c-0.2-1.7,1.5-5.8,5.1-12.9l24.8-48.4c-16.3-2.5-32.7-4.8-49.1-7.1c0,0,0,0-0.1,0
		c-2.8,4.8-6.1,10.9-9.8,18.3L184.1,489c-6.3,12.3-10.3,21.1-11.8,26c-1.5,4.9-0.8,9.5,2.5,13.7c3.1,4.3,8.6,7.4,16.3,9.4
		C198.9,540.3,208.1,541.4,219.1,541.4z"/>
	<path class="st0" d="M411,538.6l20.6-40c-23.4-10.8-60.9-20.3-104.4-28.9l-35.4,68.9h44.7l27.8-54.4l-0.3,54.4H411z"/>
	<path class="st0" d="M435.7,490.6l36.9-72H428l-27.7,54l-2.3-54h-44.6l-23.8,46.3c27.5,4.9,52.4,10.3,73.9,15.8
		c12,3.1,22.5,6.4,32.1,10L435.7,490.6C435.6,490.6,435.6,490.6,435.7,490.6z"/>
	<path class="st0" d="M435.7,490.6L435.7,490.6h-0.1l-4,7.9c5.8,2.6,10.8,5.4,14.8,8.1c23.8,16.6,20,25.2,2,33.7
		c-30.4,14.3-128.8,21.4-128.8,21.4c8.1-9.4,15.1-19.4,15.1-19.4c-54.9,22.6-120.5,32.6-144.5,36c114.4,6.1,250.3-3.7,292.5-32.3
		C503.5,531.9,486.5,509.2,435.7,490.6z"/>
	<path class="st0" d="M435.7,490.6C435.6,490.6,435.6,490.6,435.7,490.6h-0.1C435.6,490.6,435.6,490.6,435.7,490.6L435.7,490.6z"/>
	<path class="st0" d="M204.4,450.3c0.1,0,0.3,0,0.4,0.1l1.5-2.5c0,0,0,0-0.1,0c0.1-0.1,0.1-0.2,0.2-0.3l-52.7-5.5l-54.9-4.3
		C131.1,441.2,167.5,445.4,204.4,450.3L204.4,450.3L204.4,450.3z"/>
	<path class="st0" d="M206.3,447.9l0.2-0.3h-0.1C206.4,447.6,206.3,447.7,206.3,447.9L206.3,447.9z"/>
	<path class="st0" d="M204.4,450.3L204.4,450.3L204.4,450.3L204.4,450.3z"/>
	<path class="st0" d="M549.2,421.8c-1.5-0.9-3.8-1.7-6-1.7h-13.8c-2.3,0-4.5,0.8-6,1.7c-2,1.1-5.5,5.1-6.6,6.5
		c-1.2,1.7-1.5,3.7-1.5,5.7v27.2c0,1.8,0.3,3.8,1.5,5.5c1.1,1.5,4.6,5.4,6.6,6.6c1.5,0.9,3.7,1.7,6,1.7h13.7c2.2,0,4.5-0.8,6-1.7
		c2-1.2,5.4-5.1,6.6-6.6c1.2-1.8,1.5-3.7,1.7-5.7v-27c0-2-0.3-4-1.5-5.7C554.6,426.9,551.2,423.1,549.2,421.8z M546.3,461
		c-1.1,1.4-2.6,2.8-3.4,3.4h-13.2c-0.8-0.5-2.3-2-3.2-3.4v-27c1.1-1.5,2.6-2.8,3.4-3.4h13.2c0.9,0.6,2.6,2.3,3.2,3.4V461z"/>
	<path class="st0" d="M598.2,422.4c-1.7-1.2-4.5-2-6.8-2h-26.3v54.1H576v-20.6h15.4c2.3,0,4.8-0.6,6.8-2c1.4-0.9,4.2-3.7,4.9-4.9
		c1.2-1.8,1.7-3.7,1.7-5.8v-7.7c0-2-0.5-4.3-1.7-6C602.2,426.3,599.6,423.5,598.2,422.4z M593.9,441.2c-0.5,0.9-2,2.2-2.3,2.2h-15.4
		V431h15.4c0.9,0.5,1.8,1.4,2.3,2.2V441.2z"/>
	<polygon class="st0" points="622.7,474.5 633.7,474.5 633.7,431 648.2,431 648.2,420.4 608.1,420.4 608.1,431 622.7,431 	"/>
	<rect x="654.4" y="420.5" class="st0" width="11.1" height="54"/>
	<path class="st0" d="M711,474.5h11v-54h-11.8c-3.8,8-7.8,16.3-11.8,24.4l-12-24.4h-12v54h10.9v-32.3l9.2,19.5h7.2
		c3.1-6.6,6.3-13.1,9.4-19.7v32.5H711z"/>
	<path class="st0" d="M771.5,461.1v-40.6h-11.1V461c-0.9,1.5-2.5,2.9-3.2,3.4h-12.3c-0.8-0.5-2.3-2-3.4-3.4v-40.4h-10.9v40.6
		c0,1.8,0.3,3.8,1.5,5.5c1.1,1.5,4.6,5.4,6.5,6.6c1.5,0.9,3.7,1.7,6,1.7h12.9c2.2,0,4.3-0.8,6-1.7c2-1.2,5.4-5.1,6.5-6.6
		C771.2,465,771.5,463,771.5,461.1z"/>
	<path class="st0" d="M790.5,442.2l9.2,19.5h7.2c3.1-6.6,6.3-13.1,9.4-19.7v32.4h10.9v-54h-11.8c-3.8,8-7.8,16.3-11.8,24.4l-12-24.4
		h-12v54h10.9L790.5,442.2L790.5,442.2z"/>
	<polygon class="st0" points="544,515.5 526.8,483.2 515.5,483.2 515.5,537.2 526.5,537.2 526.5,505.3 544,537.2 554.9,537.2 
		554.9,483.2 544,483.2 	"/>
	<path class="st0" d="M593.3,523.6c-0.9,1.5-2.5,2.9-3.2,3.4h-12.3c-0.8-0.5-2.3-2-3.4-3.4v-40.4h-10.9v40.6c0,1.8,0.3,3.8,1.5,5.5
		c1.1,1.5,4.6,5.4,6.5,6.6c1.5,0.9,3.7,1.7,6,1.7h12.9c2.2,0,4.3-0.8,6-1.7c2-1.2,5.4-5.1,6.5-6.6c1.2-1.7,1.5-3.7,1.5-5.5v-40.6
		h-11.1V523.6z"/>
	<polygon class="st0" points="609.8,493.7 624.4,493.7 624.4,537.2 635.4,537.2 635.4,493.7 649.9,493.7 649.9,483.1 609.8,483.1 	
		"/>
	<path class="st0" d="M688.6,514.6c1.4-0.9,4.2-3.7,4.9-4.9c1.2-1.8,1.7-3.7,1.7-5.8v-7.7c0-2-0.5-4.3-1.7-6c-0.9-1.2-3.5-4-4.9-5.1
		c-1.7-1.2-4.5-2-6.8-2h-26.3v54.1h10.9v-20.6h8.6l10.8,20.6h12.3c0,0-7.2-13.2-11.7-21.4C687.2,515.5,687.8,515.2,688.6,514.6z
		 M684.3,503.8c-0.5,0.9-2,2.2-2.3,2.2h-15.4v-12.3H682c0.9,0.5,1.8,1.4,2.3,2.2V503.8z"/>
	<rect x="704.2" y="483.2" class="st0" width="11.1" height="54"/>
	<polygon class="st0" points="721.5,493.7 736.1,493.7 736.1,537.2 747.1,537.2 747.1,493.7 761.6,493.7 761.6,483.1 721.5,483.1 	
		"/>
	<rect x="767.7" y="483.2" class="st0" width="11.1" height="54"/>
	<path class="st0" d="M821.2,484.5c-1.5-0.9-3.8-1.7-6-1.7h-13.8c-2.3,0-4.5,0.8-6,1.7c-2,1.1-5.5,5.1-6.6,6.5
		c-1.2,1.7-1.5,3.7-1.5,5.7v27.2c0,1.8,0.3,3.8,1.5,5.5c1.1,1.5,4.6,5.4,6.6,6.6c1.5,0.9,3.7,1.7,6,1.7H815c2.2,0,4.5-0.8,6-1.7
		c2-1.2,5.4-5.1,6.6-6.6c1.2-1.8,1.5-3.7,1.7-5.7v-27.1c0-2-0.3-4-1.5-5.7C826.5,489.6,823.2,485.7,821.2,484.5z M818.2,523.7
		c-1.1,1.4-2.6,2.8-3.4,3.4h-13.2c-0.8-0.5-2.3-2-3.2-3.4v-27.1c1.1-1.5,2.6-2.8,3.4-3.4H815c0.9,0.6,2.6,2.3,3.2,3.4V523.7z"/>
	<polygon class="st0" points="865.7,515.5 848.5,483.2 837.2,483.2 837.2,537.2 848.1,537.2 848.1,505.3 865.7,537.2 876.6,537.2 
		876.6,483.2 865.7,483.2 	"/>
	<path class="st0" d="M899.5,521.7c-0.8-0.8-1.8-1.2-3.1-1.7c-1.1-0.5-2.2-0.6-3.4-0.6c-1.1,0-2.3,0.2-3.4,0.6
		c-1.1,0.5-2.2,1.1-2.9,1.8c-0.8,0.8-1.5,1.7-2,2.8s-0.8,2.3-0.6,3.5c0,1.4,0.3,2.6,0.8,3.7c0.5,1.1,1.2,2,2,2.8s1.8,1.4,2.9,1.8
		c1.1,0.5,2.2,0.6,3.4,0.6s2.3-0.2,3.4-0.6c1.1-0.3,2.2-0.9,2.9-1.7c0.9-0.8,1.5-1.8,2-2.9c0.5-1.1,0.8-2.3,0.8-3.7
		s-0.3-2.6-0.8-3.7C901,523.4,900.3,522.5,899.5,521.7z M899.3,531c-0.3,0.9-0.8,1.7-1.4,2.3c-0.6,0.8-1.4,1.2-2.2,1.5
		c-0.9,0.3-1.7,0.5-2.6,0.5c-0.9,0-1.8-0.2-2.6-0.3c-0.8-0.5-1.5-0.9-2.2-1.5c-0.6-0.8-1.1-1.4-1.4-2.3c-0.5-0.9-0.6-1.8-0.5-3.1
		c0-0.9,0.2-1.8,0.5-2.8c0.3-0.8,0.8-1.5,1.4-2.2c0.6-0.6,1.4-1.1,2.2-1.4c0.8-0.3,1.7-0.5,2.6-0.5c0.9,0,1.7,0.2,2.6,0.6
		c0.8,0.3,1.5,0.8,2.2,1.4c0.5,0.6,1.1,1.4,1.4,2.2c0.3,0.8,0.5,1.7,0.5,2.8C899.8,529.1,899.7,530,899.3,531z"/>
	<path class="st0" d="M896.6,528.2c0.2-0.2,0.3-0.5,0.6-0.8c0-0.3,0.2-0.8,0.2-1.2c0-1.1-0.5-1.8-1.1-2.3c-0.8-0.5-1.7-0.6-2.9-0.6
		h-3.7v10h2V529h1.2l2.3,4.2h2.2l-2.6-4.3c0.3,0,0.6,0,0.9-0.2C896,528.5,896.3,528.4,896.6,528.2z M894.7,527.1
		c-0.3,0.2-0.8,0.3-1.4,0.3h-1.8v-2.6h1.7c0.3,0,0.5,0,0.8,0c0.3,0.2,0.5,0.2,0.6,0.2c0.3,0.2,0.5,0.3,0.6,0.5
		c0.2,0.2,0.2,0.3,0.2,0.6C895.3,526.5,895,527,894.7,527.1z"/>
</g>
</svg>
