<?xml version="1.0" encoding="utf-8"?>
<!-- Generator: Adobe Illustrator 23.0.0, SVG Export Plug-In . SVG Version: 6.00 Build 0)  -->
<svg version="1.1" id="레이어_1" xmlns="http://www.w3.org/2000/svg" xmlns:xlink="http://www.w3.org/1999/xlink" x="0px"
	 y="0px" viewBox="0 0 1000 1000" style="enable-background:new 0 0 1000 1000;" xml:space="preserve">
<rect x="219.9" y="496.2" width="48" height="86.7"/>
<rect x="832.4" y="496.2" width="48" height="86.7"/>
<path d="M860,417.1c-0.3,0-0.7,0-1,0h0H109.3v165.5h83V478.6l666.7,0c17,0.3,31-13.3,31.3-30.3C890.5,431.4,877,417.3,860,417.1z
	 M767.3,457.6c-0.1,0-0.3,0-0.4,0H192.3V438l574.6,0.1c5.4-0.1,9.9,4.2,10,9.6C777,453,772.7,457.5,767.3,457.6z"/>
<path d="M434.2,526c0-15.6-12.3-29.8-33.2-29.8h-98.7v86.7h48v-28H366l14.5,28h53.8l-16-31.1C428,547.4,434.2,537.5,434.2,526z
	 M377.7,533.9h-27.4v-18.4l27.4,0.1c5,0,9.1,4.1,9.1,9.1C386.8,529.8,382.7,533.9,377.7,533.9z"/>
<polygon points="464.3,582.9 570.1,582.9 570.1,563.5 512.3,563.5 512.3,550.8 570.1,550.8 570.1,529.9 512.3,529.9 512.3,517.1 
	570.1,517.1 570.1,496.2 464.3,496.2 "/>
<polygon points="763.8,496.2 715.9,496.2 715.9,582.9 812.4,582.9 812.4,563.5 763.8,563.5 "/>
<polygon points="650.8,496.2 602.8,496.2 602.8,582.9 699.4,582.9 699.4,563.5 650.8,563.5 "/>
</svg>
