<?xml version="1.0" encoding="utf-8"?>
<!-- Generator: Adobe Illustrator 23.0.0, SVG Export Plug-In . SVG Version: 6.00 Build 0)  -->
<svg version="1.1" id="레이어_1" xmlns="http://www.w3.org/2000/svg" xmlns:xlink="http://www.w3.org/1999/xlink" x="0px"
	 y="0px" viewBox="0 0 1000 1000" style="enable-background:new 0 0 1000 1000;" xml:space="preserve">
<path d="M693.4,497.9c-11-6.2-28.6-9.3-52.8-9.3h-31.8c-13.3,0-22.7-1.3-28-4c-5.3-2.7-7.9-7.1-7.9-13.2c0-13,12.4-19.6,37.1-19.6
	h31.8c13.1,0,22.8,2.3,29.2,6.8c2.9,2.1,5.1,4.5,6.7,7.2c1.8,3.2,1.6,7.2-0.8,10c-0.4,0.5-0.8,0.9-1.4,1.1v0.7h32.4
	c0-16.7-5.9-29.1-17.6-37.1c-11.7-8-29.7-12-53.9-12h-21.2c-10.6,0-20,0.7-28.2,2.1c-8.2,1.4-15.4,3.8-21.8,7.1
	c-6.3,3.3-11.2,7.7-14.6,13.4c-3.4,5.7-5.1,12.6-5.1,20.7c0,14.4,5.2,24.6,15.5,30.7c10.3,6.1,28,9.2,53,9.2h34.4
	c11.9,0,20.4,1.4,25.6,4.1c5.2,2.7,7.8,7.1,7.8,13.1c0,6.4-2.7,11.2-8.1,14.4c-5.4,3.2-14.4,4.8-26.8,4.8h-35.7
	c-19.8,0-32.2-4.7-37.4-14c-1.7-3-1.5-6.6,0.5-9.4c1.1-1.4,1.8-1.8,1.8-1.8v-0.7h-32.4c0,16.7,5.8,29.1,17.6,37.1
	c11.7,8,29.7,12,53.9,12h25.1c46.4,0,69.7-14.4,69.7-43.1C709.9,514.3,704.4,504.1,693.4,497.9z M894.2,497.9
	c-11-6.2-28.6-9.3-52.8-9.3h-31.8c-13.3,0-22.7-1.3-28-4c-5.3-2.7-7.9-7.1-7.9-13.2c0-13,12.4-19.6,37.1-19.6h31.8
	c13.1,0,22.8,2.3,29.2,6.8c2.9,2.1,5.1,4.5,6.7,7.2c1.8,3.2,1.6,7.2-0.8,10c-0.8,0.9-1.4,1.2-1.4,1.2v0.7h32.4
	c0-16.7-5.9-29.1-17.6-37.1c-11.7-8-29.7-12-53.9-12h-21.2c-10.6,0-20,0.7-28.2,2.1c-8.2,1.4-15.4,3.8-21.8,7.1
	c-6.4,3.2-11.2,7.7-14.6,13.4c-3.4,5.7-5.1,12.6-5.1,20.7c0,14.4,5.2,24.6,15.5,30.7c10.3,6.1,28,9.2,53,9.2h34.4
	c11.9,0,20.4,1.4,25.6,4.1c5.2,2.7,7.7,7.1,7.7,13.1c0,6.4-2.7,11.2-8.1,14.4c-5.4,3.2-14.4,4.8-26.8,4.8H812
	c-19.8,0-32.2-4.7-37.4-14c-1.6-3-1.5-6.7,0.5-9.4c1-1.4,1.8-1.7,1.8-1.7v-0.7h-32.4c0,16.7,5.8,29.1,17.6,37.1
	c11.7,8,29.7,12,53.9,12H841c46.4,0,69.7-14.4,69.7-43.1C910.7,514.3,905.2,504.1,894.2,497.9z M292.3,431.4h139.9v31.9h-0.7
	c0,0-3-7-28.6-7h-75.3v32.9h85v21.5h-85v32.9h75.3c25.6,0,28.6-7,28.6-7h0.7v31.9H292.3v-0.7c0,0,7-3,7-28.6v-78.6
	c0-25.5-7-28.6-7-28.6V431.4z M473.8,431.4h-7v0.7c0,0,7,3,7,28.6v78.6c0,25.5-7,28.6-7,28.6v0.7h42.3v-0.7c0,0-7-3-7-28.6v-78.6
	c0-25.5,7-28.6,7-28.6v-0.7H473.8z M225.4,520c-1.3,0.6-2.6,1-3.9,1.3c0.6,0,2.8,3.5,6.1,8.6c8.1,12.6,22.7,35.3,35.2,41.6h-28.1
	c-8.2,0-15.8-4-20.4-10.8L197,535.9c-0.8-1.2-1.6-2.4-2.4-3.6l-0.6-1c-1.7-2.6-3.4-3.7-10-2.2l-0.1,0l-38.9,8.8l9.5-12.3
	c7.2-9.3,17.3-15.9,28.7-18.8c7.3-1.9,14.9-3.8,18.4-4.7c1.4-0.4,2.8-0.9,4-1.5c7.6-4.1,12.8-11.8,12.8-21c0-13-9.6-23.5-23.3-23.9
	l-70.2,0c1,1.9,1.6,4.1,1.6,6.3v80.9c0.1,25.6,7.2,24.9,7.2,24.9v0.7l-7.2,0l-36.3,0v-0.7c0,0,7.2,0.6,7.2-25.7v-80.4
	c0-26.3-7.3-29.4-7.3-29.4v-0.7l112.8,0c25.9,0.3,46.7,20.9,46.7,46.8C249.6,496.1,242.9,511.6,225.4,520z"/>
</svg>
