<?xml version="1.0" encoding="utf-8"?>
<!-- Generator: Adobe Illustrator 27.9.0, SVG Export Plug-In . SVG Version: 6.00 Build 0)  -->
<svg version="1.1" id="레이어_1" xmlns="http://www.w3.org/2000/svg" xmlns:xlink="http://www.w3.org/1999/xlink" x="0px"
	 y="0px" viewBox="0 0 1000 1000" style="enable-background:new 0 0 1000 1000;" xml:space="preserve">
<style type="text/css">
	.st0{fill:#FFFFFF;}
</style>
<path class="st0" d="M107.9,491c0,3.2-0.8,4.6-3.7,4.6h-23V475h23c2.8,0,3.7,1.4,3.7,4.4V491z M130.2,534.2c-2.9-2.9-4-5.5-5.3-8.8
	l-8.3-20.9c7.1-1,10.5-4.6,10.5-11.2v-14.4c0-7.4-4.2-12.6-13.1-12.6H60c0.6,2.3,1.3,4.4,1.3,8.7v50.5c0,4.2-0.6,6.4-1.3,8.8h22.4
	c-0.6-2.4-1.3-4.5-1.3-8.8v-21.2H96l11.7,30L130.2,534.2L130.2,534.2z M140.8,534.2c0.6-2.4,1.3-4.5,1.3-8.7V475
	c0-4.2-0.6-6.4-1.3-8.7h22.4c-0.6,2.3-1.3,4.5-1.3,8.7v50.5c0,4.2,0.6,6.4,1.3,8.7H140.8z M229.8,534.2h-39.6
	c-9.1,0-13.3-5.1-13.3-13.3v-41.3c0-8.3,4.2-13.3,13.3-13.3h39.6l1.7,10.2c-2.7-1.1-5.4-1.6-9.7-1.6h-21.5c-2.2,0-3.6,0.9-3.6,3.6
	V522c0,2.8,1.4,3.6,3.6,3.6h21.5c4.2,0,7-0.5,9.7-1.6L229.8,534.2z M290.3,534.2c0.6-2.4,1.3-4.5,1.3-8.8v-21.2h-26.9v21.2
	c0,4.2,0.6,6.4,1.3,8.8h-22.4c0.6-2.4,1.3-4.5,1.3-8.8V475c0-4.2-0.6-6.4-1.3-8.7H266c-0.6,2.3-1.3,4.5-1.3,8.7v20.6h26.9V475
	c0-4.2-0.6-6.4-1.3-8.7h22.4c-0.6,2.3-1.3,4.5-1.3,8.7v50.5c0,4.2,0.6,6.4,1.3,8.8L290.3,534.2L290.3,534.2z M368.8,506.2h-22.9
	l11.3-25.7L368.8,506.2z M404,534.2c-1.9-1.7-3.8-5.6-5.3-8.7l-26.9-59.2h-22.2l2.9,4.5l-24.6,54.7c-1.1,2.4-3.2,5.8-5.2,8.7h13
	c0-3.3,0.7-6.7,1.6-8.7l4.6-10.6h30.9l4.7,10.6c1.2,2.6,1.8,5.3,1.8,7c0,0.7,0,1.1-0.2,1.7H404z M461.7,491c0,3.2-0.8,4.6-3.7,4.6
	h-23V475h23c2.8,0,3.7,1.4,3.7,4.4V491z M484.1,534.2c-2.9-2.9-4-5.5-5.3-8.8l-8.3-20.9c7.1-1,10.5-4.6,10.5-11.2v-14.4
	c0-7.4-4.2-12.6-13.1-12.6h-54c0.6,2.3,1.3,4.4,1.3,8.7v50.5c0,4.2-0.6,6.4-1.3,8.8h22.4c-0.6-2.4-1.3-4.5-1.3-8.8v-21.2h14.8
	l11.7,30L484.1,534.2L484.1,534.2z M543.3,522c0,2.8-1.4,3.6-3.6,3.6h-23.8V475l23.8-0.1c2.2,0,3.6,0.9,3.6,3.6V522z M563.1,520.9
	v-41.3c0-8.2-4.2-13.2-13.3-13.2h-55.1c0.6,2.3,1.3,4.4,1.3,8.6v50.7c0,4.2-0.6,6.3-1.3,8.7h55.1
	C558.9,534.2,563.1,529.2,563.1,520.9L563.1,520.9z M671.9,533.7c0.6-2.4,1.3-4.5,1.3-8.7v-49.4H673l-23.2,58.2H636l-22.8-58.2H613
	V525c0,4.2,0.6,6.4,1.3,8.7h-11.7c0.6-2.4,1.3-4.5,1.3-8.7v-50.5c0-4.2-0.6-6.4-1.3-8.7h26.8l19.4,49.3l19.7-49.3h25.3
	c-0.6,2.3-1.3,4.5-1.3,8.7V525c0,4.2,0.6,6.4,1.3,8.7H671.9L671.9,533.7z M709.7,533.7c0.6-2.4,1.3-4.5,1.3-8.7v-50.5
	c0-4.2-0.6-6.4-1.3-8.7h22.4c-0.6,2.3-1.3,4.5-1.3,8.7V525c0,4.2,0.6,6.4,1.3,8.7H709.7z M803.8,533.7h-55.6
	c0.6-2.3,1.3-4.4,1.3-8.7v-50.6c0-4.2-0.6-6.4-1.3-8.7h22.4c-0.6,2.3-1.3,4.5-1.3,8.7V525h26.2c4.6,0,7.4-0.6,10-1.6L803.8,533.7z
	 M871.1,533.7h-55.6c0.6-2.3,1.3-4.4,1.3-8.7v-50.6c0-4.2-0.6-6.4-1.3-8.7h22.4c-0.6,2.3-1.3,4.5-1.3,8.7V525h26.2
	c4.6,0,7.4-0.6,10-1.6L871.1,533.7z M938.3,533.7h-55.6c0.6-2.3,1.3-4.4,1.3-8.7v-50.6c0-4.2-0.6-6.3-1.3-8.7h55.6L940,476
	c-2.5-1-5.4-1.6-10-1.6h-26.2V495h23.4c3.7,0,7.1-0.6,9.4-1.6v11.8c-2.3-1-5.7-1.6-9.4-1.6h-23.4V525H930c4.6,0,7.4-0.6,10-1.6
	L938.3,533.7z"/>
</svg>
