<?xml version="1.0" encoding="utf-8"?>
<!-- Generator: Adobe Illustrator 23.0.0, SVG Export Plug-In . SVG Version: 6.00 Build 0)  -->
<svg version="1.1" id="레이어_1" xmlns="http://www.w3.org/2000/svg" xmlns:xlink="http://www.w3.org/1999/xlink" x="0px"
	 y="0px" viewBox="0 0 1000 1000" style="enable-background:new 0 0 1000 1000;" xml:space="preserve">
<style type="text/css">
	.st0{fill:#FFFFFF;}
</style>
<path class="st0" d="M560.9,475.2c-3.6,0-6.2,1-7.8,3.6s-2.6,6.2-2.6,10.9s1,8.3,2.6,10.9s4.2,3.6,7.8,3.6s6.2-1,7.8-3.6
	s2.6-6.2,2.6-10.9s-1-8.3-2.6-10.9C567.1,476.3,564.5,475.2,560.9,475.2z"/>
<path class="st0" d="M450,474.7c-3.6,0-6.2,1.6-7.8,4.2c-1,2.1-1.6,4.2-2.1,6.8h19.3c0-2.6-0.5-5.2-1.6-6.8
	C456.3,476.3,453.7,474.7,450,474.7z"/>
<path class="st0" d="M380.3,492.9c-2.1,1-2.6,2.6-2.6,5.2c0,1.6,0.5,2.6,1,3.6c0.5,0.5,0.5,0.5,1.6,1.6c0,0,2.6,2.1,7.8,1.6
	c3.6-0.5,7.3-1,7.3-1v-12.5c0,0-3.1-0.5-7.3-0.5C382.9,490.8,380.3,492.9,380.3,492.9z"/>
<path class="st0" d="M635.3,379c-15.1,0-29.1,3.1-41.6,8.8c-14.6-26-42.2-43.7-73.4-43.7c-23.9,0-44.8,9.9-60.4,26
	c-16.7-22.4-43.2-36.4-73.4-36.4c-51,0-92.6,41.1-92.6,92.1c0,13,3.1,25,7.8,36.4c-23.4,14.1-39.6,40.1-39.6,69.7
	c0,44.2,35.9,80.1,79.6,80.1c5.2,0,10.9-0.5,16.1-1.6c12,32.8,44.8,55.7,80.1,55.7c35.4,0,65.6-21.3,78.6-52
	c9.9,5.2,20.8,7.8,32.8,7.8c28.1,0,52.6-15.6,65.6-38.5c6.8,1.6,13.5,2.1,20.3,2.1c56.7,0,102.5-45.8,102.5-103S692,379,635.3,379z
	 M347.5,512.2c-4.7,0-9.4-0.5-14.1-3.1c-0.5-0.5-1.6-1-2.6-1.6c0,0-0.5,0,0-1l2.1-5.7c0.5-1,1-0.5,1.6-0.5c0.5,0.5,1,0.5,1.6,1
	c5.7,3.6,10.9,3.6,12.5,3.6c4.2,0,6.8-2.1,6.8-5.2s-4.2-4.2-8.8-5.7l-1-0.5c-6.8-1.6-13.5-4.2-13.5-12.5c0-7.8,6.2-13,15.1-13h1
	c5.2,0,10.4,1.6,14.1,3.6c0.5,0,0.5,0.5,0.5,1s-2.1,4.7-2.1,5.2c-0.5,1-1.6,0.5-1.6,0.5c-3.1-1.6-8.3-3.1-12.5-3.1
	c-3.6,0-6.2,2.1-6.2,4.7c0,3.1,4.2,4.7,8.8,6.2h1c6.2,2.1,13,4.7,13,12.5C363.1,507,357.4,512.2,347.5,512.2z M404.2,508.5
	c0,0,0,1-0.5,1c0,0-1,0.5-2.1,0.5c-0.5,0.5-4.2,1-6.8,1.6c-2.6,0.5-5.7,0.5-8.3,0.5s-5.2,0-7.3-0.5c-2.1-0.5-4.2-1.6-5.7-2.6
	c-1.6-1-3.1-2.6-3.6-4.2s-1-3.6-1-6.2c0-2.1,0.5-4.2,1.6-6.2c1-2.1,2.6-3.6,4.2-4.7c1.6-1,3.6-2.1,5.7-2.6s4.2-1,6.8-1
	c1.6,0,3.1,0,4.2,0c0,0,2.1,0.5,4.7,0.5v-1c0-3.6-0.5-5.7-2.1-6.8c-1.6-1-3.6-1.6-6.8-1.6c0,0-6.8,0-12,2.6c-0.5,0-0.5,0-0.5,0
	s-1,0-1-0.5l-2.1-5.2c-0.5-0.5,0-1,0-1c2.1-2.1,8.3-3.1,8.3-3.1c2.1-0.5,5.2-0.5,7.3-0.5c5.2,0,9.4,1.6,12.5,3.6
	c3.1,2.1,4.7,6.2,4.7,12v25.4H404.2z M422.5,510.6c0,0.5-0.5,1-0.5,1h-7.3c-0.5,0-0.5-0.5-0.5-1v-58.8c0-0.5,0.5-1,0.5-1h7.3
	c0.5,0,0.5,0.5,0.5,1V510.6z M468.3,491.9c-0.5,0.5-1,0.5-1,0.5h-27.6c0,4.2,1,7.3,3.1,9.4s5.2,3.1,9.4,3.1c6.8,0,9.4-1.6,11.4-2.1
	c0,0,1,0,1,0.5l1.6,5.2c0.5,1,0.5,1.6,0,1.6c-2.1,1-6.2,2.6-14.1,2.6c-3.6,0-7.3-0.5-9.9-1.6c-2.6-1-5.2-2.6-6.8-4.7
	c-2.1-2.1-3.1-4.7-4.2-7.3c-0.5-2.6-1-5.7-1-8.8c0-3.1,0-6.2,1-8.8c0.5-2.6,2.1-5.2,3.6-7.3s3.6-3.6,6.2-4.7c2.6-1,5.7-1.6,9.4-1.6
	c2.6,0,5.7,0.5,7.8,1.6c1.6,1,3.6,2.1,5.2,4.2c1,1,3.1,3.6,3.6,6.2C468.8,486.2,468.3,491.4,468.3,491.9z M476.6,509.1
	c-1-0.5-1.6-1-2.6-1.6c0,0-0.5,0,0-1l2.1-5.7c0.5-1,1.6-0.5,1.6-0.5c0.5,0.5,1,0.5,1.6,1c5.7,3.6,10.9,3.6,12.5,3.6
	c4.2,0,6.8-2.1,6.8-5.2s-4.2-4.2-8.8-5.7l-1-0.5c-6.8-1.6-13.5-4.2-13.5-12.5c0-7.8,6.2-13,15.1-13h1c5.2,0,10.4,1.6,14.1,3.6
	c0.5,0,0.5,0.5,0.5,1c-0.5,0.5-2.1,4.7-2.1,5.2c-0.5,1-1.6,0.5-1.6,0.5c-3.1-1.6-8.3-3.1-12.5-3.1c-3.6,0-6.2,2.1-6.2,4.7
	c0,3.1,4.2,4.7,8.8,6.2h1c6.2,2.1,13,4.7,13,12.5c0,8.3-5.7,13.5-15.6,13.5C485.9,512.2,481.3,511.7,476.6,509.1z M539,476.3h-9.4
	l-6.2,35.4c-1,3.6-1.6,6.8-2.6,9.4s-2.1,4.7-3.6,6.2c-1.6,1.6-3.1,3.1-5.2,3.6c-2.1,0.5-4.2,1-6.8,1c-1.6,0-2.6,0-4.2-0.5
	c-1,0-1.6,0-2.6-0.5c-0.5,0-0.5-0.5-0.5-1s2.1-5.2,2.1-5.7c0.5-0.5,1-0.5,1-0.5c0.5,0.5,1,0.5,1.6,0.5c0.5,0,1.6,0,2.1,0
	c1,0,2.1,0,3.1-0.5s2.1-1,2.6-2.1c1-1,1.6-2.6,2.1-4.2c0.5-1.6,1-4.2,1.6-6.8l6.8-34.9h-6.2c-1,0-1-0.5-1-1l1-5.7c0-0.5,1-0.5,1-0.5
	h6.2l0.5-2.1c1-5.7,3.1-9.9,5.7-12.5c2.6-2.6,6.2-4.2,11.4-4.2c1,0,2.6,0.5,3.6,0.5s1.6,0.5,2.6,0.5c0,0,0.5,0.5,1,1l-2.1,5.7
	c0,0.5,0,0.5-1,0.5c-0.5-0.5-0.5-0.5-1.6-0.5c-0.5,0-1,0-2.1,0s-2.1,0.5-3.1,0.5c-0.5,0.5-1.6,1-2.1,1.6c-1,1-1.6,2.1-2.1,3.1
	c-1,3.1-1.6,6.2-1.6,6.2h8.8c1,0,1,0.5,1,1l-1,5.7C540.1,476.3,539,476.3,539,476.3z M579.6,499.2c-0.5,3.1-2.1,5.2-3.6,7.3
	c-1.6,2.1-3.6,3.6-6.2,4.7c-2.6,1-5.2,1.6-8.8,1.6s-6.2-0.5-8.8-1.6c-2.6-1-4.7-2.6-6.2-4.7c-1.6-2.1-2.6-4.7-3.6-7.3
	c-0.5-2.6-1-5.7-1-8.8c0-3.1,0-6.2,1-8.8c0.5-3.1,2.1-5.2,3.6-7.3s3.6-3.6,6.2-4.7c2.6-1,5.2-1.6,8.8-1.6s6.2,0.5,8.8,1.6
	c2.6,1,4.7,2.6,6.2,4.7c1.6,2.1,2.6,4.7,3.6,7.3c0.5,2.6,1,5.7,1,8.8C580.7,493.4,580.7,496.6,579.6,499.2z M611.4,475.8
	c0,0.5-0.5,0.5-1,0.5c0,0-1.6-0.5-3.1-0.5c-1,0-2.1,0-3.6,0.5c-1.6,0.5-2.6,1-3.6,2.1s-2.1,2.6-2.6,4.2s-1,4.7-1,7.3v20.8
	c0,0.5-0.5,1-1,1H588c-0.5,0-1-0.5-1-1V470c0-0.5,0.5-1,1-1h7.3c0.5,0,1,0.5,1,1v3.1c1-1.6,2.6-3.1,4.7-3.6c2.1-0.5,3.6-1,7.3-1
	c2.1,0,4.2,0.5,4.7,0.5s0.5,0.5,0.5,1S611.9,474.7,611.4,475.8z M628,501.3c2.1,2.6,5.2,3.6,9.4,3.6c1.6,0,3.6-0.5,4.7-0.5
	c1,0,2.6-0.5,3.6-1c0,0,0.5-0.5,1,0.5l1,4.7c0,1-0.5,1-0.5,1c-3.1,1-7.3,2.1-11.4,2.1c-7.3,0-12.5-2.1-16.1-6.2
	c-3.6-4.2-5.2-9.4-5.2-16.1c0-3.1,0.5-6.2,1.6-8.8c1-3.1,2.6-5.2,4.2-7.3c2.1-2.1,4.2-3.6,6.8-4.7c3.1-1,5.7-1.6,9.4-1.6
	c2.6,0,4.7,0.5,6.2,0.5c1.6,0.5,4.2,1,5.2,1.6c0,0,0.5,0.5,0.5,1c-1,2.6-1.6,3.6-2.1,5.7c-0.5,0.5-1,0.5-1,0.5c-3.1-0.5-5.2-1-8.8-1
	s-6.8,1-8.8,4.2s-3.1,6.2-3.1,10.9C624.4,495,625.9,498.6,628,501.3z M688.9,492.4h-27.6c0,4.2,1,7.3,3.1,9.4s5.2,3.1,9.4,3.1
	c6.8,0,9.4-1.6,11.4-2.1c0,0,0.5,0,1,0.5l1.6,5.2c0,1,0,1.6-0.5,1.6c-2.1,1-6.2,2.6-14.1,2.6c-3.6,0-7.3-0.5-9.9-1.6
	c-2.6-1-4.7-2.6-6.8-4.7s-3.1-4.7-4.2-7.3c-0.5-2.6-1-5.7-1-8.8c0-3.1,0-6.2,1-8.8c0.5-2.6,2.1-5.2,3.6-7.3s3.6-3.6,6.2-4.7
	c2.6-1,5.7-1.6,9.4-1.6c3.1,0,5.7,0.5,7.8,1.6c1.6,1,3.6,2.1,5.2,4.2c1,1,3.1,3.6,3.6,6.2c1.6,6.2,0.5,11.4,1.6,12
	C689.4,492.4,688.9,492.4,688.9,492.4z"/>
<path class="st0" d="M670.7,474.7c-3.6,0-6.2,1.6-7.8,4.2c-1,2.1-1.6,4.2-2.1,6.8h19.3c0-2.6-0.5-5.2-1.6-6.8
	C676.9,476.3,674.3,474.7,670.7,474.7z"/>
</svg>
