<?xml version="1.0" encoding="utf-8"?>
<!-- Generator: Adobe Illustrator 27.9.0, SVG Export Plug-In . SVG Version: 6.00 Build 0)  -->
<svg version="1.1" id="레이어_1" xmlns="http://www.w3.org/2000/svg" xmlns:xlink="http://www.w3.org/1999/xlink" x="0px"
	 y="0px" viewBox="0 0 1000 1000" style="enable-background:new 0 0 1000 1000;" xml:space="preserve">
<style type="text/css">
	.st0{fill:#FFFFFF;}
</style>
<path class="st0" d="M192.8,378.7c-8.6,3.1-14.6,9.5-17.9,18.6c-1.1,3.4-1.3,6.7-1.1,29.1l0.2,25.3l312.7,0.2
	c242.6,0.2,313.7,0,317.3-0.7c9-1.8,16.2-7.4,20.2-15.6l2.5-5.1V377l-314.8,0.1C199.4,377.2,197,377.2,192.8,378.7z M287.2,479.3
	c-0.6,0.7-0.8,4.6-0.7,12.4l0.2,11.4l12.5,0.2l12.4,0.2l-0.2-12.4l-0.2-12.5l-11.6-0.2C290.5,478.2,287.9,478.4,287.2,479.3
	L287.2,479.3z M437.3,479l-12.6,0.4v143.3l13.6,0.2l13.6,0.2l0.2-22.4l0.2-22.5l2.8-0.2c1.8-0.2,3.1,0.2,3.8,1.1
	c0.7,0.8,4.7,7.2,8.9,14.4c4.2,7.1,8.4,14.3,9.4,15.7c0.8,1.5,1.9,3.4,2.4,4.2s1.5,2.5,2.3,3.8c0.8,1.2,1.8,3.1,2.3,4
	c0.7,1.8,0.9,1.8,14.4,1.8c7.5,0,13.9-0.2,14.2-0.5c0.2-0.2-0.3-1.8-1.3-3.3c-0.9-1.5-2-3.3-2.2-3.9c-0.3-0.6-1.2-2.2-2.1-3.4
	c-0.8-1.3-1.8-2.8-2.1-3.4c-0.6-1.4-9-15.9-10.2-17.6c-0.5-0.6-1.1-1.8-1.5-2.7c-0.5-0.8-1.5-2.6-2.3-3.8c-0.8-1.3-1.8-3-2.2-3.9
	c-0.4-0.8-2.1-3.9-3.8-6.7l-3.1-5.1l2.5-4.4c1.3-2.4,3.8-6.8,5.6-9.7c1.7-3,3.4-5.9,3.7-6.5c0.3-0.6,1.2-2.2,2-3.4
	c0.8-1.3,2.5-4.1,3.6-6.1c3.8-6.8,4.2-7.7,5.7-10c0.8-1.3,1.8-2.8,2.1-3.4s1.8-3.4,3.5-6.1c1.7-2.8,2.7-5.1,2.2-5.6
	c-0.3-0.3-6.7-0.5-13.9-0.5l-13.3,0.2l-1.5,2.3c-0.8,1.2-1.7,3-2.1,3.8c-0.5,0.8-1.5,2.5-2.3,3.8c-0.8,1.2-1.8,3-2.3,3.8
	c-0.4,0.8-1.1,2.1-1.5,2.7c-0.4,0.6-2.8,4.8-5.4,9.2c-2.5,4.4-5,8.6-5.4,9.2c-0.5,0.6-1.1,1.9-1.5,2.8c-0.8,2.1-3.1,2.7-7.7,2.4
	l-3.4-0.2l-0.2-36.9c-0.2-28.6-0.4-37-1.1-37.2C450.4,478.7,444.3,478.7,437.3,479L437.3,479z M327.7,551v72.1l13.6-0.2l13.6-0.2
	v-21.5c0-11.8,0.3-21.9,0.6-22.5c0.4-0.5,1.6-0.9,2.8-0.9c2.5,0,4.8,2.6,8.4,9.6c0.5,0.8,1.5,2.5,2.3,3.8c0.8,1.2,1.8,3,2.3,3.8
	s1.5,2.5,2.3,3.8c0.8,1.2,1.8,3,2.3,3.8s1.5,2.5,2.3,3.8c0.8,1.2,1.8,3,2.2,3.8c0.4,0.8,1.6,2.8,2.7,4.4s2,3.1,2,3.3
	s0.7,1.5,1.6,2.7l1.5,2.2h13.4c8,0,13.3-0.3,13.3-0.8c0-0.4-1-2.4-2.1-4.4c-1.2-2-2.4-4.2-2.7-4.8s-1.2-2.2-2.1-3.4
	c-1.5-2.3-1.9-3.1-5.7-10c-1.1-2.1-2.8-4.9-3.5-6.1c-0.8-1.3-2.4-4.1-3.5-6.1c-3.7-6.7-4.2-7.6-5.7-10c-2.1-3.5-4.6-8.4-4.6-9.4
	c0-0.5,1.1-2.8,2.6-5.3c4.7-8,7.4-12.9,8.6-15.2c0.6-1.3,2.1-4.1,3.4-6.1c1.2-2.1,2.8-4.9,3.4-6.1c0.6-1.3,1.8-3.4,2.6-4.6
	c1.5-2.4,4.8-8.4,6.7-12c0.6-1.1,1.4-2.3,1.8-2.5c0.4-0.3,0.7-1.1,0.7-2c0-1.5-0.5-1.5-13.5-1.3l-13.5,0.2l-2.2,3.8
	c-1.2,2.1-2.5,4.5-3,5.4s-1.5,2.5-2.3,3.8c-0.8,1.2-1.8,3-2.3,3.8s-1.5,2.5-2.3,3.8c-0.8,1.2-1.8,3-2.3,3.8c-0.4,0.8-2,3.6-3.4,6.1
	c-1.5,2.5-3,5.4-3.4,6.3c-0.5,0.9-1.5,2.1-2.3,2.5c-2,1.1-8.3,1.1-9,0c-0.3-0.5-0.5-16.3-0.4-35.2s-0.1-35.2-0.4-36.3l-0.5-2h-26.7
	V551H327.7z M286.7,514.4c-0.2,1-0.3,25.8-0.2,55l0.2,53.3l12.5,0.2l12.4,0.2l-0.2-55l-0.2-55l-12-0.2
	C287.2,512.7,287.1,512.7,286.7,514.4z M629.4,513.4c-0.3,0.5-0.7,94-0.5,108.8c0,0.8,2.8,0.9,12.5,0.8l12.4-0.2l0.4-41.8l0.4-41.8
	H686l0.4,41.8l0.4,41.8h25.3l0.2-54c0.1-39.2-0.1-54.3-0.7-55c-0.7-0.9-8.1-1.1-41.4-1.1C648,512.7,629.7,513,629.4,513.4z
	 M181.1,514c-0.3,0.2-0.5,15.1-0.5,33v32.4l32.1,0.2l32,0.2v18.4l-31.8,0.4l-31.8,0.4l-0.2,12l-0.2,12.1h89.8l-0.2-34.4l-0.2-34.3
	l-31.4-0.4l-31.4-0.4l-0.2-6.6c-0.2-4.9,0.1-6.8,0.8-7.4c0.8-0.6,10.1-1,31.7-1.1l30.6-0.2v-24.5l-44.1-0.2
	C201.5,513.5,181.3,513.7,181.1,514L181.1,514z M520.9,568.3v54.8h89l-0.2-12.1l-0.2-12l-31.4-0.4l-31.4-0.4v-18.4l31.7-0.2
	l31.6-0.2l-0.2-32.8l-0.2-32.7l-44.2-0.2l-44.3-0.2L520.9,568.3L520.9,568.3z M587.2,546.4v7.3l-20.5,0.2l-20.5,0.2V547
	c0-4,0.2-7.4,0.5-7.7s9.5-0.5,20.5-0.4l20,0.2V546.4L587.2,546.4z M729,515.1c-0.2,1-0.3,15.7-0.2,32.8l0.2,31l31,0.2
	c21.3,0.1,31.3,0.5,32.1,1c0.7,0.6,1,3.1,1,8.8s-0.3,8.1-1,8.8c-0.8,0.5-10.7,0.9-32.1,1l-31,0.2v23.8h89.7l0.2-33.3
	c0.1-22.8-0.1-33.6-0.7-34.3c-0.6-0.8-7.3-1-31.8-1h-31l0.2-7.5l0.2-7.4l30.6-0.2c21-0.1,30.9-0.5,31.7-1c1.2-1.1,1.5-20.7,0.2-23
	c-0.8-1.4-2.1-1.5-44.9-1.5h-44.1L729,515.1z"/>
</svg>
