<?xml version="1.0" encoding="utf-8"?>
<!-- Generator: Adobe Illustrator 27.9.0, SVG Export Plug-In . SVG Version: 6.00 Build 0)  -->
<svg version="1.1" id="레이어_1" xmlns="http://www.w3.org/2000/svg" xmlns:xlink="http://www.w3.org/1999/xlink" x="0px"
	 y="0px" viewBox="0 0 1000 1000" style="enable-background:new 0 0 1000 1000;" xml:space="preserve">
<style type="text/css">
	.st0{fill:#FFFFFF;}
</style>
<g>
	<g>
		<path class="st0" d="M267.9,492.7c-1.6-2-3.7-3.7-5.9-5.1c-2.5-1.4-5.3-2-8.6-2c-3.3,0-5.9,0.6-8.4,2s-3.5,3.3-3.5,5.9
			c0,2,0.6,3.9,2,5.1s2.9,2.5,4.9,3.1c1.8,0.8,3.9,1.4,5.9,1.8s3.9,0.8,5.5,1c2.9,0.6,5.7,1.6,8.2,2.7c2.7,1,4.7,2.3,6.6,3.9
			s3.3,3.5,4.3,5.9c1,2.3,1.6,5.1,1.6,8.4c0,4.1-0.8,7.4-2.7,10.2c-1.6,3.1-3.9,5.5-6.6,7.2c-2.7,1.8-5.7,3.1-9.2,3.9
			c-3.5,0.8-7,1.2-10.5,1.2c-5.9,0-11.1-0.8-15.6-2.7c-4.5-1.8-8.4-5.1-12.1-10l10.2-8.4c2.3,2.3,4.7,4.1,7.4,5.9s5.9,2.7,10,2.7
			c1.6,0,3.5-0.2,5.1-0.6c1.8-0.4,3.3-0.8,4.7-1.6c1.4-0.8,2.5-1.6,3.3-2.9c0.8-1.2,1.2-2.5,1.2-4.1c0-2-0.6-3.7-1.8-4.9
			c-1.2-1.2-2.9-2.3-4.5-3.1c-1.8-0.8-3.7-1.4-5.5-1.8c-2-0.4-3.7-0.8-5.1-1.2c-2.9-0.6-5.7-1.4-8.2-2.5c-2.7-0.8-4.9-2-7-3.7
			c-2-1.4-3.7-3.5-4.9-5.7c-1.2-2.3-1.8-5.1-1.8-8.6c0-3.7,0.8-7,2.3-9.6c1.6-2.9,3.7-5.1,6.1-7c2.7-1.8,5.5-3.1,8.8-4.1
			c3.3-0.8,6.6-1.4,9.8-1.4c4.9,0,9.4,0.8,13.9,2.7c4.5,1.8,8,4.9,10.7,9L267.9,492.7z"/>
		<path class="st0" d="M286.7,474.8h12.7v11.1h0.2c0.2-1,1-2.3,2.3-3.7s2.9-2.9,4.9-4.3s4.3-2.5,7-3.5s5.5-1.4,8.8-1.4
			c5.3,0,9.8,1,13.5,3.3s6.6,5.5,8.8,10c2.3-4.5,5.5-7.8,9.8-10c4.3-2.3,8.4-3.3,12.9-3.3c5.5,0,10,0.8,13.5,2.7
			c3.5,1.8,6.4,4.1,8.2,7.2c2,2.9,3.5,6.4,4.1,10c0.8,3.7,1.2,7.6,1.2,11.7v41.6h-13.5v-39.8c0-2.7-0.2-5.3-0.6-7.8s-1-4.7-2.3-6.6
			c-1-1.8-2.7-3.5-4.7-4.5c-2-1.2-4.7-1.6-8-1.6c-6.6,0-11.3,2-13.9,5.9c-2.9,4.1-4.3,9.2-4.3,15.6v39.1h-13.5V509
			c0-3.5-0.2-6.6-0.6-9.4c-0.4-2.9-1-5.3-2-7.4c-1-2-2.7-3.7-4.5-4.9c-2-1.2-4.5-1.6-8-1.6c-2.5,0-4.7,0.4-7,1.4s-4.3,2.5-5.9,4.3
			s-3.1,4.3-4.1,7.4c-1,2.9-1.4,6.6-1.4,10.5v37.1h-13.5L286.7,474.8z"/>
		<path class="st0" d="M405,483.4c3.9-3.5,8.2-6.1,13.3-8c5.1-1.8,10-2.7,15.2-2.7c5.3,0,9.6,0.6,13.5,2c3.7,1.2,7,3.1,9.2,5.3
			c2.5,2.3,4.1,4.7,5.3,7.6s1.6,5.9,1.6,9v36.5c0,2.5,0,4.9,0.2,7c0,2,0.2,4.1,0.4,5.9h-12.1c-0.2-3.7-0.4-7.2-0.4-10.9H451
			c-3.1,4.7-6.6,8-10.7,9.8s-8.8,2.9-14.3,2.9c-3.3,0-6.6-0.4-9.4-1.4c-2.9-1-5.7-2.3-8-4.1s-4.1-4.1-5.3-6.8c-1.2-2.7-2-5.7-2-9.2
			c0-4.7,1-8.4,3.1-11.7c2-3.1,4.9-5.7,8.4-7.6c3.5-2,7.8-3.3,12.5-4.3c4.7-0.8,9.8-1.2,15.4-1.2h10v-3.1c0-1.8-0.4-3.7-1-5.5
			s-1.8-3.5-3.1-4.9c-1.4-1.4-3.1-2.7-5.3-3.5c-2-0.8-4.7-1.2-7.6-1.2c-2.7,0-4.9,0.2-6.8,0.8c-2,0.4-3.7,1.2-5.3,1.8
			c-1.6,0.8-3.1,1.6-4.3,2.7s-2.7,2-3.7,2.9L405,483.4z M443.3,511.9c-3.3,0-6.6,0.2-9.8,0.6c-3.3,0.4-6.4,1-9.2,2
			c-2.9,1-5.1,2.5-6.8,4.3c-1.8,1.8-2.7,4.1-2.7,7c0,4.1,1.4,7.2,4.1,8.8c2.7,1.8,6.6,2.7,11.3,2.7c3.7,0,7-0.6,9.4-1.8
			c2.7-1.2,4.7-2.9,6.4-4.9c1.6-2,2.7-4.3,3.5-6.8c0.6-2.5,1-4.9,1-7.4v-4.5L443.3,511.9L443.3,511.9z"/>
		<path class="st0" d="M624.6,492.7c-1.6-2-3.7-3.7-5.9-5.1c-2.5-1.4-5.3-2-8.6-2s-5.9,0.6-8.4,2s-3.5,3.3-3.5,5.9
			c0,2,0.6,3.9,2,5.1s2.9,2.5,4.9,3.1c1.8,0.8,3.9,1.4,5.9,1.8s3.9,0.8,5.5,1c2.9,0.6,5.7,1.6,8.2,2.7c2.7,1,4.7,2.3,6.6,3.9
			c1.8,1.6,3.3,3.5,4.3,5.9c1,2.3,1.6,5.1,1.6,8.4c0,4.1-0.8,7.4-2.7,10.2c-1.6,2.9-3.9,5.1-6.6,7c-2.7,1.8-5.7,3.1-9.2,3.9
			s-7,1.2-10.5,1.2c-5.9,0-11.1-0.8-15.6-2.7c-4.5-1.8-8.4-5.1-12.1-10l10.2-8.4c2.3,2.3,4.7,4.1,7.4,5.9c2.7,1.6,5.9,2.7,10,2.7
			c1.6,0,3.5-0.2,5.1-0.6c1.8-0.4,3.3-0.8,4.7-1.6s2.5-1.6,3.3-2.9s1.2-2.5,1.2-4.1c0-2-0.6-3.7-1.8-4.9s-2.7-2.3-4.5-3.1
			s-3.7-1.4-5.5-1.8c-2-0.4-3.7-0.8-5.1-1.2c-2.9-0.6-5.7-1.4-8.4-2.5c-2.7-0.8-4.9-2-7-3.7c-2-1.4-3.7-3.5-4.9-5.7
			c-1.2-2.3-1.8-5.1-1.8-8.6c0-3.7,0.8-7,2.3-9.6c1.6-2.9,3.7-5.1,6.1-7c2.7-1.8,5.5-3.1,8.8-4.1c3.3-0.8,6.6-1.4,9.8-1.4
			c4.9,0,9.4,0.8,13.9,2.7s8,4.9,10.7,9L624.6,492.7z"/>
		<path class="st0" d="M643.9,432.2h13.5v53.5h0.2c1.6-3.9,4.7-7,8.8-9.2c4.3-2.5,9-3.5,14.5-3.5c3.5,0,6.8,0.6,9.8,1.6
			c3.1,1,5.9,2.7,8.2,4.9c2.5,2.3,4.3,5.1,5.7,8.6s2,7.6,2,12.3v46.1h-13.5v-42.6c0-3.3-0.4-6.1-1.4-8.6c-0.8-2.5-2-4.3-3.7-5.7
			c-1.4-1.4-3.3-2.5-5.1-3.1c-2-0.6-4.1-1-6.1-1c-2.9,0-5.5,0.4-7.8,1.4c-2.5,0.8-4.5,2.3-6.4,4.3s-3.3,4.5-4.3,7.4
			c-1,3.1-1.4,6.6-1.4,10.7v36.9h-13.5L643.9,432.2z"/>
		<path class="st0" d="M728.7,515.4c0,3.1,0.6,5.9,2,8.6c1.4,2.7,3.1,4.7,5.3,6.6c2.3,1.8,4.7,3.3,7.8,4.3c2.9,1,5.9,1.4,9,1.4
			c4.3,0,8-1,11.1-2.9c3.1-2,5.9-4.5,8.6-7.8l10.2,7.8c-7.6,9.8-18,14.5-31.8,14.5c-5.5,0-10.7-1-15.4-2.9c-4.5-1.8-8.4-4.5-11.7-8
			c-3.1-3.3-5.5-7.4-7.4-11.9c-1.6-4.5-2.7-9.4-2.7-15c0-5.3,1-10.2,2.9-15c1.8-4.5,4.5-8.6,7.8-11.9s7.2-5.9,11.7-8
			c4.5-1.8,9.4-2.9,14.8-2.9c6.4,0,11.7,1,16,3.3s8,5.1,10.9,8.6s4.9,7.6,6.1,12.1c1.2,4.5,1.8,9,1.8,13.7v4.9L728.7,515.4z
			 M771.6,504.6c0-3.1-0.6-5.7-1.4-8.2c-0.8-2.5-2-4.7-3.9-6.6c-1.6-1.8-3.9-3.3-6.4-4.3c-2.7-1-5.5-1.6-9-1.6
			c-3.3,0-6.4,0.6-9.2,1.8c-2.9,1.2-5.1,2.9-7,4.9c-1.8,2-3.5,4.3-4.5,6.8s-1.6,4.9-1.6,7.4L771.6,504.6z"/>
		<path class="st0" d="M808,515.4c0,3.1,0.6,5.9,2,8.6c1.4,2.7,3.1,4.7,5.3,6.6c2.3,1.8,4.7,3.3,7.8,4.3c2.9,1,5.9,1.4,9,1.4
			c4.3,0,8-1,11.1-2.9c3.1-2,5.9-4.5,8.6-7.8l10.2,7.8c-7.6,9.8-18,14.5-31.8,14.5c-5.5,0-10.7-1-15.4-2.9c-4.5-1.8-8.4-4.5-11.7-8
			c-3.1-3.3-5.5-7.4-7.4-11.9c-1.6-4.5-2.7-9.4-2.7-15c0-5.3,1-10.2,2.9-15c1.8-4.5,4.5-8.6,7.8-11.9s7.2-5.9,11.7-8
			c4.5-1.8,9.4-2.9,14.8-2.9c6.4,0,11.7,1,16,3.3s8,5.1,10.9,8.6s4.9,7.6,6.1,12.1c1.2,4.5,1.8,9,1.8,13.7v4.9L808,515.4z
			 M850.9,504.6c0-3.1-0.6-5.7-1.4-8.2c-0.8-2.5-2-4.7-3.9-6.6c-1.6-1.8-3.9-3.3-6.4-4.3c-2.7-1-5.5-1.6-9-1.6
			c-3.3,0-6.4,0.6-9.2,1.8c-2.7,1.2-5.1,2.9-7,4.9c-1.8,2-3.5,4.3-4.5,6.8s-1.6,4.9-1.6,7.4L850.9,504.6z"/>
		<g>
			<path class="st0" d="M516,475c0,0-8-1-12.3-0.8c-5.1,0.4-7,1.2-9.8,2.7c-1.8,1-3.5,2.5-5.1,4.1c-1.4,1.6-2.7,3.3-3.7,5.1h-0.2
				V475h-13.5v71.5h13.5c0,0-0.4-29.5,0-36.7s1.6-14.8,5.3-18.2c3.9-3.5,5.5-4.3,10.2-4.9c4.3-0.6,10.2,0,10.2,0L516,475z"/>
		</g>
		<g>
			<path class="st0" d="M566,534.9c-1.6,0.2-3.3,0.4-4.9,0.4c-2.7,0-4.5-0.4-5.9-1.4s-2.5-2.3-3.1-3.7c-0.6-1.6-1-3.3-1.2-5.3
				c0-2-0.2-3.9-0.2-5.9v-32.4h19.5v-11.7h-19.5v-20.1h-13.5v20.1h-13.7l-5.1,11.7h18.9v37.3c0,2.9,0.2,5.7,0.4,8.6
				c0.2,2.9,1,5.5,2.5,7.8c1.4,2.3,3.5,4.3,6.4,5.7s7,2.3,12.1,2.3c1.4,0,3.5-0.2,5.9-0.6c2.7-0.4,4.7-1,6.4-1.8v-12.3
				C569.3,534.1,567.9,534.7,566,534.9z"/>
		</g>
		<g>
			<path class="st0" d="M913.2,534.9c-1.6,0.2-3.3,0.4-4.9,0.4c-2.7,0-4.5-0.4-5.9-1.4s-2.5-2.3-3.1-3.7c-0.6-1.6-1-3.3-1.2-5.3
				c0-2-0.2-3.9-0.2-5.9v-32.4h19.5v-11.7h-19.5v-20.1h-13.5v20.1h-13.7l-5.1,11.7h18.9v37.3c0,2.9,0.2,5.7,0.4,8.6
				c0.2,2.9,1,5.5,2.5,7.8c1.4,2.3,3.5,4.3,6.4,5.7s7,2.3,12.1,2.3c1.4,0,3.5-0.2,5.9-0.6c2.7-0.4,4.7-1,6.4-1.8v-12.3
				C916.2,534.1,914.8,534.7,913.2,534.9z"/>
		</g>
	</g>
	<g>
		<path class="st0" d="M100.6,501.1c0,0,4.9-6.8,11.3-7c10-0.2,18,17.6,19.3,20.3c11.1-24.6,29.3-45.5,44.1-59.4H84.4
			c0,8.6,0,94.7,0,101.8c0,5.5-0.8,9.6-1.2,11.3c4.1-0.6,19.3-3.3,34.8-8.8c27.7-9.8,38.3-20.5,38.5-20.5l0.6-0.6l0.4,0.8
			c0,0,3.5,7.6,7,11.7c3.9,4.5,5.9,4.9,7.2,4.7c1.6-0.4,2.7-3.1,3.1-7.2c0.4-4.1,0.8-13.3,0.8-24.6c0-20.3,0-47.1,0-60.7
			c-26.8,32.8-46.5,82-46.5,82S116.2,500.9,100.6,501.1z"/>
	</g>
</g>
</svg>
