<?xml version="1.0" encoding="utf-8"?>
<!-- Generator: Adobe Illustrator 23.0.0, SVG Export Plug-In . SVG Version: 6.00 Build 0)  -->
<svg version="1.1" id="레이어_1" xmlns="http://www.w3.org/2000/svg" xmlns:xlink="http://www.w3.org/1999/xlink" x="0px"
	 y="0px" viewBox="0 0 1000 1000" style="enable-background:new 0 0 1000 1000;" xml:space="preserve">
<style type="text/css">
	.st0{fill-rule:evenodd;clip-rule:evenodd;}
</style>
<path id="Layer" class="st0" d="M168.8,526.9c0,5.6-1.2,10.8-3.6,15.5c-2.3,4.7-5.7,8.8-9.9,12.1c-4.3,3.3-9.3,5.8-15.2,7.7
	c-5.8,1.8-12.3,2.8-19.2,2.8c-8.3,0-15.8-1.1-22.3-3.4c-6.6-2.2-13.1-6.1-19.8-11.3l10.9-17.8c5.2,4.4,10,7.6,14.2,9.6
	c4.2,2.1,8.5,3,13,3c5.5,0,9.7-1.3,13.1-4.2c3.3-2.8,4.9-6.6,4.9-11.3c0-2.1-0.3-4-0.9-5.7c-0.6-1.8-1.7-3.6-3.3-5.5
	c-1.6-1.8-3.8-3.9-6.6-6.1c-2.7-2.2-6.3-4.9-10.8-8.1c-3.3-2.3-6.7-4.8-9.9-7.4c-3.2-2.6-6.1-5.2-8.8-8.1c-2.6-2.8-4.7-6.1-6.3-9.7
	c-1.6-3.5-2.4-7.6-2.4-12.2c0-5.2,1.1-10.1,3.3-14.4c2.2-4.3,5.2-8,9-11.1c3.8-3.1,8.3-5.5,13.6-7.2c5.3-1.7,11.1-2.5,17.4-2.5
	c6.6,0,13,0.8,19.1,2.6c6.2,1.7,11.9,4.3,17.2,7.7l-9.9,16c-6.7-4.7-13.9-7.2-21.3-7.2c-4.6,0-8.4,1.2-11.3,3.6
	c-3,2.3-4.5,5.3-4.5,8.9c0,3.4,1.3,6.5,4,9.2c2.6,2.7,7.1,6.5,13.5,11.4c6.5,4.7,11.9,9,16,12.5c4.3,3.6,7.6,7,10.1,10.1
	c2.5,3.2,4.1,6.3,5.1,9.6C168.4,519.4,168.8,523,168.8,526.9L168.8,526.9z M312,523.2c-3.1,8.4-7.4,15.7-12.8,22
	c-5.4,6.3-11.9,11.1-19.4,14.6c-7.5,3.4-15.5,5.2-24.2,5.2c-3.8,0-7.5-0.3-10.9-1c-3.4-0.6-6.6-1.8-9.7-3.4s-6.1-3.7-9-6.2
	c-3-2.6-6.1-5.7-9.3-9.4v80.5H184V434.8h32.6l0.2,18.5c5.8-7.5,12.4-12.9,19.3-16.4c7-3.4,15-5.2,24.2-5.2c8.3,0,15.9,1.6,22.8,4.7
	c6.9,3.1,12.8,7.5,17.8,13.1c5.1,5.6,8.9,12.3,11.6,20.1c2.7,7.7,4.1,16.4,4.1,25.9C316.6,505.6,315.1,514.9,312,523.2L312,523.2z
	 M272.6,464c-5.6-8-13.3-12.1-22.9-12.1c-10.2,0-18.4,4.3-24.3,12.9c-6,8.6-9,20.1-9,34.7c0,14.3,3,25.5,8.9,33.6
	c5.9,8.2,14,12.3,24.2,12.3c6.1,0,11.2-1.6,15.2-4.7c4-3.1,7.2-7.1,9.7-11.9c2.5-4.8,4.2-10.1,5.2-15.8c1-5.7,1.6-11,1.6-15.9
	C281.1,483,278.3,472,272.6,464L272.6,464z M331.1,375.4h33.5v186.5h-33.5L331.1,375.4z M474,561.9l-0.1-17
	c-6.4,7.2-13,12.3-19.8,15.4c-6.9,3.1-14.8,4.7-23.7,4.7c-10,0-18.4-2-25.3-6c-6.9-4-11.8-9.9-14.9-17.7c-0.8-1.8-1.5-3.8-1.9-5.8
	c-0.4-2-0.8-4.4-1.2-7c-0.3-2.6-0.6-5.7-0.7-9c-0.1-3.3-0.1-7.5-0.1-12.5v-72.2h33.5v72.8c0,6.5,0.3,11.4,0.9,14.8
	c0.6,3.4,1.7,6.5,3.2,9.1c4,7.2,10.8,10.7,20.7,10.7c12.6,0,21.3-5.3,26-15.8c1.2-2.8,2.1-5.7,2.6-9.1c0.5-3.3,0.8-8.1,0.8-14.1
	v-68.5h33.5V562L474,561.9z M618.7,561.8v-72.5c0-6.4-0.3-11.4-0.9-14.8c-0.6-3.3-1.7-6.4-3.2-9.1c-3.9-7.2-10.8-10.7-20.7-10.7
	c-6.3,0-11.7,1.3-16.2,4c-4.5,2.6-7.9,6.4-10.1,11.5c-1.2,3-2,6-2.4,9.3c-0.4,3.3-0.7,7.9-0.7,13.8v68.6h-33.8V434.9h33.8l0.1,17
	c6.4-7.1,13-12.3,19.8-15.4c6.8-3.2,14.8-4.7,23.7-4.7c10,0,18.4,2.1,25.3,6.2c6.9,4.1,11.8,10,14.9,17.6c0.6,1.9,1.2,3.8,1.7,5.7
	c0.4,1.9,0.9,4.1,1.3,6.7c0.4,2.6,0.6,5.6,0.6,9c0.1,3.5,0.2,7.7,0.2,12.6v72.2L618.7,561.8z M759.5,564.4L709,494.3v67.6h-33.8
	V375.3H709v109.5h3.5l45-52.1l25.4,10.9l-43.2,46.3l51.1,63.5L759.5,564.4z M819.8,558.5v-22.3l78.7-38.9L819.8,459v-22.9l101.5,51
	v20.8L819.8,558.5z M829.6,426c-6.2,0-11.3-5.1-11.3-11.5c0-6.3,5-11.4,11.3-11.4s11.3,5.1,11.3,11.4
	C840.8,420.9,835.8,426,829.6,426z M838.8,414.5c0-5.3-4.1-9.6-9.1-9.6c-5.1,0-9.1,4.3-9.1,9.6s4.1,9.7,9.1,9.7
	C834.7,424.2,838.8,419.9,838.8,414.5z M827.5,421.1h-2.1v-12.7c1.1-0.2,2.1-0.3,3.6-0.3c1.9,0,3.1,0.4,3.9,1
	c0.8,0.5,1.2,1.4,1.2,2.6c0,1.6-1.1,2.7-2.5,3.1v0.2c1.2,0.2,1.9,1.2,2.2,3.1c0.2,1.9,0.6,2.7,0.8,3.1h-2.2
	c-0.3-0.4-0.6-1.5-0.8-3.2c-0.3-1.7-1.1-2.2-2.8-2.2h-1.3V421.1z M827.5,414h1.4c1.7,0,3.1-0.6,3.1-2.2c0-1.1-0.8-2.2-3.1-2.2
	c-0.6,0-1.1,0.1-1.4,0.1V414z"/>
</svg>
