<?xml version="1.0" encoding="utf-8"?>
<!-- Generator: Adobe Illustrator 23.0.0, SVG Export Plug-In . SVG Version: 6.00 Build 0)  -->
<svg version="1.1" id="레이어_1" xmlns="http://www.w3.org/2000/svg" xmlns:xlink="http://www.w3.org/1999/xlink" x="0px"
	 y="0px" viewBox="0 0 1000 1000" style="enable-background:new 0 0 1000 1000;" xml:space="preserve">
<style type="text/css">
	.st0{fill:#FFFFFF;}
</style>
<path class="st0" d="M610.4,484.3c0-2.1-1.3-3.4-3.4-3.4c-2.9,0-5.5,2.5-5.5,5.9c0,1.3,0.4,2.9,2.9,5.5
	C607.9,490.6,610.4,487.2,610.4,484.3z"/>
<path class="st0" d="M689.9,499.8c4.2,0,8.8-1.3,8.8-5c0-2.1-1.3-3.4-3.8-3.4c-3.4,0-6.3,2.1-7.6,8.4
	C687.4,499.3,688.6,499.8,689.9,499.8z"/>
<path class="st0" d="M363,499.8c4.2,0,8.8-1.3,8.8-5c0-2.1-1.3-3.4-3.8-3.4c-3.4,0-6.3,2.1-7.6,8.4
	C360.5,499.3,361.8,499.8,363,499.8z"/>
<path class="st0" d="M657.2,507.7c4.2-6.7,5-16.4,5-18.9c0-4.6-1.3-8.8-7.6-8.8h-4.2l-6.7,32.8h4.6
	C652.6,512.7,655.5,510.6,657.2,507.7z"/>
<path class="st0" d="M493.7,514.3c2.9,0,5.9-2.9,6.7-5.5l3.8-16.8c-0.4,0-1.7-0.4-2.5-0.4c-2.1,0-4.2,0-6.7,2.9
	c-2.9,3.4-4.2,10.5-4.2,15.1C490.8,513.1,491.6,514.3,493.7,514.3z"/>
<path class="st0" d="M445.9,490.5c1.7-1.3,2.9-2.9,2.9-5.5c0-2.9-1.3-4.2-5.5-4.2H437l-2.1,10.9h5.9
	C443.4,491.7,444.6,491.3,445.9,490.5z"/>
<path class="st0" d="M441.7,511.5c2.1-1.7,3.8-4.6,3.8-7.1c0-3.4-1.7-4.6-6.3-4.6h-5.9l-2.9,13h6.3
	C438.7,512.7,440.4,512.3,441.7,511.5z"/>
<path class="st0" d="M600.3,515c3.4,0,5.9-0.8,8-2.5l-8.8-10.9c-3.8,1.7-5.5,4.6-5.5,8.4C594,513.3,596.6,515,600.3,515z"/>
<path class="st0" d="M84.9,566h754.6l75.7-131.2H84.9V566z M816.4,497c0.8-4.6,0.8-7.6,0-9.7l8.8-3.4c0.4,1.3,1.3,3.8,0.8,5.9
	c2.9-3.4,6.3-5.5,10.1-5.5c1.3,0,2.1,0,3.4,0.8l-4.2,8c-0.8-0.4-1.7-0.8-2.9-0.8c-1.7,0-3.8,1.3-6.7,5l-5,23.1h-9.2L816.4,497z
	 M797.3,484.6c7.1,0,12.2,2.9,12.2,9.7c0,6.7-6.3,12.2-18.1,12.2c-2.5,0-4.2-0.4-4.2-0.4s-0.4,2.1-0.4,2.9c0,4.2,2.1,5.9,5.9,5.9
	c3.4,0,6.7-1.3,9.7-3.8l2.9,5.5c-5,3.4-9.7,5-14.7,5c-8.4,0-13.5-4.6-13.5-13c0-7.6,3.4-14.7,8-19.3
	C788.5,485.9,792.7,484.6,797.3,484.6z M778.3,485.1L764,500.7l9.7,20.2h-10.9l-7.6-20.2l11.8-15.6H778.3z M749.7,481.3
	c0.8-4.6,0.8-7.6,0.4-9.7l9.7-2.9c0.4,1.7,0.4,5.9-1.3,13.5l-8,38.3h-9.2L749.7,481.3z M719.8,488.3c3.4-2.5,7.1-4.2,11.8-4.2
	c3.4,0,6.7,1.3,9.2,4.2l-5,5.9c-1.7-1.7-3.4-2.5-5.5-2.5c-1.7,0-2.9,0.8-4.2,2.1c-2.5,2.9-5,10.1-5,15.6c0,3.8,1.7,5.5,4.2,5.5
	s5-1.3,8-3.4l2.9,5.9c-3.8,2.5-7.6,4.2-13,4.2c-8,0-12.2-4.6-12.2-12.2C710.9,500.4,715.1,492.5,719.8,488.3z M683.6,489.2
	c3.4-3.4,7.6-4.6,12.2-4.6c7.1,0,12.2,2.9,12.2,9.7c0,6.7-6.3,12.2-18.1,12.2c-2.5,0-4.2-0.4-4.2-0.4s-0.4,2.1-0.4,2.9
	c0,4.2,2.1,5.9,5.9,5.9c3.4,0,6.7-1.3,9.7-3.8c0.4,0,2.5,5.5,2.5,5.5c-4.6,3.4-9.2,5-14.3,5c-8.4,0-13.5-4.6-13.5-13
	C675.6,501,679,493.9,683.6,489.2z M642.1,472.4c0.4,0,11.4,0,11.4,0c8,0,13,0.8,16,4.6c2.5,2.9,3.8,6.3,3.8,11.8
	c0,8-2.9,18.1-8.8,24.4c-5,5.5-9.7,7.6-20.6,7.6H632L642.1,472.4z M591.9,488.5c0-7.6,7.1-13.9,16.4-13.9c7.1,0,11.8,3.4,11.8,8.4
	c0,5.5-2.1,9.2-10.5,13.5l-1.3,0.4l6.3,7.6c1.3-1.7,2.5-6.3,2.5-7.6h7.6c-0.8,5-2.5,10.1-5,13.9l8,10.1h-12.2l-2.5-3.4
	c-3.4,2.5-7.6,4.2-14.3,4.2c-9.7,0-15.1-4.6-15.1-10.9c0-5.9,4.2-10.9,11.8-14.3C592.4,493.5,591.9,491.4,591.9,488.5z M584.7,485.1
	l-14.3,15.6l9.7,20.2h-10.9l-7.6-20.2l11.8-15.6H584.7z M556.1,481.3c0.4-4.6,0.8-7.6,0.4-9.7l9.7-2.9c0.4,1.7,0.4,5.9-1.3,13.5
	l-8,38.3h-9.2L556.1,481.3z M526.2,488.3c3.4-2.5,7.1-4.2,11.8-4.2c3.4,0,6.7,1.3,9.2,4.2l-5,5.9c-1.7-1.7-3.4-2.5-5.5-2.5
	c-1.7,0-2.9,0.8-4.2,2.1c-2.5,2.9-5,10.1-5,15.6c0,3.8,1.7,5.5,4.2,5.5s5-1.3,7.6-3.4l2.9,5.9c-3.4,2.5-7.1,4.2-12.6,4.2
	c-8,0-12.2-4.6-12.2-12.2C517.4,500.4,521.6,492.5,526.2,488.3z M489.1,490c3.8-3.8,8.4-5.5,14.3-5.5c4.2,0,8.8,0.8,11.8,2.5
	c-1.3,2.1-2.1,5.9-2.5,8.4l-2.9,13.5c-0.8,3.4-0.4,5.5,1.3,7.1l-7.6,5.9c-1.7-1.3-2.5-2.9-2.9-4.6c-2.5,2.9-5.5,4.2-9.2,4.2
	c-6.3,0-9.7-3.8-9.7-11.4C481.5,501.7,484.9,494.2,489.1,490z M462.3,508.9l5.5-26.5c1.7-5,2.1-8.4,1.3-10.5l9.7-2.9
	c0.4,1.7,0.4,6.3-0.4,10.9l-5.5,26.5c-0.8,4.2-1.3,5.9-1.3,6.7c0,1.3,0.4,2.1,1.7,2.1c0.4,0,0.8,0,0.8,0l0.4,5.5
	c-1.7,0.4-3.8,0.8-5.9,0.8c-4.6,0-7.1-2.9-7.1-6.3C461.4,514,461.9,511.4,462.3,508.9z M446.7,472.4c7.1,0,12.6,3.4,12.6,10.5
	c-0.4,4.6-3.4,10.1-10.5,12.2c4.6,0.8,7.6,4.6,7.6,9.2c0,2.9-1.3,7.6-4.6,10.9c-3.8,3.8-7.6,5.5-15.1,5.5H419l10.1-48.3
	C429.5,472.4,446.7,472.4,446.7,472.4z M395.2,484.6l1.7,20.6c0,2.1,0.4,7.1,0.4,7.1s2.5-6.3,4.6-10.5l8.8-16.8h10.1l-20.6,36.2
	c-3.8,6.7-6.3,9.7-9.2,11.8c-2.5,1.7-5.9,2.9-9.2,3.4l-1.7-6.3c2.1-0.4,4.6-1.3,6.3-2.1c2.9-1.7,3.8-3.4,6.3-7.1h-2.5
	c0-2.5-0.4-7.1-0.8-10.1L386,486L395.2,484.6z M356.7,489.2c3.4-3.4,7.6-4.6,12.2-4.6c7.1,0,12.2,2.9,12.2,9.7
	c0,6.7-6.3,12.2-18.1,12.2c-2.5,0-4.2-0.4-4.2-0.4s-0.4,2.1-0.4,2.9c0,4.2,2.1,5.9,5.9,5.9c3.4,0,6.3-1.3,9.7-3.8l2.5,5.5
	c-4.6,3.4-9.2,5-14.3,5c-8.4,0-13.5-4.6-13.5-13C348.7,501,352.1,493.9,356.7,489.2z M330.8,508.9l5.5-26.5c1.7-5,2.1-8.4,1.3-10.5
	l9.7-2.9c0.4,1.7,0.4,6.3-0.4,10.9l-5.5,26.5c-0.8,4.2-1.3,5.9-1.3,6.7c0,1.3,0.4,2.1,1.7,2.1c0.4,0,0.8,0,0.8,0l0.4,5.5
	c-1.7,0.4-3.8,0.8-5.9,0.8c-4.6,0-7.1-2.9-7.1-6.3C330,514,330.4,511.4,330.8,508.9z M297.7,496.5c0.8-3.8,0.8-7.1,0-9.2l8.4-3.4
	c0.4,1.3,0.8,4.2,0.8,5.9c2.9-3.4,6.7-5.5,12.2-5.5c4.6,0,7.1,2.5,7.1,7.1c0,1.7-0.4,3.4-0.4,5l-5.5,24h-9.2l5-23.1
	c0.4-1.3,0.4-2.5,0.4-3.4c0-1.7-0.8-2.1-2.5-2.1c-2.1,0-5,1.3-7.6,5.5l-5,23.1h-9.2L297.7,496.5z M278.7,484.5
	c4.2,0,8.8,0.8,11.8,2.5c-1.3,2.1-2.1,5.9-2.5,8.4l-2.9,13.5c-0.8,3.4-0.4,5.5,1.3,7.1l-7.6,5.9c-1.7-1.3-2.5-2.9-2.9-4.6
	c-2.5,2.9-5.5,4.2-9.2,4.2c-6.3,0-9.7-3.8-9.7-11.4c0-8.4,3.4-16,7.6-20.2C268.2,486.2,272.8,484.5,278.7,484.5z M235.5,491.1
	l1.3-6.3h3.4c0.8-3.4,1.3-5.9,2.1-8.4l9.7-2.5c-0.4,3.8-1.7,7.6-2.5,11.4h8.4l-3.4,6.3h-6.3l-3.8,17.7c0,1.3,0,2.5,0,3.4
	c0,2.1,0.8,2.5,2.9,2.5c0.8,0,2.5-0.4,3.4-0.8v5.5c-2.5,1.3-5.5,1.7-8,1.7c-5.5,0-8.4-2.5-8.4-6.3c0-1.3,0-2.9,0.4-4.6l4.2-19.3
	h-3.4V491.1z M195.3,509.8c4.2,2.5,7.6,3.8,12.6,3.8c6.3,0,10.1-3.4,10.1-8c0-2.5-1.7-4.2-5-5l-5.5-1.7c-5.5-1.7-8.8-4.6-8.8-10.1
	c0-9.7,9.2-17.7,20.6-17.7c5.9,0,11.4,1.7,15.1,5l-5.9,6.3c-2.9-2.5-6.7-3.4-10.5-3.4c-4.2,0-8,2.9-8,6.3c0,2.1,1.3,3.4,4.6,4.6
	l5.5,1.7c6.3,2.1,9.7,5.5,9.7,10.9c0,10.5-8.8,18.9-23.5,18.9c-6.7,0-11.8-1.7-16-4.2L195.3,509.8z"/>
<path class="st0" d="M791.5,499.8c4.2,0,8.8-1.3,8.8-5c0-2.1-1.3-3.4-3.8-3.4c-3.4,0-6.3,2.1-7.6,8.4
	C788.9,499.3,790.2,499.8,791.5,499.8z"/>
<path class="st0" d="M269,514.3c2.9,0,5.9-2.9,6.7-5.5l3.8-16.8c-0.4,0-1.7-0.4-2.5-0.4c-2.1,0-4.2,0-6.7,2.9
	c-2.9,3.4-4.2,10.5-4.2,15.1C266.1,513.1,266.9,514.3,269,514.3z"/>
</svg>
