<?xml version="1.0" encoding="utf-8"?>
<!-- Generator: Adobe Illustrator 27.9.0, SVG Export Plug-In . SVG Version: 6.00 Build 0)  -->
<svg version="1.1" id="레이어_1" xmlns="http://www.w3.org/2000/svg" xmlns:xlink="http://www.w3.org/1999/xlink" x="0px"
	 y="0px" viewBox="0 0 1000 1000" style="enable-background:new 0 0 1000 1000;" xml:space="preserve">
<style type="text/css">
	.st0{fill:#FFFFFF;}
</style>
<path class="st0" d="M454.7,439.1l-20.5,22v14.7v48.4c0,4.9,1,8.8,3.4,10.8c3.4,3.9,10.3,5.4,20,4.9l9.8-0.5v-15.2c-0.5,0-1.5,0-2,0
	s-1.5,0-2,0c-4.4,0-6.8-0.5-7.8-1c-0.5-0.5-1-2.9-1-5.9v-41.6h12.2V461h-12.7L454.7,439.1z"/>
<path class="st0" d="M420.5,498.7c-2.4-2-5.4-2.9-7.8-4.4c-2.9-1-6.4-2-9.3-2.9c-2.9-0.5-6.4-1.5-9.3-2s-5.4-1.5-7.8-2
	s-4.4-2-5.4-2.9c-1.5-1.5-2-2.9-2-4.9s0.5-2.9,1-3.9s2-2,2.9-2c1-0.5,2.4-1,3.9-1s2.9-0.5,4.4-0.5c3.9,0,7.3,0.5,10.3,2
	s4.4,4.4,4.9,8.8h21c-0.5-4.9-2-9.3-3.9-12.7c-2-2.9-4.9-5.9-7.8-7.8c-2.9-2-6.8-3.4-10.8-4.4c-3.9-0.5-8.3-1.5-12.7-1.5
	c-4.4,0-8.8,0.5-12.7,1c-4.4,0.5-7.8,2-11.2,4.4c-2.9,2-5.9,4.4-7.8,7.8c-2,2.9-2.9,7.8-2.9,12.7c0,3.4,0.5,6.8,2,9.3
	c1.5,2.4,2.9,4.4,5.4,5.9c2.4,2,5.4,2.9,7.8,3.9c2.9,1,6.4,2,9.3,2.9c7.8,2,13.7,2.9,18.6,4.9c4.4,2,6.8,4.4,6.8,7.8
	c0,2-0.5,3.9-1.5,4.9c-1,1.5-2,2.4-3.4,2.9c-1.5,0.5-2.9,1.5-4.4,2c-2,0.5-2.9,0.5-4.9,0.5s-4.4-0.5-6.4-0.5c-2-0.5-3.9-1.5-5.4-2.4
	c-1.5-1-2.9-2.4-3.9-4.4s-1.5-3.9-1.5-6.4h-21.5c0.5,5.4,1.5,9.8,3.9,13.7c2,3.4,4.9,6.8,8.8,8.8c3.4,2,7.3,3.9,11.7,4.9
	c4.4,1,9.3,1.5,13.7,1.5c4.4,0,9.3-0.5,13.7-1.5c4.4-1,8.3-2.4,11.7-4.4c3.4-2,6.4-5.4,8.3-8.8c2-3.4,2.9-7.8,2.9-13.2
	c0-3.9-0.5-6.8-2-9.3C424.4,502.6,422.9,500.7,420.5,498.7z"/>
<path class="st0" d="M569.6,509c0,6.8-2,11.7-5.9,14.2c-3.9,2.9-7.8,3.9-12.7,3.9c-2.9,0-5.4-0.5-7.3-2.4s-2.9-4.4-2.9-7.8
	c0-3.9,2-6.8,4.9-8.8c2-1,5.4-2,9.3-2.9l4.9-1c2.4-0.5,4.4-1,5.4-1.5c1.5-0.5,2.9-1,3.9-2L569.6,509z M591.6,533.9
	c-0.5-1-1-2.9-1-5.4c0-3.4,0-6.8,0-9.3V483c0-9.3-3.4-16.1-10.3-19.6c-6.8-3.4-15.2-4.9-23.5-4.9c-13.2,0-22.5,3.4-28.4,10.3
	c-3.4,4.4-5.4,10.3-5.9,17.1h20c0.5-2.9,1.5-5.4,2.9-7.3c2-2.4,5.4-3.4,10.3-3.4c4.4,0,7.8,0.5,10.3,2c2,1,3.4,3.4,3.4,6.8
	c0,2.9-1.5,4.4-4.4,5.9c-2,0.5-4.4,1.5-7.8,2l-7.3,0.5c-7.8,1-14.2,2.9-18.1,4.9c-7.3,4.4-11.2,11.7-11.2,21.5
	c0,7.8,2.4,13.2,6.8,17.6c4.4,3.9,10.3,5.9,17.6,5.9c5.4,0,10.8-1.5,15.2-3.9c3.9-2,6.8-4.9,9.8-7.8c0,2,0.5,3.4,0.5,4.9
	c0.5,1.5,0.5,2.9,1.5,4.4h22.5V537C593.6,535.9,592.6,534.9,591.6,533.9z"/>
<path class="st0" d="M629.7,525.1c-0.5,0-1,0-1.5,0c-4.4,0-6.8-0.5-7.8-1c-0.5-0.5-1-2.9-1-5.9v-41.6h12.7v-14.7h-12.7v-22l-19.6,22
	v14.7V525c0,4.9,1,8.8,3.4,10.8c2.9,2.9,7.8,4.9,16.1,5.4c12.7,0.5,17.1-0.5,17.1-0.5C633.7,535.9,631.2,531,629.7,525.1z"/>
<path class="st0" d="M686.5,509c0,6.8-2,11.7-5.9,14.2c-3.9,2.9-7.8,3.9-12.7,3.9c-2.9,0-5.4-0.5-7.3-2.4s-2.9-4.4-2.9-7.8
	c0-3.9,2-6.8,4.9-8.8c2-1,5.4-2,9.3-2.9l4.9-1c2.4-0.5,4.4-1,5.4-1.5c1.5-0.5,2.9-1,3.9-2L686.5,509z M708,533.9c-0.5-1-1-2.9-1-5.4
	c0-3.4,0-6.8,0-9.3V483c0-9.3-3.4-16.1-10.3-19.6c-6.8-3.4-14.7-5.4-23-5.4c-13.2,0-22.5,3.4-28.4,10.3c-3.4,4.4-5.4,10.3-5.9,17.1
	h20c0.5-2.9,1.5-5.4,2.9-7.3c2-2.4,5.4-3.4,10.3-3.4c4.4,0,7.8,0.5,10.3,2c2,1,3.4,3.4,3.4,6.8c0,2.9-1.5,4.4-4.4,5.9
	c-2,0.5-4.4,1.5-7.8,2l-6.8,1c-7.8,1-14.2,2.9-18.1,4.9c-7.8,4.4-11.2,11.7-11.2,21c0,7.8,2.4,13.2,6.8,17.6
	c4.4,4.4,10.3,5.9,17.6,5.9c5.4,0,10.8-1.5,15.2-3.9c3.9-2,6.8-4.9,9.8-7.8c0,2,0.5,3.4,0.5,4.9c0.5,1.5,0.5,2.9,1.5,4.4h22.5v-2.9
	C709.9,535.9,708.9,534.9,708,533.9z"/>
<path class="st0" d="M725.1,482.1c0-7.8,5.9-13.2,17.6-13.2c11.2,0,19.1,4.4,21,16.1h9.3c-2-17.6-13.2-24.4-29.8-24.4
	c-17.1,0-27.4,9.3-27.4,22.5c0,30.3,49.4,14.7,49.4,36.7c0,7.8-5.9,14.2-19.1,14.2c-13.7,0-20-4.9-23-18.1h-8.8
	c0.5,14.7,11.2,25.9,29.3,25.9s31.3-7.8,31.3-22.5C774.9,489.9,725.1,503.1,725.1,482.1z"/>
<path class="st0" d="M854.1,482.1c0-7.8,5.9-13.2,17.6-13.2c11.2,0,19.1,4.4,21,16.1h9.3c-2-17.6-13.2-24.4-29.8-24.4
	c-17.1,0-27.4,9.3-27.4,22.5c0,30.3,49.4,14.7,49.4,36.7c0,7.8-5.9,14.2-19.1,14.2c-13.7,0-20-4.9-23.5-18.1h-8.8
	c0.5,14.7,11.2,25.9,29.3,25.9s31.3-7.8,31.3-22.5C904,489.9,854.1,503.1,854.1,482.1z"/>
<path class="st0" d="M833.6,463l-24.4,66l-24.9-66h-9.8l29.8,77.7v0.5l-7.8,21h9.3l37.2-99.7h-9.3L833.6,463L833.6,463z"/>
<path class="st0" d="M518.8,459.1c-6.4,0-11.2,2-15.2,4.9c-2.4,2-5.4,5.4-8.3,10.8v-13.7h-19.6v78.7h20.5v-38.1
	c0-6.4,0.5-10.8,2.4-13.7c2.9-5.4,8.3-7.8,16.6-7.8c0.5,0,1.5,0,2.4,0c0.5,0,2,0,2.4,0v-21c-0.5,0-0.5,0-0.5,0
	C519.3,459.1,518.8,459.1,518.8,459.1z"/>
<path class="st0" d="M904,469.4c-2,0-3.9-2-3.9-3.9s2-3.9,3.9-3.9c2,0,3.9,2,3.9,3.9C907.9,467.9,906,469.4,904,469.4z M904,461.1
	c-2.9,0-4.9,2-4.9,4.9s2,4.9,4.9,4.9s4.9-2,4.9-4.9S906.9,461.1,904,461.1z"/>
<path class="st0" d="M904.5,465.5h-1V464h1c0.5,0,0.5,0,0.5,0.5S904.5,465.5,904.5,465.5z M905,466c0.5-0.5,0.5-0.5,0.5-1
	s-0.5-1.5-1.5-1.5h-2v4.4h1v-2h1c0.5,0,0.5,0.5,0.5,0.5c0,0.5,0,0.5,0,1h1c0-0.5,0-0.5,0-1C906,466.5,906,466,905,466z"/>
<path class="st0" d="M291,461.1L190.7,377L90.5,461.1l46.9,39.1l-46.9,39.1l100.2,84.1L291,539.8l-47-39.1L291,461.1z M186.8,543.2
	v66l-78.7-66H186.8z M108.1,535.4l35.7-29.8l35.7,29.8H108.1z M195.1,543.2h78.7l-78.7,66L195.1,543.2L195.1,543.2z M195.1,390.7
	l78.7,66h-78.7L195.1,390.7L195.1,390.7z M186.8,456.7h-78.2l78.2-66V456.7L186.8,456.7z M186.8,465v66l-78.7-66H186.8z M202.5,465
	h71.4l-35.7,29.8L202.5,465z M273.8,535.4h-78.7v-66L273.8,535.4z"/>
</svg>
