<?xml version="1.0" encoding="utf-8"?>
<!-- Generator: Adobe Illustrator 27.9.0, SVG Export Plug-In . SVG Version: 6.00 Build 0)  -->
<svg version="1.1" id="레이어_1" xmlns="http://www.w3.org/2000/svg" xmlns:xlink="http://www.w3.org/1999/xlink" x="0px"
	 y="0px" viewBox="0 0 1000 1000" style="enable-background:new 0 0 1000 1000;" xml:space="preserve">
<style type="text/css">
	.st0{fill:#FFFFFF;}
</style>
<g>
	<path class="st0" d="M599.3,445c1.5,2.4,3.8,3.7,7.9,3.7c10.2,0,18.4-6.9,20.8-18c2.8-13.5-1.7-25.4-10.6-33.4
		c-8.7-7.7-21.4-11.3-37.1-11.3c-39.4,0-73,28.1-87.5,81.3c-4.7,17.2-6.1,32.3-5,45.3c-4.3,7.3-8.1,11.6-13.6,15.6
		c-4.4,3.3-7.2,3.1-9,1.8c-1.3-1-1.8-3.3-1.2-8.3c2-16.2,10-37.7,11.4-50.6c0.7-6.3-1.9-11.2-10.6-11.2c-14.8,0-24.8,9.4-42.6,41
		c3.3-12.9,6.7-24.7,8.3-30c2.1-7-1.2-9.6-9.4-9.6c-8.9,0-13.4,3.5-16.8,14.9c-2.8,9.2-8.2,32.7-9.7,39.2
		c-2.1,9.4-11.4,17.7-16.8,16.5c-2.6-0.6-3.4-3.4-3.1-8.6c0.8-14.7,10.5-44.8,12.7-53.5c1.3-5.5-1.2-8.5-9.1-8.5
		c-9,0-14.1,3-18.2,14.7c-1.8,5.2-4.1,13.7-6.1,20.6c-3.3,11.5-5.7,21.2-8.5,26.8c-3.2,6.4-6.9,8.9-9.6,8.3c-5.1-1-5.3-8.4,0.3-29.8
		c3.2-12.5,7.9-26.8,9.2-32.3c1.3-5.4-1-8.5-9.2-8.5c-10.1,0-14.4,4.4-18.1,14.8c-3.3,9.1-7.5,24.2-10,36.7
		c-2.9,14.7-3,25.4,0.2,32.8c3.2,7.4,9.5,11,17.1,11c7.2,0,16.3-2,26.2-15.5c1.6,7.6,6.5,15.5,17,15.5c8.2,0,17.1-4.9,24.6-15.1
		c0.6,10.1,6,13.7,12.6,13.7c4.6,0,8.2-1.9,10.4-7.9c1.7-4.5,4-10,6.5-15.2c6.3-13.2,15-27,23-37.1c-7.8,22.3-9.5,39.6-7.2,48.6
		c2.1,8,7.8,13,17.1,13c8.2,0,17.5-4.7,26.7-13.4c3.5-3.3,6.9-6.9,9.9-10.8c8.2,22,26.7,34,50.3,34c12.8,0,25-3.3,35.7-12.9
		c-6.2,25-11.6,47.4-15.5,63.1c-1.4,5.8,1.6,9.8,10.2,9.8c12.8,0,16.2-7.3,17.9-14.4c3.4-13.7,21-85.4,27.8-112.9c1-3.9,0.5-6-1-7.8
		c-1.4-1.7-4.4-2.6-8.3-2.6c-11.3,0-16.5,5.1-19.8,14c-0.2,0.7-1.3,3.2-1.5,3.8c-8.9,25-25.6,35.5-40.5,35.5
		c-26.3,0-36.1-27.5-25.3-69.4c9.6-37.5,31.2-63.5,57.7-63.5c16.1,0,25.1,10.8,20.1,26.2C598.3,439.9,598,442.7,599.3,445z"/>
	<path class="st0" d="M795.9,528.5c-5.4,4.9-9.1,4.7-10.9,3.6c-4.1-2.5-1.6-14.8,2.8-32.9c7.7-31.6,18.6-77.3,28.2-114.8
		c1-3.9,0.9-6.2-0.5-7.8c-1.6-1.9-4.5-2.7-9-2.7c-5.5,0-9.1,1.2-12.1,4.3c-2.6,2.6-4.5,6.5-5.9,12.3c-4.8,19.1-14,56.7-19.1,77.4
		c-4.9-5.9-12.1-8.7-20.1-8.7c-3.1,0-6.2,0.5-9.2,1.5c-0.2,0.1-0.4,0.1-0.5,0.2c-0.2,0.1-0.4,0.2-0.6,0.2c-0.1,0.1-0.3,0.1-0.4,0.2
		c-14.7,5.7-24.7,15-38.7,16.9c-4.4-12.1-14.3-18.9-28.2-18.9c-23.9,0-41.4,18.2-46.9,48.6c-5.5,30.4,7,48.6,29.4,48.6
		c23.9,0,41.4-18.2,46.9-48.6c0.8-4.5,1.2-8.7,1.3-12.6c3.8-0.9,7.5-2.1,11.1-3.5c-1.6,4.5-2.9,9.3-4,15.2
		c-6.3,33.3,8.8,49.5,26.3,49.5c8.5,0,18.7-3.9,26-14.2c2.6,10.1,9.1,14.1,16.9,14.1c8.6,0,16.1-4.2,21.3-9.2
		c6.6-6.3,10.3-14,6.7-18.3C804.1,526,800,524.8,795.9,528.5z M675.8,507.1c-3.2,16.3-10.1,25.6-18,25.6c-7.4,0-11.4-9.3-8.2-25.6
		c2.7-13.4,7.8-22.1,14-24.7c0.7,6,4.9,11.6,13.3,13.9C676.9,499.4,676.6,503,675.8,507.1z M760.4,507c-3.2,16-10,25.6-18.1,25.6
		c-7.8,0-11.2-9.8-8.1-25.6c3.2-16.3,10.2-25.6,18.1-25.6C759.6,481.4,763.6,490.7,760.4,507z"/>
	<path class="st0" d="M251.3,385.1c-31.7,0-53.3,16.5-60.4,36.6c-7.2,20.5-1.3,37.2,12.6,47.8c17.6,13.4,39.9,18.5,54.6,28.4
		c9.2,6.2,14.1,15.5,10.1,27.5c-3.7,11-16.8,20-38.9,20c-31.2,0-45.5-18.8-35.3-38.5c2-3.8,2.6-7.3,1.1-9.9c-1.6-2.9-4.8-4-8.5-4
		c-11.9,0-21.4,8.6-23.8,22.2c-4.5,25.3,18.5,52.7,67.4,52.7c31.6,0,58.6-11.2,66.7-39.2c7-24.3-1.7-41-15.5-50.9
		c-17.6-12.8-39.8-17.8-53.8-27.2c-9-6.1-13.2-14.2-9.2-24.7c4-10.8,16.6-18.2,31.5-18.2c20.6,0,31.3,12.1,26.3,25.8
		c-1.8,5-2.6,8-1.5,10.4c1,2.4,3.4,4.6,8.1,4.6c9.3,0,17.7-5.7,20.6-16.3C310.5,406.3,286.6,385.1,251.3,385.1z"/>
	<path class="st0" d="M829.4,530C829.3,530,829.3,530,829.4,530c-3.7,0-7.1,1.5-9.7,4.1c-2.6,2.7-4.1,6.1-4,9.8
		c0.1,7.1,5.7,12.6,12.9,12.6l0,0c3.7,0,7.2-1.4,9.8-4.1c2.6-2.6,4-6.1,3.9-9.8C842.1,535.6,836.5,530,829.4,530z"/>
</g>
</svg>
