<?xml version="1.0" encoding="utf-8"?>
<!-- Generator: Adobe Illustrator 27.9.0, SVG Export Plug-In . SVG Version: 6.00 Build 0)  -->
<svg version="1.1" id="레이어_1" xmlns="http://www.w3.org/2000/svg" xmlns:xlink="http://www.w3.org/1999/xlink" x="0px"
	 y="0px" viewBox="0 0 1000 1000" style="enable-background:new 0 0 1000 1000;" xml:space="preserve">
<style type="text/css">
	.st0{fill:#FFFFFF;}
</style>
<path class="st0" d="M145.2,394.4c-0.3,0.5-0.4,15.5-0.3,33.1l0.3,32.1l38.6,0.4l38.6,0.4l0.3,72.7l0.2,72.7l7.7-0.3l7.6-0.3
	l0.1-81.2c0-49.7-0.3-81.7-0.8-82.4c-0.6-0.8-9.5-1.1-38.9-1.1h-38.1v-27.8l3.3-0.6c1.8-0.3,157.4-0.5,345.8-0.5h344.1
	c1.3,0,1.5-1.1,1.5-9.2v-9.2H500.4C216.7,393.2,145.4,393.5,145.2,394.4L145.2,394.4z"/>
<path class="st0" d="M267.9,441.3c-0.9,0.4-1.1,17.4-1.1,81.1c0,44.4,0.3,81.2,0.5,82c0.4,1.1,2,1.4,7.9,1.4h7.4l0.2-72.7l0.3-72.6
	l30.5-0.3L344,460l0.3,63.4l0.3,63.5l2.2,4.4c2.4,4.9,10.1,13.2,13.5,14.5c1.5,0.5,31.8,0.9,81,0.9c78.5,0.1,78.6,0.1,81.6-1.8
	c4.1-2.5,8.7-8,11.3-13.7l2.3-4.8V441.5l-2-0.4c-1.1-0.4-4.4-0.4-7.2-0.3l-5.3,0.3l-0.4,68.5c-0.4,75.4-0.2,71.5-5.8,75.9
	c-2.4,1.8-2.6,1.8-74.7,1.8c-80.3,0-75.1,0.4-79.1-5.8l-1.9-3v-68.4c0-61.6-0.2-68.4-1.4-68.9C356.8,440.6,269.5,440.6,267.9,441.3
	L267.9,441.3z M560.2,441.9c-0.7,0.9-1,22.9-1,81.1c0,44,0.3,80.6,0.5,81.4c0.4,1.1,2.1,1.3,7.9,1.3h7.4l0.1-69.2
	c0-38,0.4-69.8,0.7-70.7c0.7-1.8,1.4-0.9,21.6,28.4c6.2,9,8.6,12.5,20.2,29c4.9,7,14.4,20.6,21.1,30.3c6.8,9.7,12.5,17.7,12.7,18
	c0.3,0.3,2,2.8,4,5.7c1.9,2.9,7.2,10.5,11.8,16.9l8.2,11.7l13.3-0.3l13.3-0.3l14.7-22c8.1-12.1,29.1-43.4,46.5-69.6
	c17.6-26.2,32.1-47.6,32.5-47.6s0.7,31.4,0.7,69.7v69.6l6.9,0.5c3.7,0.2,7.2,0.1,7.6-0.4c0.6-0.4,0.9-27.3,0.8-81.8
	c-0.1-44.6-0.3-81.3-0.3-81.8c-0.1-0.4-4.3-0.6-9.4-0.6c-7.9,0-9.6,0.3-10.5,1.5c-0.7,0.9-12.6,18.5-26.4,39.3
	c-13.9,20.7-25.5,37.9-25.7,38.2c-0.3,0.3-10.3,15.2-22.3,33.1l-21.9,32.8h-13.4l-8.3-12c-4.6-6.6-10.1-14.6-12.3-17.7
	c-2.2-3.2-12.1-17.5-22-31.7c-33.5-48.2-42.4-61-45.9-66c-2-2.8-5.7-8-8.3-11.7l-4.7-6.6h-9.5C563.8,440.7,560.9,441,560.2,441.9
	L560.2,441.9z M840.7,442.6c-0.3,0.6-0.4,37.5-0.3,81.9l0.3,80.8l7.3,0.3l7.2,0.3V441.5h-7C843.4,441.5,841,441.9,840.7,442.6
	L840.7,442.6z M198.6,580.9c0.8,0.2,2.2,0.2,3.1,0c0.8-0.3,0.1-0.4-1.6-0.4S197.7,580.6,198.6,580.9z"/>
</svg>
