<?xml version="1.0" encoding="utf-8"?>
<!-- Generator: Adobe Illustrator 27.9.0, SVG Export Plug-In . SVG Version: 6.00 Build 0)  -->
<svg version="1.1" id="레이어_1" xmlns="http://www.w3.org/2000/svg" xmlns:xlink="http://www.w3.org/1999/xlink" x="0px"
	 y="0px" viewBox="0 0 1000 1000" style="enable-background:new 0 0 1000 1000;" xml:space="preserve">
<style type="text/css">
	.st0{fill:#FFFFFF;}
</style>
<path class="st0" d="M257.6,430.3L202,399l-54.8,31.3V399l54.8-32.1l54.8,32.1L257.6,430.3L257.6,430.3z"/>
<path class="st0" d="M147.1,456.9h29v69.7c0,18,13.3,26.6,25.9,26.6s25.9-9.4,25.9-27.4v-69.7h29v72.1c0,16.5-5.5,29.8-15.7,38.4
	c-10.2,8.6-23.5,13.3-40,13.3c-15.7,0-29-3.9-39.2-13.3c-10.2-8.6-15.7-21.2-15.7-37.6C147.1,529.8,147.1,456.9,147.1,456.9z
	 M506.7,543.9c-8.6,7.8-18.8,11.8-29.8,11.8c-20.4,0-34.5-11.8-36-29.8h93.2c0,0,0.8-6.3,0.8-11.8c0-17.2-5.5-31.3-16.5-43.1
	c-11-11.8-25.1-17.2-42.3-17.2c-18,0-33.7,5.5-45.4,17.2c-11.8,11.8-18,26.6-18,46.2v0.8c0,18.8,6.3,33.7,18,44.7
	c11.8,11,27.4,17.2,46.2,17.2c21.9,0,39.2-8.6,52.5-23.5C527.9,556.4,506.7,543.9,506.7,543.9z M451.9,485.9
	c6.3-4.7,14.1-7.8,23.5-7.8c8.6,0,14.9,2.4,21.2,7.8c5.5,4.7,8.6,11,9.4,17.2h-64.2C441.7,496.1,445.6,490.6,451.9,485.9
	L451.9,485.9z M796.6,596.4c-11.8,27.4-24.3,36.8-43.1,36.8h-13.3v-25.9h10.2c6.3,0,12.5-2.4,18-15.7l5.5-13.3l-49.4-121.4h29
	l35.3,87.7l36-87.7h29L796.6,596.4L796.6,596.4z M369.6,410.7v57.2c-9.4-8.6-24.3-13.3-38.4-13.3c-17.2,0-31.3,6.3-43.1,18
	c-11.8,11.8-17.2,26.6-17.2,44.7c0,18.1,5.5,32.9,17.2,44.7c11.8,11.8,25.9,18,43.1,18c19.6,0,32.1-7.8,38.4-13.3v11h28.2V411.5
	L369.6,410.7L369.6,410.7z M361,543.1c-7.1,7.1-15.7,10.2-25.9,10.2s-18.8-3.9-25.9-10.2c-7.1-7.1-10.2-15.7-10.2-25.9
	s3.1-19.6,10.2-25.9c7.1-7.1,14.9-10.2,25.9-10.2s18.8,3.9,25.9,10.2c7.1,7.1,11,15.7,11,25.9C372,527.4,368,536,361,543.1z
	 M681.4,454.6c-21.9,0-32.9,8.6-40.7,18c-3.1-6.3-11.8-18-32.1-18c-17.2,0-27.4,8.6-32.1,14.9V457h-28.2v119.9h28.2V508
	c0-16.5,10.2-28.2,23.5-28.2s21.2,10.2,21.2,26.6v70.5h28.2V508c0-16.5,9.4-28.2,23.5-28.2c13.3,0,21.2,10.2,21.2,26.6v70.5h29
	v-74.4C722.9,471.8,706.5,454.6,681.4,454.6L681.4,454.6z"/>
</svg>
