<?xml version="1.0" encoding="utf-8"?>
<!-- Generator: Adobe Illustrator 23.0.0, SVG Export Plug-In . SVG Version: 6.00 Build 0)  -->
<svg version="1.1" id="레이어_1" xmlns="http://www.w3.org/2000/svg" xmlns:xlink="http://www.w3.org/1999/xlink" x="0px"
	 y="0px" viewBox="0 0 1000 1000" style="enable-background:new 0 0 1000 1000;" xml:space="preserve">
<style type="text/css">
	.st0{fill-rule:evenodd;clip-rule:evenodd;fill:#FFFFFF;}
</style>
<g id="logo-sketch">
	<g id="text" transform="translate(49 150)">
		<g id="Mask">
			<path id="path-1" class="st0" d="M594.3,479.9c5.4,0,9,3.1,9.3,7c0,2.8-2.3,5.2-5.2,5.2c-6.2,0-4.7-4.7-7.2-4.7
				c-5.7,0-10.3,8.8-14.7,18.3l-0.8,1.6l-1,2.3l-1,2.1c-2.3,4.7-3.4,5.4-5.2,5.4c-4.4,0-5.2-11.6-7-16.8
				c-3.6,7.8-10.9,16.8-22.2,16.8c-6.7-0.3-13.2-3.6-13.2-14c0-11.6,7.8-19.9,15.5-19.9c5.9,0,9.8,6.2,9.8,10.3
				c-0.3,11.4-15.5,11.6-15.5,14s3.9,3.1,6.2,3.1c9.8,0,16.3-12.7,18.6-21.4c0.5-1.6,1.8-4.7,4.7-4.7c3.1,0,1.6,19.1,5.9,19.1
				C574.4,503.7,578,479.9,594.3,479.9z M441.3,453.8c5.2-0.3,9.3,4.7,9.8,12.4c1,20.7-5.9,28.9-9.6,36.4c0.8,2.8,5.7,7.8,10.3,7.8
				c1.8,0,3.9-0.8,4.4-1.6c-0.5-1.3-0.8-2.6-0.8-4.9c0-11.9,8-21.7,14.7-21.7c5.4,0,8.5,7,8.5,11.6c0,5.4-4.7,9.8-11.6,14
				c1.3,1.3,3.6,2.1,5.4,2.1c9.8,0.3,15.2-11.6,19.1-22.2c0.8-2.1,2.1-4.9,4.4-4.9c4.1,0,5.7,26.9,12.7,26.9c2.8,0,5.4-5.9,5.4-10.6
				c0.3-3.6-1-3.9-1-8.8c0-5.4,2.8-10.1,7-10.1c2.6,0,3.4,2.3,3.4,5.2c-0.3,10.9-8.3,31-20.2,31c-8.8,0-8-15-11.1-15
				c-3.4,0-8.3,15-25.6,15c-2.8,0-5.9-1.3-8.3-4.1c-4.1,2.8-7.8,3.9-11.6,3.9c-6.5,0-9.3-6.5-11.9-6.5c-3.1,0-6.7,6.5-17.1,6.5
				c-8.3,0-9.8-10.9-12.7-10.9c-2.6,0-6.7,10.9-11.1,10.9c-3.6,0-5.7-4.4-7.8-9l-0.5-1.3c-2.1-4.4-3.9-8.3-7-8.3
				c-2.3,0-7.2,4.4-12.1,8.8l-1.3,1.3c-4.9,4.4-9.8,8.8-11.9,8.5c-1.8-0.3-2.6-1.3-2.3-3.1c0.3-2.3,2.6-8.8,3.4-11.6
				c1.6-5.2,2.8-10.9,3.6-12.7c0.5-1.8,2.6-3.1,4.1-2.8c0.8,0,1,1.3,1.3,2.6c0.8,4.1,2.1,8.5,3.4,8.5c2.3,0,10.6-15,15.2-15
				c5.9,0,6.5,23.8,14.2,23.8c2.6,0,4.4-3.1,6.2-6.7c0.3-6.2,2.1-15.2,7.2-15.2c3.6,0,5.2,8,2.6,15c-0.3,8.3,5.4,10.3,9,10.3
				c2.6,0,7-0.8,10.6-6.2c-2.1-4.4-3.4-13.4-3.6-16.5C427.6,469.6,434.1,454.1,441.3,453.8z M341.8,459c3.1-1,4.4,0.5,5.7,4.1
				c1.6,5.4,1.6,12.7,1,22.7c-0.8,14-8,30.8-25.8,30.2c-15.5-0.3-22.2-10.1-22.7-24.8c-0.3-7,0.3-14,3.4-23.8c1.8-5.2,3.1-7,8-8
				c3.9-0.8,3.4,3.1,2.6,7.8c-2.1,10.1-2.8,15-2.3,26.6c0.8,12.1,6.5,17.1,12.7,17.1c9.6,0.3,13.7-7.2,15.5-18.3
				c1.3-8.8,0.3-12.9-0.5-15.8c-0.5-1.6-2.1-4.9-2.3-7.5C335.9,463.6,339,459.7,341.8,459z M467.7,490.2c-1.6-0.3-5.2,1.6-5.2,7
				c0,4.4,1.6,6.5,2.3,7.2c5.2-1.6,6.5-5.7,6.2-9C471,492.6,469.5,490.2,467.7,490.2z M539.5,490c-6.7,0-6.2,10.6-5.2,12.9
				c4.9-0.8,8.3-3.6,9-6.2S543.1,490,539.5,490z M441.8,463.9h-0.3c-3.4,0.3-4.9,10.9-4.4,22c0.5,7.2,1.6,8.3,2.6,8.3
				c1.8,0,6.5-13.2,5.9-23.5c-0.3-4.7-1.6-7-4.1-6.7L441.8,463.9L441.8,463.9z M411.8,455.9c3.1,0,5.2,1.8,5.4,4.7
				c0.5,3.9-2.3,8-6.2,8c-3.4,0-4.9-2.3-5.4-5.2C405.4,459.2,408.5,455.9,411.8,455.9z"/>
		</g>
	</g>
	<path id="fish" class="st0" d="M526.5,549.5c-1-1.8-0.3-4.9-3.1-4.9c-1.8,0-2.1,1.6-2.3,2.8c-3.9-1.3-7.2-1.8-10.3-1.8
		c-2.1,0-3.9,0.3-5.7,0.8c-1-1.8-5.7-5.4-9.6-6.7c-1.6,8.5-9,15-20.2,16c-0.5,5.4-4.9,7-8.3,7c-2.3,0-6.2-0.8-6.5-1.8
		c-1.3-8-7.2-12.4-10.1-13.4c0,0.8,0.3,1.8,0.3,2.6c0,6.7-4.7,10.9-13.2,10.9c-1.3,0-3.1,0-4.4-0.3c9.8,10.9,16.8,7,21.2,9
		c5.9,2.6,10.9,11.1,30,11.1c7,0,14-2.8,18.6-5.7c0.8,2.8,3.6,5.4,8.5,5.4c8,0,12.7-2.6,12.7-4.7c0-0.5,0-1.3-1.6-1.3
		c-1.3,0-1.3,0.3-5.7,0.3c-5.2,0-13.4-2.1-17.3-11.1c-0.8-1.6-1.8-1.6-2.1-1.6c-2.6,0-6.7,9.3-23,9.3c-7,0-10.1-2.6-10.1-3.1
		c0,0,0-0.3,0.3-0.3c0.8,0,3.1,0.3,6.2,0.3c10.3,0,18.6-4.9,23.8-10.3c1.8-2.1,2.6-2.3,4.1-2.3c1.3,0,2.6,1,3.4,2.8
		c2.3,5.9,7.8,10.9,13.4,10.9c7.8,0,8-13.4,9.8-14.2c0.3,0,0.8,0.3,1,0.3c1,0,2.3-0.8,2.3-2.3C529.1,551.1,526.7,550.6,526.5,549.5
		L526.5,549.5z M513.6,559.6c-2.1,0-3.6-1.6-3.6-3.6s1.6-3.9,3.6-3.9c2.1,0,3.6,1.8,3.6,3.6C517.4,558.1,515.6,559.6,513.6,559.6z"
		/>
	<path id="chilli_pepper" class="st0" d="M486.7,523.7c1.8,0,2.6,1.6,2.8,3.1c0.5-0.5,1.3-0.8,2.1-0.8c1.8,0,2.8,1.3,2.8,2.8
		c0,1-0.5,1.8-1.3,2.3c1,0.5,1.8,1.3,1.8,2.3c0,1.3-1,2.3-2.6,2.3c-1.3,0-2.3-1.6-3.6-1.6c-0.8,0-1.8,0.3-2.1,0.8
		c0.5,1.3,0.8,2.3,0.8,3.6c0,6.7-9,12.1-18.6,12.1c-9.3,0-12.9-5.4-12.9-7.8c0-0.5,0.3-0.8,1-0.8c1.6,0,1.8,0.5,6.2,0.5
		c10.1,0,6.5-12.9,16-12.9c1.3,0,4.1,0.8,5.2,2.6c0.8-0.8,1-1.8,1-2.6c0-1.6-1-2.6-1-3.9S485.4,524,486.7,523.7z"/>
	<path id="swirl" class="st0" d="M426.7,517c11.4,0,20.2,9.6,20.2,23.3c0,6.2-3.4,15.2-17.1,15.2c-16.3,0-26.1-13.7-26.1-22.5
		c0-7.5,4.9-12.1,8-12.9c-3.4,13.4,4.1,26.4,19.1,26.4c7.5,0,11.1-3.6,11.1-10.1c0-7.2-4.9-14.2-13.4-14.2c-4.1,0-7.2,2.3-7.2,5.7
		c0,5.4,4.7,8.8,9.6,8.8c3.1,0,5.2-1.3,5.2-3.4c0-0.3,0-0.8-0.3-1c-0.3,0.3-1,0.3-2.1,0.3c-3.9,0-7-2.1-7-4.4c0-1.8,1.3-2.8,2.8-2.8
		c5.7,0,9.6,5.7,9.6,9.8s-3.1,7.8-8.3,7.8c-11.1,0-16-9-16-15C415.1,521.4,420.5,517,426.7,517z"/>
	<g id="packaging">
		<path class="st0" d="M562.9,547.5c-2.3,1.8-8,5.9-17.6,5.9c-5.2,0-7.2-1.6-8-1.6c-1,0-2.1,1-3.1,2.1c-2.3,2.6-5.2,7.2-5.2,12.7
			c0,3.6,2.8,7.2,8.3,7.2c17.6,0,30.5-10.9,30.5-19.4C568.1,549.5,565,547.5,562.9,547.5z M553.9,564.3l-10.1,2.8
			c0.8-2.1,1.3-4.4,1.3-6.7c0-0.8,0-1.3-0.3-2.1h1.3c7.5,0,10.6-2.8,11.1-2.8s1,0.3,1,1.8C558.3,559.4,557.2,562.2,553.9,564.3
			L553.9,564.3z"/>
		<path class="st0" d="M547.9,549.5c4.1,0,7.8-1,10.1-3.1c0.8-0.5,1-1.6,1-2.6v-2.1c0-2.6-4.1-4.1-9.8-4.1c-6.7,0-10.3,3.1-10.3,4.4
			v4.1C538.9,547.7,542.8,549.5,547.9,549.5L547.9,549.5z"/>
	</g>
	<path id="clothes" class="st0" d="M579.5,505.6c-13.7,0-10.1,11.6-26.1,15.2c-2.8,0.5-3.9,1.6-3.9,2.8c0,2.3,1.3,5.4,3.1,5.4
		c7,0,17.6-14.2,19.6-14.2c0.8,0,1.6,0,1.6,2.1c0,5.2-15,11.9-15,15.5c0,2.1,5.2,6.7,10.6,6.7c7.5,0,14.2-15,15.8-15
		c1.3,0,1.6,0.8,1.6,1.8c0,4.1-5.2,12.1-14,15.5c-1.8,0.8-2.1,1.6-2.1,2.1c0,2.1,2.3,4.9,4.4,4.9c2.6,0,19.9-15,19.9-26.9
		C595.5,510.5,586.9,505.6,579.5,505.6L579.5,505.6z M585.7,518.5c-1,0-2.1-0.3-2.6-0.8c-1.3-0.5-3.4-2.3-3.4-4.9
		c0-2.6,1.3-3.4,2.6-3.4c3.9,0,8.3,3.4,8.3,6.2C590.6,518,588.5,518.5,585.7,518.5z"/>
	<path id="spoon" class="st0" d="M456.5,524.7h-2.3c-0.8,0-2.1-0.3-2.8-0.8c-1.6-1.3-2.1-8.3-4.7-12.4c-3.1-4.7-6.5-5.9-10.9-5.9
		c-3.1,0-6.7,1.8-6.7,4.4c0,1.6,0.8,2.6,6.7,4.1c7.5,1.8,11.1,5.9,11.9,10.6c0.8,4.7,1.6,8.3,3.4,10.1c2.3,2.6,6.7,4.9,10.9,4.9
		c3.4,0,5.9-1,5.9-4.1C467.6,532.2,462.9,524.7,456.5,524.7z M461.4,534.8c-2.8,0-7-2.8-7-4.7c0-1.3,1.3-2.1,2.3-2.1
		c2.3,0,6.5,2.8,6.5,5.2C463.2,534,462.7,534.8,461.4,534.8z"/>
	<g id="wave">
		<path class="st0" d="M512.8,515.2c-1.8,0-1.8,2.8-1.8,3.9s0,1.3-0.8,1.3s-1.3-0.3-2.1-0.3c-0.5,0-1,0.5-1,1.3c0,3.9,4.9,7,9.8,7
			c6.5,0,9.6-2.8,11.4-2.8c0.8,0,1,0.8,1,1.3c0,1-1,2.3-1,2.8c0,1.6,3.1,0.3,3.1,2.1c0,2.3-3.9,4.1-9.8,4.1
			c-11.6,0-19.1-8-19.1-15.5c0-14,15-9.6,15-15c0-1.8-1.8-2.8-3.1-2.8c1.6-2.1,3.6-2.3,5.7-2.3c1.6,0,3.1,0.3,4.4,0.3
			c1.8,0,3.6-0.8,3.6-2.8c0-1.3-1-2.8-5.4-3.4c0.5-2.8,6.5-1.3,6.5-3.9c0-1.8-3.4-3.1-7.5-3.1c-16,0-27.4,13.2-27.4,27.4
			c0,12.9,9.3,27.1,26.6,27.1c16.8,0,24.8-13.7,24.8-24c-3.1,2.8-11.4,3.6-15.5,3.6C518,521.6,514.6,515.2,512.8,515.2z"/>
		<path class="st0" d="M526,517c2.6,0,4.4-2.1,4.4-4.4c0-3.6-3.6-7-9-7c1,1,1.3,1.8,1.3,2.8c0,1.3-0.8,2.8-0.8,4.4
			C521.8,515.2,523.4,517,526,517z M552.1,499.4c0.8,1,1,2.1,1,3.1c0,2.6-1.8,5.2-1.8,7.8c0,3.1,2.3,5.7,5.9,5.7
			c3.9,0,6.5-3.1,6.5-6.7C563.4,504.1,559,499.9,552.1,499.4z M533.5,489.6c1.3,1.6,1.8,3.1,1.8,4.9c0,4.1-3.1,8.3-3.1,12.1
			c0,5.2,3.4,8.5,8.3,8.5c5.2,0,8.3-4.4,8.3-9.3C548.7,498.9,543.3,491.4,533.5,489.6z M540.7,504.3c-1.3,0-2.3-1-2.3-2.3
			c0-0.8,0.5-1.8,0.5-2.8c0.3-1.3,0-2.3,0.8-2.3c1.6,0,3.4,2.8,3.4,4.7C543,503,542.2,504.3,540.7,504.3z"/>
	</g>
	<g id="bowl">
		<path class="st0" d="M481,493.2c-4.1-1.6-5.9-3.9-7-8.8c-2.1,2.8-3.1,5.4-3.1,7c0,6.2,8.5,6.2,8.5,10.3c0,2.3-4.4,4.9-10.1,4.9
			c-6.5,0-11.1-1-15.2-5.2c-1-1-1.6-2.1-2.8-2.1c-1.6,0-2.3,2.6-2.3,5.2c0,8.8,8.5,19.4,20.4,19.4c14.7,0,20.7-10.1,20.7-18.3
			C490.3,500.7,489.3,496.3,481,493.2z M476.9,518c-1.3,0-1.6-0.5-1.6-1.8c0-0.8,0.3-2.3,0.3-3.6c0-3.1,1.3-2.8,4.4-4.4
			c2.3-1,3.1-2.3,3.9-2.3s1.6,0.5,1.6,1.8C485.4,512.3,480.2,518,476.9,518z"/>
		<path class="st0" d="M462.1,478.2c-1.6,0-4.1-1.6-6.7-3.6c-2.8,2.8-4.9,6.7-4.9,11.1c0,9,9.6,16.5,18.9,16.5
			c1.6,0,3.1-0.3,4.7-0.5c-5.2-0.5-8.3-4.4-8.3-9c0-5.9,6.7-11.4,6.7-16c0-5.7-7-6.2-7-10.9c0-3.9,6.7-6.7,6.5-12.9
			c0-3.6-3.6-8-8.5-10.6c0.8,1.6,1.3,3.6,1.3,4.9c0,7.2-14,10.3-14,16c0,7.2,13.4,10.1,13.4,13.4
			C464.2,477.4,463.7,478.2,462.1,478.2z"/>
	</g>
	<path id="heart" class="st0" d="M603,482.9c4.7,0,8.3,5.9,8.3,12.9c0,7.5-3.6,15.5-9.8,21.2c0-12.4-15.2-8.5-15.2-17.6
		c0-3.9,2.8-6.5,6.2-6.5c2.8,0,5.2,0.8,7,2.6c-1.6-1.6-2.6-3.9-2.6-5.9C596.8,486.2,598.8,482.9,603,482.9L603,482.9z"/>
	<path id="flower" class="st0" d="M420,495.5c-1.3,0.3-2.3,0.5-3.1,1.3c-0.8-2.8-3.4-5.4-7-4.7c-3.1,0.5-5.4,3.4-4.9,7
		c0,0.5,0.3,1.3,0.5,1.8c0,0-0.5,0-1,0.3c-2.6,0.5-5.7,3.1-5.2,7c0.5,3.4,3.4,5.7,6.7,5.4c1.3-0.3,2.3-0.5,3.1-1
		c0.8,3.1,3.4,4.9,6.7,4.7c3.4-0.5,5.7-3.4,5.4-6.7c0-1-0.3-1.6-0.5-2.1h0.8c3.4-0.8,5.7-3.4,5.4-6.7C426,497.6,423.1,495,420,495.5
		L420,495.5z M413.3,508.2c-2.1,0.3-3.6-1.3-3.9-3.1c-0.3-2.1,1-3.9,3.1-4.1s3.6,1.3,3.9,3.1C416.7,506.1,415.4,507.9,413.3,508.2z"
		/>
	<g id="transformation">
		<path class="st0" d="M587.5,480c0-1.3,3.1-4.4,3.1-5.4c0-0.3-0.3-0.5-0.5-0.5c-1.3,0-5.7,3.4-12.1,3.4c-2.6,0-4.4-0.3-4.4-2.3
			c0-1.8,1.6-3.4,4.1-4.4c2.8-1.3,8.5-1.3,8.5-2.6c0-1-5.4-1-5.4-2.1c0-1.3,2.1-4.4,2.1-5.7c0,0,0-0.5-0.3-0.5c-1,0-3.6,3.1-5.2,3.1
			s-2.8-3.9-4.1-3.9c-0.3,0-0.8,0.3-0.8,1c0,1.6,0.8,4.4,0.8,8.3c0,3.4-1.8,6.2-3.6,6.2c-2.3,0-3.1-2.8-3.1-5.2
			c0-3.4,1.8-7.2,1.8-10.9c0-0.8-0.3-1-0.8-1c-1.3,0-3.4,3.9-4.9,3.9c-1,0-2.8-4.7-4.4-4.7c-0.3,0-0.5,0.8-0.5,1.8
			c0,1.3,0.3,3.1,0.3,3.9c0,1-1.3,1.3-2.8,1.3c-1,0-3.1,0-3.1,0.8s2.1,1.6,3.9,2.8c3.4,2.3,8.8,4.7,8.8,10.1c0,4.9-7,8.3-11.9,9.3
			c-2.3,0.3-4.7,0.8-4.7,1.6c0,1,6.2,1.3,6.2,2.6c0,0.8-2.8,4.4-2.8,5.4c0,0.3,0.3,0.3,0.3,0.3c1,0,4.1-2.6,5.4-2.6
			c1.8,0,1.6,5.4,2.8,5.4c1.6,0,1-8,1.6-10.1c1-3.6,3.6-7.2,5.9-7.2c2.8,0,3.1,4.9,3.1,7.2c0,4.7-3.4,9.6-3.4,11.9
			c0,0.3,0.3,0.5,0.5,0.5c1,0,3.4-3.1,4.7-3.1s4.1,5.2,5.2,5.2c0.5,0,0.8-0.5,0.8-1c0-1.6-0.8-4.1-0.8-5.7c0-1.8,5.9-0.8,5.9-2.1
			c0-0.5-2.6-1.6-4.1-2.6c-3.4-2.1-7.2-6.5-7.2-10.1c0-1.3,0.8-2.3,1.8-2.3c7.2,0,10.3,11.1,11.6,11.1s0.5-4.9,1-5.7
			c0.3-0.3,1-0.5,1.8-0.5c1.3,0,2.8,0.3,3.9,0.3c0.8,0,1,0,1-0.3C593.1,483.4,587.5,481.6,587.5,480L587.5,480z"/>
		<path class="st0" d="M558.8,476.9c0-2.3-10.1-10.1-12.1-10.1c-0.5,0-0.8,0.3-0.8,0.8c0,0.8,0.3,1.8,0.3,2.6c0,1.8-0.8,2.1-2.6,2.1
			c-2.1,0-5.4-0.8-5.4-4.1c0-6.5,12.4-4.9,13.7-10.9c-5.4,0-8-3.6-11.6-3.6c-1.3,0-3.9,0.8-3.9,4.1c0,1,0.3,2.8,0.3,4.4
			s-0.3,2.6-2.1,2.6c-1.6,0-1.8-1.8-1.8-3.9c0-1.8,0.3-3.9,0.3-5.2c0-9.6-10.6-5.7-11.6-13.4c-2.6,4.7-3.4,8-3.4,10.9
			c0,10.1,13.7,9,13.7,16c0,1.8-1.3,2.8-2.6,2.8c-2.3,0-3.9-4.9-7.5-4.9c-1.8,0-3.1,1.3-3.1,4.1c0,2.1,0.5,3.6,0.5,5.7
			c0,4.1-1.8,5.9-3.6,7.8c12.4-1,13.2-10.3,16.8-10.3c1,0,1.6,0.8,1.6,1.3c0,1.6-2.6,4.1-2.6,6.7c0,3.4,3.9,5.2,6.5,5.2
			c3.1,0,4.1-1,4.1-3.1c0-2.3-4.1-5.4-4.1-8c0-1.3,1.3-1.6,3.1-1.6c3.9,0,5.2,0.5,5.2,1.3c0,1-1.6,3.1-1.6,3.6c0,0.3,0.3,1,1,1
			C548.2,481.3,558.8,479,558.8,476.9z"/>
	</g>
	<path id="hair" class="st0" d="M428.3,442c-1.8,3.4-2.3,7.8-2.3,10.3c0,15.8,18.9,30.5,18.9,40.3c0,3.9-2.8,8.5-8,8.5
		c-4.7,0-7.2-3.6-7.2-6.7c0-2.3,1.6-4.4,2.3-4.4c0.3,0,0.3,0.3,0.3,0.8c0,1.3,1,3.1,3.1,2.8c2.1,0,3.1-1.3,3.1-3.1
		c0-7.8-15.5-21.2-15.5-39.5c-0.8,2.1-1.8,4.7-1.8,8.5c0,8.8,6.5,18.1,6.5,26.6c0,3.4-2.6,6.5-5.9,6.5c-3.9,0-5.2-3.1-5.2-4.9
		c0-1.3,0.5-2.6,1-2.6s0.3,2.1,2.3,2.1c2.3,0,3.1-1.6,3.1-4.4c0-7.8-4.4-13.2-4.4-21.2c0-1.3,0-2.6,0.3-3.6c-2.3,2.8-2.6,7-2.6,10.6
		v9.6c0,6.5-3.1,9.3-7,9.3c-2.6,0-4.9-2.1-4.9-5.4c0-0.5,0.3-2.1,0.8-2.1c0.8,0,1.3,2.1,3.4,2.1c4.1,0,4.4-3.9,4.4-11.9
		C412.3,460.4,415.9,449.8,428.3,442L428.3,442z"/>
	<path id="hand" class="st0" d="M402.7,437.4c1.3,0,1.8,1.3,1.8,2.3c0,4.4-5.7,17.3-5.7,20.9c0,0.5,0.3,1,0.8,1c2.3,0,7-10.1,8.5-15
		c0.8-2.6,2.1-3.9,3.1-3.9s1.8,1,1.8,3.1c0,4.9-4.7,16.8-8.8,24.5c-3.1,6.2-8.3,15-8.3,19.9c0,2.6,0.5,5.2,4.1,8.3
		c-5.9-0.3-8.5-1-10.9-5.4c-10.1,19.6,18.6,17.8,8.8,35.4c-1.8-3.1-16-6.5-16-24.8c0-15.8,14.2-25.1,14.2-31.8
		c0-1.3-0.5-2.3-1.8-3.4c-3.1-2.6-3.1-4.7-5.7-4.7c-1.8,0-3.9,4.1-1.8,7.8c0.8,1.3,1.3,2.1,1.3,3.1c0,2.6-4.1,9.6-7,9.6
		s-5.2-7.2-5.2-18.6c0-10.1,2.3-20.4,5.2-20.4c0.8,0,1,0.5,1,1.3c0,1.3-0.3,3.6-0.3,7.8c0,4.4,1,4.7,1.8,4.7
		c3.1,0,2.6-19.4,7.8-19.4c1.3,0,1.6,1.3,1.6,2.6c0,4.4-2.1,10.9-2.1,14.2c0,1.8,0.5,2.3,1.3,2.3
		C394.9,458.6,398.8,437.4,402.7,437.4L402.7,437.4z	">
<animate  accumulate="none" additive="replace" attributeName="fill" begin="o1.begin+4.6s" calcMode="linear" dur="1s" fill="remove" restart="always" values="#1F36C7;#FFC000;#1F36C7">
			</animate>
	</path>
	<path id="plant" class="st0" d="M612.8,462.7c-4.4,0-6.7,7.8-11.1,8c2.6-11.1,13.7-17.1,13.7-27.4c0-11.9-9.8-16-14-18.6
		c-6.7-9.8-11.6-17.6-22.7-17.6c-4.7,0-7.8,0.8-10.9,0.8c-6.2,0-8.3-2.3-8.5-2.3c0,0-0.3,0-0.3,0.5c0,8.8,4.7,28.4,24.3,28.4
		c10.6,0,15-4.1,17.6-4.1s11.1,2.8,11.1,12.9c0,5.4-4.4,11.1-5.9,11.1s-3.1-2.6-3.1-5.2c0-2.8,1.6-8.3,1.6-11.6c0-1.3-0.3-1.8-1-1.8
		c-1.6,0-9.6,5.2-9.6,11.4c0,5.4,8,8.8,11.1,10.3c-3.1,4.9-4.9,8.3-6.2,12.9c0-3.6-3.4-10.6-4.4-13.7c-4.9-14-6.7-16.5-17.3-17.8
		c1.6,5.7,19.6,19.1,19.6,32.8c0,0.8,0,2.1-0.3,2.6c-5.4-16-14.7-19.9-18.1-23.8c-5.4-6.2-2.3-12.1-11.1-15.5
		c0.5,0.8,0.8,1.8,0.8,2.6c0,3.1-1.6,6.7-1.6,9.3c0,9.8,11.1,6.7,17.8,12.1c6.5,5.2,10.1,13.7,12.7,23.3c2.6-4.1,4.1-9.3,8.5-9.3
		c2.8,0,3.9,3.6,3.9,6.5v1.3c4.4-3.9,6.7-10.1,6.7-14.2C615.9,464.5,614.9,462.7,612.8,462.7L612.8,462.7z M595.2,426.3
		c-1,0-2.6-0.5-3.9-0.5c-3.1,0-5.4,4.4-7,4.4c-0.5,0-0.8-0.5-0.8-1c0-1.8,3.1-3.9,3.1-5.2c0-0.8-1.3-1-1.8-1
		c-3.1,0-7.5,4.4-10.1,4.4c-0.5,0-1-0.3-1-0.8c0-1.3,3.4-2.8,3.4-4.1s-1.3-1.3-2.3-1.3c-1.6,0-4.7,0.8-6.5,0.8c-1,0-1.8-0.3-1.8-1
		c0-1.8,5.9-0.8,5.9-2.8c0-1-1.8-3.1-1.8-4.1c0-0.5,0.5-0.8,1-0.8c2.1,0,4.4,5.9,6.7,5.9c1,0,1.3-0.8,1.3-2.1s-0.3-1.8-0.3-2.8
		s0.5-1.3,0.8-1.3c1.6,0,2.8,8.3,7.2,8.3c1.8,0,0.5-5.2,2.3-5.2c1,0,1.3,1.6,1.3,2.3c0.5,5.4,5.4,5.7,5.4,7.8
		C596.2,425.8,596,426.3,595.2,426.3L595.2,426.3z	">
<animate  accumulate="none" additive="replace" attributeName="fill" begin="o1.begin+4.65s" calcMode="linear" dur="1s" fill="remove" restart="always" values="#1F36C7;#00D7C4;#1F36C7">
			</animate>
	</path>
	<path id="particles" class="st0" d="M533.5,414.1c2.1,0,3.6,1.6,3.6,3.4s-1.6,3.4-3.6,3.4c-1.8,0-3.6-1.6-3.6-3.4
		S531.6,414.1,533.5,414.1z M557.2,446.7c-1.8,0-3.6,1.6-3.6,3.4c0,2.1,1.8,3.4,3.6,3.4c2.1,0,3.6-1.6,3.6-3.6
		C560.8,448,559.3,446.7,557.2,446.7z M545.3,440.2c-3.6,0-6.5,2.8-6.5,6.2s2.8,6.2,6.5,6.2s6.5-2.8,6.5-6.2S549,440.2,545.3,440.2z
		 M534,437.4c-2.1,0-3.6,1.6-3.6,3.6c0,2.1,1.8,3.6,3.6,3.6c2.1,0,3.6-1.6,3.6-3.6C537.6,438.9,536,437.4,534,437.4z M556.7,443.1
		c2.3,0,4.4-1.8,4.4-4.1s-2.1-4.1-4.4-4.1c-2.3,0-4.4,1.8-4.4,4.1C552.3,441,554.4,443.1,556.7,443.1z M523.1,429.9
		c-2.8,0-5.4,2.3-5.4,5.2c0,2.8,2.3,5.2,5.4,5.2c2.8,0,5.4-2.3,5.4-5.2C528.3,432.2,526,429.9,523.1,429.9z M542.5,433.8
		c0,2.1,1.6,3.6,3.6,3.6s3.6-1.6,3.6-3.6c0-2.1-1.6-3.6-3.6-3.6S542.5,432,542.5,433.8z M535.3,434.8c3.1,0,5.7-2.3,5.7-5.4
		s-2.6-5.4-5.7-5.4s-5.7,2.3-5.7,5.4C529.6,432.2,531.9,434.8,535.3,434.8z M555.9,431.2c2.1,0,3.9-1.8,3.9-3.9s-1.8-3.9-3.9-3.6
		c-2.1,0-3.9,1.8-3.9,3.9C552.1,429.6,553.9,431.2,555.9,431.2z M524.7,426c2.1,0,3.6-1.6,3.6-3.6c0-2.1-1.6-3.6-3.6-3.6
		c-2.1,0-3.6,1.6-3.6,3.6C520.8,424.5,522.6,426,524.7,426z M545.9,425.8c3.4,0,5.9-2.6,5.9-5.7s-2.6-5.7-5.9-5.7s-5.9,2.6-5.9,5.7
		S542.5,425.8,545.9,425.8z M550.3,412.3c2.1,0,3.6-1.6,3.6-3.4s-1.6-3.4-3.6-3.4s-3.6,1.6-3.6,3.4
		C546.9,411,548.4,412.3,550.3,412.3z"/>
	<path id="tree" class="st0" d="M445.9,417c2.3,0,6.5,3.9,7.5,8c-0.5,0-1-0.3-1.3-0.3c-3.1,0-4.7,2.8-7,7.8c5.4-3.6,10.3-6.5,16-6.5
		c4.9,0,8.8,2.8,8.8,7.2c0,1.8-1,3.9-2.1,5.9c-0.8-4.1-4.1-5.9-10.1-5.9c-3.4,0-7.5,0.5-10.9,1.8c10.6,1.6,12.1,5.2,12.1,8.5
		c0,5.7-5.9,8.5-9.8,10.3c0.3-1.6,0.8-3.4,0.8-5.2c0-3.4-1.3-7.5-6.7-11.1c-0.8,3.6-3.9,5.9-3.9,8.8c0,1,0.8,1.6,1.3,1.6
		c0,1.6-0.8,6.2-0.8,7.5c0,2.3,0.5,2.8,1.8,3.1c0.8,2.1,0.8,5.7,1.3,7.5c0.3,1,1,1.3,1.8,1.3c0.8,1.8,1.8,4.7,3.4,5.7
		c0.3,0.3,0.8,1,0.8,1.6c0,1.6-2.6,3.4-4.1,3.4c-0.5,0-1.3-0.3-2.1-2.1c-0.5-1.3-5.2-4.1-5.4-5.7c0.3-0.3,0.5-0.8,0.5-1.6
		c0-2.6-4.1-5.4-4.1-9.6c0.5-0.3,1-1,1-1.8c0-2.3-2.3-6.7-2.3-9.8c1,0,1.6,0,1.6-1.6c0.3-3.1,0.8-7.5,3.6-10.1
		c-0.8,0-1.6-0.3-2.6-0.3c-5.7,0-14.2,3.1-17.6,10.3c-0.3-1-0.3-2.1-0.3-3.1c0-5.9,3.6-9.8,6.5-11.1c1.3-0.5,3.1-0.8,4.9-0.8
		c3.1,0,6.5,0.5,10.1,1.3c-3.1-4.1-8-7-12.1-7c-1.8,0-3.4,0.5-3.9,2.1c-0.3-0.8-0.3-2.1-0.3-3.1c0-4.4,1.6-7,5.4-7
		c5.7,0,10.9,6.7,13.7,12.9v-0.8c0-8.8,0.3-13.2,3.9-13.4L445.9,417L445.9,417z"/>
	<path id="bee" class="st0" d="M374,431.7c0,7,2.3,10.3,6.2,10.3c3.1,0,7.2-2.1,12.1-6.2c-3.9,0.8-6.7,1.3-9.3,1.3
		C379.7,437.1,376.9,435.8,374,431.7z M400.9,422.1c-2.3,0.5-6.7,3.1-6.7,7.8c0,3.4,2.6,5.4,5.9,5.4c1.8,0,3.1-0.3,3.9-1
		c-2.6-2.6-3.6-5.2-3.6-8C400.4,424.5,400.6,423.2,400.9,422.1z M408.9,414.6c-2.1,2.3-4.4,6.5-4.4,10.6c0,4.9,3.1,9,8,9
		c4.7,0,7-3.9,7-7.8C419.8,420.3,413.8,415.9,408.9,414.6z M377.4,423.4v1.3c0,4.4,2.3,6.7,5.7,6.7c2.3,0,5.2-1.3,7.8-4.4
		c-1,0.3-2.3,0.3-3.4,0.3C383.6,427.6,379.7,426.5,377.4,423.4z M396.5,399.7c-3.1,0-7,0.3-11.1,2.8c-8.3,5.2-7.2,13.4-8.5,15.8
		c-0.3,0.3-0.3,0.5-0.3,1c0,0.8,1,1.8,1.8,1.8s1.3-0.3,1.6-0.3c2.3,0,4.9,1.6,8.8,1.6c2.3,0,4.9-0.8,8-2.3c7-3.4,9.6-11.6,9.6-12.9
		c0-1.8-1.6-1.6-2.6-3.1c-1.3-1.6-0.8-3.1-1.6-3.9c-0.5-0.5-1.8-0.5-3.6-0.5H396.5z M390.8,418c-3.1,0-6.7-3.9-6.7-7.2
		c0-1.8,1.6-4.1,2.6-4.1c0.3,0,0.5,0.3,0.8,1c0.5,4.4,3.6,7,6.5,8.3c0.3,0.3,0.5,0.3,0.5,0.5C394.2,417.2,392.4,418,390.8,418z
		 M402.2,409.5c0,1.3-0.8,2.8-2.3,2.8c-3.4,0-5.9-4.9-6.2-7.8c0-1.8,1-1.8,2.6-1.8c0.8,0,1,0,1.6,0.3c0.8,0.5,0.8,2.3,1.8,3.6
		C400.4,407.7,402.2,408.7,402.2,409.5z M409.4,405.3c0,2.1,1.8,3.6,3.9,3.6s3.9-1.6,3.9-3.6c0-2.1-1.8-3.6-3.9-3.6
		C411.2,401.5,409.4,403.3,409.4,405.3z M408.1,400.7c2.1,0,3.9-1.6,3.9-3.6c0-2.1-1.8-3.6-3.9-3.6s-3.9,1.6-3.9,3.6
		C404.5,398.9,406.1,400.7,408.1,400.7z M382,398.9c3.4,0,6.2-2.1,6.2-2.1c-5.7-1.6-8.8-5.4-8.8-10.9v-1.6c-3.6,1.6-5.2,4.4-5.2,7.2
		C374.5,396,377.9,398.9,382,398.9z M398.8,394.7c0.5-1.6,0.8-3.4,0.8-5.4c0-4.4-2.1-11.1-8.8-11.1c-3.9,0-6.5,2.8-6.5,6.2
		C384.6,391.9,392.4,394.7,398.8,394.7z"/>
	<g id="ice_cream">
		<path class="st0" d="M611.2,392.4c-4.1,8.3-14.5,10.1-17.8,9.6c1,8.5,13.7,19.9,17.1,19.6c2.3-0.3,3.1-11.1,3.1-19.6
			C613.6,397.1,613.8,393.2,611.2,392.4L611.2,392.4z M611.5,384.4c0-3.1-1.3-5.4-4.9-5.9c0.5,0.8,0.8,1.6,0.8,2.8
			c0,4.9-7.2,10.3-15.2,10.3c-2.8,0-3.9,2.1-3.6,3.1c0,2.6,2.3,3.6,5.7,3.6C603.2,398.1,611.5,390.9,611.5,384.4L611.5,384.4z"/>
		<path class="st0" d="M592.1,388.3c3.6,0,11.4-3.1,11.4-7.2c0-1.3-0.5-2.6-2.6-2.6c-2.8,0-6.7,2.8-10.6,2.8c-1.3,0-2.8,0-4.4-0.5
			c1.6,1,1.3,3.6,2.1,5.4C589.3,388.3,590.8,388.3,592.1,388.3z"/>
	</g>
	<g id="cycle">
		<path class="st0" d="M543.5,390.4c0,8.3-5.7,11.6-10.9,11.6c-1.3,0-2.3-0.3-3.4-0.8c1-1,2.1-2.6,2.1-3.6c0-0.8-0.5-1-1.3-1
			c-0.5,0-1.8,0.3-2.8,0.3c-2.6,0-4.7-1-7-3.4c-1.6,2.3-2.3,5.4-2.3,8.5c0,4.9,1.8,9.8,3.9,10.1c1,0,1-3.4,2.8-3.4
			c0.5,0,2.6,1.6,7,1.6c6.5,0,13.7-3.9,13.7-14C545.1,395,544.6,391.9,543.5,390.4L543.5,390.4z"/>
		<path class="st0" d="M528.8,385.2c1.3,0,3.9,0.5,4.7,1.8c-1,0.5-2.1,1.8-2.1,2.8c0,0.5,0.3,1,0.8,1.3c2.3,1,3.6,2.8,4.4,4.4
			c4.1-2.3,5.7-8.8,5.7-12.4c0-1,0-2.6-1-2.6c-0.8,0-1.6,1-2.6,1c-0.8,0-3.1-3.1-8.8-3.1c-6.5,0-9.3,4.9-9.3,9c0,1,0.3,2.3,0.5,3.1
			C522.3,388,524.9,385.2,528.8,385.2L528.8,385.2z"/>
	</g>
	<path id="DNA" class="st0" d="M463.4,390.6c-4.7,0-8.8,3.9-11.9,9c0.3-1,0.3-2.1,0.3-3.1c0-7.2-3.9-13.4-10.9-13.4
		c-5.7,0-11.1,3.4-13.2,10.1c0.5-0.5,2.6-1.8,4.1-1.8c1.8,0,2.3,1.6,2.3,4.1c0,1.6-0.3,3.6-1,5.4c-1,3.1-3.1,3.9-4.1,3.9
		c-4.4,0-2.3-7.5-4.7-7.5c-1.8,0-2.3,4.1-2.3,5.7c0,5.2,3.4,10.6,10.9,10.6c8,0,12.4-3.9,17.1-8.8c1,5.4,3.9,15,11.9,15
		c4.4,0,7.5-3.6,7.8-8c-0.5,0.5-1.3,1-2.3,1c-1.6,0-2.1-2.3-2.1-4.4c0-3.4,1-7,2.6-7c0.8,0,1.3,0.5,1.6,3.1c0.3,1.8,0,4.1,1.3,4.1
		s1.8-3.9,1.8-6.2C472.2,395.8,469.4,390.4,463.4,390.6L463.4,390.6z M436.8,408.2c-0.8,0-1-0.8-1-1.3c0-3.6,3.9-19.6,6.7-19.6
		c0.5,0,0.8,0.5,0.8,1.3C443.3,391.4,439.9,408.2,436.8,408.2z M448.7,401.2c-2.3,2.6-3.6,3.9-4.7,3.9c-0.5,0-1-1-1-2.1
		c0-1.8,1.3-9.3,4.1-9.3c1,0,1.8,2.1,1.8,3.9C449,399.1,449,400.2,448.7,401.2z M454.1,407.7c-0.8,0-1.6-1.6-1.6-4.7
		c1.6-2.6,2.3-3.6,3.4-3.6c0.3,0,0.8,0.3,0.8,1.8C456.5,404.6,455.2,407.7,454.1,407.7z M458.8,413.1c-0.5,0-1-0.8-1-2.8
		c0-4.9,3.1-14,4.9-14c0.5,0,0.8,1.3,0.8,2.6C463.7,404.3,461.1,413.1,458.8,413.1z"/>
	<path id="lips" class="st0" d="M577.4,380c-1.8,0-4.7,2.1-6.7,2.1c-2.8,0-2.1-3.9-5.2-3.9c-0.8,0-1.6,0.3-2.3,0.8
		c-6.5,3.4-11.6,2.1-12.7,2.8c-0.3,0.3-0.5,0.3-0.5,1c0,7.2,7.2,18.1,19.1,18.1c8.3,0,15-2.8,15-7.8C583.8,389.1,580,380,577.4,380z
		 M569.9,394c-6.7,0-10.9-3.9-10.9-6.2c0-0.3,0.3-0.5,0.5-0.5c1,0,3.9,1.6,7.8,2.1c4.4,0.8,6.7,0.8,8,0.8s1.8,0.3,1.8,0.8
		C576.9,392.2,573.8,394,569.9,394z"/>
	<path id="dove" class="st0" d="M613.6,336.6c-4.7,0-5.2-1.3-8.3-1.3c-3.6,0-6.2,2.6-6.2,6.5c0,1.3,0.5,3.4,0.5,5.9
		c0,3.1-0.5,6.2-3.4,6.2c-2.6,0-3.6-1.8-3.6-3.9c0-3.6,1.8-6.2,1.8-8.5c0-4.4-5.2-5.7-10.9-5.7c-6.7,0-14,1.8-14,2.8
		c0,1.6,9.6,0.5,16.5,9.6c-4.4,0-12.9,2.1-12.9,3.4c0,1.6,15.5,3.1,15.5,9.6c0,4.1-3.4,4.7-4.7,4.7c-5.2,0-7.8-5.4-9-5.4
		c-0.3,0-0.8,0.3-0.8,0.8c0,0.8,0.8,3.1,0.8,5.4c0,5.9-6.5,6.5-6.5,7.8c0,0.5,0.3,0.5,1,0.8c4.7,0.8,9.6,1,14,1
		c16.5,0,29.7-5.2,29.7-19.6c0-8-2.6-10.6-2.6-14.5C610.2,340.7,611.2,337.9,613.6,336.6z M590.6,368.1h-3.4
		c10.6-1.8,16.5-8,16.5-16.3c2.3,0.8,3.9,3.1,3.9,5.7C607.4,362.4,603,368.1,590.6,368.1L590.6,368.1z M605.3,343.1
		c-1.3,0-2.3-1-2.3-2.3s1-2.3,2.3-2.3s2.3,1,2.3,2.3C607.6,342,606.6,343.1,605.3,343.1z"/>
	<path id="spark" class="st0" d="M549.2,333.5c-6.2,0-10.9,3.1-13.4,3.1c-1.6,0-3.6-3.6-4.9-3.6c-0.5,0-1,1-1,2.6v0.5
		c0,1.3-0.3,3.6-1,3.6c-2.3,0-11.1-6.2-11.1-4.1s5.9,8.5,5.9,10.1s-5.7,3.1-5.7,4.4c0,2.1,6.2,2.3,6.2,4.9s-6.5,4.7-6.5,6.5
		c0,1.6,6.5,0.5,6.5,2.3s-4.7,8.3-4.7,10.1c0,0.5,0,0.5,0.5,0.5c1.8,0,7.2-5.9,8.5-5.9c1.6,0,1.8,3.6,2.1,5.7c0.3,1,0.3,1.3,0.8,1.3
		c1,0,2.8-4.1,4.1-4.1c1.8,0,6.5,4.9,14.5,4.9c11.4,0,22-7.8,22-21.4C572.2,341.3,562.4,333.5,549.2,333.5L549.2,333.5z M533.5,363
		c-0.3,0-0.5-0.3-0.5-0.8l-0.3-3.6c0-0.3-0.3-0.8-0.8-0.8H528c-0.5,0-0.8,0-0.8-0.3c0-0.8,3.9-3.4,3.9-3.9c0-1-3.6-2.8-3.6-4.1
		c0-0.3,0.3-0.3,0.5-0.3c1,0,2.8,0.3,4.1,0.3s1.3-5.2,2.3-5.2c0.8,0,1.8,4.9,2.8,4.9c1.3,0,3.4-1.3,4.4-1.3c0.3,0,0.3,0,0.3,0.3
		c0,0.5-2.3,3.1-2.3,3.9s5.2,1.8,5.2,2.6c0,1-5.4,0.8-5.4,1.6c0,0.5,2.1,3.1,2.1,4.1c0,0.3,0,0.3-0.3,0.3c-0.8,0-3.6-1.3-4.4-1.3
		C535.8,359.3,534.2,363,533.5,363z M549.5,371c-6.5,0-10.9-3.1-10.9-4.9c0-0.8,0.5-1.3,1.3-1.3c2.1,0,6.5,3.1,8,3.1
		c0.3,0,0.8-0.3,0.8-0.8c0-1.6-1.6-4.4-1.6-5.7c0-0.3,0.3-0.5,0.8-0.5c2.6,0,6.2,1,8.3,1c0.8,0,0.8-0.3,0.8-0.8
		c0-2.1-6.2-5.9-6.2-7.2c0-1,7.5-2.8,7.5-4.4c0-1.8-10.3-0.5-10.3-2.3c0-1.3,2.1-3.4,2.1-4.4c0-0.5-0.3-0.5-1-0.5
		c-0.8,0-5.4,1.8-7.2,1.8c-1,0-2.1-0.3-2.1-1.6c0-2.1,3.6-4.4,9.3-4.4c9.3,0,14.7,6.2,14.7,16.5C563.9,367.6,554.6,371,549.5,371z"
		/>
	<g id="sun">
		<path class="st0" d="M451.3,359.9c3.6,0,14.5,4.9,19.4,4.9c1.8,0,2.8-1,2.8-2.1c0-5.7-15.2-15.8-15.5-19.9c0-0.5,0.3-0.8,0.5-1
			c2.6-2.8,13.4-4.7,13.4-7c0-1.3-2.3-1.3-3.4-1.3c-8.8,0-21.4,3.1-21.4,6.2s11.4,10.9,11.4,14.7c0,1-0.8,1.3-1.8,1.3
			c-3.1,0-10.1-3.9-13.4-3.9c-1.6,0-2.1,1-2.1,2.6c0,4.4,5.4,12.9,5.4,15.5c0,0.3,0,0.8-0.5,0.8c-1.8,0-9.6-9.3-12.4-9.3
			c-1,0-1,1.3-1,3.4v3.1c0,2.1,0,3.4-1,3.4c-2.3,0-3.6-6.7-5.9-6.7s-2.8,12.1-5.2,12.1c-2.8,0-0.5-13.2-3.1-13.2
			c-2.8,0-6.2,8.8-8.3,8.8c-0.8,0-1-0.8-1-1.3c0-2.6,1.6-7,1.6-9.6c0-1.3-0.3-2.1-1.6-2.1c-2.8,0-9.3,4.7-11.6,4.7
			c-0.3,0-0.8-0.3-0.8-0.5c0-2.3,10.3-9.3,10.3-12.4s-14.2-1-14.2-4.7c0-2.8,10.1-5.9,10.1-9c0-2.6-11.9-3.9-16.5-3.9
			c-5.4,0-8.5,0.8-8.5,2.3c0,2.3,12.7,3.1,12.7,5.2s-13.2,7.5-13.2,10.6c0,2.8,18.3,0.3,18.3,3.1c0,3.1-16,16.8-16,21.4
			c0,1,0.8,1.6,1.8,1.6c4.9,0,17.6-9.3,20.9-9.3c1.3,0,1.3,1.6,1.3,2.8c0,2.3-0.8,6.2-0.8,8.8c0,2.1,0.5,3.6,2.3,3.6
			c3.4,0,6.7-5.9,9-5.9c3.1,0,1.3,17.1,5.7,17.1c3.9,0,5.4-18.6,7.8-18.6s4.4,5.4,6.7,5.4c2.8,0,1.6-9.3,4.4-9.3
			c3.4,0,12.7,11.1,17.1,11.1c1.3,0,1.8-1,1.8-2.3c0-4.9-7-16-7-19.6C450,360.1,450.2,359.9,451.3,359.9L451.3,359.9z"/>
		<path class="st0" d="M457.2,366.3c-0.3,0-0.5,0.3-0.5,0.5c0,3.4,11.9,19.1,14,19.1c1.8,0,3.4-3.4,3.4-5.9c0-0.8-0.3-1.6-0.5-2.1
			C471.7,375.4,459.8,366.3,457.2,366.3z M387.7,357.3c0-0.8-1.6-1-2.8-1c-2.1,0-4.9,0.5-6.2,1.6c-1,0.8-1.8,3.4-1.8,5.2
			c0,1,0.3,2.1,1.3,2.1C380.5,365.3,387.7,359.1,387.7,357.3z M404.5,345.7c2.1,0,5.4-1,7.8-1c1.3,0,2.6,0.3,2.6,1.6
			c0,2.3-5.2,6.5-5.2,8.3c0,0.5,0.5,0.8,1,0.8c1.8,0,5.2-4.7,8-4.7c4.9,0,1.8,10.6,4.4,10.6c2.8,0,1.6-10.3,5.7-10.3
			c3.4,0,5.7,7.2,8,7.2c0.5,0,1-0.5,1-1c0-2.1-2.8-5.9-2.8-8.5c0-1.6,1-2.3,2.6-2.3c2.1,0,5.2,1.3,6.7,1.3c0.5,0,1-0.3,1-0.8
			c0-2.3-8.3-4.7-8.3-7.5s4.7-2.8,4.7-4.1c0-0.5-2.8-1-6.7-1c-6.2,0-5.2,4.9-10.1,4.9s-3.6-5.2-9.8-5.2c-3.9,0-7.2,0.8-7.2,1.6
			c0,1,4.4,0.5,4.4,3.6c0,3.4-9.6,4.1-9.6,6.2C402.7,345.4,403.5,345.7,404.5,345.7z M463.7,344.4c0,1.6,5.9,5.2,8.5,5.2
			c1.6,0,2.1-2.1,2.1-4.4c0-2.8-1.3-2.8-3.6-2.8C467.6,342.3,463.7,343.1,463.7,344.4z"/>
	</g>
</g>
</svg>
