<?xml version="1.0" encoding="utf-8"?>
<!-- Generator: Adobe Illustrator 23.0.0, SVG Export Plug-In . SVG Version: 6.00 Build 0)  -->
<svg version="1.1" id="레이어_1" xmlns="http://www.w3.org/2000/svg" xmlns:xlink="http://www.w3.org/1999/xlink" x="0px"
	 y="0px" viewBox="0 0 1000 1000" style="enable-background:new 0 0 1000 1000;" xml:space="preserve">
<g id="layer1" transform="translate(-131.5675,-58.965)">
	<path id="path2985" d="M279.9,469.6c-7.4,0-13.3,5.9-13.3,13v44.5H250c-7.4,0-13.3,5.9-13.3,13v96.4c0,7.2,5.9,13,13.3,13h99.5
		c7.4,0,13.6-5.9,13.6-13v-15.8h46c7.4,0,13.3-5.9,13.3-13v-96.4c0-7.2-5.9-12.8-13.3-12.8h-16.4v-15.9c0-7.2-5.9-13-13.3-13
		L279.9,469.6L279.9,469.6z M279.9,477h99.5c3.2,0,5.9,2.5,5.9,5.6v15.8h-75.6c-7.4,0-13.6,5.6-13.6,12.8V527H274v-44.4
		C274,479.4,276.6,477,279.9,477z M309.7,505.6h75.6v73.1c0,3.2-2.6,5.9-5.9,5.9h-16.2v-44.5c0-7.2-6.2-13-13.6-13h-46v-15.7
		C303.6,508.1,306.4,505.6,309.7,505.6z M392.8,505.6h16.4c3.2,0,5.9,2.5,5.9,5.6v96.4c0,3.2-2.6,5.6-5.9,5.6h-46v-21.3h16.2
		c7.4,0,13.3-6,13.3-13.2L392.8,505.6L392.8,505.6z M585.2,526.6c-8.4,0-15.7,3.4-21.3,9.3c-0.8-5.3-4.4-8.5-10.2-8.5
		c-0.3,0-22.5,0-22.5,0c-6.3,0-8.9,4.6-10,7.9l-14.5,43.4h-0.2l-14.5-43.4c-1.1-3.4-3.9-7.9-10.2-7.9c-6.1,0-11.9,3.7-11.9,10.7
		c0,2,0.4,3.7,1.5,6.4l22.8,56.9c2.2,5.6,4.6,9,12.3,9c7.7,0,10-3.4,12.3-9l23.5-57.9v54.9c0,7.3,4.7,12,11.3,12
		c6.6,0,11.3-4.8,11.3-12v-38.3c0-8.9,4-15.3,13.3-15.3c8.3,0,13.3,6.4,13.3,15.3v38.3c0,7.3,4.7,12,11.3,12c6.6,0,11.3-4.8,11.3-12
		v-38.3c0-8.9,5-15.3,13.3-15.3c8.3,0,13.3,6.4,13.3,15.3v38.3c0,7.3,4.7,12,11.3,12c6.6,0,11.3-4.8,11.3-12v-42.2
		c0-19.2-12.5-29.6-30.9-29.6c-7.8,0-17.8,4.1-24.1,11.1C602.8,530.4,594.7,526.6,585.2,526.6z M677.3,527.3c-4.7,0-6.6,3.4-6.6,6
		c0,1.4,0.5,3.3,1.2,5.2l23,64.9c1.9,5.2,4.2,6.9,8.1,6.9c3.8,0,6-1.8,7.7-6.9l18.1-54.9h0.2l18.1,54.9c1.7,5.2,3.9,6.9,7.7,6.9
		c3.9,0,6.2-1.8,8.1-6.9l23-64.9c0.6-2,1.2-3.9,1.2-5.2c0-2.6-1.9-6-6.6-6c-3,0-5.9,1.2-7.7,6.9l-17.9,55.6h-0.2l-17.5-53.5
		c-1.9-5.8-3.2-9-8.3-9c-5,0-6.2,3.2-8.1,9l-17.5,53.5h-0.4L685,534.2C683.1,528.4,680.2,527.3,677.3,527.3z M829.6,527.3
		c-23.7,0-37,20.1-37,41.7c0,21.6,13.3,41.5,37,41.5c9,0,17-3.9,23-12h0.2v5.6c0,4.7,3.7,6.4,6.6,6.4c2.7,0,6.4-1.7,6.4-6.4v-70.1
		c0-4.7-3.7-6.6-6.4-6.6c-2.9,0-6.6,1.9-6.6,6.6v4.3h-0.2C846.1,531.4,839.2,527.3,829.6,527.3z M966.3,527.3
		c-23.5,0-37.7,19.5-37.7,41.7c0,21.6,11.8,41.5,38.7,41.5c16.4,0,33.6-9.8,33.6-16.4c0-3.9-2.5-6-5.1-6c-5.2,0-10,11-28.5,11
		c-15.6,0-24.7-10.7-24.7-24.7h52.2c6,0,7.7-2.4,7.7-7.2C1002.5,547.4,989.1,527.3,966.3,527.3z M1017.4,527.3
		c-5.1,0-9.3,3.9-9.3,8.9c0,4.9,4.2,8.9,9.3,8.9s9.3-3.9,9.3-8.9C1026.6,531.2,1022.4,527.3,1017.4,527.3z M891.1,527.5
		c-4.2,0-6.9,2.7-6.9,7.2v68.6c0,4.5,2.7,7.2,6.9,7.2s6.8-2.7,6.8-7.2v-38.7c0-15.7,10.1-21.6,18.3-23c5.9-1.1,8.6-3.5,8.6-7.3
		c0-3.8-2.7-6.8-7.6-6.8c-8,0-15.9,7.7-19.1,14h-0.4v-6.8C897.8,530.2,895.3,527.5,891.1,527.5z M1017.4,529.2
		c3.9,0,6.9,3.1,6.9,6.9c0,3.9-3.1,6.9-6.9,6.9c-3.9,0-7.2-3.1-7.2-6.9C1010.2,532.3,1013.5,529.2,1017.4,529.2z M1013.6,531.3
		c-0.1,0.1-0.2,0.2-0.2,0.4v8.9c0,0.5,0.4,0.8,0.9,0.8c0.5,0,0.8-0.2,0.8-0.8v-3.4h1.7l2.5,3.8c0.2,0.4,0.5,0.4,0.9,0.4
		c0.5,0,0.9-0.1,0.9-0.4c0-0.2-0.1-0.4-0.2-0.5l-2.2-3.4c1.5-0.2,2.6-0.9,2.6-2.9c0-2.2-1.4-2.9-3.9-2.9h-3.4
		C1013.7,531.3,1013.6,531.2,1013.6,531.3z M1015,532.6h2.1c1.1,0,2.5,0.1,2.5,1.3c0,1.5-1.2,1.7-2.5,1.7h-2.1V532.6z M250,534.4
		h16.4v44.3c0,7.2,5.9,13.2,13.3,13.2H296v15.7c0,7.2,6.2,13,13.6,13h46v15.8c0,3.2-2.8,5.6-6,5.6H250c-3.3,0-5.9-2.5-5.9-5.6v-96.3
		C244.3,537,246.8,534.4,250,534.4z M274,534.4h22.1v50.1h-16.2c-3.2,0-5.9-2.7-5.9-5.9V534.4z M303.6,534.4h46c3.2,0,6,2.5,6,5.6
		v44.5h-52V534.4z M829.6,539c17,0,23.2,16.2,23.2,30c0,13.8-6.2,30-23.2,30s-23-16.2-23-30C806.6,555.2,812.5,539,829.6,539z
		 M963.3,539c1-0.1,1.9,0,3,0c15.3,0,22.2,13.4,22.2,25.1h-46C943,552.4,948.4,540,963.3,539z M303.6,592h52v21.3h-46
		c-3.2,0-6-2.5-6-5.6L303.6,592L303.6,592z"/>
</g>
</svg>
