<?xml version="1.0" encoding="utf-8"?>
<!-- Generator: Adobe Illustrator 23.0.0, SVG Export Plug-In . SVG Version: 6.00 Build 0)  -->
<svg version="1.1" id="레이어_1" xmlns="http://www.w3.org/2000/svg" xmlns:xlink="http://www.w3.org/1999/xlink" x="0px"
	 y="0px" viewBox="0 0 1000 1000" style="enable-background:new 0 0 1000 1000;" xml:space="preserve">
<polygon points="258.8,555.4 224.4,451.3 190.6,451.3 157.3,555.4 125,451.3 93.3,451.3 138.8,588.2 173.7,588.2 207.5,485.1 
	241.3,587.7 276.7,587.7 322.2,451.3 291,451.3 "/>
<path d="M448.5,482c-10.6-21.7-32.8-34.9-56.6-34.4c-12.2,0-24.8,3.2-35.4,9c-10,5.8-18.5,14.8-24.3,25.4
	c-11.6,23.8-11.6,51.8,0,75.6c5.3,10.6,14.3,19.6,24.8,25.4c11.1,5.8,23.8,9,36.5,9c10,0,20.6-1.6,30.1-4.8
	c9.5-3.2,18.5-7.9,25.9-14.8l-14.8-21.1c-5.8,4.8-12.2,8.5-18.5,10.6c-6.9,2.6-13.7,3.7-20.6,3.7c-6.3,0-12.7-1.1-18.5-3.7
	c-5.8-2.6-10.6-6.9-14.3-11.6c-3.7-5.8-6.3-12.7-7.4-19.6h100.4c0-3.7,0.5-7.4,1.1-11.1C457,506.3,453.8,493.6,448.5,482z
	 M355,507.9c1.1-9,5.3-18,11.6-24.8c6.3-6.3,15.3-9.5,24.3-9c8.5-0.5,16.9,2.6,22.7,8.5c6.3,6.9,10.6,15.9,11.6,24.8H355V507.9z"/>
<path d="M505.6,588.7v-16.4c4.8,6.3,11.1,11.1,18.5,14.8c7.9,3.2,16.4,5.3,24.3,5.3c12.2,0.5,24.3-2.6,34.4-9
	c10.6-6.3,19-15.3,24.3-25.9c12.2-23.3,12.2-50.7,0-74c-5.8-10.6-14.3-19.6-24.3-25.9c-10.6-6.3-22.2-9-34.4-9
	c-8.5-0.5-16.9,1.1-24.3,4.8c-6.9,3.2-13.2,8.5-18.5,14.8v-59.7h-30.1v180.2C475.5,588.7,505.6,588.7,505.6,588.7z M508.8,497.8
	c3.2-6.3,8.5-12.2,14.8-15.9c13.2-7.9,30.1-7.9,43.3,0c6.3,3.7,11.1,9.5,14.8,15.9c3.2,6.9,4.8,14.3,4.8,22.2
	c0,7.4-1.6,15.3-4.8,22.2c-3.2,6.3-8.5,12.2-14.8,15.9l0,0c-6.9,3.7-14.3,5.8-21.7,6.9c-7.4,0-14.8-2.1-21.7-5.8
	c-6.3-3.7-11.1-9.5-14.8-15.9c-3.2-6.9-4.8-14.8-4.8-22.7C503.5,512.6,505.1,504.7,508.8,497.8z"/>
<path d="M757.2,482c-10.6-21.7-32.8-34.9-56.6-34.4c-12.2,0-24.8,3.2-35.4,9c-10,5.8-18.5,14.8-24.3,25.4
	c-11.6,23.8-11.6,51.8,0,75.6c5.3,10.6,14.3,19.6,24.3,25.4c11.1,5.8,23.8,9,36.5,9c10,0,20.6-1.6,30.1-4.8
	c9.5-3.2,18.5-7.9,25.9-14.8l-14.8-21.1c-5.8,4.8-12.2,8.5-18.5,10.6c-6.9,2.6-13.7,3.7-20.6,3.7c-6.3,0-12.7-1.1-18.5-3.7
	s-10.6-6.9-14.3-11.6c-3.7-5.8-6.3-12.7-7.4-19.6h100.4c0.5-4.8,0.5-8.5,1.1-11.1C765.7,506.8,762.5,493.6,757.2,482z M663.6,507.9
	c1.1-9,4.8-18,11.6-24.8c6.3-6.3,15.3-9.5,24.3-9c8.5-0.5,16.9,2.6,23.3,8.5c6.3,6.9,10.6,15.9,11.6,24.8h-70.8V507.9z"/>
<polygon points="905.2,451.3 869.8,451.3 836.5,496.8 803.2,451.3 766.7,451.3 818,518.4 766.2,588.2 801.1,588.2 835.4,540.6 
	869.8,588.2 906.8,588.2 855,517.9 "/>
</svg>
