<?xml version="1.0" encoding="utf-8"?>
<!-- Generator: Adobe Illustrator 27.9.0, SVG Export Plug-In . SVG Version: 6.00 Build 0)  -->
<svg version="1.1" id="레이어_1" xmlns="http://www.w3.org/2000/svg" xmlns:xlink="http://www.w3.org/1999/xlink" x="0px"
	 y="0px" viewBox="0 0 1000 1000" style="enable-background:new 0 0 1000 1000;" xml:space="preserve">
<style type="text/css">
	.st0{fill:#FFFFFF;}
</style>
<g id="g10" transform="matrix(1.3333333,0,0,-1.3333333,0,53.373333)">
	<g id="g12" transform="scale(0.1)">
		<path id="path14" class="st0" d="M3807.7-2318.8c185.4,6.2,371.8-21.2,546.3-83.4c262.6-92.2,497.7-261.5,669.6-480.1
			c75.6-96.3,138.8-201.4,188.5-313.3c8.8-18.6,15.5-39.4,10.9-60.1c-5.7-34.7-36.3-63.7-71.5-66.8c-36.3-5.2-74.1,17.6-87,51.8
			c-98.9,232-267.2,434-476.9,573.8c-130,87-275.5,150.2-427.8,185.4c-196.3,46.1-402.9,46.1-599.2,0
			c-280.2-64.7-537-225.3-717.8-448.5c-76.6-94.3-140.3-198.9-188-310.7c-10.4-25.9-34.2-46.1-61.6-50.8
			c-26.9-5.2-55.9,4.1-74.6,23.8c-21.8,22.3-29,57-17.6,86c131.5,310.7,374.9,571.7,674.3,727.1
			C3370.1-2383.1,3588.1-2326.6,3807.7-2318.8L3807.7-2318.8"/>
		<path id="path16" class="st0" d="M3563.2-3275.9c-1,16.1,14,28,29.5,28.5c19.7,0.5,39.4,0.5,59,0c13.5-0.5,29.5-9.8,29.5-24.9
			c0.5-180.7-0.5-361.5,0.5-541.7c73,81.3,147.1,162.1,220.6,243.4c14.5,14.5,25.9,35.7,48.2,37.8c30.6,1,60.6,0.5,91.1,0.5
			c11.9,1,24.9-9.8,20.7-22.3c-4.7-9.8-13.5-16.1-20.7-23.8c-79.2-79.2-159-158.5-238.2-238.2c76.1-87,151.7-175,227.3-262.6
			c9.8-12.4,22.3-22.8,30-36.8c6.2-10.9-4.1-23.8-15.5-24.3c-25.4-1.6-50.8,0-75.6-0.5c-12.9,0.5-27.4-1.6-39.4,5.2
			c-12.4,7.3-20.2,20.2-29,31.1c-73,92.2-146,184.9-219.6,277.1c-0.5-90.6,0-181.8-0.5-272.4c-0.5-10.4,2.1-23.3-7.3-30.6
			c-14.5-14-36.3-9.3-54.4-9.8c-16.1,0.5-34.7-3.1-48.2,8.8c-7.3,5.7-9.3,15.5-8.8,23.8C3563.2-3830.5,3562.7-3552.9,3563.2-3275.9
			L3563.2-3275.9"/>
		<path id="path18" class="st0" d="M3229.2-3531.2c36.8,11.9,78.2,14,113.9-1.6c12.4-5.7,27.4-18.6,21.8-34.2
			c-5.7-19.7-10.9-39.4-17.6-58.5c-5.2-14-21.2-19.2-34.7-16.1c-30.6,5.2-60.1,15-91.1,14c-21.8,0.5-41.9-10.9-56.4-26.4
			c-23.8-23.3-36.3-55.9-41.9-88.6c-4.7-23.3-3.1-47.6-3.1-70.9c0-99.4,0-199.4,0-298.8c1.6-16.6-15.5-27.4-30.6-28
			c-20.2-0.5-40.4-0.5-61.1,0c-14.5,0.5-31.1,11.4-29.5,28c0,184.4,0,368.7,0,553.6c-1,18.1,19.2,28.5,35.2,26.4
			c20.2-1.6,47.1,6.2,60.1-14c9.8-23.3,14.5-48.7,23.8-72C3146.3-3579.8,3183.6-3546.2,3229.2-3531.2L3229.2-3531.2"/>
		<path id="path20" class="st0" d="M1158.3-3545.1c5.7,6.7,12.4,13.5,21.8,12.9c27.4,0.5,55.4,1,82.9-0.5
			c14-0.5,23.8-12.4,25.9-25.9c26.9-110.3,53.9-220.6,80.8-330.4c7.8-34.2,17.6-67.8,22.8-102.5c5.2-31.1,6.2-62.7,11.4-93.7
			c6.7,44.5,12.9,89.1,25.4,132.6c35.2,131.5,70.4,263.1,105.6,394.6c2.6,15,17.1,25.9,31.6,25.9c30.6,0.5,61.6,0,92.2,0
			c16.6,0.5,34.2-8.8,37.8-25.9c26.4-95.8,52.3-192.1,78.7-287.9c16.1-62.1,36.8-123.3,45.6-186.9c2.6-17.6,4.7-35.2,8.3-52.8
			c9.8,99.9,35.7,197.8,57,295.7c17.6,78.2,34.7,156.4,52.3,234.1c2.6,15.5,19.2,23.8,33.7,23.3c24.9,0,49.7,1,74.6-0.5
			c14.5-0.5,23.3-16.6,18.1-30c-49.7-183.8-99.4-367.2-149.1-551c-2.6-14.5-15.5-26.4-30.6-26.4c-38.3-1-77.2-0.5-115.5-0.5
			c-14-1-28.5,6.7-30.6,21.2c-34.2,126.4-68.4,252.7-102,379.1c-12.4,44-17.1,89.6-22.3,134.6c-6.2-40.4-9.3-81.3-20.2-120.7
			c-35.7-129.5-70.9-259.4-105.6-389.4c-4.1-21.2-28-25.4-46.1-23.8c-35.7,0.5-71.5-1-107.2,0.5c-12.9,0-22.8,9.8-24.9,21.8
			c-50.2,182.8-99.9,365.6-150.2,548.9C1158.3-3561.2,1158.8-3552.9,1158.3-3545.1L1158.3-3545.1"/>
		<path id="path22" class="st0" d="M5666.2-3532.7c25.9,0.5,52.3,0.5,78.2,0c16.1,0,30.6-10.9,35.7-26.4
			c45.1-117.6,89.6-235.6,134.6-353.7c9.3-23.8,16.1-48.7,20.2-74.1c18.6,69.9,43.5,137.8,65.2,206.6
			c24.3,74.6,48.7,149.1,72.5,223.7c3.6,12.9,16.1,21.8,29,22.8c21.2,1.6,43,0,64.2,0.5c12.4,0,27.4,1.6,36.8-8.8
			c6.2-5.2,4.7-14,2.1-20.7c-72-205.6-144-411.2-215.9-616.3c-12.4-34.2-22.3-69.9-42.5-101c-29-47.1-75.6-80.8-126.9-98.9
			c-18.1-5.7-36.8-18.1-55.9-10.9c-13.5,3.6-19.2,17.6-26.4,28.5c-5.2,9.3-15,18.1-12.9,30c1,11.9,10.4,21.2,21.2,24.3
			c21.8,7.3,43.5,15.5,61.1,31.1c42.5,36.3,68.9,89.6,79.2,144c-6.7,24.3-19.7,46.1-28.5,69.9c-68.9,159.5-137.2,319.5-206.1,479
			c-4.1,10.4-10.4,20.2-11.4,31.6C5641.4-3538.4,5655.4-3532.7,5666.2-3532.7L5666.2-3532.7"/>
		<path id="path24" class="st0" d="M2463.8-3609.9c-37.3-6.7-71.5-30-90.6-63.7c-31.6-53.9-35.2-119.1-34.2-180.2
			c2.1-55.4,11.4-114.4,46.6-159c26.4-33.7,69.4-50.8,111.9-49.7c40.4-1.6,82.9,12.4,110.3,43c35.2,38.3,46.1,91.7,51.3,141.4
			c2.1,49.2,3.1,99.4-9.8,147.6c-10.4,40.4-31.6,81.3-68.9,103.1C2545.6-3605.7,2503.2-3603.7,2463.8-3609.9z M2479.9-3522.4
			c67.8,4.1,138.8-9.8,194.7-50.2c50.2-35.7,83.9-90.6,99.9-149.1c18.6-70.4,18.6-145,1.6-215.9c-16.1-64.7-53.9-125.8-110.8-163.1
			c-60.6-40.4-137.2-50.8-208.7-42.5c-60.6,7.3-120.1,34.2-162.1,78.7c-49.7,52.8-74.6,124.3-79.8,195.2
			c-6.2,78.7,5.7,162.1,49.7,229.4c32.6,50.8,83.9,87.5,141.4,104.6C2429.6-3527.5,2455-3524.4,2479.9-3522.4L2479.9-3522.4"/>
		<path id="path26" class="st0" d="M4479.3-3606.8c-37.3-2.6-73-23.8-89.6-57.5c-32.6-62.7-33.1-135.7-31.6-204.6
			c2.6-45.1,7.3-91.7,28.5-132.1c14-27.4,39.9-49.2,70.4-55.9c46.6-11.4,101.5-1.6,134.6,35.2c32.1,36.3,42.5,86,47.6,132.6
			c3.6,53.3,3.6,107.7-9.8,160c-9.3,34.7-24.3,69.9-52.3,94.3C4550.8-3611.4,4514-3602.6,4479.3-3606.8z M4639.3-3268.1
			c-1,14,13.5,23.3,26.4,24.3c20.2,1,40.4,0.5,60.6,0.5c15.5,0,32.6-11.4,30.6-28.5c0-278.6,0-557.2,0-835.8
			c1-14.5-12.9-25.4-26.4-26.4c-16.1-1-32.1-1-48.2,0.5c-11.4,0.5-22.3,7.8-25.9,18.6c-6.2,18.1-9.3,36.8-14,55.4
			c-22.3-30-50.8-57-86.5-69.9c-50.8-18.6-107.2-19.2-159.5-6.2c-52.3,12.4-98.4,48.7-123.8,96.3c-39.9,72.5-44.5,157.9-41.9,238.7
			c1.6,68.9,14.5,141.9,59.6,196.8c34.2,46.6,89.6,73,145.5,80.3c52.3,7.8,108.8-1,152.3-32.6c20.7-14.5,36.8-33.7,51.3-53.9
			C4638.8-3497,4638.8-3382.5,4639.3-3268.1L4639.3-3268.1"/>
		<path id="path28" class="st0" d="M5201.7-3609.9c-18.6-3.6-36.8-11.4-51.8-22.8c-30-23.3-45.1-60.6-53.3-96.8
			c-11.4-57.5-11.4-117-5.7-175c5.7-42.5,16.6-88,47.6-119.6c25.4-26.9,63.7-36.8,99.9-34.7c38.8-1.6,78.7,12.9,104.1,43.5
			c31.1,37.8,39.9,88,44.5,135.2c3.1,55.4,3.1,112.4-12.4,166.2c-9.8,33.7-28,66.8-58.5,86C5283-3606.2,5240.6-3604.2,5201.7-3609.9
			z M5149.9-3533.7c53.9,15,111.3,15.5,165.2,3.1c50.2-11.9,97.4-39.9,128.4-81.8c32.6-43,49.2-96.3,55.9-149.1
			c6.2-40.9,4.1-82.3,4.1-123.8c0-74.6,0-148.6,0-223.2c1-9.3-4.7-17.1-12.4-21.8c-12.4-7.8-28-4.1-41.9-5.2c-15.5,0-36.3-1-44.5,15
			c-8.3,19.2-9.8,40.4-15.5,60.6c-20.7-25.4-42.5-51.8-73-66.3c-46.1-22.8-99.9-21.2-149.7-11.9c-60.6,11.9-116,47.6-150.2,99.4
			c-40.9,60.1-55.4,134.1-54.9,205.6c-0.5,69.9,12.9,141.9,51.8,200.9C5045.3-3584,5095-3548.8,5149.9-3533.7L5149.9-3533.7"/>
		<path id="path30" class="st0" d="M6231.2-3990.5c-30.6-11.4-50.2-46.6-41.9-78.7c7.8-37.3,51.8-63.2,88-49.2
			c33.7,10.4,54.9,48.7,44.5,82.3C6312-3998.3,6267-3975.5,6231.2-3990.5z M6235.4-3974.4c18.1,3.1,37.8,3.1,54.9-5.2
			c29-12.9,49.2-44,46.1-76.1c2.6-38.3-30-72.5-66.8-78.7c-41.4-8.8-86,21.2-94.3,62.7C6164.4-4030.4,6193.4-3983.8,6235.4-3974.4
			L6235.4-3974.4"/>
		<path id="path32" class="st0" d="M6243.7-4021c0-8.8,0-17.6,0-26.4c7.8,0.5,15.5,0,22.8,2.1c7.3,3.1,6.2,11.9,4.7,18.1
			C6263.9-4020,6253-4022.1,6243.7-4021z M6220.9-4007.1c22.3-1,46.6,5.2,66.3-7.3c16.1-11.9,8.3-38.3-9.8-43.5
			c5.2-14,12.4-26.4,19.2-39.9c-8.3,0-16.6-0.5-24.9-0.5c-5.7,11.9-11.9,24.3-17.6,36.8c-3.6,0-7.3,0-10.9,0c0-12.4,0-24.3,0-36.8
			c-7.8,0-15.5,0-23.3,0.5C6220.9-4067.7,6220.9-4037.1,6220.9-4007.1L6220.9-4007.1"/>
	</g>
</g>
</svg>
