<?xml version="1.0" encoding="utf-8"?>
<!-- Generator: Adobe Illustrator 23.1.0, SVG Export Plug-In . SVG Version: 6.00 Build 0)  -->
<svg version="1.1" id="Layer_1" xmlns="http://www.w3.org/2000/svg" xmlns:xlink="http://www.w3.org/1999/xlink" x="0px" y="0px"
	 viewBox="0 0 300 90" style="enable-background:new 0 0 300 90;" xml:space="preserve">
<path d="M86.1,2.3H1.9H1v0.9v84.3v0.9h0.9h84.3H87v-0.9V3.1V2.3H86.1z M84.4,85.6H3.6V4.8h80.8V85.6z"/>
<polygon points="41.8,43.9 42.7,43.9 42.7,43.1 42.7,36.4 42.7,8.3 42.7,7.5 41.8,7.5 7.1,7.5 6.2,7.5 6.2,8.3 6.2,19.6 7.1,19.6 
	30.5,19.6 30.5,31.8 7.1,31.8 6.2,31.8 6.2,43.1 6.2,43.9 7.1,43.9 "/>
<polygon points="18.4,83 18.4,82.2 18.4,58.7 30.5,58.7 30.5,82.2 30.5,83 41.8,83 42.7,83 42.7,82.2 42.7,47.4 42.7,46.5 
	41.8,46.5 7.1,46.5 6.2,46.5 6.2,47.4 6.2,82.2 6.2,83 7.1,83 "/>
<path d="M57.5,83h12.2h11.3h0.9v-0.9l0,0V47.4l0,0v-0.9l0,0h-0.9H69.6l0,0H57.5l0,0H46.2h-0.9l0,0v0.9l0,0v34.8l0,0V83h0.9
	C46.2,83,57.5,83,57.5,83z M69.6,70.9H57.5V58.7h12.2C69.6,58.7,69.6,70.9,69.6,70.9z"/>
<path d="M71.4,43.9h0.9v-0.9V8.3V7.5h-0.9H55.7h-0.9v0.9v34.7v0.9h0.9L71.4,43.9L71.4,43.9z M57.5,10.1h12.2v31.3H57.5V10.1z"/>
<path d="M124.2,22.1c2.3,1.2,4.1,2.9,5.4,5.1c1.3,2.2,1.9,4.8,1.9,7.7c0,2.9-0.6,5.5-1.9,7.7c-1.3,2.2-3.1,3.9-5.4,5.1
	c-2.3,1.2-5,1.8-8.1,1.8h-10.2V20.3h10.2C119.1,20.3,121.8,20.9,124.2,22.1z M123,42c1.7-1.7,2.5-4,2.5-7.1c0-3-0.8-5.4-2.5-7.1
	c-1.7-1.7-4-2.6-7.1-2.6h-4.1v19.3h4.1C118.9,44.5,121.3,43.7,123,42z"/>
<path d="M140.9,20.3v29.2H135V20.3H140.9z"/>
<path d="M170.8,49.5h-5.9l-13.3-20v20h-5.9V20.3h5.9l13.3,20.1V20.3h5.9V49.5z"/>
<path d="M181.7,47.9c-2.3-1.3-4.1-3.1-5.4-5.3c-1.3-2.3-2-4.8-2-7.7c0-2.8,0.7-5.4,2-7.7c1.3-2.3,3.1-4,5.4-5.3s4.8-1.9,7.5-1.9
	c2.8,0,5.3,0.6,7.5,1.9c2.3,1.3,4.1,3.1,5.4,5.3c1.3,2.3,2,4.8,2,7.7c0,2.9-0.7,5.4-2,7.7c-1.3,2.3-3.1,4-5.4,5.3
	c-2.3,1.3-4.8,1.9-7.5,1.9S184,49.1,181.7,47.9z M193.9,43.4c1.3-0.8,2.4-1.9,3.1-3.4c0.8-1.5,1.1-3.2,1.1-5.1c0-2-0.4-3.7-1.1-5.1
	c-0.8-1.5-1.8-2.6-3.1-3.4c-1.3-0.8-2.9-1.2-4.6-1.2s-3.3,0.4-4.7,1.2c-1.4,0.8-2.4,1.9-3.2,3.4c-0.8,1.5-1.1,3.2-1.1,5.1
	c0,2,0.4,3.7,1.1,5.1c0.8,1.5,1.8,2.6,3.2,3.4c1.4,0.8,2.9,1.2,4.7,1.2S192.5,44.2,193.9,43.4z"/>
<path d="M234.2,22c2.3,1.2,4.1,2.9,5.3,5.1c1.2,2.2,1.8,4.8,1.8,7.9c0,3-0.6,5.6-1.8,7.8c-1.2,2.2-3,3.9-5.3,5
	c-2.3,1.2-5.1,1.7-8.3,1.7h-8.7V20.3h8.7C229.2,20.3,231.9,20.8,234.2,22z M235.2,43.9c2.1-2.1,3.2-5.1,3.2-8.9c0-3.8-1.1-6.9-3.2-9
	c-2.1-2.2-5.2-3.2-9.3-3.2h-5.7v24.4h5.7C230,47.1,233.1,46,235.2,43.9z"/>
<path d="M268.2,49.5l-4-4.1c-1.4,1.6-2.9,2.7-4.6,3.4c-1.6,0.7-3.4,1.1-5.5,1.1c-2,0-3.7-0.4-5.2-1.1c-1.5-0.7-2.7-1.8-3.5-3.1
	c-0.8-1.3-1.3-2.9-1.3-4.6c0-2.1,0.6-3.9,1.8-5.4c1.2-1.5,2.9-2.7,5.1-3.6c-1-1.1-1.7-2.1-2.1-3c-0.4-0.9-0.7-1.9-0.7-3
	c0-1.9,0.7-3.4,2-4.5c1.3-1.2,3.1-1.7,5.4-1.7c2.1,0,3.8,0.6,5.1,1.8c1.3,1.2,1.9,2.8,1.8,4.7h-2.9c0-1.3-0.4-2.2-1.1-3
	c-0.8-0.7-1.8-1.1-3-1.1c-1.3,0-2.3,0.4-3.1,1.1s-1.2,1.6-1.2,2.7c0,0.9,0.2,1.8,0.7,2.6s1.3,1.8,2.3,3l9.6,9.7
	c0.4-0.5,0.9-1.4,1.6-2.5l2.7-4.5h3.1l-3.2,5.5c-0.8,1.3-1.5,2.5-2.3,3.5l6.1,6.1H268.2z M258.6,46.5c1.3-0.6,2.5-1.6,3.7-3L253,34
	c-3.9,1.4-5.8,3.8-5.8,7c0,1.2,0.3,2.3,0.9,3.3c0.6,1,1.4,1.7,2.5,2.3c1.1,0.6,2.3,0.8,3.6,0.8C255.8,47.4,257.3,47.1,258.6,46.5z"
	/>
<path d="M292.2,22c2.3,1.2,4.1,2.9,5.3,5.1c1.2,2.2,1.8,4.8,1.8,7.9c0,3-0.6,5.6-1.8,7.8s-3,3.9-5.3,5c-2.3,1.2-5.1,1.7-8.3,1.7
	h-8.7V20.3h8.7C287.1,20.3,289.8,20.8,292.2,22z M293.1,43.9c2.1-2.1,3.2-5.1,3.2-8.9c0-3.8-1.1-6.9-3.2-9c-2.1-2.2-5.2-3.2-9.3-3.2
	h-5.7v24.4h5.7C287.9,47.1,291,46,293.1,43.9z"/>
<path d="M107.7,70.3c-0.6-0.3-1-0.6-1.3-1c-0.3-0.4-0.5-1-0.5-1.5h1.5c0.1,0.5,0.3,0.9,0.6,1.3c0.4,0.3,0.9,0.5,1.6,0.5
	c0.7,0,1.2-0.2,1.6-0.5c0.4-0.3,0.6-0.8,0.6-1.3c0-0.4-0.1-0.7-0.3-1c-0.2-0.3-0.5-0.5-0.8-0.6c-0.3-0.1-0.8-0.3-1.4-0.4
	c-0.7-0.2-1.3-0.4-1.7-0.6c-0.4-0.2-0.8-0.5-1.1-0.9c-0.3-0.4-0.5-0.9-0.5-1.6c0-0.6,0.1-1.1,0.4-1.5s0.7-0.8,1.3-1
	c0.5-0.2,1.2-0.4,1.8-0.4c1,0,1.8,0.3,2.5,0.8c0.6,0.5,1,1.2,1.1,2h-1.5c-0.1-0.4-0.3-0.8-0.6-1.1c-0.4-0.3-0.9-0.5-1.5-0.5
	c-0.6,0-1.1,0.2-1.4,0.5c-0.4,0.3-0.6,0.7-0.6,1.3c0,0.4,0.1,0.7,0.3,1s0.5,0.4,0.8,0.6s0.8,0.3,1.4,0.4c0.7,0.2,1.3,0.4,1.7,0.6
	c0.4,0.2,0.8,0.5,1.1,0.9s0.5,0.9,0.5,1.6c0,0.5-0.1,1-0.4,1.5c-0.3,0.5-0.7,0.8-1.2,1.1s-1.2,0.4-1.9,0.4
	C108.9,70.7,108.2,70.6,107.7,70.3z"/>
<path d="M125.8,59.9V61h-2.9v9.6h-1.4V61h-2.9v-1.1H125.8z"/>
<path d="M133,59.9v6.8c0,1,0.2,1.7,0.7,2.1c0.5,0.5,1.1,0.7,1.9,0.7c0.8,0,1.5-0.2,1.9-0.7c0.5-0.5,0.7-1.2,0.7-2.1v-6.8h1.4v6.7
	c0,0.9-0.2,1.6-0.5,2.2s-0.8,1.1-1.4,1.4c-0.6,0.3-1.3,0.4-2,0.4c-0.8,0-1.4-0.1-2-0.4c-0.6-0.3-1.1-0.7-1.4-1.4
	c-0.4-0.6-0.5-1.4-0.5-2.2v-6.7H133z"/>
<path d="M152.4,60.5c0.9,0.4,1.5,1.1,2,1.9s0.7,1.8,0.7,2.9c0,1.1-0.2,2-0.7,2.8s-1.1,1.4-2,1.8c-0.9,0.4-1.9,0.6-3,0.6H146V59.9
	h3.3C150.5,59.9,151.6,60.1,152.4,60.5z M152.5,68.3c0.7-0.7,1.1-1.8,1.1-3.1c0-1.3-0.4-2.4-1.1-3.1c-0.7-0.7-1.8-1.1-3.2-1.1h-1.9
	v8.4h1.9C150.8,69.4,151.8,69.1,152.5,68.3z"/>
<path d="M162.4,59.9v10.7H161V59.9H162.4z"/>
<path d="M170.9,70c-0.8-0.5-1.5-1.1-1.9-1.9c-0.5-0.8-0.7-1.8-0.7-2.8s0.2-2,0.7-2.8c0.5-0.8,1.1-1.5,1.9-1.9
	c0.8-0.5,1.7-0.7,2.7-0.7c1,0,1.9,0.2,2.7,0.7c0.8,0.5,1.5,1.1,1.9,1.9c0.5,0.8,0.7,1.8,0.7,2.8c0,1.1-0.2,2-0.7,2.8
	c-0.5,0.8-1.1,1.5-1.9,1.9c-0.8,0.5-1.7,0.7-2.7,0.7C172.6,70.7,171.7,70.5,170.9,70z M175.7,69c0.6-0.3,1.1-0.8,1.4-1.5
	c0.3-0.6,0.5-1.4,0.5-2.2c0-0.9-0.2-1.6-0.5-2.2c-0.3-0.6-0.8-1.1-1.4-1.5c-0.6-0.3-1.3-0.5-2-0.5s-1.4,0.2-2,0.5
	c-0.6,0.3-1.1,0.8-1.4,1.5c-0.3,0.6-0.5,1.4-0.5,2.2c0,0.8,0.2,1.6,0.5,2.2c0.3,0.6,0.8,1.1,1.4,1.5c0.6,0.3,1.3,0.5,2,0.5
	C174.4,69.5,175.1,69.3,175.7,69z"/>
</svg>
