<?xml version="1.0" encoding="utf-8"?>
<!-- Generator: Adobe Illustrator 27.9.0, SVG Export Plug-In . SVG Version: 6.00 Build 0)  -->
<svg version="1.1" id="Layer_1" xmlns="http://www.w3.org/2000/svg" xmlns:xlink="http://www.w3.org/1999/xlink" x="0px" y="0px"
	 viewBox="0 0 600 85.8" style="enable-background:new 0 0 600 85.8;" xml:space="preserve">
<style type="text/css">
	.st0{fill:#FFFFFF;}
	.st1{fill:#F8981D;}
</style>
<path class="st0" d="M532.43,86.05c0,0,0-16.7,0-23.4c0-14.5-7.2-18.6-27.9-18.6c-0.2,0-40.8,0-40.8,0v42h25.8v-28.4
	c0,0,5.1,0,6.9,0c7.7,0,10.3,4.5,10.3,9.3c0,2.5,0,19.1,0,19.1H532.43L532.43,86.05z M458.83,57.95c0-0.5,0-1.1,0-1.7
	c0-6.9-4-12.2-21.9-12.2c-4.8,0-20.8,0-26.4,0c-16.7,0-23.6,5.7-23.6,18.1c0,2.4,0,5.1,0,7.4c0,10.5,6.9,16.5,21.7,16.5h47.1v-12.3
	h-38c-3.7,0-5.1-1.1-5.1-4v-0.4c3,0,22.4,0,29.5,0C452.53,69.35,458.83,65.85,458.83,57.95L458.83,57.95z M434.43,58.95
	c0,1.9-0.8,2.9-3.8,2.9h-18.1v-1.5c0-2.4,1-4,3.9-4s14.1,0,14.1,0C432.83,56.25,434.43,57.15,434.43,58.95L434.43,58.95z
	 M368.03,56.75h16.1v-12.7c0,0-20.1,0-33.1,0c-5.3,0-8.6,2.8-8.6,7.4c0,2.2,0,34.6,0,34.6h25.6V56.75L368.03,56.75z M336.83,69.75
	c0-2.4,0-6.9,0-9.1c0-10.5-6.9-16.5-21.7-16.5h-46v12.2h37c3.7,0,5.1,1.2,5.1,4v0.4c-3,0-22.4,0-29.5,0c-12.5,0-16.6,5.3-16.6,12.1
	c0,0.5,0,0.7,0,1.3c0,3.1,0.9,5.7,2.7,7.4c3.6,3.5,10.5,4.5,19.9,4.5c4.8,0,20,0,25.6,0C329.93,86.05,336.83,82.15,336.83,69.75
	L336.83,69.75z M311.13,69.75c0,2.4-1,4-3.9,4s-13.9,0-13.9,0c-2.4,0-3.8-0.7-3.8-2.6s0.9-3.1,3.8-3.1h17.8V69.75L311.13,69.75z
	 M261.23,86.05v-12.7h-19.8v-36h-25.7v48.7H261.23 M168.53,86.05c6.4,0,41.5,0,41.5,0v-12.7c0,0-31,0-34,0c-3.3,0-6.6-1.8-6.6-8.1
	v-0.9c0-5.5,2.8-7.7,6.4-7.7c1.6,0,25.5,0,34.2,0v-12.7c-12.2,0-42.2,0-42.3,0c-17.2,0-24.2,7.5-24.2,19.1v3.9
	C143.43,80.65,150.93,86.05,168.53,86.05L168.53,86.05z M112.43,86.05h25.8v-48.7c0,0-7.4,0-15,0c-6.2,0-10.6,2.6-14.8,6.3
	c-4.7,4.1-21.7,18.9-21.7,18.9v-25.2c0,0-6.9,0-15.2,0c-8.6,0-12.9,2.9-17.7,6.7c-3.3,2.6-53.9,42-53.9,42h30.6l30.3-24.9v24.9h24.5
	l27.1-24.7V86.05L112.43,86.05z"/>
<path class="st1" d="M580.23,0.25c-13.2,0-31.9,4-52.1,11.3c-16.8,6.2-33.5,14-51.5,25.4c10.5-4.3,31.4-9.2,48.5-9.2
	c23.2,0,39.7,8.9,15.3,40C612.33,20.75,610.33,0.25,580.23,0.25"/>
</svg>
