<?xml version="1.0" encoding="utf-8"?>
<!-- Generator: Adobe Illustrator 27.0.0, SVG Export Plug-In . SVG Version: 6.00 Build 0)  -->
<svg version="1.1" id="Layer_1" xmlns="http://www.w3.org/2000/svg" xmlns:xlink="http://www.w3.org/1999/xlink" x="0px" y="0px"
	 viewBox="0 0 572.78 169.67" style="enable-background:new 0 0 572.78 169.67;" xml:space="preserve">
<style type="text/css">
	.st0{fill-rule:evenodd;clip-rule:evenodd;fill:#FBFCFC;}
	.st1{fill-rule:evenodd;clip-rule:evenodd;fill:#010101;}
	.st2{fill-rule:evenodd;clip-rule:evenodd;fill:#CDCFD4;}
	.st3{fill-rule:evenodd;clip-rule:evenodd;fill:#040404;}
	.st4{fill:none;stroke:#040404;stroke-width:0.2;}
	.st5{fill:#FFFFFF;}
	.st6{fill-rule:evenodd;clip-rule:evenodd;fill:#FFFFFF;}
</style>
<path class="st0" d="M551.44,169.31H21.29c-11.66,0-21.21-9.54-21.21-21.21V20.87c0-11.66,9.54-21.21,21.21-21.21h530.15
	c11.66,0,21.21,9.54,21.21,21.21v127.24C572.65,159.77,563.11,169.31,551.44,169.31"/>
<g>
	<ellipse class="st1" cx="239.05" cy="112.22" rx="18.11" ry="18.04"/>
	<ellipse class="st1" cx="278.55" cy="112.22" rx="18.11" ry="18.04"/>
</g>
<path class="st2" d="M551.44-0.33H21.29C9.63-0.33,0.08,9.21,0.08,20.88v127.24c0,11.66,9.54,21.21,21.21,21.21h530.15
	c11.66,0,21.21-9.54,21.21-21.21V20.87C572.65,9.21,563.11-0.33,551.44-0.33 M551.44,3.06c9.82,0,17.81,7.99,17.81,17.81v127.24
	c0,9.82-7.99,17.81-17.81,17.81H21.29c-9.82,0-17.81-7.99-17.81-17.81V20.87c0-9.82,7.99-17.81,17.81-17.81H551.44"/>
<path class="st3" d="M201.2,43.11c0,3.56-1.05,6.38-3.16,8.5c-2.4,2.51-5.51,3.76-9.35,3.76c-3.67,0-6.8-1.27-9.36-3.82
	c-2.58-2.54-3.86-5.71-3.86-9.47c0-3.77,1.28-6.93,3.86-9.47c2.56-2.54,5.69-3.82,9.36-3.82c1.82,0,3.57,0.36,5.22,1.06
	c1.66,0.71,2.99,1.66,3.98,2.84l-2.24,2.24c-1.68-2.01-4-3.02-6.97-3.02c-2.68,0-4.99,0.94-6.95,2.83
	c-1.96,1.89-2.93,4.33-2.93,7.34s0.98,5.45,2.93,7.34c1.95,1.89,4.27,2.82,6.95,2.82c2.84,0,5.21-0.95,7.11-2.84
	c1.23-1.24,1.94-2.95,2.13-5.15h-9.24v-3.06h12.33C201.14,41.85,201.2,42.49,201.2,43.11"/>
<path class="st4" d="M201.2,43.11c0,3.56-1.05,6.38-3.16,8.5c-2.4,2.51-5.51,3.76-9.35,3.76c-3.67,0-6.8-1.27-9.36-3.82
	c-2.58-2.54-3.86-5.71-3.86-9.47c0-3.77,1.28-6.93,3.86-9.47c2.56-2.54,5.69-3.82,9.36-3.82c1.82,0,3.57,0.36,5.22,1.06
	c1.66,0.71,2.99,1.66,3.98,2.84l-2.24,2.24c-1.68-2.01-4-3.02-6.97-3.02c-2.68,0-4.99,0.94-6.95,2.83
	c-1.96,1.89-2.93,4.33-2.93,7.34s0.98,5.45,2.93,7.34c1.95,1.89,4.27,2.82,6.95,2.82c2.84,0,5.21-0.95,7.11-2.84
	c1.23-1.24,1.94-2.95,2.13-5.15h-9.24v-3.06h12.33C201.14,41.85,201.2,42.49,201.2,43.11L201.2,43.11z"/>
<path class="st3" d="M220.75,32.48h-11.59v8.07h10.44v3.06h-10.44v8.07h11.59v3.13h-14.86V29.36h14.86V32.48z"/>
<path class="st4" d="M220.75,32.48h-11.59v8.07h10.44v3.06h-10.44v8.07h11.59v3.13h-14.86V29.36h14.86V32.48z"/>
<path class="st3" d="M234.53,54.8h-3.27V32.48h-7.11v-3.13h17.49v3.13h-7.11L234.53,54.8L234.53,54.8z"/>
<path class="st4" d="M234.53,54.8h-3.27V32.48h-7.11v-3.13h17.49v3.13h-7.11L234.53,54.8L234.53,54.8z"/>
<path class="st3" d="M254.29,54.8h3.27V29.35h-3.27V54.8z"/>
<path class="st4" d="M254.29,54.8h3.27V29.35h-3.27V54.8z"/>
<path class="st3" d="M272.07,54.8h-3.27V32.48h-7.11v-3.13h17.49v3.13h-7.11L272.07,54.8L272.07,54.8z"/>
<path class="st4" d="M272.07,54.8h-3.27V32.48h-7.11v-3.13h17.49v3.13h-7.11L272.07,54.8L272.07,54.8z"/>
<path class="st3" d="M296.03,49.38c1.88,1.91,4.19,2.86,6.92,2.86c2.72,0,5.02-0.95,6.91-2.86c1.88-1.91,2.83-4.34,2.83-7.3
	s-0.95-5.4-2.83-7.3c-1.88-1.91-4.19-2.86-6.91-2.86c-2.73,0-5.03,0.96-6.91,2.86s-2.83,4.34-2.83,7.3S294.15,47.47,296.03,49.38
	 M312.28,51.51c-2.51,2.58-5.61,3.86-9.33,3.86s-6.83-1.28-9.33-3.86c-2.5-2.57-3.75-5.71-3.75-9.43s1.25-6.87,3.75-9.44
	s5.6-3.86,9.32-3.86c3.7,0,6.8,1.29,9.31,3.87s3.76,5.72,3.76,9.42C316.03,45.8,314.78,48.94,312.28,51.51"/>
<path class="st4" d="M296.03,49.38c1.88,1.91,4.19,2.86,6.92,2.86c2.72,0,5.02-0.95,6.91-2.86c1.88-1.91,2.83-4.34,2.83-7.3
	s-0.95-5.4-2.83-7.3c-1.88-1.91-4.19-2.86-6.91-2.86c-2.73,0-5.03,0.96-6.91,2.86s-2.83,4.34-2.83,7.3S294.15,47.47,296.03,49.38z
	 M312.28,51.51c-2.51,2.58-5.61,3.86-9.33,3.86s-6.83-1.28-9.33-3.86c-2.5-2.57-3.75-5.71-3.75-9.43s1.25-6.87,3.75-9.44
	s5.6-3.86,9.32-3.86c3.7,0,6.8,1.29,9.31,3.87s3.76,5.72,3.76,9.42C316.03,45.8,314.78,48.94,312.28,51.51L312.28,51.51z"/>
<path class="st3" d="M320.62,54.8V29.35h3.98l12.37,19.79h0.14l-0.14-4.9V29.35h3.28V54.8h-3.42l-12.94-20.76h-0.14l0.14,4.91V54.8
	H320.62z"/>
<path class="st4" d="M320.62,54.8V29.35h3.98l12.37,19.79h0.14l-0.14-4.9V29.35h3.28V54.8h-3.42l-12.94-20.76h-0.14l0.14,4.91V54.8
	H320.62z"/>
<rect x="443.12" y="76.15" class="st1" width="7.91" height="53.02"/>
<polygon class="st1" points="514.4,95.25 505.33,118.24 505.05,118.24 495.64,95.25 487.11,95.25 501.23,127.37 493.18,145.25 
	501.43,145.25 523.19,95.25 "/>
<path class="st1" d="M470.47,94.09c-5.73,0-11.66,2.52-14.12,8.12l7.02,2.93c1.5-2.93,4.3-3.89,7.23-3.89
	c4.09,0,8.25,2.46,8.32,6.82v0.55c-1.44-0.82-4.5-2.04-8.25-2.04c-7.58,0-15.28,4.16-15.28,11.93c0,7.1,6.21,11.67,13.17,11.67
	c5.31,0,8.25-2.39,10.09-5.19h0.27v4.09h7.64v-20.33C486.57,99.34,479.54,94.09,470.47,94.09z"/>
<path class="st1" d="M421.36,76.15H402.4v53.02h7.91v-20.09h11.05c8.77,0,17.39-6.35,17.39-16.47
	C438.75,82.5,430.13,76.15,421.36,76.15L421.36,76.15z"/>
<path class="st1" d="M327.03,98.21h-0.27c-1.78-2.12-5.2-4.04-9.49-4.04c-9.02,0-17.29,7.93-17.29,18.11
	c0,10.11,8.27,17.97,17.29,17.97c4.3,0,7.72-1.91,9.49-4.09h0.27v2.59c0,6.9-3.69,10.59-9.63,10.59c-4.85,0-7.86-3.48-9.09-6.42
	l-6.9,2.87c1.98,4.78,7.24,10.66,15.99,10.66c9.3,0,17.15-5.47,17.15-18.79V95.27h-7.52V98.21L327.03,98.21z"/>
<polygon class="st1" points="340.02,129.17 347.95,129.17 347.95,76.15 340.02,76.15 "/>
<path class="st1" d="M384.23,105.66c-1.5-4.03-6.08-11.48-15.44-11.48c-9.29,0-17.01,7.32-17.01,18.04
	c0,10.11,7.65,18.04,17.9,18.04c8.27,0,13.05-5.06,15.04-8l-6.15-4.1c-2.06,3.01-4.85,4.99-8.89,4.99c-4.03,0-6.9-1.85-8.74-5.47
	l24.12-9.98L384.23,105.66L384.23,105.66z"/>
<path class="st1" d="M192.07,99.72v7.65h18.32c-0.55,4.31-1.99,7.45-4.17,9.63c-2.67,2.67-6.84,5.6-14.15,5.6
	c-11.28,0-20.09-9.09-20.09-20.36c0-11.27,8.82-20.36,20.09-20.36c6.08,0,10.52,2.39,13.8,5.46l5.4-5.4
	c-4.58-4.37-10.66-7.72-19.2-7.72c-15.44,0-28.42,12.58-28.42,28.02s12.98,28.01,28.42,28.01c8.34,0,14.62-2.73,19.54-7.86
	c5.05-5.06,6.63-12.16,6.63-17.9c0-1.77-0.13-3.41-0.41-4.78L192.07,99.72L192.07,99.72z"/>
<g>
	<path class="st1" d="M94.69,84.48L43.32,33.21c-0.59,1.19-0.94,2.65-0.94,4.42v93.72c0,1.79,0.36,3.28,0.97,4.47L94.69,84.48z"/>
	<path class="st1" d="M43.47,32.88c0.02-0.05,0.05-0.09,0.08-0.14C43.52,32.79,43.5,32.84,43.47,32.88z"/>
	<path class="st1" d="M97.66,81.51l15.82-15.82L53.16,31.42c-1.71-0.98-3.32-1.44-4.76-1.44c-0.73,0-1.4,0.13-2.02,0.36L97.66,81.51
		z"/>
	<path class="st1" d="M135.79,78.37L117.3,67.86L100.66,84.5l16.64,16.6l18.49-10.51C141.71,87.24,141.71,81.73,135.79,78.37z"/>
	<path class="st1" d="M97.7,87.48l-51.17,51.19c1.83,0.62,4.12,0.32,6.63-1.1l60.36-34.31L97.7,87.48z"/>
	<path class="st1" d="M43.42,135.98c0.24,0.44,0.51,0.84,0.82,1.18C43.93,136.8,43.64,136.42,43.42,135.98z"/>
</g>
<g>
	<path class="st5" d="M239.05,101.29c-5.46,0-10.18,4.44-10.18,10.93c0,6.42,4.71,10.94,10.18,10.94s10.18-4.51,10.18-10.94
		C249.23,105.73,244.52,101.29,239.05,101.29z"/>
	<path class="st5" d="M278.55,123.16L278.55,123.16L278.55,123.16z"/>
	<path class="st5" d="M288.73,112.22c0-6.49-4.71-10.93-10.18-10.93c-5.46,0-10.18,4.44-10.18,10.93c0,6.42,4.71,10.94,10.18,10.94
		S288.73,118.64,288.73,112.22z"/>
</g>
<path class="st0" d="M317.95,123.16c-5.46,0-10.04-4.58-10.04-10.86c0-6.36,4.58-11,10.05-11c5.39,0,9.63,4.65,9.63,11
	C327.58,118.58,323.34,123.15,317.95,123.16L317.95,123.16z"/>
<path class="st6" d="M421.56,101.7H410.3V83.53h11.26c5.92,0,9.28,4.9,9.28,9.08C430.83,96.72,427.47,101.7,421.56,101.7z"/>
<path class="st6" d="M359.63,111.68c-0.2-6.97,5.4-10.52,9.44-10.52c3.14,0,5.81,1.58,6.69,3.83L359.63,111.68L359.63,111.68z"/>
<path class="st0" d="M469.51,123.15c-2.59,0-6.21-1.3-6.21-4.5c0-4.09,4.5-5.66,8.39-5.66c3.47,0,5.12,0.75,7.23,1.77
	C478.31,119.67,474.08,123.15,469.51,123.15z"/>
</svg>
