<?xml version="1.0" encoding="utf-8"?>
<!-- Generator: Adobe Illustrator 27.0.0, SVG Export Plug-In . SVG Version: 6.00 Build 0)  -->
<svg version="1.1" id="Layer_1" xmlns="http://www.w3.org/2000/svg" xmlns:xlink="http://www.w3.org/1999/xlink" x="0px" y="0px"
	 viewBox="0 0 572.78 169.67" style="enable-background:new 0 0 572.78 169.67;" xml:space="preserve">
<style type="text/css">
	.st0{fill:#CDCFD4;}
	.st1{fill:#FBFCFC;}
	.st2{fill:#040404;}
</style>
<g>
	<path class="st0" d="M467.09-0.32H40.42c-1.56,0-3.09,0-4.64,0.01c-1.3,0.01-2.59,0.03-3.9,0.05c-2.85,0.03-5.69,0.28-8.5,0.75
		c-2.81,0.48-5.52,1.37-8.06,2.66c-2.54,1.3-4.85,2.99-6.87,5c-2.02,2.01-3.71,4.33-5,6.88c-1.29,2.54-2.18,5.26-2.65,8.07
		c-0.47,2.81-0.73,5.64-0.76,8.49c-0.04,1.3-0.05,2.6-0.07,3.91v98.03c0.02,1.32,0.03,2.59,0.07,3.91c0.03,2.84,0.29,5.68,0.76,8.49
		c0.47,2.81,1.36,5.54,2.65,8.08c1.29,2.53,2.97,4.85,5,6.84c2.01,2.02,4.32,3.71,6.86,5s5.26,2.19,8.06,2.68
		c2.81,0.46,5.65,0.71,8.5,0.75c1.31,0.03,2.6,0.04,3.9,0.04c1.55,0.01,3.09,0.01,4.64,0.01h491.92c1.52,0,3.07,0,4.6-0.01
		c1.29,0,2.62-0.02,3.91-0.05c2.84-0.03,5.68-0.28,8.48-0.75c2.82-0.48,5.54-1.39,8.09-2.68c2.54-1.29,4.86-2.98,6.86-5
		c2.02-2,3.71-4.32,5.01-6.84c1.28-2.54,2.17-5.27,2.63-8.08c0.47-2.81,0.73-5.64,0.79-8.49c0.02-1.32,0.02-2.59,0.02-3.91
		c0.03-1.54,0.03-3.07,0.03-4.64V40.12c0-1.55,0-3.09-0.03-4.63c0-1.3,0-2.6-0.02-3.91c-0.05-2.84-0.31-5.68-0.79-8.49
		c-0.46-2.81-1.35-5.53-2.63-8.07c-2.62-5.1-6.77-9.26-11.87-11.88c-2.55-1.29-5.28-2.18-8.09-2.66c-2.81-0.47-5.64-0.72-8.48-0.75
		c-1.29-0.02-2.62-0.05-3.91-0.06c-1.52-0.01-3.07-0.01-4.6-0.01h-65.24V-0.32z"/>
	<path class="st1" d="M35.8,165.62c-1.29,0-2.55-0.02-3.83-0.04c-2.66-0.04-5.31-0.27-7.93-0.69c-2.45-0.42-4.81-1.21-7.03-2.33
		c-2.19-1.11-4.19-2.56-5.92-4.31c-1.76-1.73-3.22-3.73-4.33-5.92c-1.12-2.21-1.9-4.58-2.3-7.03c-0.43-2.63-0.67-5.29-0.7-7.95
		c-0.03-0.89-0.07-3.87-0.07-3.87V35.51c0,0,0.04-2.94,0.07-3.79c0.03-2.66,0.27-5.32,0.7-7.94c0.4-2.45,1.18-4.83,2.31-7.05
		c1.11-2.2,2.56-4.2,4.31-5.93c1.74-1.75,3.75-3.21,5.94-4.34c2.21-1.11,4.57-1.89,7.01-2.3c2.63-0.43,5.29-0.67,7.95-0.7l3.83-0.05
		h501.11l3.87,0.06c2.64,0.03,5.28,0.26,7.88,0.69c2.46,0.42,4.85,1.2,7.09,2.33c4.4,2.27,7.98,5.86,10.24,10.26
		c1.1,2.21,1.87,4.56,2.27,6.99c0.44,2.65,0.69,5.32,0.74,8c0.01,1.2,0.01,2.49,0.01,3.78c0.03,1.59,0.03,3.1,0.03,4.63v88.76
		c0,1.54,0,3.04-0.03,4.56c0,1.38,0,2.64-0.02,3.94c-0.05,2.63-0.29,5.26-0.72,7.86c-0.39,2.46-1.17,4.85-2.29,7.08
		c-1.12,2.17-2.57,4.16-4.31,5.88c-1.73,1.75-3.74,3.22-5.94,4.34c-2.23,1.13-4.61,1.92-7.07,2.33c-2.62,0.42-5.27,0.66-7.93,0.69
		c-1.24,0.03-2.54,0.05-3.81,0.05l-4.6,0.01L35.8,165.62L35.8,165.62z"/>
	<g>
		<path class="st2" d="M138.62,84.04c0.1-7.48,4.02-14.39,10.39-18.31c-4.04-5.77-10.56-9.3-17.6-9.52
			c-7.41-0.78-14.58,4.43-18.36,4.43c-3.85,0-9.66-4.36-15.91-4.23c-8.23,0.27-15.72,4.84-19.73,12.03
			c-8.53,14.77-2.17,36.47,6,48.41c4.09,5.85,8.87,12.37,15.12,12.14c6.12-0.25,8.4-3.9,15.79-3.9c7.31,0,9.46,3.9,15.84,3.75
			c6.56-0.1,10.7-5.87,14.64-11.77c2.94-4.17,5.2-8.77,6.7-13.64C143.7,100.14,138.63,92.5,138.62,84.04z M126.58,48.36
			c3.58-4.3,5.34-9.82,4.92-15.4c-5.47,0.57-10.52,3.19-14.15,7.32c-3.58,4.08-5.4,9.41-5.04,14.82
			C117.84,55.16,123.1,52.67,126.58,48.36L126.58,48.36z"/>
		<g>
			<path class="st2" d="M212.02,114.79h-20.07l-4.83,14.23h-8.5l19.01-52.67h8.83l19.02,52.67h-8.65L212.02,114.79z M194.02,108.22
				h15.91l-7.85-23.1h-0.22C201.87,85.12,194.02,108.22,194.02,108.22z M266.55,109.82c0,11.93-6.39,19.6-16.03,19.6
				c-4.98,0.26-9.67-2.35-12.08-6.72h-0.18v19.02h-7.88v-51.1h7.63v6.39h0.14c2.51-4.34,7.21-6.95,12.23-6.79
				C260.13,90.23,266.55,97.93,266.55,109.82L266.55,109.82z M258.45,109.82c0-7.77-4.02-12.88-10.15-12.88
				c-6.02,0-10.07,5.22-10.07,12.89c0,7.74,4.05,12.92,10.07,12.92C254.43,122.75,258.45,117.67,258.45,109.82L258.45,109.82z
				 M308.81,109.82c0,11.93-6.39,19.6-16.03,19.6c-4.98,0.26-9.67-2.35-12.08-6.72h-0.18v19.02h-7.88v-51.1h7.63v6.39h0.14
				c2.52-4.34,7.21-6.95,12.23-6.79C302.39,90.23,308.81,97.93,308.81,109.82L308.81,109.82z M300.71,109.82
				c0-7.77-4.02-12.88-10.15-12.88c-6.02,0-10.07,5.22-10.07,12.89c0,7.74,4.05,12.92,10.07,12.92
				C296.69,122.75,300.71,117.67,300.71,109.82L300.71,109.82z M336.74,114.35c0.59,5.22,5.66,8.65,12.59,8.65
				c6.64,0,11.42-3.43,11.42-8.14c0-4.09-2.88-6.53-9.71-8.21l-6.83-1.64c-9.67-2.34-14.16-6.86-14.16-14.2
				c0-9.09,7.92-15.33,19.16-15.33c11.13,0,18.76,6.24,19.02,15.33h-7.96c-0.48-5.26-4.82-8.43-11.17-8.43s-10.69,3.21-10.69,7.88
				c0,3.73,2.78,5.91,9.57,7.59l5.8,1.43c10.81,2.55,15.29,6.9,15.29,14.6c0,9.85-7.85,16.03-20.33,16.03
				c-11.68,0-19.57-6.03-20.08-15.55C328.67,114.35,336.74,114.35,336.74,114.35z M386.1,81.54v9.09h7.3v6.24h-7.3v21.17
				c0,3.29,1.46,4.82,4.67,4.82c0.87-0.02,1.73-0.08,2.59-0.18v6.2c-1.45,0.27-2.91,0.39-4.38,0.37c-7.77,0-10.81-2.92-10.81-10.36
				V96.88h-5.59v-6.24h5.59v-9.1H386.1L386.1,81.54z M397.62,109.82c0-12.08,7.12-19.67,18.21-19.67c11.13,0,18.22,7.59,18.22,19.67
				c0,12.12-7.05,19.67-18.22,19.67C404.67,129.5,397.62,121.94,397.62,109.82z M426.02,109.82c0-8.29-3.8-13.18-10.19-13.18
				c-6.38,0-10.18,4.93-10.18,13.18c0,8.32,3.8,13.17,10.18,13.17C422.22,123,426.02,118.15,426.02,109.82L426.02,109.82z
				 M440.55,90.62h7.52v6.53h0.18c1.05-4.21,4.9-7.1,9.23-6.94c0.91,0,1.82,0.1,2.7,0.29v7.37c-1.15-0.35-2.34-0.51-3.54-0.48
				c-2.32-0.09-4.56,0.83-6.14,2.53s-2.34,4-2.07,6.31V129h-7.89V90.62H440.55z M496.53,117.74c-1.06,6.97-7.85,11.75-16.53,11.75
				c-11.17,0-18.1-7.48-18.1-19.49c0-12.04,6.97-19.86,17.77-19.86c10.62,0,17.3,7.3,17.3,18.94v2.7h-27.12v0.48
				c-0.25,2.86,0.73,5.69,2.71,7.77c1.98,2.08,4.75,3.21,7.62,3.11c3.83,0.36,7.43-1.84,8.87-5.4H496.53z M469.88,106.28h19.2
				c0.14-2.57-0.79-5.08-2.58-6.93c-1.79-1.85-4.27-2.87-6.84-2.82c-2.59-0.02-5.08,1-6.92,2.84
				C470.91,101.2,469.87,103.69,469.88,106.28z"/>
		</g>
	</g>
	<g>
		<path class="st2" d="M193.04,36.71c3.35-0.24,6.62,1.03,8.93,3.47c2.31,2.43,3.4,5.77,2.98,9.1c0,8.09-4.37,12.73-11.91,12.73
			h-9.14V36.7L193.04,36.71L193.04,36.71z M187.83,58.44h4.77c2.39,0.14,4.72-0.8,6.34-2.56s2.36-4.17,2.01-6.54
			c0.32-2.36-0.42-4.74-2.04-6.49s-3.93-2.69-6.31-2.56h-4.77V58.44z M209.38,52.46c-0.33-3.43,1.31-6.74,4.23-8.55
			c2.92-1.82,6.62-1.82,9.54,0c2.92,1.81,4.56,5.12,4.23,8.55c0.33,3.43-1.3,6.74-4.23,8.56c-2.92,1.82-6.62,1.82-9.55,0
			C210.69,59.21,209.05,55.89,209.38,52.46z M223.52,52.46c0-4.14-1.86-6.56-5.12-6.56c-3.28,0-5.12,2.42-5.12,6.56
			c0,4.18,1.84,6.58,5.12,6.58C221.66,59.04,223.52,56.62,223.52,52.46z M251.34,62.02h-3.91l-3.95-14.06h-0.3l-3.93,14.06h-3.87
			l-5.27-19.1h3.82l3.42,14.57h0.28l3.92-14.57h3.62l3.92,14.57h0.3l3.4-14.57h3.77L251.34,62.02z M261.01,42.92h3.63v3.03h0.28
			c0.98-2.23,3.27-3.6,5.7-3.4c1.88-0.14,3.73,0.58,5.01,1.96c1.29,1.38,1.88,3.27,1.6,5.14v12.36h-3.77V50.59
			c0-3.07-1.33-4.59-4.12-4.59c-1.28-0.06-2.52,0.44-3.39,1.37c-0.88,0.93-1.3,2.2-1.17,3.47v11.17h-3.77L261.01,42.92L261.01,42.92
			z M283.24,35.46h3.77v26.55h-3.77V35.46z M292.24,52.46c-0.33-3.43,1.31-6.74,4.24-8.55c2.92-1.82,6.62-1.82,9.54,0
			c2.92,1.81,4.57,5.12,4.24,8.55c0.33,3.43-1.3,6.74-4.23,8.56c-2.93,1.82-6.63,1.82-9.55,0
			C293.55,59.21,291.91,55.89,292.24,52.46z M306.38,52.46c0-4.14-1.86-6.56-5.12-6.56c-3.28,0-5.12,2.42-5.12,6.56
			c0,4.18,1.84,6.58,5.12,6.58C304.52,59.04,306.38,56.62,306.38,52.46z M314.23,56.62c0-3.44,2.56-5.42,7.1-5.7l5.17-0.3v-1.65
			c0-2.02-1.33-3.15-3.91-3.15c-2.1,0-3.56,0.77-3.98,2.12h-3.65c0.38-3.28,3.47-5.38,7.8-5.38c4.79,0,7.49,2.38,7.49,6.42v13.05
			h-3.63v-2.69h-0.3c-1.23,1.96-3.43,3.11-5.74,3c-1.62,0.17-3.24-0.36-4.45-1.45C314.93,59.8,314.23,58.25,314.23,56.62z
			 M326.5,54.99v-1.6l-4.67,0.3c-2.63,0.18-3.82,1.07-3.82,2.76c0,1.72,1.49,2.72,3.54,2.72c1.21,0.12,2.43-0.25,3.36-1.04
			C325.85,57.33,326.42,56.2,326.5,54.99L326.5,54.99z M335.21,52.46c0-6.04,3.1-9.86,7.93-9.86c2.43-0.11,4.72,1.19,5.86,3.35h0.28
			V35.46h3.77v26.56h-3.61V59h-0.3c-1.22,2.14-3.54,3.43-6,3.33C338.28,62.33,335.21,58.51,335.21,52.46z M339.1,52.46
			c0,4.05,1.91,6.49,5.1,6.49c3.18,0,5.14-2.47,5.14-6.47c0-3.98-1.99-6.49-5.14-6.49C341.04,45.99,339.1,48.44,339.1,52.46z
			 M368.64,52.46c-0.33-3.43,1.31-6.74,4.23-8.55c2.92-1.82,6.62-1.82,9.54,0c2.92,1.81,4.56,5.12,4.23,8.55
			c0.33,3.43-1.3,6.74-4.23,8.56c-2.92,1.82-6.62,1.82-9.55,0C369.94,59.21,368.3,55.89,368.64,52.46z M382.78,52.46
			c0-4.14-1.86-6.56-5.12-6.56c-3.28,0-5.12,2.42-5.12,6.56c0,4.18,1.84,6.58,5.12,6.58C380.92,59.04,382.78,56.62,382.78,52.46z
			 M391.71,42.92h3.63v3.03h0.28c0.98-2.23,3.27-3.6,5.7-3.4c1.88-0.14,3.73,0.58,5.01,1.96c1.29,1.38,1.87,3.27,1.6,5.14v12.36
			h-3.77V50.59c0-3.07-1.33-4.59-4.12-4.59c-1.28-0.06-2.51,0.44-3.39,1.37c-0.87,0.93-1.3,2.2-1.16,3.47v11.17h-3.77V42.92H391.71z
			 M429.23,38.17v4.84h4.14v3.17h-4.14V56c0,2,0.82,2.88,2.7,2.88c0.48,0,0.96-0.03,1.44-0.09v3.14c-0.68,0.12-1.36,0.19-2.05,0.2
			c-4.19,0-5.86-1.48-5.86-5.16V46.18h-3.04v-3.17h3.03v-4.84H429.23z M438.51,35.46h3.74v10.52h0.3c1.02-2.25,3.35-3.62,5.82-3.42
			c1.87-0.1,3.69,0.64,4.97,2.01c1.27,1.38,1.86,3.25,1.61,5.11v12.33h-3.77V50.6c0-3.05-1.42-4.6-4.08-4.6
			c-1.31-0.11-2.6,0.37-3.53,1.31c-0.93,0.93-1.39,2.23-1.28,3.54v11.16h-3.77L438.51,35.46L438.51,35.46z M476.92,56.86
			c-1.06,3.6-4.54,5.93-8.28,5.52c-2.54,0.07-4.99-0.99-6.69-2.89s-2.48-4.45-2.13-6.97c-0.34-2.53,0.44-5.09,2.13-7
			c1.69-1.92,4.12-3,6.68-2.98c5.31,0,8.52,3.63,8.52,9.63v1.31h-13.48v0.21c-0.12,1.42,0.37,2.82,1.33,3.86
			c0.97,1.04,2.33,1.63,3.75,1.61c1.85,0.22,3.64-0.69,4.55-2.32L476.92,56.86L476.92,56.86z M463.67,50.71h9.65
			c0.09-1.3-0.36-2.57-1.26-3.51c-0.89-0.95-2.15-1.46-3.45-1.44c-1.32-0.02-2.59,0.5-3.52,1.44
			C464.16,48.12,463.65,49.39,463.67,50.71z"/>
	</g>
</g>
</svg>
